<svg xmlns="http://www.w3.org/2000/svg" width="500" height="500" viewBox="0 0 500 500"><path d="M472.392 0h-444.797c-15.242 0-27.595 12.353-27.595 27.595v444.797c0 15.239 12.353 27.595 27.595 27.595h239.465v-193.62h-65.158v-75.459h65.158v-55.648c0-64.58 39.441-99.744 97.051-99.744 27.595 0 51.311 2.055 58.225 2.974v67.488l-39.956.019c-31.331 0-37.396 14.888-37.396 36.735v48.176h74.721l-9.729 75.459h-64.991v193.62h127.409c15.239 0 27.595-12.355 27.595-27.595v-444.797c-.003-15.242-12.358-27.595-27.597-27.595z"/></svg>