<?xml version="1.0" encoding="utf-8"?>
<!-- Generator: Adobe Illustrator 16.0.4, SVG Export Plug-In . SVG Version: 6.00 Build 0)  -->
<!DOCTYPE svg PUBLIC "-//W3C//DTD SVG 1.1//EN" "http://www.w3.org/Graphics/SVG/1.1/DTD/svg11.dtd">
<svg version="1.1" id="Layer_1" xmlns="http://www.w3.org/2000/svg" xmlns:xlink="http://www.w3.org/1999/xlink" x="0px" y="0px"
	 width="500px" height="500px" viewBox="0 0 500 500" enable-background="new 0 0 500 500" xml:space="preserve">
<path id="White_2_" d="M472.392,0H27.595C12.353,0,0,12.353,0,27.595v444.797c0,15.239,12.353,27.595,27.595,27.595H267.06v-193.62
	h-65.158v-75.459h65.158V175.26c0-64.58,39.441-99.744,97.051-99.744c27.595,0,51.311,2.055,58.225,2.974v67.488l-39.956,0.019
	c-31.331,0-37.396,14.888-37.396,36.735v48.176h74.721l-9.729,75.459h-64.991v193.62h127.409c15.239,0,27.595-12.355,27.595-27.595
	V27.595C499.986,12.353,487.631,0,472.392,0z"/>
</svg>
