<svg xmlns="http://www.w3.org/2000/svg" width="500" height="500" viewBox="0 0 500 500"><path d="M24.134 330.415c-1.062 0-1.936.85-2.078 2.021 0 .004-4.914 44.877-4.914 44.877l4.914 43.887c.143 1.175 1.017 2.025 2.078 2.025 1.054 0 1.905-.83 2.074-2.016l5.593-43.896-5.591-44.88c-.17-1.193-1.022-2.018-2.076-2.018zm-18.476 17.188c-1.042 0-1.866.808-2.004 1.955l-3.654 27.754 3.654 27.28c.138 1.147.962 1.951 2.004 1.951 1.013 0 1.833-.797 2-1.941l4.328-27.29-4.328-27.764c-.164-1.145-.987-1.945-2-1.945zm38.109-25.988c-1.32 0-2.374 1.031-2.506 2.454 0 .002-4.663 53.247-4.663 53.247l4.663 51.303c.132 1.428 1.186 2.456 2.506 2.456 1.296 0 2.347-1.028 2.501-2.445l5.3-51.313-5.297-53.249c-.157-1.424-1.208-2.453-2.504-2.453zm19.795-1.882c-1.549 0-2.811 1.24-2.935 2.882l-4.408 54.713 4.408 52.93c.124 1.637 1.386 2.875 2.935 2.875 1.529 0 2.789-1.238 2.928-2.875l5.008-52.93-5.008-54.723c-.14-1.635-1.4-2.872-2.928-2.872zm23.309 110.96l-.001.003v.007zm-.001-104.133c-.129-1.872-1.572-3.293-3.357-3.293-1.801 0-3.244 1.424-3.356 3.313l-4.161 50.752 4.161 53.366c.112 1.879 1.555 3.306 3.356 3.306 1.783 0 3.226-1.425 3.357-3.308l4.714-53.364-4.714-50.772zm16.76-35.525c-2.019 0-3.682 1.646-3.784 3.746 0 .002-3.907 82.572-3.907 82.572l3.907 53.36c.102 2.083 1.766 3.73 3.784 3.73 2.002 0 3.663-1.647 3.782-3.741v.016l4.421-53.365-4.421-82.577c-.119-2.097-1.78-3.741-3.782-3.741zm19.965-19.023c-2.267 0-4.116 1.832-4.214 4.174 0 .005-3.652 101.455-3.652 101.455l3.656 53.031c.094 2.32 1.943 4.151 4.21 4.151 2.25 0 4.1-1.831 4.208-4.172l-.002.03 4.133-53.041-4.131-101.455c-.108-2.341-1.958-4.173-4.208-4.173zm20.745-9.166c-2.513 0-4.549 2.024-4.639 4.606 0 .003-3.4 109.923-3.4 109.923l3.403 52.482c.087 2.558 2.124 4.577 4.637 4.577 2.499 0 4.534-2.015 4.637-4.597l-.002.031 3.84-52.494-3.838-109.925c-.103-2.581-2.139-4.603-4.638-4.603zm25.66.905c-.09-2.822-2.312-5.032-5.062-5.032-2.759 0-4.983 2.213-5.064 5.037l-3.149 113.625 3.152 52.157c.078 2.792 2.302 5.001 5.062 5.001 2.75 0 4.97-2.207 5.061-5.023l3.55-52.131-3.55-113.634zm0 165.761l-.001.004-.001.026zm15.698-168.311c-3.009 0-5.421 2.4-5.492 5.461l-2.897 110.729 2.901 51.659c.067 3.033 2.479 5.438 5.489 5.438 2.998 0 5.406-2.405 5.488-5.464v.035l3.257-51.669-3.257-110.734c-.083-3.059-2.492-5.455-5.489-5.455zm20.92 3.616c-3.254 0-5.854 2.59-5.917 5.895l-2.644 106.685 2.646 51.334c.061 3.27 2.661 5.852 5.915 5.852 3.245 0 5.843-2.582 5.915-5.889v.043l2.964-51.336-2.964-106.699c-.073-3.297-2.671-5.885-5.915-5.885zm24.583-19.605c-1.007-.684-2.213-1.083-3.503-1.083-1.254 0-2.427.381-3.417 1.029-1.726 1.13-2.891 3.079-2.925 5.294l-.022 1.197-2.372 125.721c0 .076 2.395 51.034 2.395 51.034l.014.217c.072 1.425.612 2.735 1.477 3.771 1.168 1.397 2.915 2.295 4.851 2.295 1.719 0 3.29-.708 4.438-1.853 1.146-1.143 1.873-2.72 1.904-4.459l.265-5.045 2.407-45.921-2.671-126.963c-.039-2.175-1.163-4.097-2.841-5.234zm2.839 183.196l.001-.013-.001.016.001-.026.001-.012-.001.003v.019zm18.091-195.235c-1.013-.612-2.188-.972-3.443-.972-1.614 0-3.103.58-4.271 1.545-1.502 1.239-2.475 3.114-2.503 5.206l-.015.697-2.761 137.772 1.409 25.47 1.367 24.784c.048 3.668 3.083 6.697 6.772 6.697 3.676 0 6.711-3.029 6.763-6.751v.06l3.013-50.26v-.001l-3.013-138.478c-.032-2.444-1.364-4.588-3.318-5.769zm186.143 78.705c-8.423 0-16.459 1.707-23.776 4.772-4.891-55.394-51.344-98.851-108.01-98.851-13.867 0-27.383 2.726-39.322 7.346-4.64 1.798-5.871 3.638-5.916 7.227v195.087c.05 3.762 2.969 6.687 6.641 7.053.156.017 170.384 0 170.384 0 33.946 0 61.463-27.212 61.463-61.164-.001-33.95-27.517-61.47-61.464-61.47zm-389.198 159.62c-7.209-1.694-9.153-2.6-9.153-5.454 0-2.009 1.621-4.091 6.488-4.091 4.157 0 7.405 1.694 10.323 4.678l6.562-6.364c-4.29-4.474-9.481-7.14-16.557-7.14-8.962 0-16.23 5.067-16.23 13.315 0 8.952 5.843 11.618 14.217 13.559 8.57 1.95 10.128 3.256 10.128 6.175 0 3.441-2.538 4.935-7.924 4.935-4.349 0-8.433-1.493-11.621-5.198l-6.557 5.844c3.442 5.063 10.068 8.243 17.659 8.243 12.4 0 17.856-5.839 17.856-14.476.001-9.872-7.983-12.336-15.191-14.026zm41.821-18.371c-12.399 0-19.735 9.604-19.735 23.439s7.336 23.434 19.735 23.434c12.396 0 19.736-9.598 19.736-23.434s-7.341-23.439-19.736-23.439zm0 37.849c-7.339 0-10.392-6.294-10.392-14.409 0-8.119 3.052-14.411 10.392-14.411 7.337 0 10.384 6.292 10.384 14.411 0 8.115-3.047 14.409-10.384 14.409zm56.413-11.619c0 7.269-3.57 11.753-9.343 11.753-5.779 0-9.286-4.611-9.286-11.879v-25.393h-9.089v25.519c0 13.242 7.404 20.643 18.375 20.643 11.551 0 18.433-7.602 18.433-20.769v-25.393h-9.089v25.519zm48.306-6.296c0 2.53.127 8.243.127 9.936-.582-1.169-2.077-3.448-3.178-5.137l-16.108-24.021h-8.698v45.449h8.962v-19.998c0-2.531-.133-8.243-.133-9.934.589 1.167 2.083 3.439 3.179 5.134l16.689 24.798h8.121v-45.449h-8.961v19.222zm34.858-19.222h-14.211v45.449h13.565c11.685 0 23.248-6.755 23.248-22.722 0-16.626-9.615-22.727-22.602-22.727zm-.646 36.62h-4.482v-27.785h4.811c9.608 0 13.569 4.601 13.569 13.893 0 8.312-4.353 13.892-13.898 13.892zm51.357-28.304c4.089 0 6.689 1.817 8.312 4.93l8.432-3.897c-2.854-5.906-8.045-10.061-16.615-10.061-11.875 0-20.186 9.604-20.186 23.439 0 14.345 7.973 23.434 19.863 23.434 8.247 0 13.697-3.83 16.815-10.261l-7.663-4.548c-2.399 4.029-4.805 5.784-8.894 5.784-6.822 0-10.785-6.236-10.785-14.409 0-8.436 3.909-14.411 10.721-14.411zm33.713-8.316h-9.095v45.449h27.327v-8.96h-18.232v-36.489zm42.171-.712c-12.406 0-19.737 9.604-19.737 23.439s7.331 23.434 19.737 23.434c12.397 0 19.739-9.598 19.739-23.434s-7.341-23.439-19.739-23.439zm0 37.849c-7.342 0-10.393-6.294-10.393-14.409 0-8.119 3.051-14.411 10.393-14.411 7.33 0 10.377 6.292 10.377 14.411 0 8.115-3.047 14.409-10.377 14.409zm56.416-11.619c0 7.269-3.56 11.753-9.341 11.753-5.783 0-9.289-4.611-9.289-11.879v-25.393h-9.09v25.519c0 13.242 7.405 20.643 18.379 20.643 11.553 0 18.439-7.602 18.439-20.769v-25.393h-9.099v25.519zm34.676-25.518h-14.222v45.449h13.562c11.705 0 23.248-6.755 23.248-22.722 0-16.626-9.6-22.727-22.588-22.727zm-.66 36.62h-4.472v-27.785h4.805c9.599 0 13.561 4.601 13.561 13.893 0 8.312-4.343 13.892-13.894 13.892z"/></svg>