<?xml version="1.0" encoding="utf-8"?>
<!-- Generator: Adobe Illustrator 16.0.4, SVG Export Plug-In . SVG Version: 6.00 Build 0)  -->
<!DOCTYPE svg PUBLIC "-//W3C//DTD SVG 1.1//EN" "http://www.w3.org/Graphics/SVG/1.1/DTD/svg11.dtd">
<svg version="1.1" id="Layer_1" xmlns="http://www.w3.org/2000/svg" xmlns:xlink="http://www.w3.org/1999/xlink" x="0px" y="0px"
	 width="500px" height="500px" viewBox="0 0 500 500" enable-background="new 0 0 500 500" xml:space="preserve">
<g>
	<g>
		<path d="M24.134,330.415c-1.062,0-1.936,0.85-2.078,2.021c0,0.004-4.914,44.877-4.914,44.877l4.914,43.887
			c0.143,1.175,1.017,2.025,2.078,2.025c1.054,0,1.905-0.83,2.074-2.016l5.593-43.896l-5.591-44.88
			C26.04,331.24,25.188,330.415,24.134,330.415z"/>
		<path d="M5.658,347.603c-1.042,0-1.866,0.808-2.004,1.955L0,377.312l3.654,27.28c0.138,1.147,0.962,1.951,2.004,1.951
			c1.013,0,1.833-0.797,2-1.941l4.328-27.29l-4.328-27.764C7.494,348.403,6.671,347.603,5.658,347.603z"/>
		<path d="M43.767,321.615c-1.32,0-2.374,1.031-2.506,2.454c0,0.002-4.663,53.247-4.663,53.247l4.663,51.303
			c0.132,1.428,1.186,2.456,2.506,2.456c1.296,0,2.347-1.028,2.501-2.445l5.3-51.313l-5.297-53.249
			C46.114,322.644,45.063,321.615,43.767,321.615z"/>
		<path d="M63.562,319.733c-1.549,0-2.811,1.24-2.935,2.882l-4.408,54.713l4.408,52.93c0.124,1.637,1.386,2.875,2.935,2.875
			c1.529,0,2.789-1.238,2.928-2.875l5.008-52.93l-5.008-54.723C66.35,320.97,65.09,319.733,63.562,319.733z"/>
		<polygon points="86.871,430.693 86.87,430.696 86.87,430.703 		"/>
		<path d="M86.87,326.56c-0.129-1.872-1.572-3.293-3.357-3.293c-1.801,0-3.244,1.424-3.356,3.313l-4.161,50.752l4.161,53.366
			c0.112,1.879,1.555,3.306,3.356,3.306c1.783,0,3.226-1.425,3.357-3.308l4.714-53.364L86.87,326.56z"/>
		<path d="M103.63,291.035c-2.019,0-3.682,1.646-3.784,3.746c0,0.002-3.907,82.572-3.907,82.572l3.907,53.36
			c0.102,2.083,1.766,3.73,3.784,3.73c2.002,0,3.663-1.647,3.782-3.741v0.016l4.421-53.365l-4.421-82.577
			C107.293,292.679,105.632,291.035,103.63,291.035z"/>
		<path d="M123.595,272.012c-2.267,0-4.116,1.832-4.214,4.174c0,0.005-3.652,101.455-3.652,101.455l3.656,53.031
			c0.094,2.32,1.943,4.151,4.21,4.151c2.25,0,4.1-1.831,4.208-4.172l-0.002,0.03l4.133-53.041l-4.131-101.455
			C127.695,273.844,125.845,272.012,123.595,272.012z"/>
		<path d="M144.34,262.846c-2.513,0-4.549,2.024-4.639,4.606c0,0.003-3.4,109.923-3.4,109.923l3.403,52.482
			c0.087,2.558,2.124,4.577,4.637,4.577c2.499,0,4.534-2.015,4.637-4.597l-0.002,0.031l3.84-52.494l-3.838-109.925
			C148.875,264.868,146.839,262.846,144.34,262.846z"/>
		<path d="M170,263.751c-0.09-2.822-2.312-5.032-5.062-5.032c-2.759,0-4.983,2.213-5.064,5.037l-3.149,113.625l3.152,52.157
			c0.078,2.792,2.302,5.001,5.062,5.001c2.75,0,4.97-2.207,5.061-5.023l3.55-52.131L170,263.751z"/>
		<polygon points="170,429.512 169.999,429.516 169.998,429.542 		"/>
		<path d="M185.698,261.201c-3.009,0-5.421,2.4-5.492,5.461l-2.897,110.729l2.901,51.659c0.067,3.033,2.479,5.438,5.489,5.438
			c2.998,0,5.406-2.405,5.488-5.464v0.035l3.257-51.669l-3.257-110.734C191.104,263.597,188.695,261.201,185.698,261.201z"/>
		<path d="M206.618,264.817c-3.254,0-5.854,2.59-5.917,5.895l-2.644,106.685l2.646,51.334c0.061,3.27,2.661,5.852,5.915,5.852
			c3.245,0,5.843-2.582,5.915-5.889v0.043l2.964-51.336l-2.964-106.699C212.46,267.405,209.862,264.817,206.618,264.817z"/>
		<path d="M231.201,245.212c-1.007-0.684-2.213-1.083-3.503-1.083c-1.254,0-2.427,0.381-3.417,1.029
			c-1.726,1.13-2.891,3.079-2.925,5.294l-0.022,1.197l-2.372,125.721c0,0.076,2.395,51.034,2.395,51.034
			c0.001,0.074,0.01,0.146,0.014,0.217c0.072,1.425,0.612,2.735,1.477,3.771c1.168,1.397,2.915,2.295,4.851,2.295
			c1.719,0,3.29-0.708,4.438-1.853c1.146-1.143,1.873-2.72,1.904-4.459l0.265-5.045l2.407-45.921l-2.671-126.963
			C234.003,248.271,232.879,246.349,231.201,245.212z"/>
		<polygon points="234.04,428.408 234.041,428.395 234.04,428.411 234.041,428.385 234.042,428.373 234.041,428.376 
			234.041,428.395 		"/>
		<path d="M252.131,233.173c-1.013-0.612-2.188-0.972-3.443-0.972c-1.614,0-3.103,0.58-4.271,1.545
			c-1.502,1.239-2.475,3.114-2.503,5.206l-0.015,0.697l-2.761,137.772l1.409,25.47l1.367,24.784
			c0.048,3.668,3.083,6.697,6.772,6.697c3.676,0,6.711-3.029,6.763-6.751v0.058v0.002l3.013-50.26v-0.001l-3.013-138.478
			C255.417,236.498,254.085,234.354,252.131,233.173z"/>
		<path d="M438.274,311.878c-8.423,0-16.459,1.707-23.776,4.772c-4.891-55.394-51.344-98.851-108.01-98.851
			c-13.867,0-27.383,2.726-39.322,7.346c-4.64,1.798-5.871,3.638-5.916,7.227c0,0.002,0,195.087,0,195.087
			c0.05,3.762,2.969,6.687,6.641,7.053c0.156,0.017,170.384,0,170.384,0c33.946,0,61.463-27.212,61.463-61.164
			C499.737,339.398,472.221,311.878,438.274,311.878z"/>
	</g>
	<path d="M49.076,471.498c-7.209-1.694-9.153-2.6-9.153-5.454c0-2.009,1.621-4.091,6.488-4.091c4.157,0,7.405,1.694,10.323,4.678
		l6.562-6.364c-4.29-4.474-9.481-7.14-16.557-7.14c-8.962,0-16.23,5.067-16.23,13.315c0,8.952,5.843,11.618,14.217,13.559
		c8.57,1.95,10.128,3.256,10.128,6.175c0,3.441-2.538,4.935-7.924,4.935c-4.349,0-8.433-1.493-11.621-5.198l-6.557,5.844
		C32.194,496.82,38.82,500,46.411,500c12.4,0,17.856-5.839,17.856-14.476C64.268,475.652,56.284,473.188,49.076,471.498z
		 M90.897,453.127c-12.399,0-19.735,9.604-19.735,23.439S78.498,500,90.897,500c12.396,0,19.736-9.598,19.736-23.434
		S103.292,453.127,90.897,453.127z M90.897,490.976c-7.339,0-10.392-6.294-10.392-14.409c0-8.119,3.052-14.411,10.392-14.411
		c7.337,0,10.384,6.292,10.384,14.411C101.281,484.682,98.234,490.976,90.897,490.976z M147.31,479.357
		c0,7.269-3.57,11.753-9.343,11.753c-5.779,0-9.286-4.611-9.286-11.879v-25.393h-9.089v25.519c0,13.242,7.404,20.643,18.375,20.643
		c11.551,0,18.433-7.602,18.433-20.769v-25.393h-9.089V479.357z M195.616,473.061c0,2.53,0.127,8.243,0.127,9.936
		c-0.582-1.169-2.077-3.448-3.178-5.137l-16.108-24.021h-8.698v45.449h8.962V479.29c0-2.531-0.133-8.243-0.133-9.934
		c0.589,1.167,2.083,3.439,3.179,5.134l16.689,24.798h8.121v-45.449h-8.961V473.061z M230.474,453.839h-14.211v45.449h13.565
		c11.685,0,23.248-6.755,23.248-22.722C253.076,459.94,243.461,453.839,230.474,453.839z M229.828,490.459h-4.482v-27.785h4.811
		c9.608,0,13.569,4.601,13.569,13.893C243.726,484.879,239.373,490.459,229.828,490.459z M281.185,462.155
		c4.089,0,6.689,1.817,8.312,4.93l8.432-3.897c-2.854-5.906-8.045-10.061-16.615-10.061c-11.875,0-20.186,9.604-20.186,23.439
		c0,14.345,7.973,23.434,19.863,23.434c8.247,0,13.697-3.83,16.815-10.261l-7.663-4.548c-2.399,4.029-4.805,5.784-8.894,5.784
		c-6.822,0-10.785-6.236-10.785-14.409C270.464,468.13,274.373,462.155,281.185,462.155z M314.898,453.839h-9.095v45.449h27.327
		v-8.96h-18.232V453.839z M357.069,453.127c-12.406,0-19.737,9.604-19.737,23.439S344.663,500,357.069,500
		c12.397,0,19.739-9.598,19.739-23.434S369.467,453.127,357.069,453.127z M357.069,490.976c-7.342,0-10.393-6.294-10.393-14.409
		c0-8.119,3.051-14.411,10.393-14.411c7.33,0,10.377,6.292,10.377,14.411C367.446,484.682,364.399,490.976,357.069,490.976z
		 M413.485,479.357c0,7.269-3.56,11.753-9.341,11.753c-5.783,0-9.289-4.611-9.289-11.879v-25.393h-9.09v25.519
		c0,13.242,7.405,20.643,18.379,20.643c11.553,0,18.439-7.602,18.439-20.769v-25.393h-9.099V479.357z M448.161,453.839h-14.222
		v45.449h13.562c11.705,0,23.248-6.755,23.248-22.722C470.749,459.94,461.149,453.839,448.161,453.839z M447.501,490.459h-4.472
		v-27.785h4.805c9.599,0,13.561,4.601,13.561,13.893C461.395,484.879,457.052,490.459,447.501,490.459z"/>
</g>
</svg>
