<svg xmlns="http://www.w3.org/2000/svg" width="500" height="500" viewBox="0 0 500 500"><path d="M24.134 330.415c-1.062 0-1.936.85-2.078 2.02l-4.914 44.878 4.914 43.887c.143 1.175 1.017 2.025 2.078 2.025 1.054 0 1.905-.83 2.074-2.016l5.592-43.9-5.59-44.88c-.17-1.2-1.02-2.02-2.075-2.02zM5.658 347.603c-1.042 0-1.866.808-2.004 1.955L0 377.312l3.654 27.28c.138 1.147.962 1.95 2.004 1.95 1.013 0 1.833-.796 2-1.94l4.328-27.29-4.328-27.764c-.164-1.145-.987-1.945-2-1.945zm38.11-25.988c-1.32 0-2.375 1.03-2.507 2.454l-4.66 53.24 4.67 51.3c.14 1.42 1.19 2.45 2.51 2.45 1.3 0 2.35-1.03 2.5-2.45l5.3-51.32-5.29-53.25c-.15-1.43-1.2-2.45-2.5-2.45zm19.794-1.882c-1.55 0-2.81 1.24-2.935 2.882l-4.408 54.713 4.4 52.93c.12 1.637 1.38 2.875 2.93 2.875 1.53 0 2.79-1.238 2.93-2.875l5-52.93-5.01-54.723c-.14-1.635-1.4-2.872-2.93-2.872zm23.31 110.96l-.002.003v.007zM86.87 326.56c-.13-1.872-1.572-3.293-3.357-3.293-1.8 0-3.244 1.424-3.356 3.313l-4.16 50.752 4.16 53.366c.112 1.88 1.555 3.306 3.356 3.306 1.783 0 3.226-1.425 3.357-3.308l4.714-53.364-4.714-50.772zm16.76-35.525c-2.02 0-3.682 1.646-3.784 3.746l-3.906 82.58 3.9 53.36c.103 2.09 1.767 3.73 3.785 3.73 2 0 3.662-1.64 3.78-3.74v.02l4.42-53.36-4.42-82.57c-.12-2.09-1.78-3.74-3.78-3.74zm19.965-19.023c-2.267 0-4.116 1.832-4.214 4.174l-3.65 101.455 3.66 53.04c.1 2.32 1.95 4.15 4.21 4.15 2.25 0 4.1-1.83 4.21-4.17v.03l4.14-53.04-4.13-101.45c-.11-2.34-1.96-4.17-4.21-4.17zm20.745-9.166c-2.513 0-4.55 2.024-4.64 4.606l-3.4 109.923 3.404 52.482c.087 2.558 2.124 4.577 4.637 4.577 2.5 0 4.54-2.015 4.64-4.597v.03l3.84-52.493-3.84-109.925c-.1-2.59-2.14-4.61-4.64-4.61zm25.66.905c-.09-2.82-2.312-5.03-5.062-5.03-2.76 0-4.983 2.22-5.064 5.04l-3.15 113.63 3.153 52.16c.078 2.8 2.302 5 5.062 5 2.75 0 4.97-2.2 5.06-5.02l3.55-52.13L170 263.75zm0 165.77v.01l-.002.03zm15.698-168.31c-3.01 0-5.42 2.4-5.492 5.46L177.31 377.4l2.9 51.657c.06 3.034 2.48 5.44 5.49 5.44 2.99 0 5.4-2.406 5.48-5.465v.035l3.257-51.67-3.257-110.734c-.082-3.06-2.49-5.455-5.49-5.455zm20.92 3.62c-3.254 0-5.854 2.59-5.917 5.9l-2.64 106.68 2.65 51.34c.06 3.27 2.66 5.86 5.92 5.86 3.25 0 5.85-2.58 5.92-5.89v.05l2.97-51.336-2.96-106.696c-.07-3.3-2.67-5.886-5.912-5.886zm24.582-19.61c-1-.68-2.21-1.08-3.5-1.08-1.25 0-2.422.38-3.412 1.03-1.725 1.13-2.89 3.08-2.924 5.3l-.022 1.2-2.37 125.72c0 .08 2.394 51.04 2.394 51.04l.014.22c.073 1.43.613 2.74 1.478 3.777 1.17 1.39 2.918 2.29 4.85 2.29 1.72 0 3.29-.71 4.44-1.856 1.148-1.142 1.875-2.72 1.906-4.46l.267-5.043 2.41-45.92-2.67-126.967c-.04-2.18-1.16-4.1-2.84-5.24zm2.84 183.2v-.01.02-.03l.01-.01v.02zm18.09-195.23c-1.01-.61-2.18-.97-3.44-.97-1.61 0-3.1.58-4.27 1.55-1.5 1.24-2.47 3.12-2.5 5.21l-.014.7-2.76 137.77 1.41 25.47 1.365 24.79c.05 3.67 3.09 6.698 6.77 6.698 3.68 0 6.71-3.03 6.77-6.75v.06l3.01-50.26-3.02-138.48c-.03-2.44-1.36-4.585-3.32-5.77zm186.15 78.7c-8.42 0-16.46 1.71-23.774 4.77-4.89-55.39-51.344-98.85-108.01-98.85-13.867 0-27.383 2.73-39.322 7.35-4.64 1.8-5.87 3.64-5.916 7.23v195.09c.05 3.76 2.97 6.69 6.64 7.06.16.02 170.387 0 170.387 0 33.946 0 61.463-27.21 61.463-61.162 0-33.95-27.518-61.47-61.465-61.47zM49.08 471.5c-7.21-1.694-9.152-2.6-9.152-5.454 0-2.01 1.62-4.09 6.488-4.09 4.16 0 7.407 1.693 10.325 4.677l6.56-6.36c-4.29-4.474-9.48-7.14-16.55-7.14-8.96 0-16.23 5.067-16.23 13.315 0 8.95 5.84 11.62 14.22 13.56 8.57 1.95 10.13 3.25 10.13 6.17 0 3.44-2.53 4.933-7.92 4.933-4.35 0-8.43-1.49-11.62-5.19l-6.56 5.85c3.44 5.06 10.07 8.24 17.66 8.24 12.4 0 17.86-5.84 17.86-14.48 0-9.87-7.98-12.33-15.19-14.02zm41.82-18.37c-12.397 0-19.733 9.603-19.733 23.44S78.497 500 90.897 500c12.396 0 19.736-9.598 19.736-23.434s-7.34-23.44-19.736-23.44zm0 37.85c-7.337 0-10.39-6.296-10.39-14.41 0-8.12 3.05-14.41 10.39-14.41 7.34 0 10.386 6.29 10.386 14.41 0 8.114-3.045 14.41-10.382 14.41zm56.415-11.62c0 7.27-3.57 11.752-9.342 11.752-5.78 0-9.285-4.61-9.285-11.88v-25.39H119.6v25.52c0 13.24 7.405 20.64 18.376 20.64 11.55 0 18.433-7.6 18.433-20.77v-25.39h-9.09v25.52zm48.307-6.297c0 2.53.126 8.24.126 9.94-.582-1.17-2.077-3.45-3.178-5.137l-16.108-24.02h-8.698v45.45h8.96v-20c0-2.53-.133-8.243-.133-9.934.59 1.167 2.08 3.44 3.18 5.134l16.69 24.8h8.12v-45.45h-8.96v19.22zm34.857-19.22h-14.21v45.45h13.56c11.68 0 23.25-6.76 23.25-22.72 0-16.627-9.62-22.728-22.61-22.728zm-.65 36.62h-4.48v-27.79h4.81c9.61 0 13.57 4.6 13.57 13.9 0 8.31-4.36 13.89-13.9 13.89zm51.36-28.302c4.09 0 6.69 1.82 8.31 4.93l8.43-3.89c-2.86-5.91-8.05-10.06-16.62-10.06-11.88 0-20.19 9.6-20.19 23.44 0 14.35 7.97 23.44 19.86 23.44 8.25 0 13.7-3.83 16.82-10.26l-7.67-4.55c-2.4 4.03-4.81 5.79-8.9 5.79-6.83 0-10.79-6.23-10.79-14.41 0-8.43 3.91-14.41 10.72-14.41zm33.71-8.31h-9.1v45.45h27.32v-8.96H314.9v-36.49zm42.17-.71c-12.41 0-19.74 9.61-19.74 23.44S344.66 500 357.07 500c12.396 0 19.738-9.598 19.738-23.434s-7.34-23.44-19.74-23.44zm0 37.85c-7.34 0-10.39-6.29-10.39-14.41 0-8.12 3.05-14.41 10.39-14.41 7.33 0 10.37 6.29 10.37 14.41 0 8.12-3.05 14.41-10.38 14.41zm56.41-11.62c0 7.27-3.56 11.76-9.34 11.76-5.79 0-9.29-4.61-9.29-11.88v-25.39h-9.09v25.52c0 13.24 7.4 20.64 18.38 20.64 11.55 0 18.44-7.6 18.44-20.77v-25.39h-9.1v25.52zm34.67-25.51h-14.22v45.44h13.56c11.7 0 23.25-6.753 23.25-22.72 0-16.626-9.6-22.727-22.59-22.727zm-.66 36.62h-4.47v-27.79h4.8c9.6 0 13.56 4.6 13.56 13.893 0 8.31-4.35 13.89-13.9 13.89z"/></svg>