<svg xmlns="http://www.w3.org/2000/svg" width="500" height="500" viewBox="0 0 500 500"><path d="M500.004 141.761c-18.396 8.158-38.167 13.673-58.918 16.152 21.18-12.695 37.446-32.798 45.105-56.753-19.822 11.755-41.775 20.293-65.141 24.894-18.714-19.939-45.373-32.395-74.878-32.395-56.652 0-102.582 45.929-102.582 102.579 0 8.041.907 15.867 2.653 23.375-85.254-4.276-160.84-45.115-211.434-107.18-8.831 15.153-13.889 32.774-13.889 51.573 0 35.589 18.11 66.987 45.633 85.383-16.814-.532-32.63-5.147-46.462-12.831-.007.429-.011.857-.011 1.289 0 49.702 35.36 91.164 82.29 100.586-8.608 2.343-17.671 3.597-27.026 3.597-6.612 0-13.038-.643-19.3-1.84 13.052 40.754 50.938 70.413 95.825 71.241-35.106 27.514-79.339 43.912-127.398 43.912-8.28 0-16.446-.486-24.472-1.433 45.398 29.109 99.319 46.09 157.251 46.09 188.684 0 291.864-156.31 291.864-291.867 0-4.447-.101-8.873-.297-13.27 20.042-14.463 37.435-32.531 51.187-53.102z"/></svg>