<svg xmlns="http://www.w3.org/2000/svg" width="500" height="500" viewBox="0 0 500 500"><path d="M500.004 141.76c-18.396 8.16-38.167 13.674-58.918 16.153 21.18-12.695 37.446-32.798 45.105-56.753-19.82 11.755-41.77 20.293-65.14 24.894-18.71-19.94-45.37-32.395-74.87-32.395-56.65 0-102.58 45.92-102.58 102.57 0 8.04.91 15.86 2.66 23.37C161 215.33 85.42 174.49 34.82 112.42 25.982 127.58 20.925 145.2 20.925 164c0 35.59 18.11 66.988 45.632 85.384-16.814-.533-32.63-5.148-46.462-12.832-.005.43-.01.857-.01 1.29 0 49.7 35.36 91.163 82.29 100.585-8.607 2.343-17.67 3.597-27.025 3.597-6.61 0-13.04-.643-19.3-1.84 13.05 40.754 50.94 70.413 95.83 71.24-35.108 27.515-79.34 43.913-127.4 43.913-8.28 0-16.446-.483-24.47-1.43C45.397 483.02 99.317 500 157.25 500c188.684 0 291.864-156.31 291.864-291.867 0-4.447-.1-8.873-.297-13.27 20.042-14.463 37.435-32.53 51.187-53.102z"/></svg>