<?xml version="1.0" encoding="utf-8"?>
<!-- Generator: Adobe Illustrator 16.0.4, SVG Export Plug-In . SVG Version: 6.00 Build 0)  -->
<!DOCTYPE svg PUBLIC "-//W3C//DTD SVG 1.1//EN" "http://www.w3.org/Graphics/SVG/1.1/DTD/svg11.dtd">
<svg version="1.1" id="Layer_1" xmlns="http://www.w3.org/2000/svg" xmlns:xlink="http://www.w3.org/1999/xlink" x="0px" y="0px"
	 width="500px" height="500px" viewBox="0 0 500 500" enable-background="new 0 0 500 500" xml:space="preserve">
<path d="M500.004,141.761c-18.396,8.158-38.167,13.673-58.918,16.152c21.18-12.695,37.446-32.798,45.105-56.753
	c-19.822,11.755-41.775,20.293-65.141,24.894c-18.714-19.939-45.373-32.395-74.878-32.395c-56.652,0-102.582,45.929-102.582,102.579
	c0,8.041,0.907,15.867,2.653,23.375c-85.254-4.276-160.84-45.115-211.434-107.18c-8.831,15.153-13.889,32.774-13.889,51.573
	c0,35.589,18.11,66.987,45.633,85.383c-16.814-0.532-32.63-5.147-46.462-12.831c-0.007,0.429-0.011,0.857-0.011,1.289
	c0,49.702,35.36,91.164,82.29,100.586c-8.608,2.343-17.671,3.597-27.026,3.597c-6.612,0-13.038-0.643-19.3-1.84
	c13.052,40.754,50.938,70.413,95.825,71.241c-35.106,27.514-79.339,43.912-127.398,43.912c-8.28,0-16.446-0.486-24.472-1.433
	C45.397,483.019,99.318,500,157.25,500c188.684,0,291.864-156.31,291.864-291.867c0-4.447-0.101-8.873-0.297-13.27
	C468.859,180.4,486.252,162.332,500.004,141.761z"/>
</svg>
