<svg xmlns="http://www.w3.org/2000/svg" width="500" height="500" viewBox="0 0 500 500"><path d="M186.678 460.165h-18.955v-10.974c-7.186 8.235-13.277 12.396-19.917 12.396-5.826 0-9.873-2.748-11.897-7.714-1.231-3.019-2.104-7.733-2.104-14.658v-79.809h18.955v81.803c.442 2.8 1.631 3.823 4.041 3.823 3.628 0 6.911-3.152 10.923-8.812v-76.815h18.955v100.76zm-66.84-67.838c0-10.767-2.163-18.854-5.985-23.942-5.051-6.892-12.969-9.713-20.95-9.713-9.034 0-15.908 2.821-20.95 9.713-3.884 5.089-5.968 13.263-5.968 24.03l-.018 35.826c0 10.707 1.853 18.105 5.736 23.146 5.043 6.87 13.219 10.51 21.199 10.51 7.981 0 16.299-3.64 21.35-10.51 3.823-5.04 5.586-12.438 5.586-23.146v-35.914zm-18.954 37.909c.998 9.977-2.097 14.926-7.983 14.926s-8.977-4.949-7.979-14.926v-39.904c-.998-9.976 2.094-14.652 7.98-14.652 5.885 0 8.988 4.677 7.991 14.652l-.009 39.904zm-55.866-24.94v54.869h-19.953v-54.869s-20.675-67.271-24.94-79.809h20.95l14 52.55 13.933-52.55h20.95l-24.94 79.809zm336.614-29.863c-2.973 0-6.379 1.568-9.398 4.55l-.021 60.5c3.02 3.021 6.447 4.551 9.42 4.551 5.209 0 7.561-3.823 7.561-13.799v-42.897c-.002-9.978-2.353-12.905-7.562-12.905zm74.4 11.99c0-9.221-2.383-11.99-8.371-11.99-6.032 0-8.589 2.542-8.589 11.866v11.032l16.96-.019v-10.889zm40.943-51.053s-2.911-20.437-11.843-29.437c-11.326-11.811-24.026-11.87-29.848-12.561-41.686-3-104.216-3-104.216-3h-.13s-62.532 0-104.217 3c-5.824.69-18.518.75-29.848 12.561-8.932 9-11.839 29.437-11.839 29.437s-2.979 23.997-2.979 47.996v22.499c0 23.997 2.979 47.994 2.979 47.994s2.907 20.436 11.839 29.435c11.33 11.813 26.218 11.438 32.847 12.675 23.831 2.278 101.282 2.981 101.282 2.981s62.596-.094 104.281-3.092c5.821-.692 18.521-.751 29.848-12.564 8.932-8.999 11.843-29.435 11.843-29.435s2.976-23.997 2.976-47.994v-22.499c0-23.999-2.975-47.996-2.975-47.996zm-229.491 123.795h-19.952v-114.726h-20.95v-18.933l62.849-.021v18.954h-21.947v114.726zm71.828 0h-18.954v-10.974c-7.186 8.235-13.277 12.396-19.917 12.396-5.826 0-9.873-2.748-11.897-7.714-1.231-3.019-2.104-7.733-2.104-14.658v-78.811h18.955v80.805c.442 2.8 1.631 3.823 4.041 3.823 3.628 0 6.911-3.152 10.923-8.812v-75.817h18.954v99.762zm68.834-29.929c0 9.221-.789 15.727-1.995 19.952-2.41 7.412-7.665 11.263-14.856 11.263-6.422 0-13.002-3.864-19.037-11.331l-.024 10.045h-17.957v-133.68h17.957l-.021 43.583c5.833-7.179 12.438-11.265 19.083-11.265 7.191 0 12.025 4.154 14.436 11.621 1.206 4.01 2.416 10.465 2.416 19.907v39.905zm39.683 14.797c4.446 0 7.038-2.418 8.068-7.246.168-.984.135-5.292.135-12.539h18.954v2.827c0 5.82-.479 9.939-.641 11.748-.61 4.004-2.028 7.626-4.225 10.821-4.996 7.238-12.407 10.807-21.844 10.807-9.448 0-16.64-3.4-21.861-10.212-3.837-4.988-6.298-12.404-6.298-22.998v-34.916c0-10.654 2.238-18.891 6.075-23.933 5.224-6.822 12.416-10.433 21.636-10.433 9.061 0 16.252 3.61 21.314 10.433 3.775 5.042 5.874 12.836 5.874 23.49l.004 20.395h-35.949v17.915c-.06 9.205 2.558 13.841 8.758 13.841z"/></svg>