<svg xmlns="http://www.w3.org/2000/svg" width="500" height="500" viewBox="0 0 500 500"><path d="M186.678 460.165h-18.955V449.19c-7.186 8.236-13.277 12.397-19.917 12.397-5.826 0-9.873-2.748-11.897-7.714-1.24-3.02-2.11-7.733-2.11-14.658v-79.81h18.95v81.804c.44 2.8 1.63 3.82 4.04 3.82 3.63 0 6.91-3.15 10.92-8.81V359.4h18.95v100.76zm-66.84-67.838c0-10.767-2.163-18.854-5.985-23.942-5.05-6.892-12.97-9.713-20.95-9.713-9.034 0-15.908 2.82-20.95 9.713-3.884 5.09-5.968 13.263-5.968 24.03l-.018 35.826c0 10.71 1.853 18.11 5.736 23.15 5.043 6.87 13.22 10.51 21.2 10.51 7.98 0 16.298-3.64 21.35-10.51 3.822-5.04 5.585-12.44 5.585-23.14v-35.92zm-18.954 37.91c.998 9.976-2.097 14.925-7.983 14.925s-8.97-4.95-7.97-14.926v-39.904c-1-9.976 2.1-14.652 7.98-14.652 5.89 0 8.99 4.677 7.99 14.652l-.01 39.904zm-55.866-24.94v54.868H25.065v-54.87S4.39 338.025.125 325.488h20.95l14 52.55 13.933-52.55h20.95l-24.94 79.81zm336.614-29.864c-2.973 0-6.38 1.568-9.398 4.55l-.02 60.5c3.02 3.02 6.446 4.55 9.42 4.55 5.208 0 7.56-3.822 7.56-13.798v-42.897c-.002-9.978-2.353-12.905-7.562-12.905zm74.4 11.99c0-9.22-2.383-11.99-8.37-11.99-6.033 0-8.59 2.542-8.59 11.866v11.03l16.96-.02v-10.89zm40.943-51.053s-2.91-20.437-11.843-29.437c-11.326-11.81-24.026-11.87-29.848-12.56-41.686-3-104.216-3-104.216-3h-.13s-62.532 0-104.217 3c-5.82.69-18.51.75-29.84 12.56-8.93 9-11.84 29.437-11.84 29.437s-2.98 23.997-2.98 47.996v22.5c0 23.996 2.98 47.993 2.98 47.993s2.91 20.43 11.84 29.43c11.33 11.81 26.22 11.44 32.85 12.67 23.83 2.27 101.29 2.98 101.29 2.98s62.6-.1 104.28-3.09c5.82-.69 18.52-.75 29.85-12.57 8.93-9 11.84-29.44 11.84-29.44s2.98-24 2.98-48v-22.5c0-24-2.97-48-2.97-48zm-229.49 123.795H247.53V345.44h-20.95v-18.934l62.85-.02v18.953h-21.948v114.72zm71.827 0h-18.954V449.19c-7.186 8.236-13.277 12.397-19.917 12.397-5.82 0-9.87-2.748-11.89-7.714-1.23-3.02-2.1-7.733-2.1-14.658v-78.81h18.95v80.804c.44 2.8 1.63 3.82 4.04 3.82 3.63 0 6.91-3.15 10.93-8.81V360.4h18.96v99.762zm68.834-29.93c0 9.222-.79 15.728-1.995 19.953-2.41 7.412-7.66 11.263-14.85 11.263-6.42 0-13-3.86-19.03-11.33l-.02 10.05h-17.96V326.49h17.96l-.02 43.582c5.83-7.18 12.44-11.265 19.08-11.265 7.19 0 12.03 4.154 14.44 11.62 1.21 4.01 2.42 10.466 2.42 19.908v39.906zm39.683 14.798c4.44 0 7.03-2.418 8.06-7.246.17-.984.13-5.292.13-12.54h18.95v2.828c0 5.82-.48 9.94-.64 11.748-.61 4.004-2.03 7.626-4.23 10.82-5 7.24-12.41 10.808-21.85 10.808-9.45 0-16.64-3.4-21.86-10.21-3.84-4.99-6.3-12.4-6.3-23v-34.91c0-10.65 2.24-18.89 6.07-23.93 5.22-6.82 12.41-10.43 21.63-10.43 9.06 0 16.25 3.61 21.31 10.44 3.77 5.04 5.87 12.84 5.87 23.49v20.4h-35.95v17.91c-.06 9.21 2.56 13.84 8.76 13.84z"/></svg>