<?xml version="1.0" encoding="utf-8"?>
<!-- Generator: Adobe Illustrator 16.0.4, SVG Export Plug-In . SVG Version: 6.00 Build 0)  -->
<!DOCTYPE svg PUBLIC "-//W3C//DTD SVG 1.1//EN" "http://www.w3.org/Graphics/SVG/1.1/DTD/svg11.dtd">
<svg version="1.1" id="Layer_1" xmlns="http://www.w3.org/2000/svg" xmlns:xlink="http://www.w3.org/1999/xlink" x="0px" y="0px"
	 width="500px" height="500px" viewBox="0 0 500 500" enable-background="new 0 0 500 500" xml:space="preserve">
<g>
	<path id="u_2_" d="M186.678,460.165h-18.955v-10.974c-7.186,8.235-13.277,12.396-19.917,12.396c-5.826,0-9.873-2.748-11.897-7.714
		c-1.231-3.019-2.104-7.733-2.104-14.658v-79.809h18.955v74.82c0,4.232,0,5.986,0,6.983c0.442,2.8,1.631,3.823,4.041,3.823
		c3.628,0,6.911-3.152,10.923-8.812v-76.815h18.955V460.165z"/>
	<path id="o_2_" d="M119.838,392.327c0-10.767-2.163-18.854-5.985-23.942c-5.051-6.892-12.969-9.713-20.95-9.713
		c-9.034,0-15.908,2.821-20.95,9.713c-3.884,5.089-5.968,13.263-5.968,24.03l-0.018,35.826c0,10.707,1.853,18.105,5.736,23.146
		c5.043,6.87,13.219,10.51,21.199,10.51c7.981,0,16.299-3.64,21.35-10.51c3.823-5.04,5.586-12.438,5.586-23.146V392.327z
		 M100.884,430.236c0.998,9.977-2.097,14.926-7.983,14.926s-8.977-4.949-7.979-14.926v-39.904
		c-0.998-9.976,2.094-14.652,7.98-14.652c5.885,0,8.988,4.677,7.991,14.652L100.884,430.236z"/>
	<path id="y_2_" d="M45.018,405.296v54.869H25.065v-54.869c0,0-20.675-67.271-24.94-79.809h20.95l14,52.55l13.933-52.55h20.95
		L45.018,405.296z"/>
	<g>
		<path d="M381.632,375.433c-2.973,0-6.379,1.568-9.398,4.55l-0.021,60.5c3.02,3.021,6.447,4.551,9.42,4.551
			c5.209,0,7.561-3.823,7.561-13.799v-42.897C389.192,378.36,386.841,375.433,381.632,375.433z"/>
		<path d="M456.032,387.423c0-9.221-2.383-11.99-8.371-11.99c-6.032,0-8.589,2.542-8.589,11.866v11.032l16.96-0.019V387.423z"/>
		<path d="M496.975,336.37c0,0-2.911-20.437-11.843-29.437c-11.326-11.811-24.026-11.87-29.848-12.561
			c-41.686-3-104.216-3-104.216-3h-0.13c0,0-62.532,0-104.217,3c-5.824,0.69-18.518,0.75-29.848,12.561
			c-8.932,9-11.839,29.437-11.839,29.437s-2.979,23.997-2.979,47.996v22.499c0,23.997,2.979,47.994,2.979,47.994
			s2.907,20.436,11.839,29.435c11.33,11.813,26.218,11.438,32.847,12.675c23.831,2.278,101.282,2.981,101.282,2.981
			s62.596-0.094,104.281-3.092c5.821-0.692,18.521-0.751,29.848-12.564c8.932-8.999,11.843-29.435,11.843-29.435
			s2.976-23.997,2.976-47.994v-22.499C499.95,360.367,496.975,336.37,496.975,336.37z M267.484,460.165h-19.952V345.439h-20.95
			v-18.933l62.849-0.021v18.954h-21.947V460.165z M339.312,460.165h-18.954v-10.974c-7.186,8.235-13.277,12.396-19.917,12.396
			c-5.826,0-9.873-2.748-11.897-7.714c-1.231-3.019-2.104-7.733-2.104-14.658v-78.811h18.955v73.822c0,4.232,0,5.986,0,6.983
			c0.442,2.8,1.631,3.823,4.041,3.823c3.628,0,6.911-3.152,10.923-8.812v-75.817h18.954V460.165z M408.146,430.236
			c0,9.221-0.789,15.727-1.995,19.952c-2.41,7.412-7.665,11.263-14.856,11.263c-6.422,0-13.002-3.864-19.037-11.331l-0.024,10.045
			h-17.957v-133.68h17.957l-0.021,43.583c5.833-7.179,12.438-11.265,19.083-11.265c7.191,0,12.025,4.154,14.436,11.621
			c1.206,4.01,2.416,10.465,2.416,19.907V430.236z M447.829,445.033c4.446,0,7.038-2.418,8.068-7.246
			c0.168-0.984,0.135-5.292,0.135-12.539h18.954v2.827c0,5.82-0.479,9.939-0.641,11.748c-0.61,4.004-2.028,7.626-4.225,10.821
			c-4.996,7.238-12.407,10.807-21.844,10.807c-9.448,0-16.64-3.4-21.861-10.212c-3.837-4.988-6.298-12.404-6.298-22.998v-34.916
			c0-10.654,2.238-18.891,6.075-23.933c5.224-6.822,12.416-10.433,21.636-10.433c9.061,0,16.252,3.61,21.314,10.433
			c3.775,5.042,5.874,12.836,5.874,23.49l0.004,20.395h-35.949v17.915C439.011,440.397,441.629,445.033,447.829,445.033z"/>
	</g>
</g>
</svg>
