<?xml version="1.0" standalone="no"?><!-- Generator: Adobe Fireworks CS5.1, Export SVG Extension by Aaron Beall (http://fireworks.abeall.com) . Version: 0.6.0  --><!DOCTYPE svg PUBLIC "-//W3C//DTD SVG 1.1//EN" "http://www.w3.org/Graphics/SVG/1.1/DTD/svg11.dtd"><svg id="" viewBox="0 0 42 40" style="background-color:#ffffff00" version="1.1"	xmlns="http://www.w3.org/2000/svg" xmlns:xlink="http://www.w3.org/1999/xlink" xml:space="preserve"	x="0px" y="0px" width="42px" height="40px">	<g>		<path d="M 38.9327 0 L 2.7451 0 C 1.5051 0 0.5 0.9883 0.5 2.2076 L 0.5 37.7922 C 0.5 39.0115 1.5051 40 2.7451 40 L 22.2275 40 L 22.2275 24.51 L 16.9263 24.51 L 16.9263 18.4731 L 22.2275 18.4731 L 22.2275 14.0212 C 22.2275 8.8547 25.4362 6.0414 30.1232 6.0414 C 32.3683 6.0414 34.2977 6.2058 34.8603 6.2794 L 34.8603 11.6785 L 31.6096 11.6801 C 29.0605 11.6801 28.5671 12.8711 28.5671 14.6189 L 28.5671 18.4731 L 34.6462 18.4731 L 33.8547 24.51 L 28.5672 24.51 L 28.5672 40 L 38.9329 40 C 40.1727 40 41.178 39.0115 41.178 37.7922 L 41.178 2.2076 C 41.1777 0.9883 40.1725 0 38.9327 0 Z" fill="#ffffff"/>	</g></svg>