<svg viewBox="0 0 57 40" style="background-color:#ffffff00" xmlns="http://www.w3.org/2000/svg" width="57" height="40"><path opacity=".118" d="M22.346 11.398l13.302 8.998 1.866-.98-15.168-8.018z"/><path d="M55.65 8.63s-.547-3.92-2.23-5.646C51.285.72 48.892.708 47.795.574 39.94 0 28.155 0 28.155 0h-.023S16.35 0 8.492.575C7.397.708 5.005.72 2.87 2.985 1.185 4.71.64 8.628.64 8.628s-.562 4.6-.562 9.204v4.314c0 4.602.562 9.205.562 9.205s.547 3.92 2.23 5.65c2.136 2.27 4.94 2.2 6.19 2.43 4.49.44 19.086.58 19.086.58s11.796-.02 19.65-.593c1.098-.133 3.49-.144 5.626-2.41 1.682-1.725 2.23-5.644 2.23-5.644s.562-4.602.562-9.204v-4.32c0-4.603-.56-9.205-.56-9.205zm-33.3 18.747l-.004-15.98 15.168 8.018-15.165 7.962z" fill="#fff"/></svg>