<?xml version="1.0" standalone="no"?><!-- Generator: Adobe Fireworks CS5.1, Export SVG Extension by Aaron Beall (http://fireworks.abeall.com) . Version: 0.6.0  --><!DOCTYPE svg PUBLIC "-//W3C//DTD SVG 1.1//EN" "http://www.w3.org/Graphics/SVG/1.1/DTD/svg11.dtd"><svg id="" viewBox="0 0 57 40" style="background-color:#ffffff00" version="1.1"	xmlns="http://www.w3.org/2000/svg" xmlns:xlink="http://www.w3.org/1999/xlink" xml:space="preserve"	x="0px" y="0px" width="57px" height="40px">	<g>		<path opacity="0.1176" d="M 22.3461 11.3975 L 35.6481 20.3963 L 37.5142 19.4151 L 22.3461 11.3975 Z" fill="#000000"/>		<path d="M 55.6514 8.6292 C 55.6514 8.6292 55.1025 4.7101 53.4196 2.9841 C 51.285 0.7191 48.8922 0.7078 47.795 0.5752 C 39.9397 0 28.1562 0 28.1562 0 L 28.132 0 C 28.132 0 16.3486 0 8.4931 0.5752 C 7.3957 0.7078 5.0039 0.7191 2.8685 2.9841 C 1.1854 4.7101 0.6376 8.6292 0.6376 8.6292 C 0.6376 8.6292 0.0763 13.2314 0.0763 17.8337 L 0.0763 22.1482 C 0.0763 26.7504 0.6376 31.3527 0.6376 31.3527 C 0.6376 31.3527 1.1854 35.2718 2.8684 36.9977 C 5.0039 39.2629 7.8088 39.1912 9.0582 39.4285 C 13.549 39.865 28.144 40 28.144 40 C 28.144 40 39.9397 39.9821 47.795 39.4068 C 48.8922 39.2742 51.2851 39.2629 53.4196 36.9977 C 55.1025 35.2718 55.6514 31.3527 55.6514 31.3527 C 55.6514 31.3527 56.2119 26.7504 56.2119 22.1485 L 56.2119 17.8339 C 56.2119 13.2314 55.6514 8.6292 55.6514 8.6292 ZM 22.3486 27.3768 L 22.3461 11.3975 L 37.5142 19.4151 L 22.3486 27.3768 Z" fill="#ffffff"/>	</g></svg>