<svg viewBox="0 0 94 40" style="background-color:#ffffff00" xmlns="http://www.w3.org/2000/svg" width="94" height="40"><path d="M5.233 20.756c-.197 0-.36.157-.385.373l-.912 8.27.912 8.09c.026.21.188.37.385.37.196 0 .354-.15.385-.37l1.038-8.09-1.038-8.27c-.03-.23-.19-.38-.385-.38zm-3.43 3.168c-.192 0-.345.15-.37.36L.753 29.4l.68 5.028c.024.212.18.36.37.36s.34-.147.37-.358l.805-5.03-.806-5.117c-.03-.21-.183-.36-.37-.36zm7.074-4.79c-.245 0-.44.19-.465.453L7.546 29.4l.866 9.457c.024.263.22.452.465.452.24 0 .435-.19.464-.45l.99-9.46-.98-9.82c-.03-.27-.22-.46-.46-.46zm3.673-.346c-.287 0-.52.228-.544.53l-.818 10.085.818 9.756c.023.3.257.53.545.53.29 0 .52-.23.55-.53l.93-9.76-.93-10.09c-.02-.3-.26-.53-.54-.53zm4.327 20.452zm0-19.194c-.025-.345-.29-.607-.624-.607s-.602.26-.622.61l-.77 9.35.78 9.83c.02.342.29.61.627.61.33 0 .6-.268.623-.61l.874-9.84-.873-9.358zm3.11-6.548c-.375 0-.683.304-.702.69l-.726 15.22.72 9.835c.02.383.32.687.7.687.37 0 .68-.303.7-.69v.003l.82-9.835-.82-15.22c-.027-.387-.33-.69-.707-.69zm3.705-3.506c-.42 0-.764.337-.782.77l-.678 18.7.68 9.773c.016.428.36.765.78.765.418 0 .76-.337.78-.77v.007l.768-9.777-.767-18.7c-.02-.43-.363-.768-.78-.768zm3.85-1.69c-.466 0-.844.373-.86.85l-.632 20.26.632 9.673c.016.47.394.843.86.843.464 0 .842-.37.86-.847v.01l.713-9.67-.712-20.26c-.02-.47-.397-.85-.86-.85zm4.762.168c-.016-.52-.43-.928-.94-.928s-.924.408-.94.928l-.583 20.943.59 9.613c.02.515.43.922.94.922s.93-.407.94-.926l.66-9.608-.66-20.945zm0 30.55v.007-.006zM35.218 8c-.56 0-1.006.442-1.02 1.006l-.537 20.41.54 9.52c.02.56.46 1.002 1.02 1.002s1.01-.443 1.02-1.007v.01l.61-9.52-.6-20.41C36.22 8.44 35.78 8 35.22 8zm3.882.666c-.604 0-1.086.477-1.098 1.086l-.49 19.664.49 9.46c.012.604.494 1.08 1.098 1.08.602 0 1.085-.476 1.098-1.086v.01l.55-9.463-.55-19.666c-.014-.6-.496-1.08-1.098-1.08zm4.563-3.614c-.187-.125-.41-.2-.65-.2-.233 0-.45.07-.635.19-.32.21-.536.568-.543.976l-.004.22-.44 23.173.45 9.41v.04c.02.27.12.51.28.7.22.26.54.428.9.428.32 0 .61-.13.828-.342.213-.21.348-.5.354-.82l.05-.93.447-8.464-.496-23.4c-.006-.402-.214-.756-.525-.966zm.527 33.766v-.003.003-.007.01zm3.357-35.985c-.188-.112-.406-.18-.64-.18-.298.002-.575.108-.792.286-.28.22-.46.57-.464.96v.12l-.51 25.39.26 4.69.26 4.57c.01.675.576 1.233 1.26 1.233.685 0 1.248-.56 1.258-1.245v.01l.56-9.265-.56-25.523c-.006-.45-.253-.846-.616-1.064zM82.093 17.34c-1.563 0-3.055.314-4.413.88C76.773 8.01 68.152 0 57.635 0c-2.574 0-5.082.502-7.298 1.354-.86.33-1.09.67-1.098 1.332v35.957c.01.694.55 1.233 1.23 1.3.03.003 31.62 0 31.62 0 6.3 0 11.41-5.015 11.41-11.273s-5.11-11.33-11.41-11.33z" fill="#fff"/></svg>