<?xml version="1.0" standalone="no"?><!-- Generator: Adobe Fireworks CS5.1, Export SVG Extension by Aaron Beall (http://fireworks.abeall.com) . Version: 0.6.0  --><!DOCTYPE svg PUBLIC "-//W3C//DTD SVG 1.1//EN" "http://www.w3.org/Graphics/SVG/1.1/DTD/svg11.dtd"><svg id="" viewBox="0 0 94 40" style="background-color:#ffffff00" version="1.1"	xmlns="http://www.w3.org/2000/svg" xmlns:xlink="http://www.w3.org/1999/xlink" xml:space="preserve"	x="0px" y="0px" width="94px" height="40px">	<g id="Layer%201">		<g>			<path d="M 5.2332 20.7565 C 5.0361 20.7565 4.874 20.9133 4.8477 21.129 C 4.8477 21.1296 3.9355 29.4003 3.9355 29.4003 L 4.8477 37.4893 C 4.8743 37.7058 5.0364 37.8625 5.2332 37.8625 C 5.429 37.8625 5.5869 37.7096 5.6182 37.491 L 6.656 29.4003 L 5.6184 21.1285 C 5.5869 20.9084 5.429 20.7565 5.2332 20.7565 Z" fill="#ffffff"/>			<path d="M 1.8043 23.9243 C 1.6108 23.9243 1.458 24.0731 1.4324 24.2847 L 0.7543 29.4002 L 1.4324 34.4282 C 1.458 34.6396 1.6108 34.7878 1.8043 34.7878 C 1.9923 34.7878 2.1445 34.6409 2.1754 34.4301 L 2.9786 29.4002 L 2.1754 24.2828 C 2.1451 24.0719 1.9923 23.9243 1.8043 23.9243 Z" fill="#ffffff"/>			<path d="M 8.877 19.1345 C 8.6318 19.1345 8.4363 19.3245 8.412 19.5869 C 8.412 19.5872 7.5464 29.4009 7.5464 29.4009 L 8.412 38.8567 C 8.4363 39.1199 8.6318 39.3093 8.877 39.3093 C 9.1174 39.3093 9.3124 39.1199 9.3411 38.8586 L 10.3247 29.4011 L 9.3416 19.5867 C 9.3124 19.324 9.1174 19.1345 8.877 19.1345 Z" fill="#ffffff"/>			<path d="M 12.5507 18.7877 C 12.2632 18.7877 12.0291 19.0163 12.0059 19.3188 L 11.1879 29.4031 L 12.0059 39.1586 C 12.0291 39.4606 12.2632 39.6886 12.5507 39.6886 C 12.8342 39.6886 13.0682 39.4606 13.0941 39.1586 L 14.0234 29.4031 L 13.0941 19.317 C 13.0681 19.0156 12.834 18.7877 12.5507 18.7877 Z" fill="#ffffff"/>			<path d="M 16.8766 39.239 L 16.8762 39.2395 L 16.8762 39.2408 L 16.8766 39.239 Z" fill="#ffffff"/>			<path d="M 16.8762 20.0458 C 16.8523 19.7006 16.5846 19.4388 16.2534 19.4388 C 15.9191 19.4388 15.6514 19.7014 15.6306 20.0494 L 14.8582 29.4036 L 15.6306 39.2397 C 15.6514 39.5861 15.9191 39.8489 16.2534 39.8489 C 16.5842 39.8489 16.8521 39.5864 16.8762 39.2394 L 17.7512 29.4036 L 16.8762 20.0458 Z" fill="#ffffff"/>			<path d="M 19.9867 13.4982 C 19.6121 13.4982 19.3035 13.8015 19.2845 14.1887 C 19.2845 14.1891 18.5594 29.4078 18.5594 29.4078 L 19.2845 39.2426 C 19.3035 39.6265 19.6123 39.9301 19.9867 39.9301 C 20.3584 39.9301 20.6666 39.6265 20.6887 39.2405 L 20.6887 39.2435 L 21.5092 29.4078 L 20.6887 14.1877 C 20.6666 13.8011 20.3584 13.4982 19.9867 13.4982 Z" fill="#ffffff"/>			<path d="M 23.6921 9.9918 C 23.2712 9.9918 22.9282 10.3294 22.9099 10.761 C 22.9099 10.7621 22.2322 29.4607 22.2322 29.4607 L 22.9106 39.2349 C 22.9282 39.6625 23.2712 40 23.6921 40 C 24.1097 40 24.4529 39.6625 24.473 39.2311 L 24.4725 39.2366 L 25.2396 29.4605 L 24.473 10.761 C 24.4529 10.3298 24.1097 9.9918 23.6921 9.9918 Z" fill="#ffffff"/>			<path d="M 27.5421 8.3024 C 27.0757 8.3024 26.6979 8.6755 26.6812 9.1513 C 26.6812 9.1519 26.05 29.4116 26.05 29.4116 L 26.6816 39.0847 C 26.6979 39.5562 27.0759 39.9284 27.5422 39.9284 C 28.0061 39.9284 28.3838 39.5569 28.4028 39.0809 L 28.4026 39.0867 L 29.1152 29.4114 L 28.4028 9.1508 C 28.3838 8.6752 28.0059 8.3024 27.5421 8.3024 Z" fill="#ffffff"/>			<path d="M 32.3042 8.4694 C 32.2876 7.9492 31.8752 7.5421 31.3649 7.5421 C 30.8529 7.5421 30.4401 7.95 30.425 8.4705 L 29.8406 29.4128 L 30.4255 39.0261 C 30.4401 39.5406 30.8529 39.9478 31.365 39.9478 C 31.8755 39.9478 32.2875 39.541 32.3042 39.0221 L 32.9631 29.4135 L 32.3042 8.4694 Z" fill="#ffffff"/>			<path d="M 32.3042 39.021 L 32.3042 39.0219 L 32.304 39.0268 L 32.3042 39.021 Z" fill="#ffffff"/>			<path d="M 35.2177 7.9994 C 34.6592 7.9994 34.2117 8.4417 34.1985 9.006 L 33.6608 29.4148 L 34.1991 38.9361 C 34.2117 39.4951 34.6592 39.9384 35.2179 39.9384 C 35.7742 39.9384 36.2212 39.4951 36.2365 38.9314 L 36.2365 38.9378 L 36.8408 29.4146 L 36.2365 9.0048 C 36.2209 8.441 35.7738 7.9994 35.2177 7.9994 Z" fill="#ffffff"/>			<path d="M 39.1002 8.6659 C 38.4963 8.6659 38.0138 9.1433 38.0022 9.7523 L 37.5114 29.4159 L 38.0024 38.8773 C 38.0138 39.48 38.4963 39.9559 39.1002 39.9559 C 39.7024 39.9559 40.1847 39.48 40.198 38.8705 L 40.198 38.8785 L 40.748 29.4167 L 40.198 9.7506 C 40.1843 9.1429 39.7023 8.6659 39.1002 8.6659 Z" fill="#ffffff"/>			<path d="M 43.6625 5.0524 C 43.4757 4.9265 43.2518 4.853 43.0125 4.853 C 42.7797 4.853 42.562 4.9231 42.3783 5.0427 C 42.058 5.2507 41.8418 5.61 41.8353 6.0182 L 41.8313 6.2389 L 41.3911 29.4108 C 41.3911 29.4249 41.8356 38.8171 41.8356 38.8171 C 41.8358 38.8308 41.8374 38.8439 41.8383 38.8571 C 41.8516 39.1197 41.9518 39.3611 42.1123 39.5521 C 42.3292 39.8096 42.6534 39.9752 43.0126 39.9752 C 43.3317 39.9752 43.6232 39.8447 43.8362 39.6335 C 44.049 39.423 44.1837 39.1322 44.1896 38.8118 L 44.2386 37.8818 L 44.6854 29.418 L 44.1898 6.017 C 44.1825 5.6163 43.974 5.262 43.6625 5.0524 Z" fill="#ffffff"/>			<path d="M 44.1895 38.8178 L 44.1896 38.8152 L 44.1895 38.8184 L 44.1896 38.8137 L 44.1898 38.8113 L 44.1896 38.8118 L 44.1896 38.8152 L 44.1895 38.8178 Z" fill="#ffffff"/>			<path d="M 47.5469 2.8334 C 47.359 2.7209 47.1407 2.6545 46.9078 2.6545 C 46.6085 2.6545 46.332 2.7612 46.1152 2.9393 C 45.8364 3.1675 45.6559 3.5131 45.6508 3.8987 L 45.6479 4.0271 L 45.1355 29.4202 L 45.3971 34.1148 L 45.6508 38.6826 C 45.6598 39.3587 46.2228 39.917 46.9077 39.917 C 47.5897 39.917 48.153 39.3587 48.1628 38.6727 L 48.1628 38.6835 L 48.1628 38.6838 L 48.7218 29.4202 L 48.7218 29.42 L 48.1628 3.8969 C 48.1567 3.4464 47.9095 3.0512 47.5469 2.8334 Z" fill="#ffffff"/>			<path d="M 82.093 17.3398 C 80.5297 17.3398 79.0385 17.6544 77.6804 18.2194 C 76.7728 8.0097 68.1516 0 57.635 0 C 55.0613 0 52.5531 0.5024 50.3373 1.3539 C 49.4761 1.6854 49.2477 2.0247 49.2393 2.686 C 49.2393 2.6866 49.2393 38.6429 49.2393 38.6429 C 49.2487 39.3365 49.7902 39.8757 50.4718 39.9431 C 50.5007 39.9461 82.0931 39.9431 82.0931 39.9431 C 88.3931 39.9431 93.5 34.9276 93.5 28.6698 C 93.4998 22.4122 88.3931 17.3398 82.093 17.3398 Z" fill="#ffffff"/>		</g>	</g></svg>