<?xml version="1.0" standalone="no"?><!-- Generator: Adobe Fireworks CS5.1, Export SVG Extension by Aaron Beall (http://fireworks.abeall.com) . Version: 0.6.0  --><!DOCTYPE svg PUBLIC "-//W3C//DTD SVG 1.1//EN" "http://www.w3.org/Graphics/SVG/1.1/DTD/svg11.dtd"><svg id="" viewBox="0 0 52 40" style="background-color:#ffffff00" version="1.1"	xmlns="http://www.w3.org/2000/svg" xmlns:xlink="http://www.w3.org/1999/xlink" xml:space="preserve"	x="0px" y="0px" width="52px" height="40px">	<g>		<path d="M 51.3475 4.7351 C 49.4918 5.5382 47.4971 6.0811 45.4038 6.3251 C 47.5404 5.0754 49.1814 3.0964 49.9541 0.7384 C 47.9543 1.8956 45.7397 2.7361 43.3825 3.189 C 41.4947 1.2262 38.8052 0 35.8288 0 C 30.1137 0 25.4803 4.5212 25.4803 10.0978 C 25.4803 10.8894 25.5719 11.6597 25.7479 12.3988 C 17.1475 11.9779 9.5223 7.9578 4.4185 1.8481 C 3.5276 3.3397 3.0173 5.0743 3.0173 6.9249 C 3.0173 10.4283 4.8442 13.5191 7.6208 15.33 C 5.9246 15.2776 4.329 14.8233 2.9337 14.0669 C 2.933 14.1091 2.9326 14.1512 2.9326 14.1938 C 2.9326 19.0864 6.4997 23.168 11.234 24.0955 C 10.3657 24.326 9.4514 24.4495 8.5076 24.4495 C 7.8406 24.4495 7.1923 24.3862 6.5607 24.2683 C 7.8773 28.2802 11.6993 31.1998 16.2275 31.2813 C 12.686 33.9898 8.2237 35.6039 3.3755 35.6039 C 2.5402 35.6039 1.7165 35.5562 0.9067 35.463 C 5.4866 38.3284 10.9261 40 16.7703 40 C 35.8048 40 46.2137 24.6129 46.2137 11.2688 C 46.2137 10.831 46.2035 10.3953 46.1838 9.9625 C 48.2056 8.5387 49.9602 6.7601 51.3475 4.7351 Z" fill="#ffffff"/>	</g></svg>