<svg viewBox="0 0 52 40" style="background-color:#ffffff00" xmlns="http://www.w3.org/2000/svg" width="52" height="40"><path d="M51.347 4.735c-1.855.803-3.85 1.346-5.943 1.59 2.136-1.25 3.777-3.23 4.55-5.587-2 1.158-4.214 1.998-6.572 2.45C41.495 1.228 38.806 0 35.83 0c-5.716 0-10.35 4.52-10.35 10.098 0 .79.092 1.562.268 2.3-8.6-.42-16.226-4.44-21.33-10.55-.89 1.492-1.4 3.226-1.4 5.077 0 3.503 1.826 6.594 4.603 8.405-1.69-.052-3.29-.507-4.68-1.263v.127c0 4.892 3.57 8.974 8.3 9.902-.87.23-1.78.354-2.72.354-.66 0-1.31-.064-1.94-.182 1.32 4.012 5.14 6.932 9.67 7.012-3.54 2.71-8 4.33-12.85 4.33-.83 0-1.66-.05-2.47-.14 4.56 2.86 10 4.53 15.84 4.53 19.04 0 29.45-15.387 29.45-28.73 0-.44-.01-.875-.03-1.307 2.02-1.423 3.774-3.203 5.16-5.228z" fill="#fff"/></svg>