<svg viewBox="0 0 217 18" style="background-color:#ffffff00" xmlns="http://www.w3.org/2000/svg" width="217" height="18"><path d="M117.895.234c-.768 0-1.388.62-1.388 1.387v5.99h-11.938v-5.99c0-.767-.619-1.387-1.385-1.387-.765 0-1.385.62-1.385 1.387v14.751c0 .771.62 1.395 1.385 1.395.766 0 1.385-.624 1.385-1.395v-5.983h11.938v5.983c0 .771.62 1.395 1.388 1.395.764 0 1.384-.624 1.384-1.395v-14.751c0-.767-.62-1.387-1.384-1.387zm-81.224-.003c-.764 0-1.385.623-1.385 1.386v11.397l-12.344-12.38c-.398-.394-.995-.511-1.51-.298-.518.218-.856.726-.856 1.281v14.753c0 .767.621 1.389 1.385 1.389.765 0 1.386-.621 1.386-1.389v-11.396l12.342 12.379c.267.263.62.408.98.408.178 0 .359-.037.53-.109.519-.214.855-.722.855-1.282v-14.754c0-.762-.619-1.386-1.385-1.386zm13.047 11.398c.956 0 1.731.777 1.731 1.736s-.775 1.736-1.731 1.736c-.956 0-1.731-.777-1.731-1.736s.775-1.736 1.731-1.736zm8.592 4.12l-7.353-14.747c-.241-.471-.716-.771-1.239-.771-.525 0-1.002.3-1.237.771l-7.355 14.747c-.347.689-.069 1.518.616 1.867.683.342 1.514.063 1.861-.622l6.115-12.266 6.113 12.266c.243.483.733.77 1.243.77.209 0 .418-.05.618-.148.684-.349.962-1.174.62-1.864l-.002-.003zm-40.805 0l-7.35-14.747c-.242-.471-.717-.771-1.24-.771-.527 0-1.006.3-1.239.771l-7.358 14.747c-.342.689-.063 1.518.62 1.867.682.342 1.514.063 1.86-.622l6.115-12.266 6.111 12.266c.244.483.732.77 1.241.77.21 0 .421-.05.621-.148.683-.349.963-1.174.62-1.864l-.002-.003zm-8.59-4.12c.956 0 1.731.777 1.731 1.736s-.775 1.736-1.731 1.736c-.956 0-1.732-.777-1.732-1.736s.775-1.736 1.732-1.736zm81.418-4.369c.956 0 1.731.778 1.731 1.737 0 .959-.775 1.736-1.731 1.736-.957 0-1.732-.777-1.732-1.736s.775-1.737 1.732-1.737zm5.864-.398c.27.718 1.067 1.082 1.782.812.717-.276 1.079-1.072.811-1.793h-.007c-1.25-3.319-4.439-5.7-8.205-5.7-4.859 0-8.794 3.941-8.794 8.812 0 4.876 3.935 8.823 8.794 8.823 3.766 0 6.954-2.387 8.205-5.709.272-.711-.091-1.516-.804-1.786-.715-.276-1.512.089-1.782.809-.867 2.282-3.046 3.915-5.619 3.907-3.326-.007-6.02-2.702-6.024-6.045.004-3.33 2.698-6.03 6.024-6.034 2.573-.008 4.748 1.619 5.619 3.903zm34.802-6.686c-4.858.003-8.792 3.948-8.799 8.821 0 4.872 3.94 8.817 8.799 8.825 4.858-.008 8.793-3.953 8.793-8.825 0-4.873-3.935-8.817-8.793-8.821zm0 14.861c-3.329-.003-6.022-2.702-6.027-6.04.006-3.339 2.699-6.036 6.027-6.042 3.325.007 6.018 2.704 6.024 6.042-.006 3.339-2.696 6.037-6.024 6.04zm0-7.776c.956 0 1.731.777 1.731 1.736 0 .958-.775 1.736-1.731 1.736-.955 0-1.73-.778-1.73-1.736 0-.959.775-1.736 1.73-1.736zm-52.137-1.954c-.004-2.807-2.264-5.069-5.055-5.073h-11.044c-.365 0-.72.145-.979.407-.255.256-.406.616-.406.981v14.751c0 .771.62 1.395 1.385 1.395.764 0 1.387-.624 1.387-1.395v-5.983l2.277-.003.006.003 7.371.011c1.263.009 2.289 1.031 2.289 2.301v3.67c0 .771.619 1.395 1.385 1.395s1.385-.624 1.385-1.395v-3.67c0-1.469-.626-2.774-1.613-3.701.988-.923 1.614-2.228 1.614-3.694zm-5.055 2.294l-9.656.011v-4.604h9.656c1.265.004 2.286 1.026 2.286 2.3-.001 1.265-1.027 2.291-2.286 2.294zm106.793-5.799c0-.77-.621-1.389-1.387-1.389h-14.709c-.764 0-1.385.62-1.385 1.389 0 .767.62 1.392 1.385 1.392h5.969v13.239c0 .767.615 1.389 1.385 1.389.763 0 1.386-.622 1.386-1.389v-13.239h5.969c.767-.001 1.388-.625 1.388-1.392zm7.248 9.881c-.956 0-1.73.78-1.73 1.736 0 .963.775 1.741 1.73 1.741.957 0 1.731-.78 1.731-1.741.001-.958-.774-1.736-1.731-1.736zm8.596 4.124l-7.353-14.754c-.24-.468-.717-.762-1.242-.762-.524 0-1 .293-1.239.762l-7.355 14.754c-.342.687-.062 1.523.62 1.865.686.341 1.517.066 1.86-.62l6.114-12.267 6.118 12.267c.243.488.734.766 1.241.766.208 0 .419-.048.619-.146.683-.341.957-1.178.619-1.865h-.002zm-48.675-12.741h11.045c.762 0 1.383-.624 1.383-1.386 0-.768-.621-1.388-1.383-1.388h-11.045c-2.79.003-5.052 2.265-5.058 5.073 0 2.801 2.268 5.069 5.058 5.069l7.365.018c1.268.002 2.291 1.026 2.291 2.292 0 1.269-1.02 2.293-2.286 2.293h-11.045c-.764 0-1.384.624-1.384 1.396 0 .767.619 1.389 1.384 1.389v-.008h11.045c2.795-.005 5.052-2.262 5.057-5.069 0-2.801-2.262-5.075-5.057-5.075l-7.371-.013c-1.268-.006-2.287-1.03-2.287-2.292.001-1.277 1.021-2.298 2.288-2.298zm69.231 2.299c-.007-2.808-2.264-5.069-5.058-5.073h-11.043c-.367 0-.722.143-.98.402-.259.261-.408.616-.408.986v14.753c0 .767.621 1.389 1.389 1.389.764 0 1.386-.622 1.386-1.389v-5.985l2.277-.005.006.005 7.37.014c1.266 0 2.293 1.027 2.293 2.29v3.682c0 .767.622 1.389 1.386 1.389.761 0 1.382-.622 1.382-1.389v-3.682c0-1.462-.628-2.771-1.612-3.694.986-.924 1.614-2.23 1.614-3.693zm-5.058 2.293l-7.215.009h-.157l-2.285.003v-4.604h9.656c1.268 0 2.288 1.02 2.288 2.298.002 1.263-1.026 2.288-2.287 2.293z" fill="#fff"/></svg>