<svg xmlns="http://www.w3.org/2000/svg" width="83.293" height="83.296" viewBox="0 0 83.293 83.296"><path fill="#fff" d="M7.52 44.228l-.034-.604-.032-.54c-.018-.413-.026-.83-.03-1.243l-.005-.25v-.24c0-.43.01-.85.03-1.28l.03-.49.03-.64-4.4-.43c-.08 1.03-.13 2.06-.13 3.1 0 1.02.04 2.04.12 3.06l3.23-.32 1.16-.11zM6.29 41.76l.002.092c.003.453.014.872.033 1.288l.002.07-.08.008-2.066.203c-.02-.6-.04-1.21-.04-1.82 0-.62.02-1.24.05-1.86l2.15.21v.07c-.02.44-.03.89-.03 1.33v.25l.01.17zm10.3 29.236l.013-.015 3.23-3.93.007-.01.443-.54 3.25-3.96.853-1.04.93-1.13 1.3-1.58.155-.18.02-.02-.09-.08c-.3-.26-.59-.55-.87-.83l-.29-.28-.18-.19c-.34-.35-.67-.72-.99-1.11l-.14-.16-.46-.6-.27-.37c-.19-.26-.39-.52-.57-.8-.17-.25-.34-.52-.5-.78-.22-.37-.44-.74-.64-1.13v-.01l-.09-.18c-.12-.24-.25-.48-.36-.73l-.16-.34-.14-.32-.12-.28-.15-.37-.18-.48-.05-.12-.13-.35-.07-.21-4.91 1.49-.82.25-4.81 1.4-.01.01-2.71.82-2.17.66c.7 2.15 1.59 4.26 2.69 6.32 1.22 2.28 2.63 4.38 4.21 6.3 1.47 1.8 3.09 3.44 4.82 4.9zM8.566 59.26c-.865-1.616-1.612-3.31-2.235-5.046l1.06-.32 2.72-.822 4.76-1.445.82-.248 2.7-.82 1.2-.36.08.2.1.23.06.15.29.64.05.1.12.26.22.43.17.34.03.06.08.14.33.59c.28.48.57.95.87 1.41l.12.17c.22.32.47.66.77 1.05l.06.07.43.55c.27.33.58.67.92 1.03l.28.3.05.05.14.15c.17.17.35.35.53.51l-.09.1-1.3 1.58-.93 1.13-.27.32-3.24 3.96-.45.54-2.5 3.05c-1.36-1.23-2.63-2.57-3.8-4-1.55-1.91-2.93-3.97-4.08-6.12zm10.287 2.238l.424-1.135.595-1.582.424-1.13.595-1.58.31-.81-2.81-.1-10.21-.38.31.46 8.15 12.24 2.24-5.96zm-5.323-3.734l3.68.138-1.294 3.45-2.385-3.588zm-4.836-6.93l-.18-.68-.103-.4c-.24-1.004-.44-2.014-.6-3.025l-.06-.45-.09-.65-1.84.18-2.55.25c.24 2.02.64 4.04 1.21 6.04l3.74-1.13.49-.15zm-3.433-.14c-.3-1.187-.54-2.395-.71-3.612l1.39-.136.76-.075.01.03c.16 1.06.37 2.11.62 3.13l.01.05-2.06.63zm36.39 32.602c23.01 0 41.65-18.646 41.65-41.646C83.3 18.64 64.65 0 41.65 0 18.645.002 0 18.646 0 41.65c0 23 18.646 41.646 41.646 41.646zM1.14 41.65C1.138 30.457 5.668 20.332 13 13 20.333 5.667 30.455 1.132 41.646 1.132c11.19 0 21.315 4.536 28.648 11.87S82.16 30.458 82.162 41.648c-.002 11.187-4.535 21.314-11.868 28.646S52.836 82.162 41.646 82.162c-11.19 0-21.313-4.533-28.646-11.865C5.665 62.964 1.134 52.837 1.132 41.65h.002zm67.45 1.417l.018-.284c.02-.402.032-.81.032-1.215 0-.39-.014-.78-.03-1.17l-.02-.368-.03-.39-3.846.38-.544.054.006.166c.02.372.035.74.04 1.108l.004.1.002.12-.002.11-.028.802-.016.465-.005.14.89.087 3.51.348.03-.453zm-1.096-.79l-2.15-.213.006-.38.006-.116-.004-.127-.006-.34 2.15-.21.01.69-.01.71zm-52.54-9.527l.146-.415.13-.367c.13-.363.27-.724.413-1.08l.057-.13c.15-.355.307-.707.47-1.06l.174-.362.188-.39.12-.246-1.4-.75-2.98-1.59-.13.255-.28.555-.19.39c-.42.902-.797 1.813-1.134 2.742l-.14.398-.2.592-.09.275 1.93.585 2.827.857.083-.26zm7.244-2.05l.126-.22.01-.017.108-.184.21-.35.334-.53.22-.33.126-.18.253-.36.214-.3.37-.48.15-.2.08-.11.01-.02c.36-.44.74-.85 1.13-1.26.37-.39.76-.77 1.16-1.14.26-.24.53-.47.8-.7l.29-.23c.29-.23.58-.45.88-.67.56-.4 1.14-.78 1.74-1.14l.68-.39.04-.03.03-.02.06-.03c.26-.14.54-.28.81-.41l.33-.15.6-.27.38-.15.38-.15.18-.07.39-.15.18-.06.26-.09-.24-.77-1.22-3.99-.28.09-.34.11-.45.16-.74.28-.44.17c-.27.11-.54.23-.8.36l-.35.15c-.38.18-.76.37-1.13.57l-.03.02c-1.16.61-2.25 1.31-3.28 2.07-.4.29-.78.58-1.16.89l-.28.23c-.61.51-1.19 1.03-1.74 1.59-.37.37-.72.75-1.06 1.13-.24.27-.48.54-.71.82l-.21.26-.4.51-.16.21-.31.43-.34.49-.08.11-.3.45-.39.62-.26.44-.17.3-.15.25.57.3.44.24 2.97 1.59.41.22zm47.445-6.224l-.48-.76-.346-.53c-.185-.27-.375-.536-.564-.798l-.316-.444c-.26-.348-.526-.688-.797-1.023l-.127-.16c-.4-.48-.816-.95-1.24-1.41-1.035-1.12-2.14-2.17-3.31-3.13-1.478-1.21-3.05-2.27-4.698-3.2l-.646-.36-.09-.04c-.42-.22-.85-.43-1.27-.64l-.51-.22c-.3-.14-.6-.27-.9-.4l-.57-.23c-.29-.11-.57-.22-.86-.33l-.61-.21-.48-.16-.8 2.64-.48 1.58.38.14.47.17.77.3.47.19c.26.11.52.23.79.35l.41.19c.3.14.6.29.89.45l.27.13c1.35.73 2.65 1.57 3.87 2.51.24.19.49.38.73.58l.02.01c.44.36.86.74 1.27 1.12.54.51 1.06 1.03 1.57 1.59l.57.63.43.5.09.11.09.12c.24.3.48.6.71.91l.23.31.53.76.25.39.46.72.25.44.21.36 3.89-2.07-.26-.44-.35-.57zm-2.875 1.588l-.402-.634-.07-.105-.195-.3c-.18-.264-.36-.526-.55-.786l-.09-.13-.14-.21c-.23-.31-.48-.63-.73-.94l-.02-.03-.07-.1-.11-.13-.29-.34-.05-.06-.09-.11c-.44-.51-.9-1-1.37-1.48-.38-.39-.77-.77-1.18-1.14-.33-.3-.66-.58-1-.86-.22-.18-.44-.35-.67-.52l-.11-.09c-1.29-.99-2.64-1.87-4.04-2.61l-.16-.08-.11-.06c-.31-.16-.62-.32-.93-.47l-.32-.14-.11-.06c-.27-.13-.54-.25-.82-.36l-.34-.14-.14-.06-.65-.25.16-.55.46-1.52.78.3.18.07.38.15.86.39.19.09.3.13c.4.19.81.4 1.21.61l.1.05.39.21.24.14c1.63.92 3.15 1.96 4.54 3.1 1.11.9 2.19 1.92 3.2 3.02.45.49.84.94 1.19 1.37l.05.06.08.09c.29.35.54.68.77.99l.17.24.14.19.54.77.21.33.12.18c.16.24.31.47.46.72l-1.9 1.01zm.477 7.01l-.126-.39-.11-.303c-.13-.35-.27-.7-.41-1.05l-.02-.05c-.15-.36-.32-.72-.48-1.08l-.15-.31-.19-.38-1.85.99-.3.16-1.75.93.02.04.04.11c.19.41.38.81.55 1.23v.02l.09.24c.14.34.27.68.38 1.03l.04.11.01.03.09-.03 1.26-.38.64-.19 2.22-.68zm-3.522-.114l-.184-.455-.19-.44.79-.43.05-.026.17-.09.88-.48.28.65.02.04v.01l.22.58-1.11.33-.96.29zM14.71 43.113l.03.406 3.01-.3 1.38-.14-.005-.15-.018-.46c-.014-.3-.028-.6-.028-.9v-.24c0-.38.01-.76.03-1.13v-.15l-3.47-.34-.92-.09-.04.44-.02.29c-.02.4-.03.81-.03 1.21 0 .39.01.78.03 1.18l.01.34zm1.097-2.232l2.146.22-.007.49.007.48-.314.03-1.84.18-.01-.68.01-.71zm4.464-6.52l.01-.03.05-.12c.12-.34.25-.67.38-1.01l.09-.24.02-.03c.17-.41.36-.82.56-1.22l.05-.09.02-.04-2.04-1.09-.22-.12-1.62-.86-.19.38-.14.31c-.16.35-.32.7-.47 1.06l-.02.06c-.14.35-.27.7-.41 1.06l-.12.36-.12.36.21.07 2.12.64 1.81.55.09.03zm-.5-1.86l-.01.02v.02l-.17.44-2.06-.62.24-.6.03-.07.27-.61.34.18.25.13.48.26.85.46-.18.43v-.01zm-4.24 2.36l-.07.3c-.19.77-.34 1.55-.46 2.34l-.05.36-.05.4.15.02 3.89.38.36.04.01-.03.02-.11c.06-.44.13-.89.22-1.32l.01-.02.03-.13c.08-.37.17-.75.27-1.13l.02-.04.04-.16-4.22-1.28-.12.42zm.92 1.01l1.94.59.13.04-.1.49-.01.08-.07.39-2.14-.21c.08-.45.17-.91.28-1.36zm33.8-20.14l-.28-.09-1.21 3.99-.23.77.26.09.2.07.4.14v.01l.16.06.43.17.37.15.64.28.29.14c.31.15.61.3.91.46l.72.41.05.02.46.28c.43.26.84.54 1.25.82.39.28.77.57 1.14.87h.01l.03.03c.27.22.54.45.8.69.4.36.78.74 1.16 1.13.39.41.77.82 1.13 1.27l.07.08.18.24c.26.33.51.66.75 1l.1.14.07.09c.3.44.59.89.86 1.35l.08.13.01.01.13.22.42-.22 3.97-2.12-.14-.25-.17-.29-.28-.47-.4-.64-.28-.42-.07-.1-.4-.58-.24-.34-.16-.21c-.2-.26-.39-.51-.6-.76-.23-.28-.47-.55-.71-.82-.35-.39-.71-.76-1.07-1.13-.53-.52-1.07-1.02-1.62-1.5l-.1-.08-.28-.24c-.38-.3-.76-.6-1.15-.88-1.05-.77-2.16-1.47-3.3-2.08-.37-.2-.75-.39-1.13-.57l-.35-.15c-.26-.12-.53-.24-.8-.35l-.45-.18-.71-.28-.5-.17-.32-.11zm-18.79-5.32l-.45.15-.62.22-.84.33-.57.23c-.31.13-.62.27-.93.41l-.47.21c-.43.21-.85.42-1.27.64l-.12.06v.01c-.31.17-.62.35-.93.53l-.48.28c-.32.19-.64.4-.95.6l-.42.27-.52.37c-.7.49-1.39 1-2.04 1.53-1.6 1.31-3.04 2.75-4.34 4.3l-.21.25c-.33.4-.64.8-.94 1.21l-.3.42c-.2.28-.4.56-.59.84l-.32.49-.5.8-.32.54-.25.45 3.89 2.08.2-.33.28-.46c.14-.22.28-.45.43-.67l.29-.44.25-.35.19-.27.06-.07.26-.37c.25-.33.5-.66.77-.98l.04-.05.09-.1c.32-.38.66-.76 1-1.13l.34-.36c.4-.42.81-.82 1.24-1.22.41-.38.84-.76 1.28-1.12l.02-.01c.7-.57 1.43-1.11 2.19-1.62.52-.34 1.05-.67 1.6-.98.27-.15.53-.31.8-.45l.03-.01c.4-.21.79-.41 1.19-.6l.39-.18.81-.36.48-.19.74-.28.51-.18.34-.12-.94-3.11-.33-1.11zm-.74 3.76l-.09.04-.39.16-.85.38-.14.07-.26.12c-.44.21-.84.42-1.23.63l-.03.01h-.01l-.66.38-.16.09c-.63.37-1.18.7-1.66 1.03-.79.53-1.56 1.1-2.3 1.7-.33.28-.66.57-.99.87-.4.36-.79.74-1.18 1.13l-.43.44c-.38.41-.72.78-1.04 1.15l-.44.52-.04.05-.39.51-.4.52-.17.24-.1.14c-.17.24-.35.49-.51.74l-.25.31-.08.13-.36.57-1.9-1.01.46-.72.11-.17.21-.31.57-.81.12-.17.17-.23c.31-.42.6-.8.91-1.17l.09-.1.12-.14c.33-.4.67-.78 1.01-1.16l.46-.47c.86-.9 1.77-1.75 2.71-2.52.57-.47 1.22-.96 1.97-1.48l.2-.15.3-.21.22-.13.19-.12.16-.1c.25-.17.5-.33.76-.48l.24-.14.24-.14.16-.09c.24-.14.48-.28.73-.41l.04-.03.09-.04c.41-.21.82-.42 1.23-.62l.25-.11.2-.09c.3-.14.6-.27.91-.4l.37-.15.18-.07c.25-.1.5-.2.76-.29l.62 2.06-.62.25zm42.2 16.58l-.14-.42c-.16-.45-.34-.91-.52-1.37l-.01-.01c-.18-.44-.38-.89-.59-1.35l-.18-.38-.29-.58-.13-.25-3.95 2.11-.19.11-.24.13.12.25.21.43.17.35c.18.38.34.75.5 1.13l.03.08c.15.36.29.72.42 1.08l.12.34.14.42.09.26 4.76-1.44-.09-.27-.18-.55zm-9.42 5.17c.1.37.19.75.27 1.13l.03.14c.09.45.16.89.22 1.34l.02.1.01.04.35-.03 4.05-.4-.05-.42-.04-.3c-.11-.78-.27-1.56-.46-2.34l-.08-.34-.11-.4-2.76.84-1.46.44.04.15.02.06zm1.75.43l1.62-.49c.11.45.2.91.28 1.37l-2.15.21-.08-.47-.1-.48.45-.13zm-50.27 9.33c.06.38.12.75.2 1.12l.01.03c.08.4.17.79.27 1.18l.07.29.12.44 2.75-.83 1.48-.45-.03-.16-.11-.51c-.13-.53-.23-1.06-.32-1.59l-.09-.56-.02-.14-.89.08-.89.09-2.6.26.05.36.05.39zm2.62.12l.72-.07c.06.32.12.64.19.95l-2.07.63-.15-.67-.01-.02-.01-.02-.12-.64 1.43-.14zm45.84 1.65l.94.28 3.29 1 .11-.39.09-.35c.09-.37.18-.73.25-1.1l.02-.09c.07-.38.14-.75.2-1.12l.05-.37.05-.4-4.04-.4-.35-.03-.02.13-.1.57c-.08.54-.19 1.06-.31 1.59l-.12.52-.03.15zm1.54-1.73l2.15.21-.11.64-.01.04v.04l-.14.64-2.07-.62c.07-.31.14-.63.19-.95zm9.66-1.62l.05-.63.03-.43c.02-.48.03-.96.03-1.44v-.1c0-.47-.01-.94-.03-1.41l-.02-.46-.04-.59-.02-.29-4.95.49.02.28.03.45.02.37c.02.42.03.82.03 1.24v.03c0 .41-.01.81-.03 1.22l-.02.39-.02.44-.02.28 4.94.49.02-.29zm-.21-7.07l-.06-.46c-.07-.47-.15-.94-.24-1.41l-.01-.04c-.09-.48-.2-.96-.32-1.44l-.11-.42-.17-.61-.07-.28-4.76 1.44.08.27.11.43.1.39c.1.4.19.8.27 1.2l.01.04c.08.4.15.79.21 1.19l.05.34.07.46.04.27 2.37-.23 2.58-.25-.04-.29-.07-.59zm-4.87 8l-.06.46-.05.34c-.06.42-.13.83-.21 1.23v.02c-.08.4-.17.8-.27 1.2l-.09.37-.11.44-.07.27 4.76 1.44.08-.28.16-.57.12-.45c.11-.46.22-.92.31-1.39l.02-.08c.1-.46.18-.93.25-1.4l.07-.47.07-.59.04-.28-4.94-.49-.03.27zm-57.5-20.07l.29-.48.33-.55c.17-.28.35-.55.53-.83l.33-.5c.21-.3.42-.6.64-.9l.28-.39c.32-.42.65-.84.99-1.26.24-.28.49-.57.74-.85s.51-.56.77-.84c1-1.06 2.07-2.07 3.21-3.01.4-.32.8-.63 1.21-.94 1.35-1 2.79-1.93 4.32-2.75l.08-.03c.46-.24.91-.47 1.36-.68l.48-.22c.33-.14.65-.29.98-.43l.58-.23.9-.34.61-.21.51-.18.26-.09-.17-.58L30 4.47l-.27.09c-2.17.7-4.293 1.59-6.37 2.7l-.02.01h-.01c-2.284 1.22-4.39 2.64-6.33 4.22-1.992 1.633-3.8 3.443-5.392 5.39-1.48 1.8-2.775 3.72-3.895 5.723l-.143.25 4.39 2.35.14-.24zM49.29 6.51H34.03l7.63 10.576L49.29 6.51zm-9.783 2.8h4.31l-2.156 2.987L39.5 9.31zm12.664-.003l.52.184.61.22c.3.11.61.23.91.36l.56.23c.33.14.67.29 1 .45l.45.2c.48.23.95.47 1.42.72 1.95 1.05 3.8 2.28 5.53 3.7 1.7 1.4 3.28 2.97 4.7 4.71.33.4.65.82.97 1.24l.27.39.63.9.35.52c.18.27.35.54.52.82l.33.57.3.49.13.24 2.17-1.15 2.23-1.19-.14-.25c-1.14-2.05-2.45-3.96-3.89-5.72-1.64-1.99-3.44-3.8-5.4-5.4-1.98-1.62-4.11-3.04-6.35-4.23-2.04-1.09-4.18-2-6.37-2.71l-.27-.09-1.44 4.76.26.09zm20.29 17.385l.19.407c.21.46.42.93.62 1.4l.01.04c.19.46.36.92.53 1.38l.15.43.21.6.2-.06 4.03-1.23c-.63-1.93-1.41-3.84-2.36-5.7l-3.89 2.08.31.62zm3.09-1.152c.52 1.108.99 2.247 1.4 3.403l-2.07.627-.01-.026c-.19-.53-.37-1-.55-1.432l-.01-.01v-.02l-.01-.01c-.18-.444-.39-.918-.64-1.454l-.02-.063 1.91-1.015zM8.87 46.15l.06.406c.15.973.34 1.945.58 2.906l.114.45.165.588.08.278 4.76-1.444-.08-.267-.12-.46-.09-.34c-.1-.404-.2-.81-.28-1.213l-.01-.03c-.08-.4-.15-.794-.21-1.19l-.06-.372-.06-.432-.04-.275-4.53.447-.13.012-.29.03.03.286.08.62zm.45-15.8l.15-.44c.17-.468.35-.933.54-1.395l.02-.052c.195-.46.4-.92.61-1.375l.21-.435.28-.58-.805-.43-3.086-1.65c-.93 1.836-1.72 3.74-2.36 5.694l4.23 1.28.22-.616zm-.354-2.268l-.003.002c-.187.455-.367.925-.554 1.438l-.02.046-2.06-.625c.41-1.152.88-2.29 1.4-3.403l1.9 1.02-.03.05c-.24.506-.45.97-.63 1.42l-.02.052zm-1.22 8.826l.07-.51c.076-.5.16-.993.258-1.49l.004-.02c.1-.5.215-.996.335-1.487l.11-.42.167-.65-3.75-1.13-.473-.14c-.56 1.98-.96 4-1.2 6.05l4.4.44.086-.61zm-.433-3.78c-.14.567-.254 1.067-.35 1.562-.092.463-.18.966-.267 1.537l-.01.06-2.145-.21c.19-1.214.42-2.423.72-3.612l2.07.625v.04zm67.45-.17l.12.465c.122.496.236.992.338 1.493l.01.03c.09.493.18.987.25 1.483l.06.44.09.65 4.4-.44c-.23-2.03-.63-4.05-1.2-6.05l-4.22 1.29.17.63zm3.267-.494c.298 1.187.542 2.396.722 3.61l-2.146.213-.004-.028c-.088-.57-.176-1.07-.263-1.52l-.01-.04v-.02c-.1-.48-.21-.98-.35-1.54l-.02-.07 2.06-.63zM32.594 9.296l1.69 5.578.64 2.103.8 2.634.052.18.23-.06.373-.09.12-.03.53-.11.37-.07.68-.12.33-.05c.33-.05.67-.09 1-.12.73-.07 1.47-.11 2.2-.11.74 0 1.49.04 2.22.12h.02c.33.03.66.07.99.12l.34.06.68.12.37.08.51.12.15.04.35.09.23.06.06-.18.72-2.37.71-2.35v-.01l1.58-5.18.12-.39 1.48-4.9c-2.2-.62-4.47-1.05-6.75-1.27-1.27-.13-2.54-.19-3.81-.19-1.25 0-2.51.06-3.77.18-2.26.23-4.52.65-6.76 1.28l.73 2.42.75 2.48zm5.376-5.05c1.198-.117 2.427-.178 3.655-.178 1.232 0 2.48.06 3.698.184 1.833.182 3.657.5 5.438.946l-1.14 3.775-.11.39-1.57 5.19-.71 2.354-.46 1.535-.24-.055-.39-.077-.72-.127-.12-.02-.23-.037c-.37-.052-.71-.094-1.06-.13-.77-.077-1.56-.12-2.33-.12-.78 0-1.56.04-2.32.117-.32.033-.67.077-1.05.13l-.22.036-.13.02-.71.12-.4.08-.25.05-.54-1.8-.64-2.1-1.7-5.58-.75-2.48-.39-1.3c1.78-.45 3.61-.77 5.44-.95zm24.528 62.74l-3.624-4.418-.88-1.07-.93-1.135-1.3-1.582-.23-.27c.33-.27.65-.56.967-.85.54-.5 1.06-1.03 1.55-1.58l.49-.56.45-.57c.4-.51.77-1.04 1.11-1.58.24-.37.46-.75.67-1.13l.16-.27c.23-.43.44-.87.64-1.31.17-.37.33-.75.48-1.13.19-.49.37-.99.53-1.51l.02-.07c.11-.37.22-.75.31-1.13.13-.52.23-1.05.32-1.59.06-.37.11-.75.16-1.13l.03-.27c.04-.43.07-.87.09-1.31.01-.27.02-.55.02-.83v-.3c-.01-.53-.03-1.06-.08-1.58l-.02-.25c-.03-.29-.06-.59-.1-.88-.07-.53-.17-1.06-.28-1.58-.09-.38-.18-.76-.28-1.13l-.16-.61c-.1-.33-.21-.65-.32-.98-.14-.38-.28-.76-.44-1.13-.23-.54-.48-1.06-.74-1.58l-.13-.26c-.16-.3-.33-.59-.5-.87-.32-.55-.67-1.08-1.04-1.59-.27-.37-.54-.74-.84-1.1l-.03-.03c-.45-.55-.94-1.08-1.44-1.59-.39-.39-.81-.76-1.23-1.13l-.31-.27c-.56-.46-1.16-.9-1.77-1.31-.58-.38-1.17-.74-1.78-1.07l-.12-.06c-1.21-.64-2.49-1.17-3.83-1.57l-.02-.01c-1.34-.41-2.74-.69-4.18-.83-.7-.07-1.41-.11-2.14-.1-.72 0-1.44.04-2.14.11-1.44.14-2.84.42-4.18.82l-.02.01c-1.33.41-2.61.94-3.83 1.58l-.12.06c-.61.32-1.21.68-1.78 1.07-.61.4-1.21.84-1.77 1.31l-.32.27c-.43.37-.84.74-1.24 1.13-.5.5-.99 1.03-1.44 1.58l-.03.03c-.29.36-.57.73-.84 1.1-.37.51-.72 1.04-1.04 1.59-.17.29-.34.58-.49.87l-.13.26c-.27.52-.51 1.05-.74 1.59-.15.37-.3.75-.44 1.13-.11.33-.22.66-.32.99l-.16.6c-.11.37-.2.75-.28 1.13-.11.52-.21 1.05-.28 1.58-.04.29-.08.59-.11.88l-.02.26c-.05.52-.07 1.05-.08 1.58l-.01.3c0 .28.01.56.02.83.02.44.045.88.084 1.31l.03.27c.04.39.097.76.158 1.14.09.54.19 1.06.32 1.59.09.38.19.76.3 1.14l.02.07c.16.52.33 1.02.53 1.51.15.38.31.76.478 1.13.2.44.41.89.65 1.31l.15.27c.22.39.44.77.675 1.14.35.55.72 1.08 1.11 1.59l.444.57.49.56c.49.56 1 1.09 1.55 1.59.31.3.63.58.96.85l-.23.29-1.3 1.588-.17.21-.76.92-.88 1.07-3.665 4.4-2.15 2.62L17.56 71l-.367.44.45.36c.44.346.884.684 1.334 1.01.48.35.97.69 1.46 1.016.51.33 1.02.65 1.54.96.43.256.87.497 1.31.735l.21.12.03.01c.65.34 1.31.67 1.97.97.53.25 1.07.49 1.62.71.51.21 1.03.41 1.55.59l.14.06c.55.2 1.1.38 1.66.55h.01l.02.01c.59.18 1.18.34 1.77.48l.35.09c.577.14 1.15.27 1.738.38.59.12 1.19.22 1.788.31l.81.11c.32.04.63.09.95.12h.03c.71.08 1.44.12 2.17.15.53.02 1.06.04 1.6.04h.17c.387 0 .77-.02 1.15-.03l.66-.01c.477-.02.948-.06 1.42-.1l.32-.02h.04c.72-.07 1.45-.17 2.16-.28l.66-.12c.365-.06.73-.12 1.094-.19.35-.07.69-.16 1.04-.24l.72-.17.61-.17c.37-.1.74-.2 1.11-.31h.01l.41-.13.87-.28.78-.28.74-.29c.31-.12.61-.23.915-.36l.66-.29c.34-.14.67-.28 1-.44.53-.25 1.06-.52 1.588-.79h.03l.477-.27c.486-.27.957-.54 1.41-.81l.36-.23c.386-.23.77-.48 1.14-.73h.007c.5-.34.997-.68 1.477-1.04l.38-.29.62-.47.45-.35-.36-.45-3.27-3.99zm-7.684-9.36l-1.282-1.563h2.97c-.534.55-1.095 1.07-1.688 1.562zm2.838-2.845l-.13.15h-4.118c.548-.49 1.06-1.02 1.54-1.58h3.78c-.337.5-.695.98-1.072 1.44zm-13.04-9.58L44 44.45l-.08-.097.253-.286c.34-.432.573-.956.656-1.527h10.33c-.04.52-.1 1.026-.19 1.527-.07.384-.15.764-.26 1.132-.15.54-.33 1.07-.54 1.58-.16.39-.34.76-.53 1.13-.29.55-.62 1.08-.98 1.58-.28.39-.58.77-.9 1.13-.47.52-.97 1.01-1.51 1.45l-1.19-1.46-.37-.46-.56-.68-1.31-1.58-.8-.98-.13-.16-.76-.93-.55-.66zm-5.78-4.68c-.14.26-.25.54-.315.84l-.016.06H28.11v-.05c.013-.54.057-1.07.13-1.58l.01-.08v.83h10.585zm-.366 2.03c.083.57.315 1.1.656 1.53l.25.29-.567.69-.126.16-.21.25-1.1 1.34-.36.44-.57.7-.53.64-.77.94-.93 1.14-1.2 1.46c-.54-.44-1.04-.93-1.51-1.45-.32-.36-.62-.73-.9-1.13-.36-.5-.69-1.03-.98-1.58-.19-.37-.37-.74-.53-1.13-.22-.51-.39-1.04-.54-1.58-.1-.37-.19-.75-.26-1.13-.09-.5-.16-1-.19-1.52h10.33zm-10.17-3.15c.044-.25.097-.5.15-.75.095-.4.204-.8.33-1.19v1.05h25.928v-.44l.146.58c.057.25.104.5.147.75h-11.59c-.507-.33-1.11-.52-1.76-.52s-1.256.2-1.76.53h-11.59zm25.866-2.91l.223.58.107.32h-25.69l.108-.31c.12-.33.25-.65.396-.96v.39h24.856zm-4.967-6.06l.104.08c.36.25.72.53 1.06.82H32.92c.343-.29.7-.56 1.068-.81l.107-.07H49.19zM36.15 29.28c.31-.14.625-.268.946-.38.588-.213 1.193-.386 1.816-.51h5.478c.62.124 1.23.297 1.813.51.32.113.635.24.943.38h-10.99zm15.41 3.15c.23.248.45.503.664.768l.1.123H30.98l.094-.12c.212-.26.433-.52.662-.76h19.82zm1.554 2.023c.186.287.355.584.52.888H29.67c.156-.3.33-.6.51-.89h22.93zm2.03 6.062c.025.277.042.555.046.835v.054H44.795l-.015-.055c-.07-.3-.18-.58-.32-.84h10.68zm4.77 10.896c-.148.28-.303.54-.46.81h-3.607c.37-.51.716-1.03 1.03-1.58h3.43l-.393.78zm.897-1.91h-3.33c.25-.51.48-1.04.68-1.58h3.23c-.17.54-.36 1.07-.57 1.58zm.9-2.71h-3.18c.16-.52.29-1.04.39-1.58h3.13c-.09.54-.2 1.07-.33 1.59zm.55-3.1l-.04.39H59.1c.068-.52.114-1.05.136-1.58h3.1c-.02.4-.042.8-.082 1.2zm.01-3.91c.05.52.08 1.05.09 1.59h-3.11c-.01-.53-.04-1.06-.1-1.58h3.13zm-.43-2.72c.12.53.23 1.05.3 1.59h-3.16c-.09-.53-.21-1.06-.35-1.58h3.21zm-.82-2.71c.16.44.32.87.45 1.31l.08.28h-3.27c-.18-.54-.4-1.06-.63-1.58h3.38zm-1.26-2.71l.16.28c.23.43.44.86.64 1.31h-3.48c-.3-.55-.63-1.07-.98-1.58h3.67zm-1.81-2.73c.4.51.78 1.04 1.13 1.59h-3.85c-.45-.56-.95-1.08-1.47-1.58h4.19zM57 27.76h-4.543l-.4-.31v-.2h-.28c-.546-.388-1.11-.747-1.7-1.075H55.4c.56.5 1.096 1.028 1.6 1.586zm-21.364-5.927c1.28-.385 2.61-.656 3.982-.79.67-.064 1.347-.097 2.028-.097.687 0 1.36.033 2.032.098 1.37.133 2.702.402 3.98.79.482.145.955.314 1.422.493H34.215c.468-.18.94-.348 1.42-.494zm-3.878 1.626h19.78c.864.47 1.692 1 2.476 1.58h-6.4c-1.918-.71-3.99-1.1-6.154-1.1-2.163 0-4.235.38-6.154 1.09h-6.024c.782-.59 1.61-1.12 2.476-1.59zm-3.86 2.71h4.944c-.84.46-1.636.99-2.383 1.58h-4.17c.5-.56 1.04-1.09 1.6-1.59zm-2.552 2.72h3.812c-.52.5-1.015 1.02-1.474 1.58h-3.462c.35-.55.725-1.08 1.124-1.59zm-1.96 2.99l.158-.28h3.292c-.354.51-.685 1.03-.983 1.58h-3.1c.197-.45.406-.88.634-1.31zm-1.553 3.75c.136-.44.288-.88.452-1.31h3c-.237.52-.45 1.04-.637 1.58h-2.892l.077-.28zm-.365 1.4h2.828c-.14.52-.26 1.05-.354 1.58h-2.776c.08-.54.182-1.06.302-1.59zm-.433 2.72h2.74c-.057.52-.09 1.05-.1 1.58H20.95c.01-.54.037-1.06.085-1.59zm.01 3.91c-.04-.4-.063-.8-.08-1.2h2.72c.02.53.067 1.06.135 1.58h-2.728l-.048-.39zm.545 3.1c-.133-.52-.242-1.05-.336-1.59h2.75c.104.53.235 1.06.39 1.58H21.59zm.896 2.71c-.21-.52-.397-1.05-.57-1.59h2.848c.2.54.424 1.07.674 1.58h-2.952zm1.358 2.71c-.157-.27-.31-.53-.457-.81-.138-.26-.267-.52-.394-.78h3.052c.314.54.657 1.07 1.03 1.58h-3.23zm1.927 2.72l-.12-.15c-.38-.46-.73-.94-1.07-1.44h3.41c.48.56.99 1.09 1.54 1.58h-3.74zm1.03 1.13h2.97l-1.28 1.56c-.59-.49-1.15-1.01-1.68-1.56zm-6.24 16.49c-.27-.19-.55-.39-.82-.59l-.12-.09c-.26-.19-.51-.38-.77-.58l-.07-.06 2.28-2.78.63-.77 3.63-4.41 1.47-1.79.93-1.13.96-1.17.27-.32.07-.09.02-.03.36-.44.55-.67 1.18-1.44.13-.15.15-.18.09-.11.37-.45.33-.4.24-.29-.19.29-.3.45-.31.48-.13.2-.18.27-.87 1.32-.3.45-.33.5-.12.18-.19.29-.31.47-.54.82-.74 1.13-7.3 11.04v.01zm2.97 1.82c-.33-.19-.67-.38-1.01-.58-.34-.2-.67-.41-1.01-.63l.01-.01 7.71-11.65.75-1.14.13-.19.32-.48.31-.48.3-.45.75-1.13.46-.7.31-.47.28-.42.05-.06.71-1.07.48-.73.32-.47.26-.39.07-.1.69-1.04.08-.12-.06.11-.59 1.11-.02.03-.25.47-.27.49-.32.61-.6 1.13-.08.16-.27.51-.26.5-.23.42-.61 1.13-.46.85-.19.35-.08.15-.13.23-.14.27-.46.86-6.87 12.86v.01zM27 76.03v.01c-.343-.148-.685-.303-1.025-.46l-.035-.015c-.414-.193-.825-.394-1.233-.6l-.167-.08v-.005l7.16-13.395.177-.33.268-.49.164-.3.1-.193.74-1.39.55-1.023.06-.11.21-.4.27-.51.37-.69.6-1.13.04-.08.27-.5.27-.51.27-.51.6-1.14.32-.61v.01l-.25.6-.46 1.14-.26.61-.22.53-.18.44-.04.08-.43 1.05-.38.94-.22.53-.05.11-.17.41-.3.72-.65 1.58-.1.23-.21.52-.16.38-.06.14-.75 1.85L27 76.04zm3.27 1.216v.01c-.367-.12-.734-.244-1.1-.375-.374-.13-.747-.27-1.117-.41h-.002l.01-.01 5.89-14.4.22-.52.02-.05.2-.47.27-.65.64-1.58.12-.3.21-.52.12-.3.09-.23.56-1.35.26-.61.21-.51v-.01l.12-.28.1-.25.43-1.04.1-.23-.07.24-.33 1.08-.15.5-.02.05-.17.54-.16.54-.45 1.5-.02.09-.14.46-.16.54-.04.13-.17.58-.3 1-.28.92-.06.22-.1.33-.17.55-4.52 14.89zm3.724.974v.01c-.332-.07-.665-.15-.997-.23l-.14-.03c-.44-.11-.88-.222-1.32-.342l-.196-.053.01-.003 4.22-13.916.3-.98.17-.54.17-.54.04-.12.34-1.14.43-1.392.06-.19.11-.35.17-.55.07-.234.48-1.587.06-.21.17-.54.12-.38.05-.17.43-1.414.31-1.01-.2 1.01-.28 1.47-.02.11-.09.45-.11.55-.02.12L38 57.6l-.07.37-.11.56-.04.2-.06.35-.24 1.23-.22 1.13-.07.36-.11.55-.11.55L34 78.18zm3.44.56v.005c-.382-.046-.77-.097-1.153-.15-.39-.06-.78-.12-1.17-.19v-.01l2.96-15.27.11-.557.11-.556.11-.573.22-1.14.2-1.03.11-.56.11-.56.11-.58.29-1.49.02-.1.09-.46.11-.56.02-.11.25-1.25-.12 1.25-.01.12-.05.56-.04.44-.01.12-.14 1.46-.06.63-.05.51v.06l-.05.56-.09.95-.11 1.13-.06.68-.05.56-.05.56-1.52 15.48zm3.844.246c-.384-.004-.773-.02-1.16-.033-.46-.02-.92-.05-1.375-.084l-.18-.01 1.52-15.49.06-.57.056-.56.08-.8.11-1.14.09-.86.06-.57.01-.16.04-.4.07-.73.13-1.35.02-.24.03-.33.06-.56.02-.24.15-1.59.07-.71v.71l.01 1.59v2.72l.01.75v1.14l.01.83v3.09L41.25 79zm.914-36.813l-.002-.004v-.01l-.045-.06-.038-.05-.025-.03-.113-.13-.33-.37-.31.36-.15.18-.06.07-.01.01-.04.05-.07.07-.07.09-.02.03-.04.05-.04.04-.12.14-.11.12-.05.06-.1.12-.1.12h-.01l-.25.31c-.23-.26-.4-.57-.49-.93l-.02-.06c-.03-.14-.05-.27-.05-.41l.01-.11c.01-.2.04-.39.11-.57l.01-.06c.12-.32.32-.61.57-.83.37-.32.84-.52 1.37-.53.53 0 1 .2 1.37.52.26.23.46.51.58.84l.01.05c.06.19.1.37.11.57l.01.11c0 .14-.01.27-.04.41l-.02.05c-.08.35-.25.66-.49.92l-.04-.06-.15-.18-.18-.22-.05-.05-.1-.11-.07-.09-.15-.18-.04-.05-.05-.06-.01-.01-.08-.09-.07-.08-.06-.08zm2.568 36.69c-.384.03-.77.057-1.153.074-.394.02-.794.037-1.19.04v-.007l-.08-15.557v-.56l-.005-.567-.01-.838-.01-1.135-.01-.848v-1.13l-.006-.735-.01-1.336v-.564l-.004-.568v-.25l-.01-1.13v-.004l.11 1.137.024.24.055.566.03.32.02.24.13 1.35.07.7.05.43.02.14.05.56.09.88.12 1.14.08.8.06.56.05.56 1.53 15.49v.01zm2.734-.333l-.06.01c-.46.08-.917.14-1.376.19l-.17.02-1.525-15.49-.05-.56-.05-.56-.07-.69-.104-1.13-.1-1.004-.06-.562-.01-.016-.06-.554-.06-.58-.14-1.46-.01-.128-.05-.44-.06-.565-.01-.13-.16-1.58-.08-.81.16.82.32 1.59.02.09.11.56.1.49.01.07.31 1.52.1.49.11.56.02.09.09.47.23 1.12.23 1.14.11.54.11.56.11.56 3.1 15.23v.01l-1.08.19zm4.474-.98c-.37.11-.744.21-1.12.31-.383.094-.77.186-1.16.27v-.01l-2.89-14.13-.23-1.12-.11-.552-.114-.557-.066-.31-.23-1.13-.27-1.35-.04-.23-.062-.32-.11-.56-.05-.25-.324-1.58-.032-.15-.11-.55-.087-.42-.027-.13-.273-1.35.4 1.32.05.17.113.38.166.54.06.21.48 1.59.04.13.163.55.14.45.024.09.45 1.49.34 1.14.03.12.16.54.16.54 4.52 14.89v.01h-.01zm2.66-.88l-.1.04c-.432.16-.86.31-1.287.45l-.19.065v-.007l-4.52-14.89-.17-.54-.1-.332-.07-.21-.28-.922-.48-1.58-.07-.25-.16-.54-.1-.345-.06-.21-.41-1.38-.16-.54-.16-.54-.01-.05-.15-.5-.33-1.09-.34-1.14-.06-.22.09.22.48 1.13.42 1 .23.52.03.06.19.47.28.67.49 1.18.17.41.05.11.22.52.21.5.67 1.58.25.59.22.52.01.03.21.49 1.23 2.94 4.79 11.4c-.33.13-.66.25-.98.38zm3.116-1.304c-.36.17-.725.337-1.09.494v-.01l-6.03-14.35-.024-.056-.2-.465-.22-.52-.06-.15-.67-1.59-.4-.95-.08-.19-.14-.33-.223-.53-.304-.73-.466-1.1-.01-.02-.21-.5-.222-.52-.233-.56-.296-.7-.002-.01.38.71.27.51.273.5.264.5.05.07.61 1.13.29.54.27.51.27.5.03.04.61 1.13.75 1.39.1.19.17.3.27.49.18.33 6.82 12.76.35.63v.01c-.35.17-.69.34-1.04.51zm3.38-1.833l-.118.07c-.345.205-.69.41-1.04.606l-.19.11v-.01l-2.184-4.09-4.69-8.78-.463-.87-.15-.27-.12-.23-.27-.49-.45-.86-.6-1.14-.31-.59-.27-.5-.27-.5-.01-.02-.6-1.12-.33-.62-.27-.5-.26-.48-.01-.03-.6-1.1-.53-1-.07-.14-.01-.01.77 1.13.65.97.1.16.21.31.31.47.54.8.55.81.21.31.11.16.31.47.64.96.76 1.13.23.34.31.47.32.47.21.31.76 1.13.21.31 7.52 11.14c-.32.21-.65.42-.98.62zM64 71.625c-.317.235-.642.467-.967.697l-.003-.01-7.308-10.816-.767-1.135-.634-.94-.31-.47-.11-.17-.2-.3-.19-.29-.37-.55-1.07-1.59-.01-.01-.06-.09.07.09.02.02 1.31 1.59.55.67.36.44.02.02.07.09.27.33.96 1.17.93 1.14 1.45 1.8.55.67 3.08 3.76 2.9 3.53-.51.39zM8.66 39.05l-.044.583-.03.49c-.02.49-.036.983-.036 1.477 0 .492.016.984.035 1.473l.026.43.05.614.02.29 2.86-.28 2.09-.207-.02-.275-.02-.445-.02-.363c-.01-.414-.03-.827-.03-1.234 0-.422.02-.84.04-1.263l.02-.334.03-.474.02-.277-.7-.07-4.24-.416-.02.28zm67.152.564l.024.413c.022.514.04 1.025.04 1.54 0 .515-.018 1.03-.04 1.546l-.028.46-.037.66 4.4.44c.09-1.034.13-2.064.13-3.104 0-1.02-.04-2.05-.12-3.07l-4.39.43c.02.22.03.45.04.68zm1.156.363v-.024l2.146-.21c.03.61.045 1.22.045 1.827 0 .615-.02 1.238-.05 1.86l-2.15-.212v-.046c.02-.58.04-1.105.04-1.6 0-.488-.02-1.008-.04-1.59zm-63.22-1.848l.063-.45.05-.37c.13-.82.29-1.64.49-2.45l.09-.32.12-.47.08-.27-4.75-1.45-.08.28-.16.59-.11.43c-.11.47-.22.94-.32 1.42-.1.49-.18.98-.25 1.47l-.06.44-.07.61-.03.28 4.95.49.04-.27zm61.884 7.51l-.087.62-.07.51c-.072.47-.15.93-.242 1.4l-.04.19c-.09.46-.195.92-.31 1.38l-.127.48-.156.61 4.225 1.28c.56-1.98.962-4 1.203-6.05L77 45.77l-1.368-.13zm2.397 5.05l-2.07-.63.01-.06c.11-.49.23-.97.31-1.42l.04-.21c.09-.46.17-.94.25-1.45l.01-.06.28.02 1.86.18c-.18 1.21-.42 2.42-.72 3.61zm-10.09-.4l-3.44-1.04-1.48-.45-.08.21-.14.37-.04.1-.2.5-.15.36-.13.27-.16.35-.15.32c-.13.25-.25.51-.39.76l-.08.15c-.2.38-.42.76-.65 1.13-.19.31-.39.62-.6.92-.15.23-.32.44-.48.66l-.49.66-.24.3-.02.02-.13.14c-.31.37-.63.73-.96 1.08l-.21.22-.3.28c-.29.28-.57.56-.87.83l-.1.09.17.21.75.91.55.67.93 1.13.85 1.03L63.42 67v.005l1.305 1.58 1.945 2.37c1.762-1.507 3.37-3.15 4.81-4.905 1.613-1.97 3.02-4.08 4.2-6.3 1.084-2.03 1.984-4.147 2.69-6.324l-4.88-1.46-5.58-1.69zm6.78 8.97c-1.15 2.16-2.52 4.21-4.09 6.11-1.16 1.42-2.44 2.76-3.81 4l-1.2-1.47-1.31-1.59-3.7-4.51-.26-.32-.93-1.14-1.14-1.39-.16-.19-.09-.11.53-.53.12-.13.1-.11.24-.27c.33-.36.64-.7.91-1.04l.17-.22.08-.1.18-.24c.29-.38.57-.76.82-1.13l.01-.03c.36-.52.68-1.04.98-1.56l.33-.6.06-.12.02-.04.19-.38.21-.43.09-.2.06-.13.29-.66.06-.17.09-.22.08-.22.45.13.2.06 3.24.98L73.13 53l3.78 1.15c-.62 1.73-1.37 3.42-2.24 5.05zM62.06 55.3l.28.754.59 1.587.42 1.13.59 1.58.423 1.14 2.246 6.03.3-.46 8.17-12.23-10.73.39-2.31.09zm7.66 2.527l-2.39 3.585-1.29-3.453 3.68-.14z"/></svg>