<svg xmlns="http://www.w3.org/2000/svg" width="83.293" height="83.296" viewBox="0 0 83.293 83.296"><path fill="#fff" d="M7.521 44.228l-.035-.604-.032-.541c-.018-.412-.026-.828-.03-1.242l-.005-.251.005-.24c.004-.431.015-.857.034-1.285l.028-.49.037-.647-4.393-.431c-.083 1.029-.125 2.063-.125 3.102 0 1.02.039 2.042.12 3.064l3.233-.32 1.163-.115zm-1.231-2.468l.002.092c.003.453.014.872.033 1.288l.002.07-.081.008-2.065.203c-.028-.606-.043-1.217-.043-1.822 0-.619.015-1.242.046-1.86l2.146.212-.004.066c-.02.437-.03.883-.033 1.329l-.003.08-.004.166.004.168zm10.299 29.236l.014-.015 3.23-3.937.007-.008.443-.539 3.25-3.963.853-1.039.929-1.134 1.301-1.583.155-.188.02-.026-.09-.085c-.302-.266-.59-.549-.879-.833l-.297-.284-.184-.191c-.341-.356-.673-.727-.994-1.11l-.143-.166h-.002l-.463-.595-.268-.369c-.194-.266-.391-.523-.574-.801-.175-.256-.339-.521-.503-.784-.223-.369-.441-.74-.646-1.128h-.003l-.002-.008-.096-.188c-.127-.242-.25-.484-.365-.73l-.155-.34-.145-.324-.127-.285-.148-.367-.184-.48-.05-.125-.129-.357-.077-.208-4.913 1.489-.822.248-4.756 1.444-.007.003-2.714.821-2.173.66c.694 2.146 1.587 4.262 2.686 6.323 1.218 2.274 2.634 4.375 4.208 6.299 1.471 1.798 3.082 3.434 4.813 4.903zm-8.022-11.737c-.865-1.615-1.612-3.309-2.235-5.045l1.053-.32 2.722-.822 4.756-1.445.822-.248 2.695-.817 1.195-.362.081.201.094.23.062.152.283.643.046.101.118.259.219.43.168.34.031.062.072.141.334.592c.277.48.564.957.87 1.416l.118.169c.223.325.468.662.77 1.058l.057.072v.002l.428.549c.271.33.58.678.914 1.036l.282.304.05.055.145.148c.171.178.346.35.522.518l-.089.105-1.3 1.582-.93 1.135-.264.32-3.248 3.963-.45.545-2.503 3.049c-1.359-1.229-2.636-2.572-3.804-3.996-1.559-1.91-2.933-3.967-4.084-6.122zm10.287 2.239l.424-1.135.595-1.582.424-1.133.595-1.587.304-.812-2.814-.106-10.217-.384.307.461 8.148 12.24 2.234-5.962zm-5.323-3.734l3.679.138-1.294 3.449-2.385-3.587zm-4.837-6.929l-.179-.68-.104-.4c-.246-1.005-.446-2.015-.601-3.026l-.062-.444-.09-.646-1.84.182-2.554.254c.236 2.023.637 4.045 1.205 6.043l3.735-1.134.49-.149zm-3.433-.14c-.3-1.188-.54-2.396-.719-3.613l1.386-.136.76-.075.005.025c.157 1.053.367 2.104.62 3.128l.011.046-2.063.625zm36.385 32.601c23.002 0 41.646-18.646 41.646-41.647.001-23.003-18.644-41.647-41.646-41.649-23 .002-41.646 18.646-41.646 41.649 0 23 18.646 41.647 41.646 41.647zm-40.512-41.647c0-11.191 4.531-21.316 11.866-28.649 7.333-7.333 17.455-11.868 28.646-11.868 11.19 0 21.315 4.536 28.648 11.869s11.866 17.458 11.868 28.648c-.002 11.188-4.535 21.315-11.868 28.647s-17.458 11.866-28.648 11.866c-11.191 0-21.313-4.533-28.646-11.865-7.335-7.333-11.866-17.46-11.868-28.648h.002zm67.451 1.418l.017-.284c.02-.402.032-.809.032-1.215 0-.391-.014-.78-.03-1.171l-.021-.367-.028-.389-3.847.378-.544.055.006.166c.021.372.033.739.037 1.108l.005.101.002.12-.002.109-.028.802-.016.465-.004.141.887.086 3.502.348.032-.453zm-1.097-.791l-2.15-.212.006-.38.006-.116-.006-.127-.006-.347 2.152-.212.009.687-.011.707zm-52.534-9.526l.146-.415.129-.367c.132-.363.271-.724.416-1.08l.057-.129c.148-.356.306-.708.468-1.06l.175-.363.188-.389.12-.247-1.4-.75-2.981-1.591-.129.256-.28.555-.189.391c-.42.901-.798 1.812-1.135 2.741l-.138.398-.197.592-.092.275 1.933.585 2.826.857.083-.259zm7.244-2.049l.126-.221.009-.017.109-.184.208-.348.334-.527.221-.332.125-.177.254-.361.214-.299.371-.474.153-.199.083-.104.016-.02c.356-.433.736-.85 1.13-1.261.369-.387.752-.767 1.154-1.132.262-.236.528-.468.804-.693l.293-.225c.289-.229.584-.45.886-.667.56-.4 1.143-.778 1.746-1.132l.682-.385.044-.024.028-.015.065-.033c.265-.14.54-.277.815-.409l.328-.151.599-.265.381-.155.385-.149.179-.067.39-.143.184-.065.262-.087-.233-.769-1.214-3.991-.275.092-.336.111-.45.16-.734.284-.438.175c-.271.114-.535.234-.8.356l-.35.155c-.381.184-.757.372-1.13.571l-.031.017c-1.156.617-2.249 1.314-3.28 2.07-.394.288-.778.585-1.152.894l-.281.238c-.604.509-1.183 1.034-1.733 1.585-.367.367-.72.747-1.061 1.132-.24.269-.48.542-.708.82l-.205.262-.394.503-.162.209-.309.431-.345.492-.077.109-.297.45-.392.621-.264.441-.171.304-.145.253.571.304.438.236 2.969 1.584.411.222zm47.445-6.225l-.481-.761-.345-.529c-.185-.271-.375-.536-.564-.798l-.316-.444c-.259-.348-.526-.688-.797-1.023l-.125-.16c-.4-.489-.816-.957-1.24-1.418-1.035-1.125-2.14-2.175-3.31-3.13-1.478-1.213-3.051-2.277-4.698-3.204l-.646-.367-.088-.044c-.42-.223-.844-.435-1.271-.638l-.505-.227c-.296-.138-.595-.273-.896-.398l-.571-.231c-.284-.112-.567-.223-.856-.328l-.607-.214-.477-.159-.801 2.638-.479 1.578.383.135.477.17.768.295.468.19c.265.111.526.227.789.35l.418.188c.304.145.601.297.897.45l.27.136c1.354.723 2.648 1.565 3.877 2.505.247.19.496.376.736.573l.018.013c.436.358.855.734 1.271 1.119.543.507 1.067 1.034 1.576 1.585l.564.629.436.502.088.105.092.118c.242.295.479.597.707.907l.229.314.533.756.256.391.461.724.256.433.217.363 3.887-2.074-.254-.446-.347-.574zm-2.875 1.588l-.402-.634-.071-.105-.194-.299c-.182-.265-.365-.527-.554-.787l-.09-.125-.146-.206c-.236-.31-.485-.629-.732-.935l-.021-.026-.076-.101-.107-.125-.29-.339-.049-.057-.099-.112c-.443-.511-.902-.999-1.375-1.473-.385-.389-.775-.769-1.178-1.132-.33-.295-.662-.584-.999-.861-.219-.179-.444-.352-.669-.522l-.116-.086c-1.291-.99-2.647-1.867-4.039-2.61l-.164-.081-.11-.057c-.312-.16-.618-.317-.931-.465l-.324-.146-.111-.053c-.271-.125-.544-.247-.818-.363l-.342-.138-.145-.059-.651-.253.166-.546.459-1.513.778.3.175.07.381.153.863.383.188.087.299.135c.406.192.816.4 1.213.608l.096.05.383.214.245.14c1.626.918 3.151 1.956 4.537 3.095 1.11.907 2.185 1.923 3.194 3.021.455.494.845.939 1.195 1.368l.047.059.074.096c.284.354.537.677.77.988l.17.238.137.19.547.771.209.326.121.182c.154.238.309.477.456.721l-1.9 1.014zm.477 7.01l-.126-.389-.109-.304c-.127-.354-.263-.706-.404-1.056l-.021-.057c-.15-.363-.312-.723-.479-1.082l-.152-.317-.188-.378-1.85.988-.298.16-1.744.931.019.04.047.105c.197.406.386.813.557 1.224l.004.016.092.24c.137.341.268.68.385 1.023l.045.109.008.028.088-.028 1.257-.38.642-.194 2.227-.679zm-3.522-.114l-.184-.455-.188-.441.797-.429.051-.026.173-.09.881-.472.284.654.018.039.006.016.227.579-1.102.334-.963.291zm-49.013 10.153l.03.406 3.01-.297 1.379-.137-.004-.15-.018-.457c-.014-.301-.028-.597-.028-.894l.009-.238c.004-.376.015-.752.037-1.128l.004-.146-3.469-.341-.918-.09-.032.439-.018.295c-.018.405-.031.809-.031 1.215 0 .394.014.787.031 1.181l.018.342zm1.097-2.232l2.146.212-.007.492.007.479-.314.033-1.832.179-.011-.684.011-.711zm4.464-6.526l.008-.028.049-.125c.115-.339.244-.673.378-1.008l.09-.238.013-.028c.171-.413.358-.82.553-1.222l.044-.096.018-.04-2.039-1.091-.228-.122-1.622-.866-.188.374-.145.304c-.166.35-.323.702-.472 1.06l-.024.061c-.146.35-.277.702-.409 1.058l-.126.365-.123.361.21.065 2.123.643 1.803.544.087.029zm-.508-1.864l-.009.02-.006.015v-.002l-.173.437-2.065-.625.238-.601.028-.072.267-.614.334.179.245.129.475.254.85.455-.184.428v-.003zm-4.241 2.354l-.074.297c-.19.772-.346 1.55-.466 2.337l-.05.356-.053.398.148.015 3.889.38.354.035.006-.035.018-.113c.062-.444.132-.888.219-1.327l.005-.017.028-.127c.076-.378.166-.756.265-1.132l.011-.046.037-.157-4.221-1.279-.116.415zm.92 1.009l1.938.588.126.039-.103.485-.013.077-.074.389-2.146-.212c.081-.458.17-.915.272-1.366zm33.801-20.143l-.278-.092-1.21 3.991-.231.767.254.089.201.072.394.14v.002l.157.061.422.164.365.147.634.28.29.133c.309.146.611.297.906.455l.717.404.045.026.464.28c.424.262.839.538 1.245.826.39.278.77.566 1.142.87l.003.002.027.022c.271.225.538.455.8.691.397.36.782.741 1.156 1.132.39.407.769.824 1.13 1.266l.07.085.175.234c.254.326.507.656.747.999l.097.135.065.094c.297.435.586.887.855 1.353l.077.125.009.013.129.221.414-.221 3.975-2.126-.146-.251-.171-.297-.281-.47-.402-.638-.276-.42-.069-.101-.408-.581-.246-.337-.165-.214c-.197-.256-.392-.514-.595-.763-.231-.28-.469-.553-.707-.822-.346-.389-.703-.765-1.067-1.132-.524-.522-1.063-1.023-1.622-1.5l-.102-.085-.281-.245c-.374-.306-.758-.601-1.147-.887-1.054-.772-2.155-1.469-3.298-2.079-.374-.196-.75-.387-1.13-.568l-.347-.155c-.262-.123-.528-.243-.799-.356l-.451-.181-.713-.275-.502-.177-.321-.106zm-18.793-5.309l-.452.148-.621.219-.844.323-.568.229c-.314.131-.625.273-.936.413l-.466.21c-.426.203-.85.417-1.271.64l-.111.057-.009.004c-.315.17-.621.35-.932.527l-.485.277c-.321.192-.634.398-.946.599l-.42.267-.518.367c-.702.489-1.386.994-2.039 1.532-1.598 1.307-3.045 2.751-4.339 4.301l-.21.243c-.328.398-.641.802-.944 1.211l-.297.413c-.199.277-.398.555-.59.839l-.324.494-.498.795-.321.54-.251.443 3.886 2.074.196-.33.275-.461c.136-.225.28-.448.425-.669l.286-.439.251-.358.188-.269.057-.079.263-.367c.249-.333.502-.66.767-.984l.042-.052.087-.103c.321-.385.656-.76 1.001-1.132l.337-.361c.397-.417.811-.826 1.237-1.224.411-.382.835-.756 1.276-1.117l.018-.015c.699-.571 1.427-1.11 2.189-1.622.517-.345 1.052-.671 1.596-.986.267-.153.529-.308.8-.452l.026-.018c.394-.21.792-.407 1.189-.597l.392-.177c.269-.123.539-.245.812-.36l.475-.19.743-.284.516-.184.341-.122-.942-3.108-.337-1.105zm-.739 3.755l-.098.037-.396.16-.851.376-.14.063-.263.12c-.441.21-.846.415-1.235.623l-.03.015h-.002l-.667.378-.159.092c-.632.365-1.176.7-1.661 1.027-.789.527-1.561 1.1-2.295 1.701-.332.271-.665.564-.997.861-.397.36-.793.738-1.185 1.132l-.435.441c-.383.402-.72.776-1.038 1.144l-.446.52-.039.052-.396.507-.4.514-.171.236-.104.146c-.175.243-.35.485-.516.734l-.219.333-.083.126-.36.568-1.899-1.014.452-.715.107-.166.205-.314c.184-.271.376-.542.568-.807l.122-.17.164-.229c.309-.416.605-.798.911-1.169l.086-.099.117-.138c.33-.396.672-.778 1.017-1.156l.459-.476c.861-.894 1.767-1.745 2.713-2.521.575-.47 1.218-.955 1.972-1.479l.203-.145.295-.209.214-.133.19-.123.155-.099c.251-.164.501-.328.759-.479l.235-.135.236-.134.157-.092c.238-.14.477-.277.724-.411l.042-.022h.004l.088-.043c.406-.216.821-.424 1.228-.619l.254-.114.192-.087c.302-.138.604-.273.907-.4l.365-.149.181-.07c.252-.103.505-.201.759-.293l.623 2.059-.619.245zm42.2 16.581l-.147-.422c-.164-.455-.338-.912-.525-1.369l-.012-.017c-.181-.442-.381-.896-.592-1.349l-.188-.383-.293-.583-.131-.256-3.947 2.107-.192.105-.239.126.121.247.205.428.168.346c.174.374.34.75.495 1.125l.028.072c.146.358.283.719.415 1.082l.12.336.145.415.085.26 4.759-1.442-.09-.273-.185-.555zm-9.425 5.173c.099.376.188.756.267 1.132l.03.138c.088.448.16.896.221 1.344l.016.103.01.037.343-.035 4.046-.398-.053-.422-.043-.304c-.118-.783-.273-1.563-.465-2.341l-.086-.337-.111-.4-2.758.833-1.463.446.033.148.013.056zm1.748.435l1.621-.492c.104.452.192.911.271 1.366l-2.146.212-.088-.472-.101-.481.443-.133zm-50.255 9.336c.059.375.12.747.194 1.12l.005.029c.078.394.168.785.267 1.176l.071.289.121.435 2.743-.831 1.475-.447-.035-.16-.117-.512c-.127-.529-.232-1.056-.317-1.587l-.094-.56-.022-.141-.889.088-.896.086-2.605.258.046.365.053.392zm2.616.114l.722-.071c.057.319.122.636.189.95l-2.067.627-.146-.674-.004-.024-.005-.022-.118-.645 1.429-.141zm45.843 1.655l.934.281 3.285.999.109-.388.088-.35c.088-.365.174-.731.246-1.102l.019-.087c.071-.374.138-.745.194-1.119l.051-.367.05-.392-4.042-.399-.348-.032-.021.135-.096.563c-.086.534-.192 1.062-.315 1.587l-.122.521-.032.15zm1.537-1.726l2.15.212-.115.641-.009.047-.009.045-.139.635-2.069-.627c.07-.317.134-.632.191-.953zm9.662-1.615l.045-.629.026-.426c.021-.479.035-.962.035-1.442v-.1c0-.47-.017-.938-.035-1.406l-.026-.465-.041-.592-.021-.291-4.951.488.021.275.026.45.019.365c.017.413.029.822.029 1.233v.026c0 .404-.014.812-.029 1.217l-.022.386-.026.438-.018.274 4.943.487.025-.288zm-.211-7.069l-.062-.457c-.07-.47-.15-.938-.242-1.408l-.01-.043c-.094-.481-.205-.959-.32-1.438l-.114-.428-.165-.608-.078-.277-4.758 1.442.074.267.109.424.101.389c.097.402.188.802.267 1.2l.01.04c.078.396.145.793.205 1.191l.049.337.064.457.033.271 2.367-.231 2.579-.253-.035-.287-.074-.588zm-4.876 7.992l-.065.467-.051.332c-.062.414-.131.824-.211 1.231l-.002.011c-.08.398-.172.799-.271 1.198l-.093.362-.11.434-.076.268 4.761 1.441.074-.279.161-.572.118-.454c.109-.459.217-.921.309-1.388l.018-.084c.095-.467.173-.938.244-1.406l.065-.473.072-.588.034-.287-4.943-.486-.034.273zm-57.502-20.07l.283-.479.324-.551c.17-.28.345-.555.524-.833l.328-.5c.205-.306.419-.605.636-.907l.277-.389c.319-.426.647-.848.983-1.261.236-.287.487-.568.739-.857.249-.282.505-.564.765-.841.997-1.06 2.062-2.072 3.204-3.008.396-.319.801-.636 1.211-.944 1.352-1.007 2.789-1.93 4.323-2.75l.075-.037c.452-.24.904-.468 1.359-.684l.482-.219c.324-.148.646-.293.973-.431l.577-.231.892-.343.608-.212.511-.182.263-.085-.173-.579-1.272-4.186-.271.09c-2.164.702-4.291 1.598-6.365 2.704l-.02.011-.007.006c-2.284 1.22-4.391 2.64-6.325 4.225-1.996 1.635-3.799 3.445-5.396 5.39-1.476 1.801-2.773 3.718-3.893 5.725l-.143.249 4.392 2.35.136-.241zm37.24-18.454h-15.259l7.63 10.577 7.629-10.577zm-9.783 2.802h4.31l-2.156 2.986-2.154-2.986zm12.664-.004l.521.184.615.214c.303.111.608.231.912.354l.562.225c.337.14.669.289 1 .444l.449.201c.479.228.953.463 1.42.713 1.949 1.042 3.806 2.275 5.533 3.696 1.701 1.395 3.281 2.966 4.707 4.708.327.402.651.817.967 1.239l.274.385c.214.297.425.592.629.894l.343.522c.176.271.35.542.518.817l.334.568.293.492.136.24 2.166-1.156 2.228-1.191-.139-.251c-1.148-2.055-2.457-3.96-3.898-5.718-1.637-1.998-3.443-3.799-5.395-5.399-1.982-1.628-4.111-3.044-6.35-4.236-2.039-1.091-4.176-1.998-6.367-2.708l-.271-.09-1.447 4.767.26.086zm20.29 17.385l.198.407c.215.465.427.935.62 1.405l.017.039c.188.459.364.925.535 1.388l.147.437.211.601.195-.059 4.031-1.224c-.628-1.93-1.41-3.834-2.363-5.694l-3.893 2.081.302.619zm3.098-1.152c.521 1.108.991 2.247 1.406 3.403l-2.063.627-.01-.026c-.191-.531-.371-.999-.551-1.432l-.005-.011-.004-.018-.007-.011c-.184-.444-.395-.918-.645-1.454l-.027-.063 1.906-1.015zm-66.683 20.609l.057.407c.146.973.337 1.945.577 2.906l.113.449.164.589.079.278 4.758-1.444-.074-.267-.118-.459-.087-.341c-.101-.404-.192-.811-.275-1.213l-.005-.031c-.078-.4-.145-.793-.205-1.188l-.053-.373-.062-.432-.035-.275-4.526.447-.133.012-.286.029.032.287.079.619zm.45-15.798l.152-.441c.169-.468.346-.933.538-1.395l.021-.052c.192-.461.396-.92.608-1.375l.209-.435.282-.579-.807-.431-3.086-1.65c-.938 1.836-1.727 3.74-2.36 5.694l4.225 1.281.218-.617zm-.356-2.269l-.002.002c-.187.455-.367.925-.554 1.438l-.017.046-2.062-.625c.411-1.152.883-2.289 1.407-3.403l1.902 1.019-.022.05c-.24.507-.445.97-.632 1.42l-.02.053zm-1.218 8.826l.07-.511c.076-.499.159-.992.258-1.488l.004-.022c.101-.5.215-.995.335-1.486l.111-.424.166-.653-3.751-1.137-.472-.144c-.56 1.978-.962 4-1.202 6.045l4.394.435.087-.615zm-.433-3.779c-.14.566-.254 1.066-.35 1.561-.092.463-.18.966-.267 1.537l-.009.061-2.146-.212c.182-1.213.42-2.422.717-3.611l2.063.625-.008.039zm67.449-.171l.121.465c.122.496.236.992.338 1.493l.004.029c.099.494.182.988.258 1.484l.062.441.091.651 4.396-.435c-.236-2.024-.636-4.048-1.207-6.048l-4.226 1.283.163.637zm3.268-.494c.298 1.187.542 2.396.722 3.611l-2.146.212-.004-.028c-.088-.564-.176-1.064-.263-1.513l-.009-.037v-.015c-.098-.474-.21-.977-.348-1.541l-.016-.063 2.064-.626zm-45.441-23.168l1.692 5.578.638 2.103.8 2.634.053.179.231-.059.372-.092.122-.028.531-.118.376-.077.68-.118.337-.055c.337-.048.669-.089 1.005-.122l.003-.002c.736-.074 1.471-.109 2.203-.109.745 0 1.488.04 2.223.112h.002l.025.004c.33.033.662.074.992.122l.337.055.687.12.369.075.51.114.15.035.354.087.231.057.056-.179.721-2.376.715-2.354v-.007l1.574-5.182.118-.393 1.485-4.896c-2.203-.623-4.465-1.053-6.752-1.278-1.264-.127-2.535-.19-3.81-.19-1.253 0-2.51.059-3.767.184-2.26.225-4.518.647-6.752 1.281l.734 2.417.755 2.478zm5.377-5.051c1.198-.116 2.427-.177 3.655-.177 1.232 0 2.479.061 3.698.184 1.833.182 3.657.499 5.438.946l-1.146 3.775-.118.389-1.573 5.191-.715 2.354-.466 1.535-.244-.055-.388-.077-.719-.127-.125-.02-.229-.037c-.376-.052-.719-.094-1.066-.131-.771-.076-1.559-.118-2.336-.118-.78 0-1.559.039-2.319.116-.325.033-.669.077-1.058.131l-.219.035-.129.022-.711.123-.397.081-.253.055-.543-1.792-.638-2.099-1.691-5.58-.752-2.479-.394-1.298c1.781-.449 3.607-.766 5.438-.947zm24.528 62.74l-3.624-4.417-.881-1.07-.929-1.135-1.299-1.582-.231-.279c.329-.275.651-.561.967-.854.537-.503 1.054-1.031 1.541-1.587l.483-.562.445-.568c.393-.512.762-1.041 1.109-1.585.236-.371.459-.748.671-1.136l.155-.271c.229-.429.437-.868.638-1.312.171-.371.328-.752.476-1.135.191-.494.371-.994.525-1.509l.021-.073c.109-.375.211-.752.303-1.133.127-.521.23-1.049.318-1.587.062-.374.113-.75.158-1.132l.029-.273c.044-.433.07-.869.087-1.309.009-.275.019-.553.019-.831l-.004-.302c-.01-.533-.035-1.062-.08-1.584l-.021-.256c-.026-.295-.065-.588-.104-.879-.074-.535-.17-1.06-.281-1.584-.086-.38-.176-.758-.278-1.132l-.166-.603c-.101-.33-.209-.656-.323-.981-.138-.38-.283-.758-.44-1.132-.228-.54-.478-1.066-.747-1.584l-.127-.258c-.16-.295-.326-.585-.496-.872-.326-.544-.676-1.073-1.045-1.584-.27-.376-.547-.745-.84-1.1l-.028-.035c-.456-.551-.938-1.082-1.446-1.585-.394-.393-.809-.767-1.232-1.132l-.319-.275c-.565-.466-1.158-.903-1.771-1.31-.576-.382-1.172-.741-1.785-1.071l-.12-.061c-1.218-.641-2.498-1.172-3.837-1.578l-.02-.007c-1.345-.404-2.742-.684-4.182-.824-.701-.07-1.414-.107-2.14-.105-.722-.002-1.438.035-2.138.105-1.44.14-2.837.422-4.179.824l-.022.007c-1.338.406-2.618.938-3.834 1.578l-.122.063c-.612.328-1.209.687-1.786 1.069-.611.407-1.204.844-1.772 1.31l-.318.275c-.425.365-.838.739-1.233 1.132-.505.503-.987 1.034-1.442 1.585l-.03.035c-.293.354-.568.726-.84 1.1-.367.512-.719 1.041-1.045 1.584-.17.287-.336.577-.493.872l-.132.258c-.269.518-.518 1.044-.745 1.584-.157.374-.304.752-.439 1.132-.115.326-.225.653-.325.983l-.166.601c-.104.374-.195.752-.278 1.132-.109.524-.205 1.049-.279 1.584-.039.291-.079.584-.109.879l-.018.256c-.044.522-.07 1.051-.079 1.584l-.008.302c0 .277.011.556.021.831.018.439.044.876.083 1.309l.035.273c.044.382.096.758.157 1.132.087.538.192 1.063.316 1.587.092.381.19.758.305 1.133l.02.073c.155.515.334 1.015.526 1.509.148.383.306.764.473 1.135.2.442.41.883.643 1.312l.152.271c.215.388.438.765.674 1.136.345.544.714 1.073 1.105 1.585l.446.57.485.56c.487.556 1.001 1.084 1.543 1.587.312.293.634.577.964.85l-.231.283-1.301 1.582-.171.211-.76.924-.881 1.07-3.624 4.42-2.146 2.613-1.124 1.371-.002.002-.362.441.45.357c.437.348.883.686 1.333 1.012.479.348.968.688 1.462 1.016.503.33 1.015.652 1.535.962.433.256.869.497 1.307.735l.214.119.005.004.026.012.002.002c.649.343 1.305.664 1.965.971.535.244 1.077.484 1.626.708l.002.002c.514.208 1.03.403 1.55.59l.145.058c.551.195 1.104.379 1.665.551l.009.003.018.004c.586.177 1.177.332 1.767.479l.345.09c.577.138 1.154.265 1.738.377.592.115 1.187.218 1.785.305l.81.102c.314.039.629.086.948.117h.027c.712.072 1.44.116 2.168.146.529.023 1.064.039 1.604.039l.175-.004c.383 0 .768-.019 1.149-.033l.659-.016c.474-.023.945-.062 1.416-.103l.32-.024.036-.002.002-.002h.005c.727-.072 1.449-.168 2.168-.279l.66-.121c.363-.062.729-.119 1.092-.193h.004c.348-.072.692-.156 1.041-.238l.724-.164.608-.168c.369-.099.736-.195 1.104-.307v-.002h.002l.011-.002.408-.133.868-.287.784-.277.742-.291c.306-.117.61-.23.914-.357h.002l.66-.295c.332-.146.666-.287.992-.443.531-.252 1.061-.518 1.585-.797l.005-.002h.002l.002-.004.012-.002v-.002l.475-.266c.482-.27.953-.54 1.409-.816l.36-.232c.383-.238.766-.479 1.14-.729l.004-.004c.501-.338.992-.687 1.472-1.043l.387-.293.619-.472.449-.356-.363-.445-3.273-3.987zm-7.684-9.36l-1.282-1.562h2.969c-.533.549-1.094 1.071-1.687 1.562zm2.838-2.844l-.129.15h-4.119c.548-.496 1.06-1.027 1.539-1.585h3.781c-.337.493-.695.973-1.072 1.435zm-13.039-9.587l-.613-.748-.08-.098.253-.286c.341-.432.573-.956.656-1.527h10.332c-.035.52-.099 1.026-.19 1.527-.07.384-.152.764-.254 1.132-.148.544-.326 1.073-.537 1.587-.16.387-.337.764-.529 1.133-.287.551-.615 1.08-.975 1.582-.279.396-.582.772-.9 1.135-.463.521-.967 1.01-1.504 1.455l-1.195-1.455-.371-.455-.559-.68-1.303-1.582-.8-.978-.129-.155-.759-.924-.543-.663zm-5.78-4.682c-.142.258-.251.54-.316.835l-.016.055h-10.393v-.055c.013-.536.057-1.067.129-1.584l.011-.081v.831l10.585-.001zm-.367 2.023c.083.571.315 1.096.656 1.527l.251.286-.568.69-.126.155-.204.247-1.097 1.34-.356.434-.572.699-.527.641-.773.941-.93 1.135-1.198 1.455c-.538-.445-1.04-.934-1.504-1.455-.319-.361-.618-.738-.9-1.135-.358-.502-.684-1.031-.975-1.582-.192-.371-.367-.746-.527-1.133-.212-.514-.391-1.041-.537-1.587-.101-.368-.186-.748-.256-1.132-.09-.501-.153-1.008-.188-1.527h10.331zm-10.17-3.155c.044-.251.097-.502.151-.752.094-.402.203-.8.33-1.189v1.051h25.927v-.439l.146.577c.057.25.104.5.147.752h-11.589c-.508-.33-1.11-.527-1.762-.527s-1.255.197-1.76.527h-11.59zm25.866-2.909l.223.573.107.317h-25.689l.107-.317c.12-.328.251-.647.396-.964v.391h24.856zm-4.967-6.066l.104.074c.369.254.726.527 1.069.815h-17.442c.343-.289.699-.562 1.068-.815l.107-.074h15.094zm-13.044-1.13c.309-.14.621-.267.942-.38.588-.212 1.193-.385 1.816-.511h5.478c.62.126 1.229.299 1.813.511.319.114.634.241.942.38h-10.991zm15.406 3.152c.231.247.452.502.664.767l.098.123h-21.339l.094-.123c.212-.265.433-.52.662-.767h19.821zm1.554 2.022c.185.288.354.585.518.889h-23.96c.157-.304.332-.601.511-.889h22.931zm2.03 6.063c.024.277.041.555.045.835l.002.055h-10.394l-.015-.055c-.068-.295-.176-.577-.317-.835h10.679zm4.769 10.896c-.148.272-.303.541-.459.805h-3.608c.369-.508.716-1.035 1.029-1.582h3.43l-.392.777zm.897-1.912h-3.328c.252-.514.475-1.043.676-1.582h3.226c-.172.537-.36 1.064-.574 1.582zm.9-2.715h-3.184c.153-.52.285-1.049.391-1.587h3.125c-.09.537-.201 1.067-.332 1.587zm.544-3.104l-.046.385h-3.107c.067-.521.113-1.049.135-1.583h3.099c-.018.401-.041.802-.081 1.198zm.011-3.914c.049.522.075 1.051.084 1.584h-3.104c-.011-.533-.043-1.064-.103-1.584h3.123zm-.433-2.72c.12.524.224 1.049.302 1.584h-3.156c-.096-.535-.213-1.064-.354-1.584h3.208zm-.817-2.716c.162.433.315.868.45 1.309l.077.275h-3.271c-.186-.54-.398-1.066-.636-1.584h3.38zm-1.261-2.717l.159.277c.229.426.436.863.634 1.307h-3.479c-.299-.546-.629-1.073-.982-1.584h3.668zm-1.804-2.715c.4.509.775 1.036 1.128 1.584h-3.845c-.457-.56-.951-1.086-1.472-1.584h4.189zm-.946-1.134h-4.544l-.4-.311v-.199h-.281c-.545-.389-1.109-.748-1.7-1.076h5.324c.559.499 1.096 1.028 1.601 1.586zm-21.365-5.928c1.281-.385 2.609-.656 3.982-.789.669-.065 1.347-.098 2.028-.098.687 0 1.361.033 2.032.098 1.369.133 2.702.402 3.979.789.483.146.956.315 1.423.494h-14.865c.468-.179.94-.348 1.421-.494zm-3.878 1.626h19.781c.863.472 1.691 1.001 2.475 1.585h-6.4c-1.918-.706-3.99-1.093-6.154-1.093-2.163 0-4.235.387-6.154 1.093h-6.024c.782-.584 1.611-1.113 2.476-1.585zm-3.86 2.717h4.944c-.84.466-1.636.997-2.383 1.585h-4.166c.506-.558 1.041-1.087 1.605-1.585zm-2.552 2.719h3.812c-.521.499-1.015 1.025-1.474 1.584h-3.462c.349-.548.725-1.075 1.124-1.584zm-1.959 2.992l.157-.277h3.292c-.354.511-.685 1.038-.983 1.584h-3.1c.197-.444.406-.881.634-1.307zm-1.554 3.749c.136-.441.288-.876.452-1.309h2.999c-.236.518-.45 1.044-.636 1.584h-2.892l.077-.275zm-.365 1.407h2.828c-.14.52-.26 1.049-.354 1.584h-2.776c.079-.534.182-1.059.302-1.584zm-.433 2.72h2.741c-.058.52-.09 1.051-.101 1.584h-2.724c.008-.533.036-1.062.084-1.584zm.009 3.914c-.039-.396-.062-.797-.079-1.198h2.72c.021.533.067 1.062.135 1.583h-2.728l-.048-.385zm.546 3.104c-.133-.52-.242-1.049-.336-1.587h2.749c.105.538.236 1.067.39 1.587h-2.803zm.896 2.715c-.21-.517-.397-1.045-.57-1.582h2.848c.201.539.424 1.068.674 1.582h-2.952zm1.358 2.716c-.157-.264-.311-.531-.457-.805-.138-.256-.267-.519-.394-.777h3.052c.314.547.657 1.074 1.029 1.582h-3.23zm1.927 2.72l-.129-.151c-.38-.461-.734-.941-1.073-1.434h3.403c.48.559.992 1.089 1.539 1.585h-3.74zm1.021 1.13h2.969l-1.281 1.562c-.592-.49-1.155-1.012-1.688-1.562zm-6.233 16.479c-.277-.19-.553-.385-.826-.584l-.122-.086c-.263-.188-.517-.381-.774-.576l-.069-.053 2.277-2.773.625-.764 3.624-4.414 1.471-1.793.929-1.135.96-1.168.269-.324.072-.091.02-.022.358-.439.551-.669 1.181-1.438.122-.147.149-.181.089-.108.365-.446.323-.395.236-.289-.189.286-.298.448-.316.479-.134.203-.179.27-.87 1.317-.302.454-.328.499-.118.179-.194.293-.312.473-.542.818-.748 1.133-7.296 11.037-.004.006zm2.967 1.824c-.336-.188-.673-.379-1.01-.576-.339-.201-.677-.41-1.014-.627l.007-.009 7.706-11.655.75-1.135.127-.191.312-.473.312-.473.293-.445.75-1.133.459-.695.312-.472.277-.42.042-.061.708-1.067.481-.729.312-.472.254-.385.062-.097.687-1.039.077-.114-.063.114-.588 1.104-.018.03-.254.475-.267.498-.326.612-.605 1.13-.083.156-.271.508-.267.499-.228.424-.604 1.132-.456.853-.187.348-.08.15-.125.231-.143.269-.463.865-6.874 12.861-.002.009zm3.472 1.674l-.005.01c-.345-.146-.687-.301-1.027-.457l-.035-.016c-.415-.193-.826-.394-1.234-.6l-.168-.081v-.004l7.16-13.396.179-.332.267-.498.162-.304.104-.194.739-1.389.551-1.025.057-.105.21-.393.269-.506.37-.688.603-1.13.04-.077.267-.498.271-.505.271-.505.603-1.136.326-.604-.002.011-.245.596-.463 1.135-.252.613-.216.529-.18.441-.035.083-.428 1.047-.381.939-.219.531-.048.117-.166.406-.297.727-.647 1.582-.092.23-.214.523-.155.379-.06.146-.756 1.853-5.124 12.545zm3.263 1.218l-.002.011c-.367-.12-.734-.243-1.1-.374-.374-.135-.747-.271-1.117-.418h-.002l.002-.008 5.885-14.397.214-.524.018-.049.194-.477.269-.656.647-1.584.125-.304.214-.524.124-.304.092-.229.556-1.356.254-.614.209-.516.003-.01.113-.279.103-.251.429-1.045.096-.233-.071.233-.33 1.086-.151.499-.016.05-.163.54-.164.54-.455 1.497-.026.09-.14.459-.164.542-.039.132-.177.576-.304 1.006-.28.922-.063.212-.101.332-.166.543-4.516 14.882zm3.722.976v.009c-.332-.07-.665-.146-.997-.228l-.136-.028c-.441-.109-.881-.223-1.315-.343l-.194-.052.002-.004 4.221-13.916.295-.976.166-.54.164-.541.037-.119.341-1.134.425-1.394.057-.189.106-.35.167-.549.069-.233.481-1.587.062-.21.167-.54.113-.38.053-.169.428-1.416.309-1.012-.196 1.012-.287 1.476-.021.11-.088.454-.106.554-.024.122-.306 1.587-.072.367-.109.562-.039.203-.068.354-.238 1.229-.221 1.134-.067.358-.107.556-.109.555-2.963 15.268zm3.439.559v.008c-.381-.045-.768-.096-1.152-.149-.392-.06-.782-.122-1.176-.19l.002-.01 2.957-15.27.109-.557.107-.555.111-.572.219-1.135.199-1.023.106-.557.002-.002.107-.561.111-.572.289-1.49.02-.097.087-.459.109-.562.022-.109.242-1.251-.124 1.251-.012.127-.055.564-.043.438-.014.127-.144 1.46-.062.627-.051.505-.006.063-.055.562-.095.958-.113 1.135-.065.687-.057.563-.055.562-1.52 15.484zm3.845.249c-.385-.006-.774-.021-1.161-.035-.461-.019-.92-.049-1.375-.084l-.182-.01v-.006l1.523-15.484.058-.564.057-.562.076-.797.111-1.133.086-.855.055-.563.017-.163.04-.4.072-.731.133-1.349.022-.238.032-.326.055-.564.026-.238.153-1.585.069-.706v-.005l.005.711.009 1.585v.249l.004.567v.312l.002.254.007 1.333.005.749v.383l.002.184.002.566.005.834.004 1.133.004.844.005.566.002.566.077 15.561v.001zm.913-36.815l-.004-.004v-.002l-.046-.055-.037-.046-.024-.026-.111-.125-.328-.365-.302.365-.15.182-.057.07-.012.013-.041.052-.063.074-.07.087-.026.033-.046.056-.039.047v.002l-.115.139h.002l-.002.002v-.002l-.101.121-.049.064h-.002l-.101.125-.101.123h-.002l-.249.305c-.234-.26-.404-.574-.485-.926l-.014-.056c-.025-.133-.043-.267-.043-.407l.013-.105c.009-.197.048-.385.109-.566l.018-.055c.12-.326.319-.61.575-.835.367-.324.841-.524 1.37-.527.529.002 1.005.203 1.373.527.254.225.455.509.576.835l.016.055c.062.181.102.369.111.566l.01.105c0 .14-.014.273-.039.407l-.019.056c-.079.352-.249.666-.483.926l-.047-.059-.143-.175-.18-.218-.045-.051v-.002l-.092-.109-.066-.085-.146-.175v-.002l-.039-.051-.049-.055-.004-.007-.074-.093-.065-.08-.062-.073zm2.566 36.69c-.385.03-.77.057-1.154.074-.396.021-.796.036-1.193.041v-.009l-.079-15.556v-.566l-.004-.566-.006-.836-.004-1.135-.005-.847-.001-.565-.002-.17v-.398l-.005-.733-.009-1.338v-.563l-.005-.567v-.247l-.006-1.135v-.004l.11 1.137.024.238.055.564.033.326.025.239.131 1.349.07.701.043.431.014.139.055.562.088.884.111 1.135.078.795.058.563.052.563 1.526 15.486v.008zm2.733-.333l-.058.008c-.459.072-.918.135-1.377.189l-.17.021v-.001l-1.526-15.49-.055-.562-.055-.562-.069-.688-.108-1.133-.102-1.007-.055-.562-.002-.016-.055-.554-.058-.579-.144-1.46-.013-.127-.044-.438-.057-.564-.012-.127-.158-1.585-.077-.812.164.812.323 1.585.02.089.113.558.099.483.015.069.31 1.518.099.482.116.56.019.091.094.465.229 1.117.231 1.135.108.537.113.555.114.557 3.108 15.243.002.009-1.082.184zm4.475-.988c-.371.107-.745.207-1.119.305-.385.096-.772.188-1.16.271l-.002-.008-2.884-14.125-.227-1.119-.112-.553-.113-.557-.065-.312-.23-1.133-.275-1.355-.045-.229-.068-.324-.113-.561-.051-.247-.323-1.587-.032-.154-.113-.554-.086-.422-.027-.138-.275-1.352v-.001l.402 1.322.052.169.114.38.164.54.062.21.481 1.587.041.133.166.551.139.449.025.09.453 1.492.343 1.135.036.117.164.541.164.541 4.519 14.893.002.006h-.007zm2.659-.881l-.098.039c-.434.158-.861.307-1.289.449l-.188.064v-.005l-4.518-14.892-.164-.541-.101-.332-.065-.211-.278-.923-.481-1.581-.074-.248-.164-.541-.103-.344-.065-.208-.414-1.379-.166-.54-.164-.54-.016-.05-.15-.499-.33-1.086-.342-1.136-.065-.213-.002-.006.092.219.476 1.136.418.999.225.525.023.061.194.463.279.667.494 1.174.173.413.05.115.218.521.207.496.666 1.582.245.586.222.52.008.029.211.494 1.232 2.938 4.789 11.401.002.006c-.329.136-.659.257-.987.378zm3.116-1.306c-.36.172-.722.336-1.088.493l-.002-.007-6.023-14.344-.025-.055-.194-.465-.222-.521-.062-.146-.664-1.583-.396-.944-.078-.188-.141-.332-.223-.531-.305-.724-.464-1.106-.011-.022-.207-.499-.224-.528-.234-.559-.293-.701-.005-.01.378.711.271.505.271.505.265.498.043.077.604 1.13.284.535.271.508.267.498.026.046.604 1.132.742 1.389.104.195.162.303.267.498.176.332 6.818 12.758.342.633.004.009c-.343.176-.691.346-1.038.51zm3.382-1.834l-.117.071c-.346.205-.689.411-1.04.606l-.188.109v-.004l-2.186-4.088-4.689-8.773-.464-.865-.143-.269-.122-.231-.27-.498-.455-.854-.604-1.132-.315-.591-.266-.498-.268-.498-.006-.012-.6-1.118-.326-.612-.267-.498-.257-.475-.012-.033-.592-1.102-.533-.992-.07-.137-.004-.006.769 1.135.653.969.109.166.209.311.319.469.542.807.551.812.215.316.106.158.315.469.647.96.765 1.132.229.338.316.469.316.469.21.309.765 1.135.211.312 7.522 11.14.004.006c-.319.211-.647.417-.979.618zm2.891-1.948c-.318.235-.643.467-.968.697l-.003-.01-7.309-10.816-.767-1.135-.634-.939-.316-.471-.115-.173-.201-.297-.192-.284-.371-.551-1.071-1.587-.013-.017-.06-.09h-.002l.069.084.019.021 1.303 1.587.551.671.362.439.018.021.07.089.271.326.959 1.168.926 1.135 1.472 1.797.542.662 3.082 3.752 2.897 3.532-.519.389zm-55.343-32.578l-.043.583-.029.483c-.021.49-.037.984-.037 1.478 0 .492.016.984.035 1.473l.026.431.044.614.021.289 2.859-.28 2.089-.207-.021-.275-.021-.446-.022-.364c-.018-.414-.03-.827-.03-1.234 0-.422.013-.841.033-1.263l.02-.334.026-.474.02-.275-.706-.068-4.24-.417-.024.286zm67.153.564l.024.413c.022.514.039 1.025.039 1.539 0 .516-.017 1.032-.039 1.547l-.028.457-.037.66 4.394.436c.086-1.033.127-2.063.127-3.103 0-1.021-.041-2.044-.124-3.064l-4.395.433c.021.227.03.454.039.682zm1.156.363v-.024l2.146-.212c.031.608.045 1.22.045 1.823 0 .615-.014 1.238-.045 1.859l-2.146-.211v-.047c.026-.58.039-1.104.039-1.6 0-.487-.013-1.007-.039-1.588zm-63.22-1.848l.063-.448.05-.367c.127-.822.289-1.637.485-2.444l.083-.315.118-.463.072-.267-4.754-1.442-.079.277-.161.59-.114.433c-.115.47-.223.944-.319 1.425-.101.496-.181.983-.255 1.469l-.063.439-.074.612-.035.284 4.948.49.035-.273zm61.884 7.509l-.087.625-.07.502c-.072.47-.149.936-.242 1.4l-.039.194c-.092.463-.196.923-.311 1.382l-.127.484-.156.609 4.225 1.281c.56-1.978.962-4 1.203-6.047l-3.028-.299-1.368-.131zm2.397 5.057l-2.062-.628.017-.058c.117-.488.228-.969.315-1.42l.042-.205c.092-.459.174-.934.254-1.451l.008-.061.28.025 1.864.184c-.181 1.215-.42 2.426-.718 3.614zm-10.09-.399l-3.436-1.041-1.479-.451-.077.215-.134.37-.041.108-.192.498-.147.361-.123.275-.154.352-.146.318c-.123.259-.252.513-.385.764l-.074.148v.004c-.205.383-.422.76-.65 1.131-.19.311-.387.617-.596.923-.152.228-.322.44-.484.662l-.487.659-.237.305-.019.02-.132.146c-.305.367-.625.727-.957 1.075l-.215.226-.301.286c-.285.278-.568.56-.869.826l-.098.092.176.214.748.909.551.675.931 1.133.851 1.037.002.002 3.698 4.504.002.006 1.302 1.582 1.942 2.369c1.767-1.504 3.374-3.146 4.813-4.902 1.615-1.967 3.021-4.078 4.203-6.299 1.082-2.031 1.982-4.146 2.688-6.323l-4.894-1.486-5.58-1.693zm6.788 8.968c-1.15 2.159-2.522 4.216-4.084 6.114-1.162 1.422-2.438 2.762-3.804 3.998l-1.202-1.465-1.303-1.586-3.7-4.508-.26-.318-.933-1.135-1.141-1.391-.156-.191-.088-.107.532-.526.118-.127.102-.104.244-.267c.332-.358.639-.698.913-1.034l.171-.214.078-.104.18-.233c.293-.378.572-.759.826-1.13l.018-.025c.354-.517.672-1.039.972-1.56l.336-.597.062-.121.021-.037.19-.381.214-.426.095-.203.059-.129.293-.658.065-.166.088-.215.087-.217.457.137.196.062 3.241.981 5.576 1.691 3.773 1.146c-.62 1.725-1.367 3.418-2.236 5.046zm-12.665-3.954l.281.754.592 1.587.422 1.132.588 1.584.424 1.133 2.247 6.03.306-.461 8.176-12.228-10.727.386-2.309.083zm7.661 2.527l-2.394 3.584-1.285-3.451 3.679-.133z"/></svg>