<svg viewBox="0 0 217 18" style="background-color:#ffffff00" xmlns="http://www.w3.org/2000/svg" width="217" height="18"><path d="M117.895.234c-.768 0-1.388.62-1.388 1.387v5.99H104.57V1.62c0-.766-.62-1.386-1.386-1.386-.765 0-1.385.62-1.385 1.387v14.76c0 .77.62 1.4 1.38 1.4.76 0 1.38-.62 1.38-1.39V10.4h11.94v5.982c0 .77.62 1.395 1.39 1.395.76 0 1.38-.623 1.38-1.394V1.623c0-.77-.62-1.39-1.39-1.39zM36.67.23c-.763 0-1.384.624-1.384 1.387v11.397L22.942.634c-.398-.394-.995-.51-1.51-.298-.518.218-.856.726-.856 1.28V16.37c0 .767.62 1.39 1.385 1.39.77 0 1.39-.622 1.39-1.39V4.974l12.34 12.38c.27.262.62.407.98.407.18 0 .36-.03.53-.1.52-.21.86-.72.86-1.28V1.62c0-.76-.62-1.387-1.38-1.387zm13.048 11.4c.956 0 1.73.776 1.73 1.735s-.774 1.736-1.73 1.736-1.73-.77-1.73-1.73.774-1.73 1.73-1.73zm8.592 4.12L50.957 1c-.24-.47-.716-.77-1.24-.77s-1 .3-1.236.77l-7.35 14.75c-.34.688-.07 1.517.62 1.866.69.342 1.52.063 1.86-.622l6.11-12.266 6.12 12.266c.25.483.74.77 1.25.77.21 0 .42-.05.62-.148.69-.35.97-1.174.62-1.864v-.003zm-40.805 0L10.155 1C9.913.53 9.438.23 8.915.23c-.527 0-1.006.3-1.24.77L.32 15.75c-.342.688-.063 1.517.62 1.866.682.342 1.514.063 1.86-.622L8.913 4.728l6.11 12.266c.245.483.733.77 1.242.77.21 0 .42-.05.62-.148.684-.35.964-1.174.62-1.864v-.003zm-8.59-4.12c.956 0 1.73.776 1.73 1.735S9.872 15.1 8.915 15.1s-1.73-.776-1.73-1.735.774-1.736 1.73-1.736zm81.418-4.37c.956 0 1.73.778 1.73 1.737 0 .96-.774 1.736-1.73 1.736-.957 0-1.732-.777-1.732-1.736s.78-1.737 1.74-1.737zm5.864-.398c.27.718 1.067 1.082 1.782.812.71-.276 1.07-1.072.81-1.793h-.01c-1.25-3.31-4.44-5.7-8.21-5.7-4.86 0-8.79 3.95-8.79 8.82 0 4.88 3.93 8.83 8.79 8.83 3.76 0 6.95-2.38 8.2-5.71.27-.71-.09-1.51-.81-1.78-.72-.27-1.52.09-1.79.81-.87 2.28-3.05 3.92-5.62 3.91-3.33 0-6.02-2.7-6.03-6.04 0-3.33 2.7-6.03 6.02-6.03 2.57 0 4.75 1.62 5.62 3.91zM131 .176c-4.86.003-8.793 3.948-8.8 8.82 0 4.873 3.94 8.818 8.8 8.826 4.857-.008 8.792-3.953 8.792-8.825 0-4.873-3.935-8.817-8.793-8.82zm0 14.86c-3.33-.002-6.023-2.7-6.028-6.04.006-3.338 2.7-6.035 6.027-6.04 3.32.006 6.01 2.703 6.02 6.04-.01 3.34-2.7 6.038-6.03 6.04zm0-7.775c.955 0 1.73.78 1.73 1.74s-.775 1.74-1.73 1.74c-.956 0-1.73-.78-1.73-1.73 0-.96.774-1.73 1.73-1.73zM78.86 5.31C78.858 2.5 76.598.238 73.807.234H62.763c-.365 0-.72.145-.98.407-.254.26-.405.62-.405.99v14.75c0 .77.62 1.4 1.385 1.4.764 0 1.387-.62 1.387-1.39V10.4l2.277-.003.006.004 7.37.01c1.264.01 2.29 1.04 2.29 2.31v3.67c0 .77.62 1.4 1.385 1.4s1.385-.62 1.385-1.39v-3.67c0-1.47-.626-2.77-1.613-3.7.988-.92 1.614-2.23 1.614-3.69zM73.807 7.6l-9.656.012V3.008h9.66c1.27.004 2.29 1.026 2.29 2.3 0 1.265-1.02 2.29-2.28 2.294zM180.6 1.803c0-.77-.62-1.39-1.387-1.39h-14.71c-.763 0-1.384.62-1.384 1.39 0 .767.62 1.392 1.38 1.392h5.97v13.24c0 .766.61 1.388 1.38 1.388.76 0 1.38-.622 1.38-1.39V3.195h5.97c.76 0 1.38-.625 1.38-1.392zm7.248 9.88c-.956 0-1.73.78-1.73 1.737 0 .962.775 1.74 1.73 1.74.957 0 1.73-.78 1.73-1.74.002-.96-.773-1.737-1.73-1.737zm8.596 4.125L189.09 1.053c-.24-.468-.716-.762-1.24-.762-.525 0-1 .3-1.24.77l-7.355 14.76c-.342.69-.062 1.53.62 1.87.686.34 1.517.07 1.86-.62L187.85 4.8l6.112 12.267c.243.49.734.767 1.24.767.21 0 .42-.05.62-.146.683-.34.957-1.177.62-1.864h-.003zM147.77 3.068h11.044c.762 0 1.383-.626 1.383-1.388 0-.768-.62-1.388-1.383-1.388H147.77c-2.79.003-5.053 2.265-5.06 5.073 0 2.8 2.27 5.07 5.06 5.07l7.364.017c1.268.002 2.29 1.026 2.29 2.292 0 1.27-1.02 2.293-2.285 2.293h-11.05c-.77 0-1.39.624-1.39 1.396 0 .767.62 1.39 1.38 1.39v-.01h11.04c2.79-.004 5.05-2.26 5.05-5.068 0-2.8-2.26-5.075-5.06-5.075l-7.37-.013c-1.27-.006-2.29-1.03-2.29-2.292 0-1.277 1.02-2.298 2.29-2.298zM217 5.363c-.007-2.808-2.264-5.07-5.058-5.073H200.9c-.368 0-.723.144-.98.403-.26.26-.41.616-.41.986v14.75c0 .76.622 1.39 1.39 1.39.764 0 1.386-.63 1.386-1.39v-5.99l2.277-.01h.006l7.37.01c1.26 0 2.29 1.02 2.29 2.29v3.68c0 .76.62 1.39 1.38 1.39.76 0 1.38-.63 1.38-1.39v-3.68c0-1.46-.63-2.77-1.62-3.7.98-.93 1.61-2.23 1.61-3.7zm-5.058 2.293l-7.215.01h-.157l-2.285.002V3.065h9.656c1.27 0 2.29 1.02 2.29 2.298 0 1.263-1.02 2.288-2.28 2.293z" fill="#fff"/></svg>