<?xml version="1.0" encoding="utf-8"?>
<!-- Generator: Adobe Illustrator 15.1.0, SVG Export Plug-In . SVG Version: 6.00 Build 0)  -->
<!DOCTYPE svg PUBLIC "-//W3C//DTD SVG 1.1//EN" "http://www.w3.org/Graphics/SVG/1.1/DTD/svg11.dtd">
<svg version="1.1" id="Layer_1" xmlns="http://www.w3.org/2000/svg" xmlns:xlink="http://www.w3.org/1999/xlink" x="0px" y="0px"
	 width="83.293px" height="83.296px" viewBox="0 0 83.293 83.296" enable-background="new 0 0 83.293 83.296" xml:space="preserve">
<path fill="#FFFFFF" d="M7.521,44.228c-0.015-0.201-0.023-0.404-0.035-0.604c-0.011-0.182-0.023-0.36-0.032-0.541
	c-0.018-0.412-0.026-0.828-0.03-1.242c0-0.085-0.005-0.168-0.005-0.251c0-0.081,0.005-0.159,0.005-0.24
	c0.004-0.431,0.015-0.857,0.034-1.285c0.007-0.164,0.018-0.328,0.028-0.49c0.012-0.216,0.021-0.431,0.037-0.647L3.13,38.497
	c-0.083,1.029-0.125,2.063-0.125,3.102c0,1.02,0.039,2.042,0.12,3.064l3.233-0.32L7.521,44.228z M6.29,41.76l0.002,0.092
	c0.003,0.453,0.014,0.872,0.033,1.288c0,0.023,0,0.046,0.002,0.07l-0.081,0.008l-2.065,0.203c-0.028-0.606-0.043-1.217-0.043-1.822
	c0-0.619,0.015-1.242,0.046-1.86l2.146,0.212c-0.002,0.02-0.004,0.044-0.004,0.066c-0.02,0.437-0.03,0.883-0.033,1.329l-0.003,0.08
	c-0.002,0.055-0.004,0.109-0.004,0.166C6.286,41.649,6.288,41.706,6.29,41.76z M16.589,70.996l0.014-0.015l3.23-3.937
	c0.004-0.006,0.004-0.006,0.007-0.008l0.443-0.539l3.25-3.963l0.853-1.039l0.929-1.134l1.301-1.583l0.155-0.188l0.02-0.026
	c-0.03-0.026-0.059-0.058-0.09-0.085c-0.302-0.266-0.59-0.549-0.879-0.833c-0.096-0.097-0.2-0.187-0.297-0.284
	c-0.062-0.062-0.122-0.127-0.184-0.191c-0.341-0.356-0.673-0.727-0.994-1.11c-0.046-0.056-0.099-0.108-0.143-0.166
	c-0.002,0-0.002,0-0.002,0l0,0c-0.159-0.194-0.309-0.394-0.463-0.595c-0.092-0.12-0.178-0.248-0.268-0.369
	c-0.194-0.266-0.391-0.523-0.574-0.801c-0.175-0.256-0.339-0.521-0.503-0.784c-0.223-0.369-0.441-0.74-0.646-1.128h-0.003
	l-0.002-0.008c-0.033-0.061-0.062-0.123-0.096-0.188c-0.127-0.242-0.25-0.484-0.365-0.73c-0.055-0.11-0.103-0.227-0.155-0.34
	c-0.051-0.106-0.097-0.217-0.145-0.324c-0.044-0.096-0.087-0.188-0.127-0.285c-0.052-0.122-0.101-0.245-0.148-0.367
	c-0.065-0.159-0.127-0.318-0.184-0.48c-0.018-0.039-0.035-0.08-0.05-0.125c-0.044-0.121-0.088-0.238-0.129-0.357
	c-0.026-0.07-0.053-0.141-0.077-0.208l-4.913,1.489l-0.822,0.248l-4.756,1.444c-0.002,0-0.004,0-0.007,0.003l-2.714,0.821
	l-2.173,0.66c0.694,2.146,1.587,4.262,2.686,6.323c1.218,2.274,2.634,4.375,4.208,6.299C13.247,67.891,14.858,69.527,16.589,70.996z
	 M8.567,59.259c-0.865-1.615-1.612-3.309-2.235-5.045l1.053-0.32l2.722-0.822l4.756-1.445l0.822-0.248l2.695-0.817l1.195-0.362
	c0.026,0.067,0.053,0.137,0.081,0.201c0.03,0.079,0.063,0.155,0.094,0.23c0.021,0.052,0.039,0.102,0.062,0.152
	c0.092,0.215,0.188,0.43,0.283,0.643l0.046,0.101c0.04,0.087,0.081,0.175,0.118,0.259c0.068,0.143,0.146,0.287,0.219,0.43
	c0.055,0.113,0.109,0.226,0.168,0.34l0.031,0.062c0.021,0.047,0.046,0.09,0.072,0.141c0.106,0.197,0.223,0.393,0.334,0.592
	c0.277,0.48,0.564,0.957,0.87,1.416c0.037,0.055,0.081,0.113,0.118,0.169c0.223,0.325,0.468,0.662,0.77,1.058l0.057,0.072v0.002
	c0.14,0.186,0.284,0.372,0.428,0.549c0.271,0.33,0.58,0.678,0.914,1.036c0.097,0.101,0.182,0.198,0.282,0.304l0.05,0.055
	c0.049,0.051,0.094,0.1,0.145,0.148c0.171,0.178,0.346,0.35,0.522,0.518l-0.089,0.105l-1.3,1.582l-0.93,1.135l-0.264,0.32
	l-3.248,3.963l-0.45,0.545l-2.503,3.049c-1.359-1.229-2.636-2.572-3.804-3.996C11.092,63.471,9.718,61.414,8.567,59.259z
	 M18.854,61.498l0.424-1.135l0.595-1.582l0.424-1.133l0.595-1.587l0.304-0.812l-2.814-0.106L8.165,54.759l0.307,0.461l8.148,12.24
	L18.854,61.498z M13.531,57.764l3.679,0.138l-1.294,3.449L13.531,57.764z M8.694,50.835c-0.065-0.226-0.118-0.455-0.179-0.68
	c-0.033-0.134-0.07-0.265-0.104-0.4C8.165,48.75,7.965,47.74,7.81,46.729c-0.022-0.146-0.042-0.297-0.062-0.444
	c-0.03-0.216-0.063-0.433-0.09-0.646l-1.84,0.182l-2.554,0.254c0.236,2.023,0.637,4.045,1.205,6.043l3.735-1.134L8.694,50.835z
	 M5.261,50.695c-0.3-1.188-0.54-2.396-0.719-3.613l1.386-0.136l0.76-0.075c0,0.01,0,0.02,0.005,0.025
	C6.85,47.949,7.06,49,7.313,50.024c0.004,0.017,0.009,0.031,0.011,0.046L5.261,50.695z M41.646,83.296
	c23.002,0,41.646-18.646,41.646-41.647C83.293,18.646,64.648,0.002,41.646,0C18.646,0.002,0,18.646,0,41.649
	C0,64.649,18.646,83.296,41.646,83.296z M1.134,41.649C1.134,30.458,5.665,20.333,13,13C20.333,5.667,30.455,1.132,41.646,1.132
	c11.19,0,21.315,4.536,28.648,11.869S82.16,30.459,82.162,41.649c-0.002,11.188-4.535,21.315-11.868,28.647
	S52.836,82.162,41.646,82.162c-11.191,0-21.313-4.533-28.646-11.865C5.665,62.964,1.134,52.837,1.132,41.649H1.134z M68.585,43.067
	c0.007-0.094,0.013-0.188,0.017-0.284c0.02-0.402,0.032-0.809,0.032-1.215c0-0.391-0.014-0.78-0.03-1.171
	c-0.006-0.123-0.014-0.245-0.021-0.367c-0.004-0.129-0.019-0.258-0.028-0.389l-3.847,0.378l-0.544,0.055
	c0.004,0.057,0.004,0.112,0.006,0.166c0.021,0.372,0.033,0.739,0.037,1.108c0.003,0.033,0.005,0.068,0.005,0.101
	c0,0.042,0.002,0.081,0.002,0.12c0,0.035-0.002,0.072-0.002,0.109c0,0.267-0.019,0.533-0.028,0.802
	c-0.007,0.154-0.007,0.311-0.016,0.465c-0.004,0.049-0.002,0.094-0.004,0.141l0.887,0.086l3.502,0.348
	C68.562,43.367,68.579,43.218,68.585,43.067z M67.488,42.276l-2.15-0.212c0.004-0.129,0.006-0.256,0.006-0.38
	c0-0.039,0.006-0.079,0.006-0.116c0-0.04-0.006-0.079-0.006-0.127c0-0.113-0.004-0.229-0.006-0.347l2.152-0.212
	c0.007,0.247,0.009,0.47,0.009,0.687C67.499,41.791,67.497,42.022,67.488,42.276z M14.954,32.75
	c0.046-0.133,0.097-0.271,0.146-0.415c0.044-0.125,0.086-0.247,0.129-0.367c0.132-0.363,0.271-0.724,0.416-1.08
	c0.02-0.044,0.039-0.09,0.057-0.129c0.148-0.356,0.306-0.708,0.468-1.06c0.057-0.12,0.113-0.24,0.175-0.363
	c0.065-0.133,0.124-0.264,0.188-0.389l0.12-0.247l-1.4-0.75l-2.981-1.591l-0.129,0.256c-0.092,0.182-0.19,0.365-0.28,0.555
	c-0.063,0.129-0.127,0.258-0.189,0.391c-0.42,0.901-0.798,1.812-1.135,2.741c-0.051,0.138-0.094,0.269-0.138,0.398
	c-0.07,0.201-0.136,0.4-0.197,0.592l-0.092,0.275l1.933,0.585l2.826,0.857L14.954,32.75z M22.198,30.701l0.126-0.221l0.009-0.017
	c0.031-0.053,0.07-0.112,0.109-0.184c0.068-0.112,0.138-0.228,0.208-0.348c0.107-0.173,0.221-0.35,0.334-0.527
	c0.074-0.114,0.149-0.225,0.221-0.332c0.042-0.059,0.086-0.118,0.125-0.177c0.083-0.12,0.166-0.24,0.254-0.361
	c0.074-0.103,0.144-0.203,0.214-0.299c0.12-0.16,0.245-0.317,0.371-0.474c0.053-0.065,0.101-0.133,0.153-0.199
	c0.035-0.042,0.062-0.076,0.083-0.104l0.016-0.02c0.356-0.433,0.736-0.85,1.13-1.261c0.369-0.387,0.752-0.767,1.154-1.132
	c0.262-0.236,0.528-0.468,0.804-0.693c0.088-0.07,0.188-0.145,0.293-0.225c0.289-0.229,0.584-0.45,0.886-0.667
	c0.56-0.4,1.143-0.778,1.746-1.132c0.226-0.131,0.45-0.26,0.682-0.385l0,0l0.044-0.024l0.028-0.015
	c-0.011,0.007,0.02-0.006,0.065-0.033c0.265-0.14,0.54-0.277,0.815-0.409c0.105-0.05,0.215-0.096,0.328-0.151
	c0.201-0.089,0.4-0.179,0.599-0.265c0.125-0.052,0.252-0.1,0.381-0.155c0.126-0.05,0.258-0.099,0.385-0.149
	c0.061-0.021,0.117-0.046,0.179-0.067c0.131-0.048,0.263-0.094,0.39-0.143c0.069-0.024,0.133-0.048,0.184-0.065l0.262-0.087
	l-0.233-0.769l-1.214-3.991l-0.275,0.092c-0.104,0.035-0.218,0.07-0.336,0.111l0,0c-0.148,0.052-0.3,0.104-0.45,0.16
	c-0.247,0.092-0.492,0.186-0.734,0.284c-0.145,0.057-0.289,0.113-0.438,0.175c-0.271,0.114-0.535,0.234-0.8,0.356
	c-0.114,0.05-0.229,0.101-0.35,0.155c-0.381,0.184-0.757,0.372-1.13,0.571l-0.031,0.017c-1.156,0.617-2.249,1.314-3.28,2.07
	c-0.394,0.288-0.778,0.585-1.152,0.894c-0.096,0.077-0.186,0.16-0.281,0.238c-0.604,0.509-1.183,1.034-1.733,1.585
	c-0.367,0.367-0.72,0.747-1.061,1.132c-0.24,0.269-0.48,0.542-0.708,0.82c-0.074,0.092-0.143,0.184-0.205,0.262
	c-0.132,0.166-0.263,0.337-0.394,0.503c-0.053,0.072-0.107,0.138-0.162,0.209C19.7,25.4,19.601,25.545,19.5,25.685
	c-0.115,0.162-0.231,0.326-0.345,0.492c-0.024,0.038-0.051,0.072-0.077,0.109c-0.103,0.151-0.198,0.302-0.297,0.45
	c-0.131,0.204-0.263,0.413-0.392,0.621c-0.089,0.146-0.177,0.295-0.264,0.441c-0.062,0.107-0.116,0.21-0.171,0.304l-0.145,0.253
	l0.571,0.304l0.438,0.236l2.969,1.584L22.198,30.701z M69.643,24.476c-0.158-0.258-0.319-0.512-0.481-0.761
	c-0.115-0.177-0.229-0.356-0.345-0.529c-0.185-0.271-0.375-0.536-0.564-0.798c-0.104-0.148-0.21-0.297-0.316-0.444
	c-0.259-0.348-0.526-0.688-0.797-1.023c-0.041-0.052-0.082-0.107-0.125-0.16c-0.4-0.489-0.816-0.957-1.24-1.418
	c-1.035-1.125-2.14-2.175-3.31-3.13c-1.478-1.213-3.051-2.277-4.698-3.204c-0.215-0.12-0.429-0.249-0.646-0.367
	c-0.031-0.015-0.061-0.028-0.088-0.044c-0.42-0.223-0.844-0.435-1.271-0.638c-0.167-0.081-0.337-0.153-0.505-0.227
	c-0.296-0.138-0.595-0.273-0.896-0.398c-0.191-0.081-0.383-0.155-0.571-0.231c-0.284-0.112-0.567-0.223-0.856-0.328
	c-0.201-0.074-0.404-0.146-0.607-0.214c-0.157-0.055-0.319-0.107-0.477-0.159l-0.801,2.638l-0.479,1.578
	c0.129,0.043,0.256,0.092,0.383,0.135c0.158,0.055,0.318,0.111,0.477,0.17c0.258,0.094,0.512,0.192,0.768,0.295
	c0.156,0.063,0.312,0.125,0.468,0.19c0.265,0.111,0.526,0.227,0.789,0.35c0.14,0.062,0.28,0.123,0.418,0.188
	c0.304,0.145,0.601,0.297,0.897,0.45c0.09,0.046,0.18,0.087,0.27,0.136c1.354,0.723,2.648,1.565,3.877,2.505
	c0.247,0.19,0.496,0.376,0.736,0.573c0.004,0.004,0.014,0.008,0.018,0.013c0.436,0.358,0.855,0.734,1.271,1.119
	c0.543,0.507,1.067,1.034,1.576,1.585c0.188,0.209,0.379,0.415,0.564,0.629c0.146,0.168,0.291,0.332,0.436,0.502
	c0.028,0.035,0.062,0.07,0.088,0.105c0.035,0.037,0.062,0.079,0.092,0.118c0.242,0.295,0.479,0.597,0.707,0.907
	c0.078,0.103,0.154,0.209,0.229,0.314c0.18,0.25,0.357,0.5,0.533,0.756c0.088,0.129,0.171,0.26,0.256,0.391
	c0.155,0.238,0.311,0.479,0.461,0.724c0.088,0.144,0.174,0.289,0.256,0.433c0.072,0.125,0.146,0.241,0.217,0.363l3.887-2.074
	c-0.086-0.148-0.166-0.297-0.254-0.446C69.871,24.858,69.759,24.666,69.643,24.476z M66.768,26.064
	c-0.131-0.214-0.268-0.424-0.402-0.634l-0.071-0.105c-0.063-0.101-0.127-0.201-0.194-0.299c-0.182-0.265-0.365-0.527-0.554-0.787
	l-0.09-0.125c-0.05-0.068-0.099-0.135-0.146-0.206c-0.236-0.31-0.485-0.629-0.732-0.935l-0.021-0.026
	c-0.029-0.04-0.056-0.074-0.076-0.101c-0.035-0.042-0.072-0.083-0.107-0.125c-0.096-0.114-0.191-0.228-0.29-0.339l-0.049-0.057
	l-0.099-0.112c-0.443-0.511-0.902-0.999-1.375-1.473c-0.385-0.389-0.775-0.769-1.178-1.132c-0.33-0.295-0.662-0.584-0.999-0.861
	c-0.219-0.179-0.444-0.352-0.669-0.522L59.6,18.139c-1.291-0.99-2.647-1.867-4.039-2.61c-0.055-0.028-0.108-0.055-0.164-0.081
	c-0.037-0.017-0.07-0.037-0.11-0.057c-0.312-0.16-0.618-0.317-0.931-0.465c-0.107-0.053-0.215-0.101-0.324-0.146l-0.111-0.053
	c-0.271-0.125-0.544-0.247-0.818-0.363c-0.113-0.046-0.229-0.094-0.342-0.138l-0.145-0.059c-0.219-0.085-0.436-0.172-0.651-0.253
	l0.166-0.546l0.459-1.513c0.261,0.096,0.521,0.197,0.778,0.3l0.175,0.07c0.127,0.05,0.254,0.101,0.381,0.153
	c0.288,0.123,0.574,0.251,0.863,0.383l0.188,0.087c0.1,0.043,0.197,0.087,0.299,0.135c0.406,0.192,0.816,0.4,1.213,0.608
	c0.027,0.015,0.055,0.028,0.096,0.05c0.129,0.067,0.256,0.142,0.383,0.214c0.083,0.048,0.166,0.096,0.245,0.14
	c1.626,0.918,3.151,1.956,4.537,3.095c1.11,0.907,2.185,1.923,3.194,3.021c0.455,0.494,0.845,0.939,1.195,1.368l0.047,0.059
	l0.074,0.096c0.284,0.354,0.537,0.677,0.77,0.988c0.058,0.079,0.113,0.16,0.17,0.238c0.049,0.063,0.093,0.129,0.137,0.19
	c0.184,0.254,0.367,0.512,0.547,0.771c0.069,0.107,0.141,0.214,0.209,0.326l0.121,0.182c0.154,0.238,0.309,0.477,0.456,0.721
	L66.768,26.064z M67.245,33.074c-0.041-0.129-0.083-0.26-0.126-0.389c-0.035-0.101-0.07-0.203-0.109-0.304
	c-0.127-0.354-0.263-0.706-0.404-1.056c-0.006-0.018-0.016-0.04-0.021-0.057c-0.15-0.363-0.312-0.723-0.479-1.082
	c-0.049-0.105-0.102-0.21-0.152-0.317c-0.062-0.127-0.127-0.254-0.188-0.378l-1.85,0.988l-0.298,0.16l-1.744,0.931
	c0.007,0.016,0.013,0.026,0.019,0.04c0.016,0.035,0.029,0.07,0.047,0.105c0.197,0.406,0.386,0.813,0.557,1.224
	c0,0.004,0.004,0.011,0.004,0.016c0.035,0.081,0.062,0.162,0.092,0.24c0.137,0.341,0.268,0.68,0.385,1.023
	c0.015,0.037,0.028,0.074,0.045,0.109c0,0.011,0.004,0.018,0.008,0.028l0.088-0.028l1.257-0.38l0.642-0.194L67.245,33.074z
	 M63.723,32.96c-0.062-0.155-0.123-0.306-0.184-0.455c-0.061-0.144-0.123-0.289-0.188-0.441l0.797-0.429l0.051-0.026l0.173-0.09
	l0.881-0.472c0.104,0.229,0.197,0.446,0.284,0.654l0.018,0.039l0.006,0.016c0.073,0.184,0.149,0.376,0.227,0.579l-1.102,0.334
	L63.723,32.96z M14.71,43.113c0.009,0.133,0.021,0.271,0.03,0.406l3.01-0.297l1.379-0.137c-0.004-0.051,0-0.101-0.004-0.15
	c-0.009-0.152-0.009-0.305-0.018-0.457c-0.014-0.301-0.028-0.597-0.028-0.894c0-0.079,0.006-0.158,0.009-0.238
	c0.004-0.376,0.015-0.752,0.037-1.128c0.004-0.048,0.002-0.096,0.004-0.146l-3.469-0.341l-0.918-0.09
	c-0.011,0.146-0.023,0.293-0.032,0.439c-0.005,0.098-0.014,0.197-0.018,0.295c-0.018,0.405-0.031,0.809-0.031,1.215
	c0,0.394,0.014,0.787,0.031,1.181C14.696,42.886,14.705,43,14.71,43.113z M15.807,40.881l2.146,0.212
	c-0.004,0.168-0.007,0.332-0.007,0.492c0,0.155,0.003,0.314,0.007,0.479l-0.314,0.033l-1.832,0.179
	c-0.009-0.245-0.011-0.47-0.011-0.684C15.796,41.367,15.798,41.131,15.807,40.881z M20.271,34.355
	c0.002-0.011,0.004-0.018,0.008-0.028c0.016-0.042,0.033-0.081,0.049-0.125c0.115-0.339,0.244-0.673,0.378-1.008
	c0.03-0.079,0.057-0.16,0.09-0.238c0.004-0.009,0.009-0.02,0.013-0.028c0.171-0.413,0.358-0.82,0.553-1.222
	c0.016-0.031,0.028-0.063,0.044-0.096c0.007-0.013,0.011-0.024,0.018-0.04l-2.039-1.091l-0.228-0.122l-1.622-0.866
	c-0.061,0.125-0.126,0.249-0.188,0.374c-0.048,0.103-0.099,0.203-0.145,0.304c-0.166,0.35-0.323,0.702-0.472,1.06
	c-0.009,0.022-0.016,0.039-0.024,0.061c-0.146,0.35-0.277,0.702-0.409,1.058c-0.043,0.122-0.085,0.243-0.126,0.365
	c-0.044,0.118-0.081,0.241-0.123,0.361l0.21,0.065l2.123,0.643l1.803,0.544L20.271,34.355z M19.763,32.491
	c0,0-0.004,0.009-0.009,0.02c-0.004,0.006-0.006,0.015-0.006,0.015s0,0,0-0.002c-0.06,0.142-0.116,0.286-0.173,0.437l-2.065-0.625
	c0.081-0.219,0.159-0.417,0.238-0.601l0.028-0.072c0.083-0.199,0.17-0.402,0.267-0.614l0.334,0.179l0.245,0.129l0.475,0.254
	l0.85,0.455c-0.065,0.146-0.127,0.289-0.184,0.428C19.763,32.491,19.763,32.491,19.763,32.491z M15.522,34.845
	c-0.023,0.098-0.05,0.199-0.074,0.297c-0.19,0.772-0.346,1.55-0.466,2.337c-0.02,0.118-0.034,0.236-0.05,0.356
	c-0.02,0.131-0.035,0.265-0.053,0.398l0.148,0.015l3.889,0.38l0.354,0.035c0.002-0.011,0.002-0.022,0.006-0.035
	c0.005-0.037,0.014-0.074,0.018-0.113c0.062-0.444,0.132-0.888,0.219-1.327l0.005-0.017c0.009-0.042,0.02-0.083,0.028-0.127
	c0.076-0.378,0.166-0.756,0.265-1.132c0.004-0.015,0.006-0.03,0.011-0.046c0.013-0.052,0.023-0.105,0.037-0.157l-4.221-1.279
	C15.602,34.565,15.56,34.705,15.522,34.845z M16.442,35.854l1.938,0.588l0.126,0.039c-0.037,0.164-0.072,0.324-0.103,0.485
	c-0.004,0.024-0.009,0.053-0.013,0.077c-0.026,0.127-0.051,0.256-0.074,0.389L16.17,37.22C16.251,36.762,16.34,36.305,16.442,35.854
	z M50.243,15.711l-0.278-0.092l-1.21,3.991l-0.231,0.767l0.254,0.089c0.062,0.022,0.127,0.048,0.201,0.072
	c0.129,0.046,0.26,0.094,0.394,0.14v0.002c0.052,0.02,0.104,0.042,0.157,0.061c0.142,0.055,0.281,0.107,0.422,0.164
	c0.124,0.048,0.244,0.096,0.365,0.147c0.211,0.087,0.422,0.184,0.634,0.28c0.101,0.048,0.2,0.09,0.29,0.133
	c0.309,0.146,0.611,0.297,0.906,0.455c0.254,0.138,0.485,0.271,0.717,0.404c0.015,0.011,0.029,0.017,0.045,0.026
	c0.154,0.09,0.311,0.186,0.464,0.28c0.424,0.262,0.839,0.538,1.245,0.826c0.39,0.278,0.77,0.566,1.142,0.87l0.003,0.002l0.027,0.022
	c0.271,0.225,0.538,0.455,0.8,0.691c0.397,0.36,0.782,0.741,1.156,1.132c0.39,0.407,0.769,0.824,1.13,1.266l0.07,0.085
	c0.059,0.077,0.113,0.157,0.175,0.234c0.254,0.326,0.507,0.656,0.747,0.999c0.031,0.046,0.062,0.089,0.097,0.135
	c0.021,0.031,0.044,0.063,0.065,0.094c0.297,0.435,0.586,0.887,0.855,1.353c0.035,0.059,0.062,0.099,0.077,0.125l0.009,0.013
	l0.129,0.221l0.414-0.221l3.975-2.126l-0.146-0.251c-0.055-0.094-0.11-0.194-0.171-0.297c-0.092-0.157-0.186-0.314-0.281-0.47
	c-0.132-0.216-0.267-0.428-0.402-0.638c-0.092-0.138-0.184-0.28-0.276-0.42c-0.024-0.035-0.046-0.065-0.069-0.101
	c-0.137-0.199-0.273-0.391-0.408-0.581c-0.08-0.109-0.158-0.221-0.246-0.337c-0.053-0.074-0.108-0.142-0.165-0.214
	c-0.197-0.256-0.392-0.514-0.595-0.763c-0.231-0.28-0.469-0.553-0.707-0.822c-0.346-0.389-0.703-0.765-1.067-1.132
	c-0.524-0.522-1.063-1.023-1.622-1.5c-0.033-0.024-0.068-0.057-0.102-0.085c-0.092-0.079-0.182-0.162-0.281-0.245
	c-0.374-0.306-0.758-0.601-1.147-0.887c-1.054-0.772-2.155-1.469-3.298-2.079c-0.374-0.196-0.75-0.387-1.13-0.568
	c-0.121-0.057-0.235-0.107-0.347-0.155c-0.262-0.123-0.528-0.243-0.799-0.356c-0.153-0.063-0.303-0.125-0.451-0.181
	c-0.235-0.096-0.473-0.186-0.713-0.275c-0.166-0.059-0.334-0.121-0.502-0.177C50.45,15.778,50.346,15.746,50.243,15.711z
	 M31.45,10.402c-0.151,0.048-0.302,0.098-0.452,0.148c-0.206,0.072-0.416,0.144-0.621,0.219c-0.282,0.103-0.562,0.214-0.844,0.323
	c-0.188,0.077-0.38,0.151-0.568,0.229c-0.314,0.131-0.625,0.273-0.936,0.413c-0.155,0.072-0.311,0.138-0.466,0.21
	c-0.426,0.203-0.85,0.417-1.271,0.64c-0.037,0.02-0.074,0.038-0.111,0.057c-0.003,0.002-0.007,0.002-0.009,0.004
	c-0.315,0.17-0.621,0.35-0.932,0.527c-0.159,0.096-0.328,0.181-0.485,0.277c-0.321,0.192-0.634,0.398-0.946,0.599
	c-0.138,0.089-0.282,0.175-0.42,0.267c-0.177,0.118-0.345,0.245-0.518,0.367c-0.702,0.489-1.386,0.994-2.039,1.532
	c-1.598,1.307-3.045,2.751-4.339,4.301c-0.07,0.081-0.145,0.162-0.21,0.243c-0.328,0.398-0.641,0.802-0.944,1.211
	c-0.103,0.136-0.196,0.275-0.297,0.413c-0.199,0.277-0.398,0.555-0.59,0.839c-0.109,0.164-0.215,0.33-0.324,0.494
	c-0.168,0.264-0.336,0.526-0.498,0.795c-0.109,0.179-0.214,0.358-0.321,0.54c-0.085,0.146-0.168,0.295-0.251,0.443l3.886,2.074
	c0.063-0.111,0.134-0.221,0.196-0.33c0.092-0.155,0.184-0.308,0.275-0.461c0.136-0.225,0.28-0.448,0.425-0.669
	c0.094-0.146,0.188-0.295,0.286-0.439c0.081-0.122,0.168-0.24,0.251-0.358c0.063-0.089,0.125-0.179,0.188-0.269
	c0.02-0.026,0.039-0.053,0.057-0.079c0.087-0.121,0.173-0.247,0.263-0.367c0.249-0.333,0.502-0.66,0.767-0.984
	c0.016-0.018,0.028-0.035,0.042-0.052c0.028-0.035,0.059-0.068,0.087-0.103c0.321-0.385,0.656-0.76,1.001-1.132
	c0.114-0.121,0.224-0.243,0.337-0.361c0.397-0.417,0.811-0.826,1.237-1.224c0.411-0.382,0.835-0.756,1.276-1.117
	c0.004-0.004,0.013-0.011,0.018-0.015c0.699-0.571,1.427-1.11,2.189-1.622c0.517-0.345,1.052-0.671,1.596-0.986
	c0.267-0.153,0.529-0.308,0.8-0.452c0.009-0.007,0.018-0.011,0.026-0.018c0.394-0.21,0.792-0.407,1.189-0.597
	c0.131-0.062,0.262-0.116,0.392-0.177c0.269-0.123,0.539-0.245,0.812-0.36c0.159-0.066,0.317-0.127,0.475-0.19
	c0.249-0.098,0.494-0.194,0.743-0.284c0.17-0.065,0.341-0.125,0.516-0.184c0.113-0.039,0.228-0.085,0.341-0.122l-0.942-3.108
	L31.45,10.402z M30.711,14.157l-0.098,0.037c-0.132,0.055-0.265,0.105-0.396,0.16c-0.282,0.12-0.562,0.247-0.851,0.376l-0.14,0.063
	c-0.088,0.042-0.175,0.081-0.263,0.12c-0.441,0.21-0.846,0.415-1.235,0.623l-0.03,0.015h-0.002
	c-0.226,0.123-0.446,0.249-0.667,0.378l-0.159,0.092c-0.632,0.365-1.176,0.7-1.661,1.027c-0.789,0.527-1.561,1.1-2.295,1.701
	c-0.332,0.271-0.665,0.564-0.997,0.861c-0.397,0.36-0.793,0.738-1.185,1.132c-0.145,0.146-0.293,0.293-0.435,0.441
	c-0.383,0.402-0.72,0.776-1.038,1.144c-0.151,0.175-0.307,0.35-0.446,0.52c-0.018,0.02-0.03,0.042-0.039,0.052
	c-0.136,0.167-0.265,0.339-0.396,0.507c-0.134,0.173-0.271,0.339-0.4,0.514c-0.06,0.079-0.113,0.155-0.171,0.236l-0.104,0.146
	c-0.175,0.243-0.35,0.485-0.516,0.734c-0.074,0.109-0.148,0.223-0.219,0.333l-0.083,0.126c-0.122,0.188-0.243,0.376-0.36,0.568
	l-1.899-1.014c0.148-0.243,0.299-0.479,0.452-0.715l0.107-0.166c0.069-0.105,0.135-0.21,0.205-0.314
	c0.184-0.271,0.376-0.542,0.568-0.807l0.122-0.17c0.053-0.077,0.105-0.153,0.164-0.229c0.309-0.416,0.605-0.798,0.911-1.169
	c0.026-0.033,0.058-0.066,0.086-0.099c0.039-0.046,0.08-0.092,0.117-0.138c0.33-0.396,0.672-0.778,1.017-1.156
	c0.151-0.164,0.307-0.317,0.459-0.476c0.861-0.894,1.767-1.745,2.713-2.521c0.575-0.47,1.218-0.955,1.972-1.479l0.203-0.145
	c0.099-0.072,0.196-0.142,0.295-0.209c0.07-0.044,0.143-0.09,0.214-0.133c0.063-0.04,0.129-0.081,0.19-0.123l0.155-0.099
	c0.251-0.164,0.501-0.328,0.759-0.479c0.076-0.048,0.157-0.092,0.235-0.135c0.079-0.044,0.162-0.09,0.236-0.134l0.157-0.092
	c0.238-0.14,0.477-0.277,0.724-0.411l0.042-0.022h0.004c0.03-0.015,0.065-0.033,0.088-0.043c0.406-0.216,0.821-0.424,1.228-0.619
	c0.083-0.04,0.167-0.077,0.254-0.114l0.192-0.087c0.302-0.138,0.604-0.273,0.907-0.4c0.12-0.053,0.242-0.101,0.365-0.149l0.181-0.07
	c0.252-0.103,0.505-0.201,0.759-0.293l0.623,2.059C31.124,13.993,30.919,14.074,30.711,14.157z M72.911,30.738
	c-0.048-0.138-0.097-0.28-0.147-0.422c-0.164-0.455-0.338-0.912-0.525-1.369l-0.012-0.017c-0.181-0.442-0.381-0.896-0.592-1.349
	c-0.062-0.131-0.127-0.26-0.188-0.383c-0.096-0.199-0.194-0.393-0.293-0.583l-0.131-0.256l-3.947,2.107l-0.192,0.105l-0.239,0.126
	l0.121,0.247c0.068,0.138,0.135,0.28,0.205,0.428c0.059,0.118,0.112,0.232,0.168,0.346c0.174,0.374,0.34,0.75,0.495,1.125
	c0.007,0.013,0.015,0.04,0.028,0.072c0.146,0.358,0.283,0.719,0.415,1.082c0.042,0.109,0.079,0.223,0.12,0.336
	c0.051,0.144,0.101,0.282,0.145,0.415l0.085,0.26l4.759-1.442l-0.09-0.273C73.033,31.109,72.975,30.923,72.911,30.738z
	 M63.486,35.911c0.099,0.376,0.188,0.756,0.267,1.132c0.009,0.046,0.021,0.092,0.03,0.138l0,0c0.088,0.448,0.16,0.896,0.221,1.344
	c0.005,0.035,0.012,0.068,0.016,0.103c0.004,0.013,0.004,0.024,0.01,0.037l0.343-0.035l4.046-0.398
	c-0.018-0.142-0.029-0.282-0.053-0.422c-0.014-0.103-0.028-0.203-0.043-0.304c-0.118-0.783-0.273-1.563-0.465-2.341
	c-0.025-0.114-0.057-0.223-0.086-0.337c-0.033-0.135-0.074-0.267-0.111-0.4l-2.758,0.833l-1.463,0.446
	c0.013,0.05,0.021,0.098,0.033,0.148C63.479,35.876,63.48,35.894,63.486,35.911z M65.234,36.346l1.621-0.492
	c0.104,0.452,0.192,0.911,0.271,1.366l-2.146,0.212c-0.025-0.164-0.057-0.319-0.088-0.472c-0.029-0.155-0.064-0.315-0.101-0.481
	L65.234,36.346z M14.979,45.682c0.059,0.375,0.12,0.747,0.194,1.12c0.002,0.01,0.005,0.021,0.005,0.029
	c0.078,0.394,0.168,0.785,0.267,1.176c0.021,0.096,0.048,0.191,0.071,0.289c0.038,0.145,0.081,0.291,0.121,0.435L18.38,47.9
	l1.475-0.447c-0.013-0.055-0.021-0.107-0.035-0.16c-0.043-0.17-0.078-0.34-0.117-0.512c-0.127-0.529-0.232-1.056-0.317-1.587
	c-0.028-0.187-0.067-0.372-0.094-0.56c-0.007-0.049-0.018-0.092-0.022-0.141l-0.889,0.088l-0.896,0.086l-2.605,0.258
	c0.016,0.121,0.028,0.244,0.046,0.365C14.941,45.421,14.959,45.552,14.979,45.682z M17.595,45.796l0.722-0.071
	c0.057,0.319,0.122,0.636,0.189,0.95l-2.067,0.627c-0.055-0.229-0.103-0.452-0.146-0.674l-0.004-0.024l-0.005-0.022
	c-0.039-0.203-0.079-0.416-0.118-0.645L17.595,45.796z M63.438,47.451l0.934,0.281l3.285,0.999c0.035-0.129,0.074-0.258,0.109-0.388
	c0.03-0.115,0.06-0.231,0.088-0.35c0.088-0.365,0.174-0.731,0.246-1.102l0.019-0.087c0.071-0.374,0.138-0.745,0.194-1.119
	c0.02-0.122,0.035-0.245,0.051-0.367c0.019-0.131,0.033-0.262,0.05-0.392l-4.042-0.399l-0.348-0.032
	c-0.006,0.045-0.018,0.092-0.021,0.135c-0.025,0.189-0.064,0.375-0.096,0.563c-0.086,0.534-0.192,1.062-0.315,1.587
	c-0.041,0.174-0.075,0.35-0.122,0.521C63.456,47.351,63.449,47.401,63.438,47.451z M64.975,45.725l2.15,0.212
	c-0.037,0.225-0.076,0.438-0.115,0.641l-0.009,0.047l-0.009,0.045c-0.044,0.207-0.088,0.414-0.139,0.635l-2.069-0.627
	C64.854,46.361,64.918,46.046,64.975,45.725z M74.637,44.11c0.014-0.208,0.031-0.416,0.045-0.629c0.01-0.138,0.019-0.28,0.026-0.426
	c0.021-0.479,0.035-0.962,0.035-1.442c0-0.011,0-0.026,0-0.048c0-0.024,0-0.042,0-0.052c0-0.47-0.017-0.938-0.035-1.406
	c-0.007-0.159-0.019-0.314-0.026-0.465c-0.011-0.201-0.027-0.4-0.041-0.592l-0.021-0.291l-4.951,0.488l0.021,0.275
	c0.01,0.144,0.019,0.295,0.026,0.45c0.005,0.126,0.013,0.247,0.019,0.365c0.017,0.413,0.029,0.822,0.029,1.233v0.026
	c0,0.404-0.014,0.812-0.029,1.217c-0.008,0.127-0.014,0.253-0.022,0.386c-0.009,0.152-0.013,0.299-0.026,0.438l-0.018,0.274
	l4.943,0.487L74.637,44.11z M74.426,37.041c-0.02-0.148-0.037-0.301-0.062-0.457c-0.07-0.47-0.15-0.938-0.242-1.408
	c-0.003-0.006-0.003-0.022-0.01-0.043c-0.094-0.481-0.205-0.959-0.32-1.438c-0.04-0.146-0.074-0.289-0.114-0.428
	c-0.052-0.208-0.11-0.409-0.165-0.608l-0.078-0.277l-4.758,1.442l0.074,0.267c0.037,0.136,0.07,0.278,0.109,0.424
	c0.035,0.133,0.07,0.264,0.101,0.389c0.097,0.402,0.188,0.802,0.267,1.2c0,0.004,0.006,0.02,0.01,0.04
	c0.078,0.396,0.145,0.793,0.205,1.191c0.019,0.109,0.033,0.221,0.049,0.337c0.021,0.157,0.048,0.308,0.064,0.457l0.033,0.271
	l2.367-0.231l2.579-0.253l-0.035-0.287C74.477,37.433,74.454,37.238,74.426,37.041z M69.55,45.033
	c-0.018,0.15-0.044,0.305-0.065,0.467c-0.019,0.117-0.032,0.226-0.051,0.332c-0.062,0.414-0.131,0.824-0.211,1.231l-0.002,0.011
	c-0.08,0.398-0.172,0.799-0.271,1.198c-0.026,0.118-0.062,0.237-0.093,0.362c-0.041,0.146-0.073,0.293-0.11,0.434l-0.076,0.268
	l4.761,1.441l0.074-0.279c0.055-0.188,0.109-0.379,0.161-0.572c0.037-0.151,0.079-0.301,0.118-0.454
	c0.109-0.459,0.217-0.921,0.309-1.388c0.006-0.026,0.012-0.056,0.018-0.084c0.095-0.467,0.173-0.938,0.244-1.406
	c0.024-0.162,0.047-0.319,0.065-0.473c0.029-0.199,0.052-0.396,0.072-0.588l0.034-0.287l-4.943-0.486L69.55,45.033z M12.048,24.963
	c0.087-0.155,0.188-0.312,0.283-0.479c0.109-0.188,0.215-0.372,0.324-0.551c0.17-0.28,0.345-0.555,0.524-0.833
	c0.113-0.172,0.219-0.341,0.328-0.5c0.205-0.306,0.419-0.605,0.636-0.907c0.099-0.133,0.188-0.267,0.277-0.389
	c0.319-0.426,0.647-0.848,0.983-1.261c0.236-0.287,0.487-0.568,0.739-0.857c0.249-0.282,0.505-0.564,0.765-0.841
	c0.997-1.06,2.062-2.072,3.204-3.008c0.396-0.319,0.801-0.636,1.211-0.944c1.352-1.007,2.789-1.93,4.323-2.75
	c0.014-0.006,0.04-0.02,0.075-0.037c0.452-0.24,0.904-0.468,1.359-0.684c0.152-0.074,0.314-0.142,0.482-0.219
	c0.324-0.148,0.646-0.293,0.973-0.431c0.187-0.076,0.381-0.153,0.577-0.231c0.3-0.118,0.597-0.234,0.892-0.343
	c0.201-0.072,0.402-0.142,0.608-0.212c0.177-0.061,0.347-0.125,0.511-0.182l0.263-0.085L31.212,8.64L29.94,4.454l-0.271,0.09
	c-2.164,0.702-4.291,1.598-6.365,2.704l-0.02,0.011l-0.007,0.006c-2.284,1.22-4.391,2.64-6.325,4.225
	c-1.996,1.635-3.799,3.445-5.396,5.39c-1.476,1.801-2.773,3.718-3.893,5.725L7.52,22.854l4.392,2.35L12.048,24.963z M49.288,6.509
	H34.029l7.63,10.577L49.288,6.509z M39.505,9.311h4.31l-2.156,2.986L39.505,9.311z M52.169,9.307
	c0.166,0.055,0.338,0.12,0.521,0.184c0.209,0.072,0.412,0.142,0.615,0.214c0.303,0.111,0.608,0.231,0.912,0.354
	c0.192,0.076,0.381,0.148,0.562,0.225c0.337,0.14,0.669,0.289,1,0.444c0.154,0.07,0.307,0.135,0.449,0.201
	c0.479,0.228,0.953,0.463,1.42,0.713c1.949,1.042,3.806,2.275,5.533,3.696c1.701,1.395,3.281,2.966,4.707,4.708
	c0.327,0.402,0.651,0.817,0.967,1.239c0.09,0.121,0.179,0.251,0.274,0.385c0.214,0.297,0.425,0.592,0.629,0.894
	c0.116,0.168,0.226,0.343,0.343,0.522c0.176,0.271,0.35,0.542,0.518,0.817c0.113,0.186,0.227,0.376,0.334,0.568
	c0.104,0.17,0.204,0.33,0.293,0.492l0.136,0.24l2.166-1.156l2.228-1.191l-0.139-0.251c-1.148-2.055-2.457-3.96-3.898-5.718
	c-1.637-1.998-3.443-3.799-5.395-5.399c-1.982-1.628-4.111-3.044-6.35-4.236c-2.039-1.091-4.176-1.998-6.367-2.708l-0.271-0.09
	l-1.447,4.767L52.169,9.307z M72.459,26.692c0.064,0.138,0.133,0.269,0.198,0.407c0.215,0.465,0.427,0.935,0.62,1.405
	c0.005,0.015,0.01,0.028,0.017,0.039c0.188,0.459,0.364,0.925,0.535,1.388c0.053,0.146,0.101,0.293,0.147,0.437
	c0.072,0.201,0.146,0.4,0.211,0.601l0.195-0.059l4.031-1.224c-0.628-1.93-1.41-3.834-2.363-5.694l-3.893,2.081
	C72.264,26.276,72.359,26.486,72.459,26.692z M75.557,25.54c0.521,1.108,0.991,2.247,1.406,3.403L74.9,29.57
	c-0.004-0.009-0.006-0.018-0.01-0.026c-0.191-0.531-0.371-0.999-0.551-1.432l-0.005-0.011l-0.004-0.018l-0.007-0.011
	c-0.184-0.444-0.395-0.918-0.645-1.454c-0.01-0.022-0.019-0.042-0.027-0.063L75.557,25.54z M8.874,46.149
	c0.018,0.134,0.032,0.267,0.057,0.407c0.146,0.973,0.337,1.945,0.577,2.906c0.035,0.154,0.076,0.303,0.113,0.449
	C9.674,50.11,9.73,50.304,9.785,50.5l0.079,0.278l4.758-1.444l-0.074-0.267c-0.042-0.146-0.079-0.301-0.118-0.459
	c-0.032-0.116-0.062-0.229-0.087-0.341c-0.101-0.404-0.192-0.811-0.275-1.213c0-0.008-0.003-0.02-0.005-0.031
	c-0.078-0.4-0.145-0.793-0.205-1.188c-0.018-0.121-0.035-0.244-0.053-0.373c-0.021-0.148-0.044-0.293-0.062-0.432l-0.035-0.275
	l-4.526,0.447l-0.133,0.012l-0.286,0.029l0.032,0.287C8.821,45.734,8.843,45.939,8.874,46.149z M9.324,30.351
	c0.048-0.146,0.098-0.295,0.152-0.441c0.169-0.468,0.346-0.933,0.538-1.395c0.004-0.015,0.013-0.035,0.021-0.052
	c0.192-0.461,0.396-0.92,0.608-1.375c0.069-0.146,0.14-0.289,0.209-0.435c0.095-0.194,0.184-0.389,0.282-0.579l-0.807-0.431
	l-3.086-1.65c-0.938,1.836-1.727,3.74-2.36,5.694l4.225,1.281C9.176,30.762,9.25,30.556,9.324,30.351z M8.968,28.082l-0.002,0.002
	c-0.187,0.455-0.367,0.925-0.554,1.438c-0.006,0.015-0.011,0.03-0.017,0.046l-2.062-0.625c0.411-1.152,0.883-2.289,1.407-3.403
	l1.902,1.019c-0.009,0.015-0.018,0.033-0.022,0.05c-0.24,0.507-0.445,0.97-0.632,1.42L8.968,28.082z M7.75,36.908
	c0.022-0.17,0.044-0.341,0.07-0.511c0.076-0.499,0.159-0.992,0.258-1.488c0.002-0.007,0.004-0.016,0.004-0.022
	c0.101-0.5,0.215-0.995,0.335-1.486c0.035-0.142,0.072-0.284,0.111-0.424c0.057-0.218,0.107-0.437,0.166-0.653l-3.751-1.137
	l-0.472-0.144c-0.56,1.978-0.962,4-1.202,6.045l4.394,0.435C7.687,37.316,7.72,37.111,7.75,36.908z M7.317,33.129
	c-0.14,0.566-0.254,1.066-0.35,1.561c-0.092,0.463-0.18,0.966-0.267,1.537c-0.005,0.02-0.007,0.042-0.009,0.061l-2.146-0.212
	c0.182-1.213,0.42-2.422,0.717-3.611l2.063,0.625C7.324,33.105,7.322,33.116,7.317,33.129z M74.766,32.958
	c0.043,0.155,0.086,0.31,0.121,0.465c0.122,0.496,0.236,0.992,0.338,1.493c0,0.009,0.004,0.02,0.004,0.029
	c0.099,0.494,0.182,0.988,0.258,1.484c0.021,0.146,0.039,0.295,0.062,0.441c0.03,0.216,0.065,0.433,0.091,0.651l4.396-0.435
	c-0.236-2.024-0.636-4.048-1.207-6.048l-4.226,1.283C74.659,32.532,74.712,32.746,74.766,32.958z M78.034,32.464
	c0.298,1.187,0.542,2.396,0.722,3.611l-2.146,0.212c0-0.009-0.004-0.02-0.004-0.028c-0.088-0.564-0.176-1.064-0.263-1.513
	l-0.009-0.037v-0.015c-0.098-0.474-0.21-0.977-0.348-1.541c-0.006-0.022-0.012-0.043-0.016-0.063L78.034,32.464z M32.593,9.296
	L32.593,9.296l1.692,5.578l0.638,2.103l0.8,2.634l0.053,0.179c0.079-0.022,0.157-0.04,0.231-0.059
	c0.125-0.031,0.25-0.062,0.372-0.092c0.041-0.011,0.083-0.02,0.122-0.028c0.175-0.042,0.354-0.081,0.531-0.118
	c0.125-0.026,0.252-0.053,0.376-0.077c0.226-0.046,0.452-0.081,0.68-0.118c0.114-0.017,0.226-0.037,0.337-0.055
	c0.337-0.048,0.669-0.089,1.005-0.122c0,0,0-0.002,0.003-0.002c0.736-0.074,1.471-0.109,2.203-0.109c0.745,0,1.488,0.04,2.223,0.112
	l0,0h0.002c0.009,0,0.016,0.004,0.025,0.004c0.33,0.033,0.662,0.074,0.992,0.122c0.111,0.018,0.227,0.037,0.337,0.055
	c0.229,0.035,0.457,0.077,0.687,0.12c0.125,0.022,0.248,0.048,0.369,0.075c0.172,0.035,0.342,0.074,0.51,0.114
	c0.051,0.011,0.101,0.021,0.15,0.035c0.118,0.028,0.236,0.057,0.354,0.087c0.077,0.018,0.155,0.035,0.231,0.057l0.056-0.179
	l0.721-2.376l0.715-2.354c0-0.002,0-0.004,0-0.007l1.574-5.182L50.7,9.3l1.485-4.896c-2.203-0.623-4.465-1.053-6.752-1.278
	c-1.264-0.127-2.535-0.19-3.81-0.19c-1.253,0-2.51,0.059-3.767,0.184c-2.26,0.225-4.518,0.647-6.752,1.281l0.734,2.417L32.593,9.296
	z M37.97,4.245c1.198-0.116,2.427-0.177,3.655-0.177c1.232,0,2.479,0.061,3.698,0.184c1.833,0.182,3.657,0.499,5.438,0.946
	l-1.146,3.775l-0.118,0.389l-1.573,5.191l-0.715,2.354l-0.466,1.535c-0.078-0.018-0.161-0.037-0.244-0.055
	c-0.127-0.024-0.254-0.05-0.388-0.077c-0.237-0.046-0.479-0.087-0.719-0.127l-0.125-0.02c-0.076-0.013-0.15-0.024-0.229-0.037
	c-0.376-0.052-0.719-0.094-1.066-0.131c-0.771-0.076-1.559-0.118-2.336-0.118c-0.78,0-1.559,0.039-2.319,0.116
	c-0.325,0.033-0.669,0.077-1.058,0.131c-0.07,0.011-0.145,0.021-0.219,0.035l-0.129,0.022c-0.24,0.037-0.479,0.079-0.711,0.123
	c-0.131,0.024-0.258,0.05-0.397,0.081c-0.085,0.018-0.168,0.035-0.253,0.055l-0.543-1.792l-0.638-2.099l-1.691-5.58L32.926,6.49
	l-0.394-1.298C34.313,4.743,36.139,4.426,37.97,4.245z M62.498,66.985L62.498,66.985L62.498,66.985l-3.624-4.417l-0.881-1.07
	l-0.929-1.135l-1.299-1.582l-0.231-0.279c0.329-0.275,0.651-0.561,0.967-0.854c0.537-0.503,1.054-1.031,1.541-1.587
	c0.163-0.187,0.327-0.372,0.483-0.562c0.154-0.188,0.301-0.379,0.445-0.568c0.393-0.512,0.762-1.041,1.109-1.585
	c0.236-0.371,0.459-0.748,0.671-1.136c0.05-0.09,0.104-0.176,0.155-0.271c0.229-0.429,0.437-0.868,0.638-1.312
	c0.171-0.371,0.328-0.752,0.476-1.135c0.191-0.494,0.371-0.994,0.525-1.509c0.007-0.024,0.014-0.05,0.021-0.073
	c0.109-0.375,0.211-0.752,0.303-1.133c0.127-0.521,0.23-1.049,0.318-1.587c0.062-0.374,0.113-0.75,0.158-1.132
	c0.008-0.092,0.021-0.182,0.029-0.273c0.044-0.433,0.07-0.869,0.087-1.309c0.009-0.275,0.019-0.553,0.019-0.831
	c0-0.103-0.004-0.201-0.004-0.302c-0.01-0.533-0.035-1.062-0.08-1.584c-0.008-0.085-0.01-0.171-0.021-0.256
	c-0.026-0.295-0.065-0.588-0.104-0.879c-0.074-0.535-0.17-1.06-0.281-1.584c-0.086-0.38-0.176-0.758-0.278-1.132
	c-0.052-0.201-0.104-0.404-0.166-0.603c-0.101-0.33-0.209-0.656-0.323-0.981c-0.138-0.38-0.283-0.758-0.44-1.132
	c-0.228-0.54-0.478-1.066-0.747-1.584c-0.042-0.085-0.083-0.173-0.127-0.258c-0.16-0.295-0.326-0.585-0.496-0.872
	c-0.326-0.544-0.676-1.073-1.045-1.584c-0.27-0.376-0.547-0.745-0.84-1.1c-0.012-0.013-0.021-0.021-0.028-0.035
	c-0.456-0.551-0.938-1.082-1.446-1.585c-0.394-0.393-0.809-0.767-1.232-1.132c-0.106-0.09-0.211-0.184-0.319-0.275
	c-0.565-0.466-1.158-0.903-1.771-1.31c-0.576-0.382-1.172-0.741-1.785-1.071c-0.043-0.02-0.082-0.04-0.12-0.061
	c-1.218-0.641-2.498-1.172-3.837-1.578c-0.006-0.002-0.016-0.002-0.02-0.007c-1.345-0.404-2.742-0.684-4.182-0.824
	c-0.701-0.07-1.414-0.107-2.14-0.105c-0.722-0.002-1.438,0.035-2.138,0.105c-1.44,0.14-2.837,0.422-4.179,0.824
	c-0.009,0.004-0.016,0.004-0.022,0.007c-1.338,0.406-2.618,0.938-3.834,1.578c-0.039,0.024-0.083,0.042-0.122,0.063
	c-0.612,0.328-1.209,0.687-1.786,1.069c-0.611,0.407-1.204,0.844-1.772,1.31c-0.106,0.092-0.21,0.186-0.318,0.275
	c-0.425,0.365-0.838,0.739-1.233,1.132c-0.505,0.503-0.987,1.034-1.442,1.585c-0.009,0.013-0.02,0.024-0.03,0.035
	c-0.293,0.354-0.568,0.726-0.84,1.1c-0.367,0.512-0.719,1.041-1.045,1.584c-0.17,0.287-0.336,0.577-0.493,0.872
	c-0.046,0.085-0.088,0.173-0.132,0.258c-0.269,0.518-0.518,1.044-0.745,1.584c-0.157,0.374-0.304,0.752-0.439,1.132
	c-0.115,0.326-0.225,0.653-0.325,0.983c-0.06,0.199-0.111,0.4-0.166,0.601c-0.104,0.374-0.195,0.752-0.278,1.132
	c-0.109,0.524-0.205,1.049-0.279,1.584c-0.039,0.291-0.079,0.584-0.109,0.879c-0.007,0.085-0.009,0.17-0.018,0.256
	c-0.044,0.522-0.07,1.051-0.079,1.584c-0.002,0.101-0.008,0.199-0.008,0.302c0,0.277,0.011,0.556,0.021,0.831
	c0.018,0.439,0.044,0.876,0.083,1.309c0.011,0.092,0.026,0.182,0.035,0.273c0.044,0.382,0.096,0.758,0.157,1.132
	c0.087,0.538,0.192,1.063,0.316,1.587c0.092,0.381,0.19,0.758,0.305,1.133c0.006,0.023,0.013,0.047,0.02,0.073
	c0.155,0.515,0.334,1.015,0.526,1.509c0.148,0.383,0.306,0.764,0.473,1.135c0.2,0.442,0.41,0.883,0.643,1.312
	c0.048,0.095,0.103,0.181,0.152,0.271c0.215,0.388,0.438,0.765,0.674,1.136c0.345,0.544,0.714,1.073,1.105,1.585
	c0.148,0.189,0.293,0.382,0.446,0.57c0.157,0.189,0.321,0.373,0.485,0.56c0.487,0.556,1.001,1.084,1.543,1.587
	c0.312,0.293,0.634,0.577,0.964,0.85l-0.231,0.283l-1.301,1.582l-0.171,0.211l-0.76,0.924l-0.881,1.07l-3.624,4.42l-2.146,2.613
	l-1.124,1.371l-0.002,0.002l-0.362,0.441l0.45,0.357c0.437,0.348,0.883,0.686,1.333,1.012c0.479,0.348,0.968,0.688,1.462,1.016
	c0.503,0.33,1.015,0.652,1.535,0.962c0.433,0.256,0.869,0.497,1.307,0.735c0.074,0.037,0.142,0.082,0.214,0.119
	c0.005,0.002,0.005,0.002,0.005,0.004c0.013,0.004,0.021,0.012,0.026,0.012c0,0,0,0,0.002,0.002
	c0.649,0.343,1.305,0.664,1.965,0.971c0.535,0.244,1.077,0.484,1.626,0.708l0.002,0.002c0.514,0.208,1.03,0.403,1.55,0.59
	c0.049,0.019,0.097,0.037,0.145,0.058c0.551,0.195,1.104,0.379,1.665,0.551l0.009,0.003l0.018,0.004l0,0
	c0.586,0.177,1.177,0.332,1.767,0.479c0.115,0.027,0.231,0.06,0.345,0.09c0.577,0.138,1.154,0.265,1.738,0.377
	c0.592,0.115,1.187,0.218,1.785,0.305c0.27,0.04,0.54,0.066,0.81,0.102c0.314,0.039,0.629,0.086,0.948,0.117h0.009
	c0.004,0,0.007,0,0.011,0h0.007c0.712,0.072,1.44,0.116,2.168,0.146c0.529,0.023,1.064,0.039,1.604,0.039
	c0.083,0,0.14-0.004,0.175-0.004l0,0c0.383,0,0.768-0.019,1.149-0.033c0.224-0.004,0.44-0.004,0.659-0.016
	c0.474-0.023,0.945-0.062,1.416-0.103c0.107-0.009,0.216-0.015,0.32-0.024c0.014,0,0.025,0,0.036-0.002l0.002-0.002h0.005
	c0.727-0.072,1.449-0.168,2.168-0.279c0.221-0.037,0.441-0.082,0.66-0.121c0.363-0.062,0.729-0.119,1.092-0.193h0.004
	c0.348-0.072,0.692-0.156,1.041-0.238c0.239-0.055,0.482-0.103,0.724-0.164c0.202-0.051,0.405-0.113,0.608-0.168
	c0.369-0.099,0.736-0.195,1.104-0.307v-0.002h0.002l0.011-0.002c0.139-0.042,0.271-0.09,0.408-0.133
	c0.291-0.094,0.58-0.188,0.868-0.287c0.263-0.092,0.524-0.184,0.784-0.277c0.246-0.092,0.496-0.193,0.742-0.291
	c0.306-0.117,0.61-0.23,0.914-0.357c0.002,0,0.002,0,0.002,0c0.222-0.094,0.439-0.199,0.66-0.295
	c0.332-0.146,0.666-0.287,0.992-0.443c0.531-0.252,1.061-0.518,1.585-0.797c0.002-0.002,0.002-0.002,0.005-0.002c0,0,0,0,0.002,0
	c0,0,0-0.002,0.002-0.004l0,0c0.002-0.002,0.008-0.002,0.012-0.002v-0.002c0.162-0.088,0.314-0.176,0.475-0.266
	c0.482-0.27,0.953-0.54,1.409-0.816c0.123-0.074,0.241-0.155,0.36-0.232c0.383-0.238,0.766-0.479,1.14-0.729
	c0-0.002,0.002-0.002,0.004-0.004c0.501-0.338,0.992-0.687,1.472-1.043c0.129-0.096,0.256-0.195,0.387-0.293
	c0.205-0.154,0.414-0.308,0.619-0.472l0.449-0.356l-0.363-0.445L62.498,66.985z M54.814,57.625l-1.282-1.562h2.969
	C55.968,56.612,55.407,57.134,54.814,57.625z M57.652,54.781c-0.041,0.051-0.088,0.1-0.129,0.15h-4.119
	c0.548-0.496,1.06-1.027,1.539-1.585h3.781C58.387,53.839,58.029,54.319,57.652,54.781z M44.613,45.194L44,44.446l-0.08-0.098
	c0.092-0.087,0.176-0.187,0.253-0.286c0.341-0.432,0.573-0.956,0.656-1.527h10.332c-0.035,0.52-0.099,1.026-0.19,1.527
	c-0.07,0.384-0.152,0.764-0.254,1.132c-0.148,0.544-0.326,1.073-0.537,1.587c-0.16,0.387-0.337,0.764-0.529,1.133
	c-0.287,0.551-0.615,1.08-0.975,1.582c-0.279,0.396-0.582,0.772-0.9,1.135c-0.463,0.521-0.967,1.01-1.504,1.455l-1.195-1.455
	l-0.371-0.455l-0.559-0.68l-1.303-1.582l-0.8-0.978l-0.129-0.155l-0.759-0.924l0,0L44.613,45.194z M38.833,40.512
	c-0.142,0.258-0.251,0.54-0.316,0.835c-0.005,0.02-0.011,0.037-0.016,0.055H28.108c0-0.018,0-0.035,0-0.055
	c0.013-0.536,0.057-1.067,0.129-1.584c0.004-0.029,0.006-0.055,0.011-0.081v0.831L38.833,40.512L38.833,40.512z M38.466,42.535
	c0.083,0.571,0.315,1.096,0.656,1.527c0.078,0.1,0.161,0.195,0.251,0.286l-0.568,0.69l-0.126,0.155l-0.204,0.247l-1.097,1.34
	l-0.356,0.434l-0.572,0.699l-0.527,0.641l-0.773,0.941l-0.93,1.135l-1.198,1.455c-0.538-0.445-1.04-0.934-1.504-1.455
	c-0.319-0.361-0.618-0.738-0.9-1.135c-0.358-0.502-0.684-1.031-0.975-1.582c-0.192-0.371-0.367-0.746-0.527-1.133
	c-0.212-0.514-0.391-1.041-0.537-1.587c-0.101-0.368-0.186-0.748-0.256-1.132c-0.09-0.501-0.153-1.008-0.188-1.527H38.466z
	 M28.296,39.38c0.044-0.251,0.097-0.502,0.151-0.752c0.094-0.402,0.203-0.8,0.33-1.189v1.051h25.927v-0.439
	c0.053,0.192,0.101,0.382,0.146,0.577c0.057,0.25,0.104,0.5,0.147,0.752H43.408c-0.508-0.33-1.11-0.527-1.762-0.527
	s-1.255,0.197-1.76,0.527H28.296z M54.162,36.471c0.078,0.19,0.152,0.38,0.223,0.573c0.037,0.105,0.07,0.212,0.107,0.317H28.803
	c0.035-0.105,0.07-0.212,0.107-0.317c0.12-0.328,0.251-0.647,0.396-0.964v0.391H54.162z M49.195,30.405
	c0.035,0.024,0.07,0.05,0.104,0.074c0.369,0.254,0.726,0.527,1.069,0.815H32.926c0.343-0.289,0.699-0.562,1.068-0.815
	c0.035-0.024,0.07-0.05,0.107-0.074H49.195z M36.151,29.275c0.309-0.14,0.621-0.267,0.942-0.38c0.588-0.212,1.193-0.385,1.816-0.511
	h5.478c0.62,0.126,1.229,0.299,1.813,0.511c0.319,0.114,0.634,0.241,0.942,0.38H36.151z M51.557,32.427
	c0.231,0.247,0.452,0.502,0.664,0.767c0.031,0.042,0.063,0.081,0.098,0.123H30.98c0.03-0.042,0.061-0.081,0.094-0.123
	c0.212-0.265,0.433-0.52,0.662-0.767H51.557z M53.111,34.449c0.185,0.288,0.354,0.585,0.518,0.889h-23.96
	c0.157-0.304,0.332-0.601,0.511-0.889H53.111z M55.141,40.512c0.024,0.277,0.041,0.555,0.045,0.835
	c0.002,0.02,0.002,0.037,0.002,0.055H44.794c-0.005-0.018-0.009-0.035-0.015-0.055c-0.068-0.295-0.176-0.577-0.317-0.835H55.141z
	 M59.91,51.408c-0.148,0.272-0.303,0.541-0.459,0.805h-3.608c0.369-0.508,0.716-1.035,1.029-1.582h3.43
	C60.173,50.892,60.046,51.152,59.91,51.408z M60.807,49.496h-3.328c0.252-0.514,0.475-1.043,0.676-1.582h3.226
	C61.209,48.451,61.021,48.978,60.807,49.496z M61.707,46.781h-3.184c0.153-0.52,0.285-1.049,0.391-1.587h3.125
	C61.949,45.731,61.838,46.261,61.707,46.781z M62.251,43.677c-0.011,0.129-0.032,0.255-0.046,0.385h-3.107
	c0.067-0.521,0.113-1.049,0.135-1.583h3.099C62.314,42.88,62.291,43.281,62.251,43.677z M62.262,39.763
	c0.049,0.522,0.075,1.051,0.084,1.584h-3.104c-0.011-0.533-0.043-1.064-0.103-1.584H62.262z M61.829,37.043
	c0.12,0.524,0.224,1.049,0.302,1.584h-3.156c-0.096-0.535-0.213-1.064-0.354-1.584H61.829z M61.012,34.327
	c0.162,0.433,0.315,0.868,0.45,1.309c0.026,0.09,0.052,0.187,0.077,0.275h-3.271c-0.186-0.54-0.398-1.066-0.636-1.584H61.012z
	 M59.751,31.61c0.054,0.094,0.106,0.186,0.159,0.277c0.229,0.426,0.436,0.863,0.634,1.307h-3.479
	c-0.299-0.546-0.629-1.073-0.982-1.584H59.751z M57.947,28.895c0.4,0.509,0.775,1.036,1.128,1.584H55.23
	c-0.457-0.56-0.951-1.086-1.472-1.584H57.947z M57.001,27.761h-4.544c-0.134-0.103-0.268-0.208-0.4-0.311v-0.199h-0.281
	c-0.545-0.389-1.109-0.748-1.7-1.076H55.4C55.959,26.674,56.496,27.203,57.001,27.761z M35.636,21.833
	c1.281-0.385,2.609-0.656,3.982-0.789c0.669-0.065,1.347-0.098,2.028-0.098c0.687,0,1.361,0.033,2.032,0.098
	c1.369,0.133,2.702,0.402,3.979,0.789c0.483,0.146,0.956,0.315,1.423,0.494H34.215C34.683,22.148,35.155,21.979,35.636,21.833z
	 M31.758,23.459h19.781c0.863,0.472,1.691,1.001,2.475,1.585h-6.4c-1.918-0.706-3.99-1.093-6.154-1.093
	c-2.163,0-4.235,0.387-6.154,1.093h-6.024C30.064,24.46,30.893,23.931,31.758,23.459z M27.898,26.176h4.944
	c-0.84,0.466-1.636,0.997-2.383,1.585h-4.166C26.799,27.203,27.334,26.674,27.898,26.176z M25.346,28.895h3.812
	c-0.521,0.499-1.015,1.025-1.474,1.584h-3.462C24.571,29.931,24.947,29.404,25.346,28.895z M23.387,31.887
	c0.051-0.092,0.105-0.184,0.157-0.277h3.292c-0.354,0.511-0.685,1.038-0.983,1.584h-3.1C22.95,32.75,23.159,32.313,23.387,31.887z
	 M21.833,35.636c0.136-0.441,0.288-0.876,0.452-1.309h2.999c-0.236,0.518-0.45,1.044-0.636,1.584h-2.892
	C21.782,35.822,21.807,35.726,21.833,35.636z M21.468,37.043h2.828c-0.14,0.52-0.26,1.049-0.354,1.584h-2.776
	C21.245,38.093,21.348,37.568,21.468,37.043z M21.035,39.763h2.741c-0.058,0.52-0.09,1.051-0.101,1.584h-2.724
	C20.959,40.814,20.987,40.285,21.035,39.763z M21.044,43.677c-0.039-0.396-0.062-0.797-0.079-1.198h2.72
	c0.021,0.533,0.067,1.062,0.135,1.583h-2.728C21.076,43.933,21.057,43.806,21.044,43.677z M21.59,46.781
	c-0.133-0.52-0.242-1.049-0.336-1.587h2.749c0.105,0.538,0.236,1.067,0.39,1.587H21.59z M22.486,49.496
	c-0.21-0.517-0.397-1.045-0.57-1.582h2.848c0.201,0.539,0.424,1.068,0.674,1.582H22.486z M23.844,52.212
	c-0.157-0.264-0.311-0.531-0.457-0.805c-0.138-0.256-0.267-0.519-0.394-0.777h3.052c0.314,0.547,0.657,1.074,1.029,1.582H23.844z
	 M25.771,54.932c-0.042-0.052-0.085-0.101-0.129-0.151c-0.38-0.461-0.734-0.941-1.073-1.434h3.403
	c0.48,0.559,0.992,1.089,1.539,1.585H25.771z M26.792,56.062h2.969l-1.281,1.562C27.888,57.134,27.325,56.612,26.792,56.062z
	 M20.559,72.541c-0.277-0.19-0.553-0.385-0.826-0.584c-0.042-0.029-0.083-0.058-0.122-0.086c-0.263-0.188-0.517-0.381-0.774-0.576
	c-0.021-0.019-0.043-0.033-0.069-0.053l2.277-2.773l0.625-0.764l3.624-4.414l1.471-1.793l0.929-1.135l0.96-1.168l0.269-0.324
	l0.072-0.091l0.02-0.022l0.358-0.439l0.551-0.669l1.181-1.438l0.122-0.147l0.149-0.181l0.089-0.108l0.365-0.446l0.323-0.395
	l0.236-0.289L32.2,54.932l-0.298,0.448l-0.316,0.479l-0.134,0.203l-0.179,0.27l-0.87,1.317l-0.302,0.454l-0.328,0.499l-0.118,0.179
	l-0.194,0.293l-0.312,0.473l-0.542,0.818l-0.748,1.133l-7.296,11.037L20.559,72.541z M23.526,74.365
	c-0.336-0.188-0.673-0.379-1.01-0.576c-0.339-0.201-0.677-0.41-1.014-0.627l0.007-0.009l7.706-11.655l0.75-1.135l0.127-0.191
	l0.312-0.473l0.312-0.473l0.293-0.445l0.75-1.133l0.459-0.695l0.312-0.472l0.277-0.42L32.849,56l0.708-1.067l0.481-0.729
	l0.312-0.472l0.254-0.385l0.062-0.097l0.687-1.039l0.077-0.114l-0.063,0.114l-0.588,1.104l-0.018,0.03l-0.254,0.475l-0.267,0.498
	l-0.326,0.612l-0.605,1.13l-0.083,0.156l-0.271,0.508l-0.267,0.499l-0.228,0.424l-0.604,1.132L31.4,59.632l-0.187,0.348l-0.08,0.15
	l-0.125,0.231l-0.143,0.269l-0.463,0.865l-6.874,12.861L23.526,74.365z M26.998,76.039l-0.005,0.01
	c-0.345-0.146-0.687-0.301-1.027-0.457c-0.011-0.004-0.021-0.01-0.035-0.016c-0.415-0.193-0.826-0.394-1.234-0.6
	c-0.055-0.025-0.111-0.053-0.168-0.081l0,0v-0.004l7.16-13.396l0.179-0.332l0.267-0.498l0.162-0.304l0.104-0.194l0.739-1.389
	l0.551-1.025l0.057-0.105l0.21-0.393l0.269-0.506l0.37-0.688l0.603-1.13l0.04-0.077l0.267-0.498l0.271-0.505l0.271-0.505
	l0.603-1.136l0.326-0.604l-0.002,0.011l-0.245,0.596l-0.463,1.135l-0.252,0.613L35.8,54.49l-0.18,0.441l-0.035,0.083l-0.428,1.047
	L34.776,57l-0.219,0.531l-0.048,0.117l-0.166,0.406l-0.297,0.727l-0.647,1.582l-0.092,0.23l-0.214,0.523l-0.155,0.379l-0.06,0.146
	l-0.756,1.853L26.998,76.039z M30.261,77.257l-0.002,0.011c-0.367-0.12-0.734-0.243-1.1-0.374c-0.374-0.135-0.747-0.271-1.117-0.418
	H28.04l0.002-0.008l5.885-14.397l0.214-0.524l0.018-0.049l0.194-0.477l0.269-0.656l0.647-1.584l0.125-0.304l0.214-0.524l0.124-0.304
	l0.092-0.229l0.556-1.356l0.254-0.614l0.209-0.516l0.003-0.01l0.113-0.279l0.103-0.251l0.429-1.045l0.096-0.233l-0.071,0.233
	l-0.33,1.086l-0.151,0.499l-0.016,0.05l-0.163,0.54l-0.164,0.54l-0.455,1.497l-0.026,0.09l-0.14,0.459l-0.164,0.542l-0.039,0.132
	l-0.177,0.576l-0.304,1.006l-0.28,0.922L35.044,61.5l-0.101,0.332l-0.166,0.543L30.261,77.257z M33.983,78.233v0.009
	c-0.332-0.07-0.665-0.146-0.997-0.228c-0.046-0.009-0.092-0.019-0.136-0.028c-0.441-0.109-0.881-0.223-1.315-0.343
	c-0.065-0.019-0.131-0.033-0.194-0.052l0,0l0.002-0.004l4.221-13.916l0.295-0.976l0.166-0.54l0.164-0.541l0.037-0.119l0.341-1.134
	l0.425-1.394l0.057-0.189l0.106-0.35l0.167-0.549l0.069-0.233l0.481-1.587l0.062-0.21l0.167-0.54l0.113-0.38l0.053-0.169
	l0.428-1.416l0.309-1.012l-0.196,1.012l-0.287,1.476L38.5,54.93l-0.088,0.454l-0.106,0.554l-0.024,0.122l-0.306,1.587l-0.072,0.367
	l-0.109,0.562l-0.039,0.203l-0.068,0.354l-0.238,1.229l-0.221,1.134l-0.067,0.358l-0.107,0.556l-0.109,0.555L33.983,78.233z
	 M37.422,78.792V78.8l0,0c-0.381-0.045-0.768-0.096-1.152-0.149c-0.392-0.06-0.782-0.122-1.176-0.19l0.002-0.01l2.957-15.27
	l0.109-0.557l0.107-0.555l0.111-0.572l0.219-1.135l0.199-1.023l0.106-0.557l0.002-0.002l0.107-0.561l0.111-0.572l0.289-1.49
	l0.02-0.097l0.087-0.459l0.109-0.562l0.022-0.109l0.242-1.251l0,0l-0.124,1.251l-0.012,0.127l-0.055,0.564l-0.043,0.438
	l-0.014,0.127l-0.144,1.46l-0.062,0.627l-0.051,0.505l-0.006,0.063l-0.055,0.562l-0.095,0.958l-0.113,1.135l-0.065,0.687
	l-0.057,0.563l-0.055,0.562L37.422,78.792z M41.267,79.041L41.267,79.041c-0.385-0.006-0.774-0.021-1.161-0.035
	c-0.461-0.019-0.92-0.049-1.375-0.084c-0.061-0.004-0.122-0.006-0.182-0.01v-0.006l1.523-15.484l0.058-0.564l0.057-0.562
	l0.076-0.797l0.111-1.133l0.086-0.855l0.055-0.563l0.017-0.163l0.04-0.4l0.072-0.731l0.133-1.349l0.022-0.238l0.032-0.326
	l0.055-0.564l0.026-0.238l0.153-1.585l0.069-0.706v-0.005l0.005,0.711l0.009,1.585v0.249l0.004,0.567v0.312l0.002,0.254l0.007,1.333
	l0.005,0.749v0.383l0.002,0.184l0.002,0.566l0.005,0.834l0.004,1.133l0.004,0.844l0.005,0.566l0.002,0.566l0.077,15.561V79.041z
	 M42.18,42.226l-0.004-0.004l0,0V42.22l-0.046-0.055l-0.037-0.046l-0.024-0.026l-0.111-0.125l-0.328-0.365l-0.302,0.365l-0.15,0.182
	l-0.057,0.07l-0.012,0.013l-0.041,0.052l0,0l-0.063,0.074l0,0l-0.07,0.087l-0.026,0.033l-0.046,0.056l-0.039,0.047v0.002
	l-0.115,0.139h0.002l0,0l-0.002,0.002v-0.002l-0.101,0.121l-0.049,0.064h-0.002l-0.101,0.125l-0.101,0.123h-0.002l-0.249,0.305
	c-0.234-0.26-0.404-0.574-0.485-0.926c-0.005-0.019-0.011-0.039-0.014-0.056c-0.025-0.133-0.043-0.267-0.043-0.407
	c0-0.037,0.009-0.068,0.013-0.105c0.009-0.197,0.048-0.385,0.109-0.566c0.005-0.018,0.009-0.037,0.018-0.055
	c0.12-0.326,0.319-0.61,0.575-0.835c0.367-0.324,0.841-0.524,1.37-0.527c0.529,0.002,1.005,0.203,1.373,0.527
	c0.254,0.225,0.455,0.509,0.576,0.835c0.006,0.018,0.01,0.037,0.016,0.055c0.062,0.181,0.102,0.369,0.111,0.566
	c0,0.037,0.01,0.068,0.01,0.105c0,0.14-0.014,0.273-0.039,0.407c-0.006,0.017-0.012,0.037-0.019,0.056
	c-0.079,0.352-0.249,0.666-0.483,0.926l-0.047-0.059l-0.143-0.175l-0.18-0.218l-0.045-0.051c0,0,0,0,0-0.002l0,0l-0.092-0.109
	l-0.066-0.085l-0.146-0.175v-0.002l-0.039-0.051l-0.049-0.055l-0.004-0.007l-0.074-0.093l-0.065-0.08L42.18,42.226z M44.746,78.916
	c-0.385,0.03-0.77,0.057-1.154,0.074c-0.396,0.021-0.796,0.036-1.193,0.041v-0.009L42.32,63.466V62.9l-0.004-0.566l-0.006-0.836
	l-0.004-1.135l-0.005-0.847L42.3,58.951l-0.002-0.17v-0.398l-0.005-0.733l-0.009-1.338v-0.249v-0.314l-0.005-0.567v-0.247
	L42.273,53.8v-0.004l0.11,1.137l0.024,0.238l0.055,0.564l0.033,0.326L42.52,56.3l0.131,1.349l0.07,0.701l0.043,0.431l0.014,0.139
	l0.055,0.562l0.088,0.884l0.111,1.135l0.078,0.795l0.058,0.563l0.052,0.563l1.526,15.486L44.746,78.916
	C44.748,78.916,44.748,78.916,44.746,78.916z M47.479,78.583c-0.021,0-0.039,0.006-0.058,0.008
	c-0.459,0.072-0.918,0.135-1.377,0.189c-0.058,0.008-0.112,0.02-0.17,0.021V78.8l-1.526-15.49l-0.055-0.562l-0.055-0.562
	l-0.069-0.688l-0.108-1.133l-0.102-1.007l-0.055-0.562l-0.002-0.016l-0.055-0.554l-0.058-0.579l-0.144-1.46l-0.013-0.127
	l-0.044-0.438l-0.057-0.564l-0.012-0.127l-0.158-1.585l-0.077-0.812l0.164,0.812l0.323,1.585l0.02,0.089l0.113,0.558l0.099,0.483
	l0.015,0.069l0.31,1.518l0.099,0.482l0.116,0.56l0.019,0.091l0.094,0.465l0.229,1.117l0.231,1.135l0.108,0.537l0.113,0.555
	l0.114,0.557l3.108,15.243l0.002,0.009C48.204,78.462,47.841,78.524,47.479,78.583z M51.954,77.595
	c-0.371,0.107-0.745,0.207-1.119,0.305c-0.385,0.096-0.772,0.188-1.16,0.271l-0.002-0.008l-2.884-14.125l-0.227-1.119l-0.112-0.553
	l-0.113-0.557l-0.065-0.312l-0.23-1.133l-0.275-1.355l-0.045-0.229l-0.068-0.324l-0.113-0.561l-0.051-0.247l-0.323-1.587
	l-0.032-0.154l-0.113-0.554l-0.086-0.422l-0.027-0.138l-0.275-1.352V53.44l0.402,1.322l0.052,0.169l0.114,0.38l0.164,0.54
	l0.062,0.21l0.481,1.587l0.041,0.133l0.166,0.551l0.139,0.449l0.025,0.09l0.453,1.492l0.343,1.135l0.036,0.117l0.164,0.541
	l0.164,0.541l4.519,14.893l0.002,0.006H51.954z M54.613,76.714c-0.032,0.014-0.066,0.029-0.098,0.039
	c-0.434,0.158-0.861,0.307-1.289,0.449c-0.063,0.021-0.125,0.043-0.188,0.064v-0.005L48.52,62.369l-0.164-0.541l-0.101-0.332
	l-0.065-0.211l-0.278-0.923l-0.481-1.581l-0.074-0.248l-0.164-0.541l-0.103-0.344l-0.065-0.208l-0.414-1.379l-0.166-0.54
	l-0.164-0.54l-0.016-0.05l-0.15-0.499l-0.33-1.086l-0.342-1.136l-0.065-0.213l-0.002-0.006l0.092,0.219l0.476,1.136l0.418,0.999
	l0.225,0.525l0.023,0.061l0.194,0.463l0.279,0.667l0.494,1.174l0.173,0.413l0.05,0.115l0.218,0.521l0.207,0.496l0.666,1.582
	l0.245,0.586l0.222,0.52l0.008,0.029l0.211,0.494l1.232,2.938l4.789,11.401l0.002,0.006C55.271,76.472,54.941,76.593,54.613,76.714z
	 M57.729,75.408c-0.36,0.172-0.722,0.336-1.088,0.493l-0.002-0.007L50.616,61.55l-0.025-0.055l-0.194-0.465l-0.222-0.521
	l-0.062-0.146l-0.664-1.583l-0.396-0.944l-0.078-0.188l-0.141-0.332l-0.223-0.531l-0.305-0.724l-0.464-1.106l-0.011-0.022
	l-0.207-0.499L47.4,53.906l-0.234-0.559l-0.293-0.701l-0.005-0.01l0.378,0.711l0.271,0.505l0.271,0.505l0.265,0.498l0.043,0.077
	l0.604,1.13l0.284,0.535l0.271,0.508l0.267,0.498l0.026,0.046l0.604,1.132l0.742,1.389l0.104,0.195l0.162,0.303l0.267,0.498
	l0.176,0.332l6.818,12.758l0.342,0.633l0.004,0.009C58.424,75.074,58.076,75.244,57.729,75.408z M61.111,73.574
	c-0.038,0.023-0.077,0.047-0.117,0.071c-0.346,0.205-0.689,0.411-1.04,0.606c-0.063,0.035-0.122,0.072-0.188,0.109v-0.004
	l-2.186-4.088l-4.689-8.773l-0.464-0.865l-0.143-0.269l-0.122-0.231l-0.27-0.498l-0.455-0.854l-0.604-1.132l-0.315-0.591
	l-0.266-0.498l-0.268-0.498l-0.006-0.012l-0.6-1.118l-0.326-0.612l-0.267-0.498l-0.257-0.475l-0.012-0.033l-0.592-1.102
	l-0.533-0.992l-0.07-0.137l-0.004-0.006l0.769,1.135l0.653,0.969l0.109,0.166l0.209,0.311l0.319,0.469l0.542,0.807l0.551,0.812
	l0.215,0.316l0.106,0.158l0.315,0.469l0.647,0.96l0.765,1.132l0.229,0.338l0.316,0.469l0.316,0.469l0.21,0.309l0.765,1.135
	l0.211,0.312l7.522,11.14l0.004,0.006C61.771,73.167,61.443,73.373,61.111,73.574z M64.002,71.626
	c-0.318,0.235-0.643,0.467-0.968,0.697l-0.003-0.01l-7.309-10.816l-0.767-1.135l-0.634-0.939l-0.316-0.471l-0.115-0.173
	l-0.201-0.297l-0.192-0.284l-0.371-0.551l-1.071-1.587l-0.013-0.017l-0.06-0.09H51.98l0.069,0.084l0.019,0.021l1.303,1.587
	l0.551,0.671l0.362,0.439l0.018,0.021l0.07,0.089l0.271,0.326l0.959,1.168l0.926,1.135L58,63.291l0.542,0.662l3.082,3.752
	l2.897,3.532l0,0C64.352,71.367,64.177,71.496,64.002,71.626z M8.659,39.048c-0.018,0.19-0.032,0.385-0.043,0.583
	c-0.012,0.157-0.022,0.319-0.029,0.483c-0.021,0.49-0.037,0.984-0.037,1.478c0,0.492,0.016,0.984,0.035,1.473
	c0.009,0.149,0.018,0.291,0.026,0.431c0.009,0.211,0.03,0.416,0.044,0.614l0.021,0.289l2.859-0.28l2.089-0.207l-0.021-0.275
	c-0.009-0.143-0.013-0.289-0.021-0.446c-0.009-0.125-0.018-0.247-0.022-0.364c-0.018-0.414-0.03-0.827-0.03-1.234
	c0-0.422,0.013-0.841,0.033-1.263c0.002-0.107,0.011-0.219,0.02-0.334c0.009-0.164,0.013-0.321,0.026-0.474l0.02-0.275l-0.706-0.068
	l-4.24-0.417L8.659,39.048z M75.812,39.612c0.01,0.138,0.019,0.275,0.024,0.413c0.022,0.514,0.039,1.025,0.039,1.539
	c0,0.516-0.017,1.032-0.039,1.547c-0.007,0.153-0.019,0.305-0.028,0.457c-0.014,0.221-0.02,0.441-0.037,0.66l4.394,0.436
	c0.086-1.033,0.127-2.063,0.127-3.103c0-1.021-0.041-2.044-0.124-3.064l-4.395,0.433C75.794,39.157,75.803,39.384,75.812,39.612z
	 M76.968,39.975c0-0.009,0-0.018,0-0.024l2.146-0.212c0.031,0.608,0.045,1.22,0.045,1.823c0,0.615-0.014,1.238-0.045,1.859
	l-2.146-0.211c0-0.017,0-0.031,0-0.047c0.026-0.58,0.039-1.104,0.039-1.6C77.007,41.076,76.994,40.556,76.968,39.975z
	 M13.748,38.127c0.015-0.144,0.039-0.293,0.063-0.448c0.015-0.125,0.032-0.247,0.05-0.367c0.127-0.822,0.289-1.637,0.485-2.444
	c0.026-0.103,0.055-0.208,0.083-0.315c0.039-0.159,0.076-0.313,0.118-0.463l0.072-0.267l-4.754-1.442l-0.079,0.277
	c-0.052,0.192-0.109,0.389-0.161,0.59c-0.037,0.14-0.079,0.282-0.114,0.433c-0.115,0.47-0.223,0.944-0.319,1.425
	c-0.101,0.496-0.181,0.983-0.255,1.469c-0.024,0.148-0.042,0.295-0.063,0.439c-0.026,0.208-0.051,0.409-0.074,0.612L8.765,37.91
	l4.948,0.49L13.748,38.127z M75.632,45.636c-0.022,0.209-0.059,0.414-0.087,0.625c-0.023,0.168-0.044,0.334-0.07,0.502
	c-0.072,0.47-0.149,0.936-0.242,1.4c-0.014,0.065-0.025,0.131-0.039,0.194c-0.092,0.463-0.196,0.923-0.311,1.382
	c-0.04,0.16-0.083,0.322-0.127,0.484c-0.053,0.203-0.102,0.406-0.156,0.609l4.225,1.281c0.56-1.978,0.962-4,1.203-6.047
	l-3.028-0.299L75.632,45.636z M78.029,50.693l-2.062-0.628c0.007-0.019,0.009-0.037,0.017-0.058c0.117-0.488,0.228-0.969,0.315-1.42
	l0.042-0.205c0.092-0.459,0.174-0.934,0.254-1.451l0.008-0.061l0.28,0.025l1.864,0.184C78.566,48.294,78.327,49.505,78.029,50.693z
	 M67.939,50.294l-3.436-1.041l-1.479-0.451c-0.024,0.072-0.051,0.143-0.077,0.215c-0.044,0.125-0.087,0.247-0.134,0.37
	c-0.016,0.036-0.03,0.073-0.041,0.108c-0.065,0.168-0.127,0.336-0.192,0.498c-0.05,0.123-0.099,0.243-0.147,0.361
	c-0.039,0.094-0.082,0.184-0.123,0.275c-0.051,0.115-0.101,0.234-0.154,0.352c-0.051,0.107-0.098,0.215-0.146,0.318
	c-0.123,0.259-0.252,0.513-0.385,0.764c-0.025,0.051-0.048,0.102-0.074,0.148c0,0.002,0,0.002,0,0.002v0.002
	c-0.205,0.383-0.422,0.76-0.65,1.131c-0.19,0.311-0.387,0.617-0.596,0.923c-0.152,0.228-0.322,0.44-0.484,0.662
	c-0.164,0.219-0.319,0.442-0.487,0.659c-0.081,0.102-0.155,0.203-0.237,0.305l0,0c-0.005,0.006-0.012,0.014-0.019,0.02
	c-0.039,0.051-0.087,0.097-0.132,0.146c-0.305,0.367-0.625,0.727-0.957,1.075c-0.069,0.073-0.143,0.151-0.215,0.226
	c-0.096,0.098-0.203,0.189-0.301,0.286c-0.285,0.278-0.568,0.56-0.869,0.826c-0.035,0.03-0.063,0.063-0.098,0.092l0.176,0.214
	l0.748,0.909l0.551,0.675l0.931,1.133l0.851,1.037c0,0.002,0.002,0.002,0.002,0.002l3.698,4.504c0,0.002,0,0.006,0.002,0.006
	l1.302,1.582l1.942,2.369c1.767-1.504,3.374-3.146,4.813-4.902c1.615-1.967,3.021-4.078,4.203-6.299
	c1.082-2.031,1.982-4.146,2.688-6.323l-4.894-1.486L67.939,50.294z M74.727,59.262c-1.15,2.159-2.522,4.216-4.084,6.114
	c-1.162,1.422-2.438,2.762-3.804,3.998l-1.202-1.465l-1.303-1.586l-3.7-4.508l-0.26-0.318l-0.933-1.135l-1.141-1.391l-0.156-0.191
	l-0.088-0.107c0.18-0.17,0.355-0.348,0.532-0.526l0.118-0.127l0.102-0.104c0.088-0.092,0.162-0.176,0.244-0.267
	c0.332-0.358,0.639-0.698,0.913-1.034c0.058-0.068,0.114-0.142,0.171-0.214l0.078-0.104c0.062-0.078,0.118-0.157,0.18-0.233
	c0.293-0.378,0.572-0.759,0.826-1.13c0.008-0.01,0.014-0.018,0.018-0.025c0.354-0.517,0.672-1.039,0.972-1.56
	c0.112-0.201,0.231-0.397,0.336-0.597c0.022-0.039,0.042-0.08,0.062-0.121l0.021-0.037c0.063-0.127,0.127-0.254,0.19-0.381
	c0.07-0.139,0.145-0.278,0.214-0.426c0.032-0.068,0.065-0.138,0.095-0.203l0.059-0.129c0.102-0.219,0.196-0.438,0.293-0.658
	c0.021-0.057,0.045-0.11,0.065-0.166c0.03-0.071,0.062-0.145,0.088-0.215c0.03-0.07,0.06-0.144,0.087-0.217l0.457,0.137l0.196,0.062
	l3.241,0.981l5.576,1.691l3.773,1.146C76.343,55.941,75.596,57.634,74.727,59.262z M62.062,55.308l0.281,0.754l0.592,1.587
	l0.422,1.132l0.588,1.584l0.424,1.133l2.247,6.03l0.306-0.461l8.176-12.228l-10.727,0.386L62.062,55.308z M69.723,57.835
	l-2.394,3.584l-1.285-3.451L69.723,57.835z"/>
</svg>
