<?xml version="1.0" standalone="no"?><!-- Generator: Adobe Fireworks CS5.1, Export SVG Extension by Aaron Beall (http://fireworks.abeall.com) . Version: 0.6.0  --><!DOCTYPE svg PUBLIC "-//W3C//DTD SVG 1.1//EN" "http://www.w3.org/Graphics/SVG/1.1/DTD/svg11.dtd"><svg id="" viewBox="0 0 217 18" style="background-color:#ffffff00" version="1.1"	xmlns="http://www.w3.org/2000/svg" xmlns:xlink="http://www.w3.org/1999/xlink" xml:space="preserve"	x="0px" y="0px" width="217px" height="18px">	<g id="Layer%201">		<path d="M 117.8955 0.2341 C 117.1271 0.2341 116.5076 0.8541 116.5076 1.6214 L 116.5076 7.6116 L 104.5699 7.6116 L 104.5699 1.6214 C 104.5699 0.8541 103.9512 0.2341 103.1853 0.2341 C 102.4201 0.2341 101.7998 0.8541 101.7998 1.6214 L 101.7998 16.3724 C 101.7998 17.1439 102.4201 17.7676 103.1853 17.7676 C 103.9512 17.7676 104.5699 17.1439 104.5699 16.3724 L 104.5699 10.3896 L 116.5076 10.3896 L 116.5076 16.3724 C 116.5076 17.1439 117.1271 17.7676 117.8955 17.7676 C 118.659 17.7676 119.2793 17.1439 119.2793 16.3724 L 119.2793 1.6214 C 119.2793 0.8541 118.659 0.2341 117.8955 0.2341 Z" fill="#ffffff"/>		<path d="M 36.6707 0.2308 C 35.9064 0.2308 35.2861 0.8541 35.2861 1.6173 L 35.2861 13.0142 L 22.942 0.6341 C 22.5439 0.2398 21.9465 0.1233 21.4322 0.3358 C 20.9142 0.5533 20.5766 1.0617 20.5766 1.6173 L 20.5766 16.3708 C 20.5766 17.1381 21.1973 17.7594 21.9617 17.7594 C 22.7268 17.7594 23.3475 17.1381 23.3475 16.3708 L 23.3475 4.9747 L 35.69 17.354 C 35.9567 17.6174 36.3102 17.7619 36.6699 17.7619 C 36.8483 17.7619 37.0291 17.7249 37.2002 17.6527 C 37.719 17.4385 38.0557 16.9305 38.0557 16.3708 L 38.0557 1.6165 C 38.0557 0.8541 37.4363 0.2308 36.6707 0.2308 Z" fill="#ffffff"/>		<path d="M 49.7177 11.6289 C 50.674 11.6289 51.4489 12.4061 51.4489 13.3654 C 51.4489 14.324 50.674 15.1012 49.7177 15.1012 C 48.7615 15.1012 47.9866 14.324 47.9866 13.3654 C 47.9866 12.4061 48.7615 11.6289 49.7177 11.6289 Z" fill="#ffffff"/>		<path d="M 58.3098 15.7487 L 50.9571 1.0014 C 50.7157 0.5307 50.2406 0.2308 49.7177 0.2308 C 49.1932 0.2308 48.7161 0.5307 48.4808 1.0014 L 41.1261 15.7487 C 40.7791 16.4373 41.0574 17.267 41.7419 17.6158 C 42.4248 17.958 43.2562 17.679 43.6024 16.9937 L 49.7177 4.7277 L 55.8306 16.9937 C 56.0737 17.4771 56.5639 17.7635 57.0733 17.7635 C 57.2828 17.7635 57.4914 17.7134 57.6911 17.6158 C 58.3752 17.267 58.6535 16.4414 58.3114 15.752 L 58.3098 15.7487 Z" fill="#ffffff"/>		<path d="M 17.5054 15.7487 L 10.1557 1.0014 C 9.9142 0.5307 9.4384 0.2308 8.9155 0.2308 C 8.388 0.2308 7.9097 0.5307 7.6769 1.0014 L 0.3193 15.7487 C -0.0231 16.4373 0.2567 17.267 0.9396 17.6158 C 1.6217 17.958 2.4531 17.679 2.7997 16.9937 L 8.9146 4.7277 L 15.0259 16.9937 C 15.2698 17.4771 15.7583 17.7635 16.2669 17.7635 C 16.4764 17.7635 16.6875 17.7134 16.8876 17.6158 C 17.5705 17.267 17.8508 16.4414 17.5071 15.752 L 17.5054 15.7487 Z" fill="#ffffff"/>		<path d="M 8.9155 11.6289 C 9.8713 11.6289 10.6466 12.4061 10.6466 13.3654 C 10.6466 14.324 9.8713 15.1012 8.9155 15.1012 C 7.9593 15.1012 7.1839 14.324 7.1839 13.3654 C 7.1839 12.4061 7.9593 11.6289 8.9155 11.6289 Z" fill="#ffffff"/>		<path d="M 90.3326 7.2604 C 91.2884 7.2604 92.0634 8.038 92.0634 8.9969 C 92.0634 9.9555 91.2884 10.7327 90.3326 10.7327 C 89.376 10.7327 88.601 9.9555 88.601 8.9969 C 88.601 8.038 89.376 7.2604 90.3326 7.2604 Z" fill="#ffffff"/>		<path d="M 96.1967 6.8615 C 96.4668 7.58 97.2638 7.9436 97.979 7.6732 C 98.6959 7.3974 99.0576 6.6009 98.79 5.88 L 98.7827 5.88 C 97.5323 2.5611 94.344 0.1803 90.5781 0.1803 C 85.7189 0.1803 81.7843 4.1208 81.7843 8.9924 C 81.7843 13.8685 85.7189 17.8152 90.5781 17.8152 C 94.344 17.8152 97.5323 15.4286 98.7827 12.1065 C 99.0544 11.3958 98.6918 10.5907 97.979 10.3207 C 97.2638 10.045 96.4668 10.4093 96.1967 11.1299 C 95.3293 13.4122 93.1509 15.0446 90.5781 15.0372 C 87.2524 15.0298 84.5585 12.3355 84.5544 8.9924 C 84.5585 5.6621 87.2524 2.962 90.5781 2.9587 C 93.1509 2.9509 95.326 4.5779 96.1967 6.8615 Z" fill="#ffffff"/>		<path d="M 130.9986 0.1762 C 126.1402 0.1795 122.2065 4.1241 122.1999 8.9969 C 122.1999 13.8685 126.1402 17.8136 130.9986 17.8218 C 135.8562 17.8136 139.7915 13.8685 139.7915 8.9969 C 139.7915 4.1241 135.8562 0.1803 130.9986 0.1762 ZM 130.9986 15.0372 C 127.6696 15.0339 124.9765 12.3355 124.9716 8.9969 C 124.9773 5.658 127.6705 2.9612 130.9986 2.955 C 134.3235 2.962 137.0166 5.6588 137.0223 8.9969 C 137.0158 12.3355 134.3267 15.0339 130.9986 15.0372 Z" fill="#ffffff"/>		<path d="M 130.9986 7.2612 C 131.9544 7.2612 132.7294 8.0384 132.7294 8.9969 C 132.7294 9.9547 131.9544 10.7327 130.9986 10.7327 C 130.0436 10.7327 129.2686 9.9547 129.2686 8.9969 C 129.2686 8.0384 130.0436 7.2612 130.9986 7.2612 Z" fill="#ffffff"/>		<path d="M 78.8621 5.3067 C 78.858 2.4996 76.5978 0.2373 73.8073 0.2341 L 62.7631 0.2341 C 62.3981 0.2341 62.043 0.3793 61.7844 0.6407 C 61.5291 0.8972 61.3785 1.2566 61.3785 1.6214 L 61.3785 16.3724 C 61.3785 17.1439 61.9988 17.7676 62.7631 17.7676 C 63.5274 17.7676 64.1502 17.1439 64.1502 16.3724 L 64.1502 10.3896 L 66.4268 10.3864 C 66.4309 10.3864 66.4325 10.3896 66.4325 10.3896 L 73.8032 10.4011 C 75.0659 10.4102 76.092 11.4319 76.092 12.7023 L 76.092 16.3724 C 76.092 17.1439 76.7107 17.7676 77.4767 17.7676 C 78.2426 17.7676 78.8613 17.1439 78.8613 16.3724 L 78.8613 12.7023 C 78.8613 11.2333 78.2352 9.9284 77.2483 9.001 C 78.2361 8.0782 78.8621 6.7729 78.8621 5.3067 ZM 73.8073 7.6009 L 64.151 7.6116 L 64.151 3.0072 L 73.8073 3.0072 C 75.0724 3.0108 76.0929 4.0334 76.0929 5.3067 C 76.092 6.5722 75.0659 7.5977 73.8073 7.6009 Z" fill="#ffffff"/>		<path d="M 180.5999 1.8024 C 180.5999 1.0326 179.9788 0.413 179.2129 0.413 L 164.5042 0.413 C 163.7399 0.413 163.1196 1.0326 163.1196 1.8024 C 163.1196 2.5693 163.7399 3.1939 164.5042 3.1939 L 170.4731 3.1939 L 170.4731 16.4332 C 170.4731 17.1997 171.0885 17.8218 171.8577 17.8218 C 172.6212 17.8218 173.2432 17.1997 173.2432 16.4332 L 173.2432 3.1939 L 179.212 3.1939 C 179.9788 3.193 180.5999 2.5685 180.5999 1.8024 Z" fill="#ffffff"/>		<path d="M 187.8479 11.683 C 186.8921 11.683 186.1179 12.4627 186.1179 13.4188 C 186.1179 14.3815 186.8929 15.1595 187.8479 15.1595 C 188.8053 15.1595 189.5794 14.3798 189.5794 13.4188 C 189.5803 12.461 188.8053 11.683 187.8479 11.683 Z" fill="#ffffff"/>		<path d="M 196.4436 15.807 L 189.0909 1.0535 C 188.8511 0.5853 188.3741 0.2919 187.8487 0.2919 C 187.325 0.2919 186.8487 0.5853 186.6097 1.0535 L 179.2546 15.807 C 178.9125 16.4939 179.1924 17.3302 179.8749 17.6724 C 180.5607 18.013 181.3921 17.7381 181.735 17.0528 L 187.8487 4.7856 L 193.9665 17.0528 C 194.2096 17.5411 194.7006 17.8185 195.2071 17.8185 C 195.4149 17.8185 195.6261 17.7709 195.8257 17.6724 C 196.5091 17.331 196.7824 16.4947 196.4452 15.807 L 196.4436 15.807 Z" fill="#ffffff"/>		<path d="M 147.7686 3.0662 L 158.8136 3.0662 C 159.5754 3.0662 160.1965 2.4425 160.1965 1.6797 C 160.1965 0.9115 159.5754 0.2919 158.8136 0.2919 L 147.7686 0.2919 C 144.9781 0.2952 142.7171 2.557 142.7105 5.3646 C 142.7105 8.1656 144.9781 10.434 147.7686 10.434 L 155.1335 10.452 C 156.402 10.4536 157.4249 11.4779 157.4249 12.7442 C 157.4249 14.013 156.4052 15.0372 155.1385 15.0372 L 144.0935 15.0372 C 143.3292 15.0372 142.7097 15.6617 142.7097 16.4332 C 142.7097 17.1997 143.3292 17.8218 144.0935 17.8218 L 144.0935 17.8136 L 155.1385 17.8136 C 157.9339 17.8086 160.19 15.5518 160.1957 12.7442 C 160.1957 9.9432 157.9339 7.6691 155.1385 7.6691 L 147.7678 7.6563 C 146.5002 7.6506 145.4806 6.626 145.4806 5.3638 C 145.4814 4.0864 146.5018 3.0662 147.7686 3.0662 Z" fill="#ffffff"/>		<path d="M 217 5.3646 C 216.9934 2.557 214.7357 0.2952 211.9419 0.2919 L 200.8986 0.2919 C 200.532 0.2919 200.1768 0.4347 199.9182 0.6936 C 199.6596 0.955 199.5099 1.3096 199.5099 1.6797 L 199.5099 16.4332 C 199.5099 17.1997 200.131 17.8218 200.8986 17.8218 C 201.6621 17.8218 202.2848 17.1997 202.2848 16.4332 L 202.2848 10.4479 L 204.5614 10.443 C 204.5639 10.443 204.5655 10.4479 204.5671 10.4479 L 211.937 10.4619 C 213.203 10.4619 214.2299 11.4885 214.2299 12.7516 L 214.2299 16.434 C 214.2299 17.2005 214.8519 17.8226 215.6162 17.8226 C 216.3773 17.8226 216.9984 17.2005 216.9984 16.434 L 216.9984 12.7516 C 216.9984 11.2899 216.3707 9.9809 215.3863 9.0573 C 216.3723 8.1336 217 6.827 217 5.3646 ZM 211.9419 7.6572 L 204.7267 7.6658 L 204.5745 7.6658 C 204.5745 7.6658 204.5729 7.6658 204.5696 7.6658 L 202.2848 7.6691 L 202.2848 3.0654 L 211.9411 3.0654 C 213.2087 3.0654 214.2292 4.0855 214.2292 5.3638 C 214.2308 6.6268 213.203 7.6514 211.9419 7.6572 Z" fill="#ffffff"/>	</g></svg>