<svg xmlns="http://www.w3.org/2000/svg" width="83.293" height="83.296" viewBox="0 0 83.293 83.296"><path fill="#fff" d="M65.147 4.458h.273v-1.803h.675v-.244h-1.619v.245h.671v1.802zm1.496-1.739l.586 1.74h.242l.584-1.74v1.74h.258v-2.048h-.407l-.557 1.707-.554-1.707h-.41v2.048h.258v-1.74zm-59.122 41.509l-.035-.604-.032-.54c-.018-.413-.026-.829-.03-1.242l-.005-.251.005-.24c.004-.431.015-.857.034-1.285l.028-.49.037-.647-4.393-.432c-.083 1.029-.125 2.063-.125 3.102 0 1.019.039 2.042.12 3.064l3.233-.319 1.163-.116zm-1.231-2.468l.002.092c.003.453.014.872.033 1.288l.002.07-.081.009-2.065.203c-.028-.607-.043-1.217-.043-1.823 0-.619.015-1.242.046-1.86l2.146.212-.004.066c-.02.437-.03.883-.033 1.329l-.003.08-.004.166.004.168zm10.299 29.236l.014-.015 3.23-3.937.007-.007.443-.54 3.25-3.963.853-1.038.929-1.134 1.301-1.583.155-.188.02-.026-.09-.085c-.302-.265-.59-.549-.879-.833l-.297-.284-.184-.192c-.341-.356-.673-.726-.994-1.11l-.143-.166h-.002l-.463-.595-.268-.369c-.194-.265-.391-.524-.574-.8-.175-.256-.339-.521-.503-.785-.223-.369-.441-.74-.646-1.128h-.003l-.002-.007-.096-.188c-.127-.242-.25-.485-.365-.73l-.155-.341-.145-.323-.127-.286-.148-.367-.184-.481-.05-.124-.129-.358-.077-.208-4.913 1.489-.822.248-4.756 1.445-.007.002-2.714.822-2.173.66c.694 2.146 1.587 4.262 2.686 6.323 1.218 2.275 2.634 4.376 4.208 6.299 1.471 1.798 3.082 3.434 4.813 4.903zm-8.022-11.737c-.865-1.615-1.612-3.309-2.235-5.044l1.053-.321 2.722-.822 4.756-1.445.822-.248 2.695-.818 1.195-.362.081.201.094.231.062.152.283.643.046.1.118.258.219.43.168.34.031.062.072.141.334.592c.277.48.564.957.87 1.416l.118.169c.223.325.468.662.77 1.058l.057.072v.002l.428.549c.271.33.58.678.914 1.036l.282.304.05.055.145.148.522.518-.089.104-1.3 1.583-.93 1.134-.264.321-3.248 3.963-.45.544-2.503 3.05c-1.359-1.23-2.636-2.573-3.804-3.996-1.559-1.908-2.933-3.965-4.084-6.12zm10.287 2.238l.424-1.134.595-1.583.424-1.132.595-1.587.304-.811-2.814-.107-10.217-.384.307.461 8.148 12.24 2.234-5.963zm-5.323-3.733l3.679.138-1.294 3.449-2.385-3.587zm-4.837-6.929l-.179-.68-.104-.4c-.246-1.005-.446-2.015-.601-3.026l-.062-.444-.09-.647-1.84.182-2.554.253c.236 2.024.637 4.045 1.205 6.043l3.735-1.133.49-.148zm-3.433-.14c-.3-1.188-.54-2.397-.719-3.613l1.386-.136.76-.076.005.026c.157 1.052.367 2.104.62 3.128l.011.046-2.063.625zm36.385 32.601c23.003 0 41.646-18.646 41.646-41.647.001-23.003-18.643-41.647-41.646-41.649-23 .002-41.646 18.646-41.646 41.649 0 23 18.646 41.647 41.646 41.647zm-40.512-41.647c0-11.191 4.531-21.316 11.866-28.649 7.333-7.333 17.455-11.868 28.646-11.868 11.19 0 21.315 4.536 28.648 11.869s11.866 17.458 11.868 28.648c-.002 11.188-4.535 21.315-11.868 28.648-7.333 7.331-17.458 11.864-28.648 11.864-11.191 0-21.313-4.533-28.646-11.864-7.335-7.333-11.866-17.46-11.868-28.648h.002zm67.451 1.418l.016-.284c.02-.402.033-.809.033-1.215 0-.391-.014-.78-.031-1.171l-.02-.367-.028-.389-3.847.378-.544.055.006.166c.021.372.033.739.037 1.108l.005.101.002.12-.002.109c0 .267-.018.533-.028.802l-.016.465-.004.14.887.087 3.502.347.032-.452zm-1.097-.791l-2.15-.212.006-.38.005-.116-.005-.127-.006-.347 2.152-.212.009.687-.011.707zm-52.534-9.526l.146-.415.129-.367c.132-.363.271-.724.416-1.08l.057-.129c.148-.356.306-.708.468-1.06l.175-.363.188-.389.12-.247-1.4-.75-2.981-1.591-.129.256-.28.555-.189.391c-.42.901-.798 1.812-1.135 2.741l-.138.398-.197.592-.092.275 1.933.585 2.826.857.083-.259zm7.244-2.049l.126-.221.009-.017.109-.184.208-.348.334-.527.221-.332.125-.177.254-.361.214-.299.371-.474.153-.199.083-.104.016-.02c.356-.433.736-.85 1.13-1.261.369-.387.752-.767 1.154-1.132.262-.236.528-.468.804-.693l.293-.225c.289-.229.584-.45.886-.667.56-.4 1.143-.778 1.746-1.132l.682-.385.044-.024.028-.015.065-.033c.265-.14.54-.277.815-.409l.328-.151.599-.265.381-.155.385-.149.179-.067.39-.143.184-.065.262-.087-.233-.769-1.214-3.991-.275.092-.336.111-.45.16-.734.284-.438.175c-.271.114-.535.234-.8.356l-.35.155c-.381.184-.757.372-1.13.571l-.031.017c-1.156.617-2.249 1.314-3.28 2.07-.394.288-.778.585-1.152.894l-.281.238c-.604.509-1.183 1.034-1.733 1.585-.367.367-.72.747-1.061 1.132-.24.269-.48.542-.708.82l-.205.262-.394.503-.162.209-.309.431-.345.492-.077.109-.297.45-.392.621-.264.441-.171.304-.145.253.571.304.438.236 2.969 1.584.411.222zm47.444-6.225l-.481-.761-.345-.529c-.184-.271-.374-.536-.564-.798l-.316-.444c-.259-.348-.527-.688-.798-1.023l-.125-.16c-.4-.489-.815-.957-1.239-1.418-1.036-1.125-2.14-2.175-3.31-3.13-1.478-1.213-3.051-2.277-4.699-3.204l-.646-.367-.088-.044c-.419-.223-.844-.435-1.271-.638l-.505-.227c-.296-.138-.595-.273-.895-.398l-.572-.231c-.284-.112-.568-.223-.857-.328l-.607-.214-.477-.159-.8 2.638-.479 1.578.383.135.477.17.767.295.468.19c.265.111.527.227.789.35l.418.188c.304.145.601.297.897.45l.27.136c1.353.723 2.648 1.565 3.877 2.505.247.19.496.376.737.573l.017.013c.436.358.855.734 1.271 1.119.544.507 1.068 1.034 1.576 1.585l.565.629.436.502.087.105.092.118c.243.295.479.597.708.907l.228.314.533.756.256.391.461.724.256.433.217.363 3.886-2.074-.253-.446-.345-.574zm-2.875 1.588l-.402-.634-.071-.105-.195-.299c-.181-.265-.364-.527-.553-.787l-.09-.125-.146-.206c-.236-.31-.485-.629-.732-.935l-.022-.026-.076-.101-.107-.125-.29-.339-.049-.057-.098-.112c-.444-.511-.903-.999-1.375-1.473-.385-.389-.776-.769-1.178-1.132-.33-.295-.663-.584-.999-.861-.219-.179-.444-.352-.669-.522l-.115-.086c-1.291-.99-2.648-1.867-4.039-2.61l-.164-.081-.111-.057c-.311-.16-.618-.317-.931-.465l-.324-.146-.111-.053c-.272-.125-.544-.247-.819-.363l-.341-.138-.145-.059-.651-.253.166-.546.459-1.513.778.3.175.07.381.153.863.383.189.087.298.135c.406.192.817.4 1.213.608l.096.05.383.214.245.14c1.626.918 3.151 1.956 4.537 3.095 1.11.907 2.184 1.923 3.195 3.021.455.494.844.939 1.194 1.368l.048.059.074.096c.284.354.537.677.77.988l.17.238.136.19.547.771.209.326.121.182.456.721-1.9 1.014zm.478 7.01l-.126-.389-.109-.304c-.127-.354-.263-.706-.404-1.056l-.022-.057c-.15-.363-.312-.723-.479-1.082l-.152-.317-.188-.378-1.849.988-.298.16-1.744.931.018.04.048.105c.197.406.385.813.556 1.224l.004.016.092.24c.136.341.267.68.385 1.023l.044.109.009.028.087-.028 1.257-.38.641-.194 2.23-.679zm-3.522-.114l-.184-.455-.188-.441.798-.429.05-.026.173-.09.881-.472.284.654.018.039.005.016.227.579-1.102.334-.962.291zm-49.013 10.153l.03.406 3.01-.297 1.379-.136-.004-.151-.018-.457c-.014-.3-.028-.597-.028-.894l.009-.238c.004-.376.015-.752.037-1.128l.004-.146-3.469-.341-.918-.09-.032.439-.018.295c-.018.405-.031.809-.031 1.215 0 .394.014.787.031 1.181l.018.342zm1.097-2.232l2.146.212-.007.492.007.479-.314.033-1.832.179-.011-.684.011-.711zm4.464-6.526l.008-.028.049-.125c.115-.339.244-.673.378-1.008l.09-.238.013-.028c.171-.413.358-.82.553-1.222l.044-.096.018-.04-2.039-1.091-.228-.122-1.622-.866-.188.374-.145.304c-.166.35-.323.702-.472 1.06l-.024.061c-.146.35-.277.702-.409 1.058l-.126.365-.123.361.21.065 2.123.643 1.803.544.087.029zm-.508-1.864l-.009.02-.006.015v-.002l-.173.437-2.065-.625.238-.601.028-.072.267-.614.334.179.245.129.475.254.85.455-.184.428v-.003zm-4.241 2.354l-.074.297c-.19.772-.346 1.55-.466 2.337l-.05.356-.053.398.148.015 3.889.38.354.035.006-.035.018-.113c.062-.444.132-.888.219-1.327l.005-.017.028-.127c.076-.378.166-.756.265-1.132l.011-.046.037-.157-4.221-1.279-.116.415zm.92 1.009l1.938.588.126.039-.103.485-.013.077-.074.389-2.146-.212c.081-.458.17-.915.272-1.366zm33.801-20.143l-.278-.092-1.21 3.991-.232.767.254.089.201.072.394.14v.002l.157.061.422.164.365.148.634.28.29.133c.309.146.612.297.907.455l.717.404.044.026.464.28c.424.262.839.538 1.245.826.39.278.77.566 1.142.87l.002.002.028.022c.271.225.538.455.8.691.397.36.782.741 1.156 1.132.39.407.768.824 1.13 1.266l.07.085.175.234c.254.326.507.656.747.999l.097.135.065.094c.297.435.586.887.856 1.353l.077.125.009.013.129.221.413-.221 3.976-2.126-.146-.251-.171-.297-.281-.47-.402-.638-.277-.42-.07-.101-.408-.581-.245-.337-.166-.214c-.197-.256-.392-.514-.595-.763-.231-.28-.468-.553-.706-.822-.346-.389-.704-.765-1.068-1.132-.525-.522-1.064-1.023-1.622-1.5l-.101-.085-.282-.245c-.374-.306-.758-.601-1.147-.887-1.054-.772-2.155-1.469-3.298-2.079-.374-.196-.75-.387-1.13-.568l-.346-.155c-.263-.123-.529-.243-.8-.356l-.45-.181-.713-.275-.503-.177-.319-.107zm-18.793-5.309l-.452.148-.621.219-.844.323-.568.229c-.314.131-.625.273-.936.413l-.466.21c-.426.203-.85.417-1.271.64l-.111.057-.009.004c-.315.17-.621.35-.932.527l-.485.277c-.321.192-.634.398-.946.599l-.42.267-.518.367c-.702.489-1.386.994-2.039 1.532-1.598 1.307-3.045 2.751-4.339 4.301l-.21.243c-.328.398-.641.802-.944 1.211l-.297.413c-.199.277-.398.555-.59.839l-.324.494-.498.795-.321.54-.251.443 3.886 2.074.196-.33.275-.461c.136-.225.28-.448.425-.669l.286-.439.251-.358.188-.269.057-.079.263-.367c.249-.333.502-.66.767-.984l.042-.052.087-.103c.321-.385.656-.76 1.001-1.132l.337-.361c.397-.417.811-.826 1.237-1.224.411-.382.835-.756 1.276-1.117l.018-.015c.699-.571 1.427-1.11 2.189-1.622.517-.345 1.052-.671 1.596-.986.267-.153.529-.308.8-.452l.026-.018c.394-.21.792-.407 1.189-.597l.392-.177c.269-.123.539-.245.812-.36l.475-.19.743-.284.516-.184.341-.122-.942-3.108-.337-1.105zm-.739 3.755l-.098.037-.396.16-.851.376-.14.063-.263.12c-.441.21-.846.415-1.235.623l-.03.015h-.002l-.667.378-.159.092c-.632.365-1.176.7-1.661 1.027-.789.527-1.561 1.1-2.295 1.701-.332.271-.665.564-.997.861-.397.36-.793.738-1.185 1.132l-.435.441c-.383.402-.72.776-1.038 1.144l-.446.52-.039.052-.396.507-.4.514-.171.236-.104.146c-.175.243-.35.485-.516.734l-.219.333-.083.126-.36.568-1.899-1.014.452-.715.107-.166.205-.314c.184-.271.376-.542.568-.807l.122-.17.164-.229c.309-.416.605-.798.911-1.169l.086-.099.117-.138c.33-.396.672-.778 1.017-1.156l.459-.476c.861-.894 1.767-1.745 2.713-2.521.575-.47 1.218-.955 1.972-1.479l.203-.145.295-.209.214-.133.19-.123.155-.099c.251-.164.501-.328.759-.479l.235-.135.236-.134.157-.092c.238-.14.477-.277.724-.411l.042-.022h.004l.088-.043c.406-.216.821-.424 1.228-.619l.254-.114.192-.087c.302-.138.604-.273.907-.4l.365-.149.181-.07c.252-.103.505-.201.759-.293l.623 2.059-.619.245zm42.2 16.581l-.148-.422c-.164-.455-.337-.912-.525-1.369l-.011-.017c-.181-.442-.382-.896-.592-1.349l-.188-.383-.293-.583-.131-.256-3.947 2.107-.192.105-.24.126.122.247.205.428.167.346c.175.374.341.75.496 1.125l.028.072c.146.358.284.719.415 1.082l.12.336.145.415.085.26 4.759-1.442-.09-.273-.185-.555zm-9.425 5.173c.099.376.188.756.267 1.132l.03.138c.088.448.16.896.221 1.344l.016.103.009.037.343-.035 4.046-.398-.053-.422-.043-.304c-.118-.783-.273-1.563-.464-2.341l-.087-.337-.111-.4-2.757.833-1.464.446.034.148.013.056zm1.748.435l1.622-.492c.103.452.192.911.271 1.366l-2.146.212-.088-.472-.101-.481.442-.133zm-50.255 9.336c.059.375.12.747.194 1.121l.005.028c.078.394.168.785.267 1.176l.071.289.121.435 2.743-.831 1.475-.448-.035-.159-.117-.512c-.127-.529-.232-1.056-.317-1.587l-.094-.56-.022-.14-.889.087-.896.087-2.605.258.046.365.053.391zm2.616.115l.722-.072c.057.319.122.636.189.951l-2.067.627-.146-.675-.004-.024-.005-.022-.118-.645 1.429-.14zm45.843 1.653l.933.282 3.285.999.109-.387.088-.35c.089-.365.175-.732.247-1.102l.018-.087c.071-.374.138-.745.194-1.119l.052-.367.049-.391-4.042-.4-.348-.033-.021.135-.096.564c-.086.534-.192 1.062-.315 1.587l-.122.522-.031.147zm1.537-1.725l2.15.212-.115.641-.009.046-.009.046-.138.634-2.07-.627c.07-.316.134-.631.191-.952zm9.661-1.615l.046-.629.026-.426c.02-.479.035-.962.035-1.442v-.1c0-.47-.016-.938-.035-1.406l-.026-.465-.042-.592-.021-.291-4.951.488.022.275.026.45.018.365c.017.413.03.822.03 1.233v.026c0 .404-.014.811-.03 1.217l-.022.385-.026.439-.018.275 4.944.487.024-.289zm-.21-7.069l-.063-.457c-.07-.47-.15-.938-.242-1.408l-.009-.043c-.095-.481-.206-.959-.321-1.438l-.114-.428-.166-.608-.078-.277-4.757 1.442.074.267.109.424.101.389c.097.402.188.802.267 1.2l.009.04c.079.396.145.793.206 1.191l.048.337.065.457.033.271 2.367-.231 2.579-.253-.035-.287-.073-.588zm-4.876 7.991l-.066.468-.05.332c-.062.413-.131.824-.212 1.231l-.002.011c-.079.398-.171.798-.27 1.198l-.092.363-.111.433-.076.267 4.761 1.442.074-.279.161-.573.118-.454c.109-.459.217-.921.309-1.388l.018-.083c.094-.468.172-.938.244-1.407l.065-.472.072-.588.035-.287-4.944-.487-.034.273zm-57.502-20.069l.283-.479.324-.551c.17-.28.345-.555.524-.833l.328-.5c.205-.306.419-.605.636-.907l.277-.389c.319-.426.647-.848.983-1.261.236-.287.487-.568.739-.857.249-.282.505-.564.765-.841.997-1.06 2.062-2.072 3.204-3.008.396-.319.801-.636 1.211-.944 1.352-1.007 2.789-1.93 4.323-2.75l.075-.037c.452-.24.904-.468 1.359-.684l.482-.219c.324-.148.646-.293.973-.431l.577-.231.892-.343.608-.212.511-.182.263-.085-.173-.579-1.272-4.186-.271.09c-2.164.702-4.291 1.598-6.365 2.704l-.02.011-.007.006c-2.284 1.22-4.391 2.64-6.325 4.225-1.996 1.635-3.799 3.445-5.396 5.39-1.476 1.801-2.773 3.718-3.893 5.725l-.143.249 4.392 2.35.136-.241zm37.24-18.454h-15.259l7.63 10.577 7.629-10.577zm-9.783 2.802h4.31l-2.157 2.986-2.153-2.986zm12.664-.004l.52.184.616.214c.302.111.608.231.912.354l.562.225c.337.14.669.289 1.001.444l.448.201c.479.228.953.463 1.421.713 1.949 1.042 3.805 2.275 5.532 3.696 1.702 1.395 3.282 2.966 4.708 4.708.327.402.651.817.966 1.239l.275.385c.214.297.424.592.629.894l.342.522c.177.271.35.542.518.817l.334.568.293.492.136.24 2.166-1.156 2.228-1.191-.14-.251c-1.147-2.055-2.457-3.96-3.897-5.718-1.637-1.998-3.444-3.799-5.395-5.399-1.982-1.628-4.111-3.044-6.35-4.236-2.039-1.091-4.175-1.998-6.367-2.708l-.272-.09-1.447 4.767.261.086zm20.29 17.385l.198.407c.215.465.427.935.621 1.405l.016.039c.189.459.364.925.535 1.388l.148.437.21.601.196-.059 4.031-1.224c-.628-1.93-1.41-3.834-2.363-5.694l-3.893 2.081.301.619zm3.097-1.152c.522 1.108.992 2.247 1.407 3.403l-2.063.627-.009-.026c-.192-.531-.372-.999-.551-1.432l-.005-.011-.004-.018-.007-.011c-.184-.444-.394-.918-.645-1.454l-.026-.063 1.903-1.015zm-66.682 20.609l.057.407c.146.973.337 1.945.577 2.907l.113.448.164.588.079.279 4.758-1.444-.074-.267-.118-.459-.087-.341c-.101-.404-.192-.811-.275-1.213l-.005-.031c-.078-.4-.145-.793-.205-1.187l-.053-.374-.062-.431-.035-.275-4.526.446-.133.013-.286.028.032.287.079.619zm.45-15.798l.152-.441c.169-.468.346-.933.538-1.395l.021-.052c.192-.461.396-.92.608-1.375l.209-.435.282-.579-.807-.431-3.086-1.65c-.938 1.836-1.727 3.74-2.36 5.694l4.225 1.281.218-.617zm-.356-2.269l-.002.002c-.187.455-.367.925-.554 1.438l-.017.046-2.062-.625c.411-1.152.883-2.289 1.407-3.403l1.902 1.019-.022.05c-.24.507-.445.97-.632 1.42l-.02.053zm-1.218 8.826l.07-.511c.076-.499.159-.992.258-1.488l.004-.022c.101-.5.215-.995.335-1.486l.111-.424.166-.653-3.751-1.137-.472-.144c-.56 1.978-.962 4-1.202 6.045l4.394.435.087-.615zm-.433-3.779c-.14.566-.254 1.066-.35 1.561-.092.463-.18.966-.267 1.537l-.009.061-2.146-.212c.182-1.213.42-2.422.717-3.611l2.063.625-.008.039zm67.448-.171l.122.465c.122.496.236.992.337 1.493l.004.029c.099.494.182.988.258 1.484l.062.441.09.651 4.396-.435c-.236-2.024-.636-4.048-1.207-6.048l-4.225 1.283.163.637zm3.269-.494c.298 1.187.542 2.396.722 3.611l-2.146.212-.005-.028c-.087-.564-.175-1.064-.262-1.513l-.009-.037v-.015c-.097-.474-.21-.977-.348-1.541l-.016-.063 2.064-.626zm-45.441-23.168l1.692 5.578.638 2.103.8 2.634.053.179.231-.059.372-.092.122-.028.531-.118.376-.077.68-.118.337-.055c.337-.048.669-.089 1.005-.122l.003-.002c.736-.074 1.471-.109 2.203-.109.745 0 1.488.04 2.223.112h.002l.026.004c.33.033.662.074.992.122l.337.055.687.12.369.075.509.114.151.035.354.087.232.057.055-.179.721-2.376.715-2.354v-.007l1.574-5.182.117-.393 1.485-4.896c-2.203-.623-4.465-1.053-6.751-1.278-1.264-.127-2.536-.19-3.81-.19-1.253 0-2.51.059-3.767.184-2.26.225-4.518.647-6.752 1.281l.734 2.417.754 2.478zm5.377-5.051c1.198-.116 2.427-.177 3.655-.177 1.232 0 2.479.061 3.698.184 1.833.182 3.658.499 5.438.946l-1.146 3.775-.118.389-1.573 5.191-.715 2.354-.466 1.535-.244-.055-.387-.077-.72-.127-.124-.02-.229-.037c-.376-.052-.718-.094-1.067-.131-.771-.076-1.558-.118-2.336-.118-.78 0-1.559.039-2.319.116-.325.033-.669.077-1.058.131l-.219.035-.129.022-.711.123-.397.081-.253.055-.543-1.792-.638-2.099-1.691-5.58-.752-2.479-.394-1.298c1.781-.449 3.607-.766 5.438-.947zm24.528 62.74l-3.624-4.417-.881-1.071-.929-1.134-1.298-1.583-.232-.279c.33-.275.651-.56.967-.853.537-.503 1.053-1.032 1.541-1.587l.484-.562.444-.568c.394-.512.763-1.041 1.11-1.585.236-.371.459-.748.671-1.135l.155-.271c.229-.429.437-.868.638-1.312.171-.371.328-.752.475-1.135.192-.494.372-.994.526-1.508l.022-.074c.109-.374.21-.752.302-1.132.127-.522.231-1.049.318-1.587.062-.374.114-.75.158-1.132l.03-.273c.044-.433.07-.87.087-1.309.009-.275.018-.553.018-.831l-.004-.302c-.009-.533-.035-1.062-.079-1.584l-.021-.256c-.026-.295-.065-.588-.104-.879-.075-.535-.171-1.06-.282-1.584-.085-.38-.175-.758-.278-1.132l-.166-.603c-.101-.33-.209-.656-.323-.981-.138-.38-.284-.758-.441-1.132-.228-.54-.477-1.066-.747-1.584l-.127-.258c-.16-.295-.326-.585-.496-.872-.326-.544-.676-1.073-1.045-1.584-.269-.376-.547-.745-.84-1.1l-.028-.035c-.456-.551-.939-1.082-1.446-1.585-.394-.393-.809-.767-1.233-1.132l-.319-.275c-.565-.466-1.158-.903-1.77-1.31-.577-.382-1.172-.741-1.786-1.071l-.12-.061c-1.218-.641-2.498-1.172-3.836-1.578l-.02-.007c-1.345-.404-2.743-.684-4.182-.824-.701-.07-1.414-.107-2.14-.105-.722-.002-1.438.035-2.138.105-1.44.14-2.837.422-4.179.824l-.022.007c-1.338.406-2.618.938-3.834 1.578l-.122.063c-.612.328-1.209.687-1.786 1.069-.611.407-1.204.844-1.772 1.31l-.318.275c-.425.365-.838.739-1.233 1.132-.505.503-.987 1.034-1.442 1.585l-.03.035c-.293.354-.568.726-.84 1.1-.367.512-.719 1.041-1.045 1.584-.17.287-.336.577-.493.872l-.132.258c-.269.518-.518 1.044-.745 1.584-.157.374-.304.752-.439 1.132-.115.326-.225.653-.325.983l-.166.601c-.104.374-.195.752-.278 1.132-.109.524-.205 1.049-.279 1.584-.039.291-.079.584-.109.879l-.018.256c-.044.522-.07 1.051-.079 1.584l-.008.302c0 .277.011.555.021.831.018.439.044.876.083 1.309l.035.273c.044.382.096.758.157 1.132.087.538.192 1.064.316 1.587.092.38.19.758.305 1.132l.02.074c.155.514.334 1.014.526 1.508.148.383.306.764.473 1.135.2.443.41.883.643 1.312l.152.271c.215.387.438.764.674 1.135.345.544.714 1.073 1.105 1.585l.446.57.485.56c.487.555 1.001 1.084 1.543 1.587.312.293.634.577.964.85l-.231.282-1.301 1.583-.171.21-.76.924-.881 1.071-3.624 4.42-2.146 2.613-1.124 1.371-.002.002-.362.441.45.358c.437.348.883.685 1.333 1.012.479.348.968.688 1.462 1.015.503.33 1.015.653 1.535.962.433.256.869.498 1.307.736l.214.118.005.004.026.012.002.002c.649.343 1.305.664 1.965.971.535.244 1.077.484 1.626.708l.002.002c.514.208 1.03.404 1.55.59l.145.057c.551.195 1.104.379 1.665.551l.009.003.018.004c.586.177 1.177.332 1.767.479l.345.09c.577.138 1.154.265 1.738.378.592.114 1.187.217 1.785.304l.81.101c.314.04.629.086.948.118h.026999999999999996c.712.072 1.44.116 2.168.146.529.024 1.064.04 1.604.04l.175-.005c.383 0 .768-.018 1.149-.033l.66-.015c.473-.024.944-.063 1.416-.103l.319-.024.037-.002.002-.002h.005c.726-.072 1.449-.169 2.168-.28l.66-.12c.363-.062.728-.12 1.091-.194h.004c.348-.072.693-.157 1.041-.238l.724-.164.609-.168c.369-.099.736-.195 1.104-.307v-.002h.002l.011-.002.408-.132.868-.288.785-.277.742-.291c.305-.118.61-.231.914-.358h.002l.66-.295c.332-.146.665-.286.992-.443.531-.252 1.061-.517 1.585-.796l.005-.002h.002l.002-.005.011-.002v-.002l.475-.265c.483-.269.953-.54 1.409-.817l.361-.232c.382-.238.765-.479 1.139-.728l.004-.004c.501-.339.992-.687 1.472-1.043l.387-.293.618-.472.45-.356-.364-.446-3.273-3.985zm-7.683-9.361l-1.283-1.562h2.969c-.533.55-1.094 1.073-1.686 1.562zm2.837-2.844l-.129.151h-4.118c.547-.496 1.059-1.027 1.539-1.585h3.781c-.338.493-.695.973-1.073 1.434zm-13.038-9.586l-.614-.748-.08-.098.253-.286c.341-.431.573-.956.656-1.528h10.332c-.035.52-.099 1.027-.19 1.528-.07.384-.153.763-.254 1.132-.148.544-.327 1.073-.537 1.587-.16.387-.337.763-.529 1.132-.288.551-.616 1.08-.975 1.582-.28.396-.582.773-.9 1.135-.464.522-.967 1.01-1.504 1.455l-1.196-1.455-.371-.455-.558-.68-1.303-1.582-.8-.977-.129-.155-.759-.924-.542-.663zm-5.781-4.682c-.142.258-.251.54-.316.835l-.016.055h-10.393v-.055c.013-.536.057-1.067.129-1.584l.011-.081v.831h10.585zm-.367 2.022c.083.572.315 1.097.656 1.528l.251.286-.568.691-.126.155-.204.247-1.097 1.34-.356.433-.572.7-.527.64-.773.942-.93 1.134-1.198 1.455c-.538-.445-1.04-.933-1.504-1.455-.319-.361-.618-.738-.9-1.135-.358-.502-.684-1.031-.975-1.582-.192-.37-.367-.746-.527-1.132-.212-.514-.391-1.042-.537-1.587-.101-.369-.186-.748-.256-1.132-.09-.501-.153-1.008-.188-1.528h10.331zm-10.17-3.154c.044-.251.097-.502.151-.752.094-.402.203-.8.33-1.189v1.051h25.927v-.439l.145.577c.057.25.104.5.148.752h-11.589c-.507-.33-1.11-.527-1.762-.527s-1.255.197-1.76.527h-11.59zm25.866-2.909l.223.573.107.317h-25.689l.107-.317c.12-.328.251-.647.396-.964v.391h24.856zm-4.966-6.066l.104.074c.369.254.726.527 1.069.815h-17.443c.343-.289.699-.562 1.068-.815l.107-.074h15.095zm-13.045-1.13c.309-.14.621-.267.942-.38.588-.212 1.193-.385 1.816-.511h5.478c.62.126 1.229.299 1.813.511.319.114.634.241.942.38h-10.991zm15.406 3.152c.231.247.452.502.664.767l.097.123h-21.338l.094-.123c.212-.265.433-.52.662-.767h19.821zm1.555 2.022c.184.288.354.585.517.889h-23.96c.157-.304.332-.601.511-.889h22.932zm2.029 6.063c.024.277.04.555.044.835l.002.055h-10.393l-.014-.055c-.069-.295-.177-.577-.318-.835h10.679zm4.769 10.896c-.148.272-.302.54-.459.804h-3.608c.369-.507.715-1.035 1.029-1.582h3.43c-.129.262-.256.522-.392.778zm.897-1.913h-3.329c.252-.513.475-1.042.676-1.582h3.226c-.171.538-.359 1.065-.573 1.582zm.9-2.714h-3.183c.153-.52.284-1.049.39-1.587h3.125c-.09.537-.201 1.067-.332 1.587zm.544-3.104l-.046.385h-3.107c.067-.521.113-1.049.135-1.583h3.098c-.017.402-.04.802-.08 1.198zm.011-3.914c.049.522.075 1.051.083 1.584h-3.104c-.011-.533-.043-1.064-.103-1.584h3.124zm-.433-2.72c.12.524.224 1.049.302 1.584h-3.156c-.096-.535-.214-1.064-.354-1.584h3.208zm-.817-2.716c.162.433.315.868.45 1.309l.077.275h-3.271c-.186-.54-.399-1.066-.636-1.584h3.38zm-1.261-2.717l.159.277c.228.426.436.863.634 1.307h-3.479c-.3-.546-.63-1.073-.983-1.584h3.669zm-1.804-2.715c.4.509.776 1.036 1.128 1.584h-3.845c-.457-.56-.95-1.086-1.471-1.584h4.188zm-.946-1.134h-4.544l-.4-.311v-.199h-.281c-.545-.389-1.11-.748-1.701-1.076h5.325c.559.499 1.096 1.028 1.601 1.586zm-21.365-5.928c1.281-.385 2.609-.656 3.982-.789.669-.065 1.347-.098 2.028-.098.687 0 1.361.033 2.032.098 1.369.133 2.702.402 3.979.789.483.146.957.315 1.423.494h-14.865c.468-.179.94-.348 1.421-.494zm-3.878 1.626h19.781c.863.472 1.691 1.001 2.475 1.585h-6.4c-1.919-.706-3.991-1.093-6.155-1.093-2.163 0-4.235.387-6.154 1.093h-6.024c.783-.584 1.612-1.113 2.477-1.585zm-3.86 2.717h4.944c-.84.466-1.636.997-2.383 1.585h-4.166c.506-.558 1.041-1.087 1.605-1.585zm-2.552 2.719h3.812c-.521.499-1.015 1.025-1.474 1.584h-3.462c.349-.548.725-1.075 1.124-1.584zm-1.959 2.992l.157-.277h3.292c-.354.511-.685 1.038-.983 1.584h-3.1c.197-.444.406-.881.634-1.307zm-1.554 3.749c.136-.441.288-.876.452-1.309h2.999c-.236.518-.45 1.044-.636 1.584h-2.892l.077-.275zm-.365 1.407h2.828c-.14.52-.26 1.049-.354 1.584h-2.776c.079-.534.182-1.059.302-1.584zm-.433 2.72h2.741c-.058.52-.09 1.051-.101 1.584h-2.724c.008-.533.036-1.062.084-1.584zm.009 3.914c-.039-.396-.062-.796-.079-1.198h2.72c.021.533.067 1.062.135 1.583h-2.728l-.048-.385zm.546 3.104c-.133-.52-.242-1.049-.336-1.587h2.749c.105.538.236 1.067.39 1.587h-2.803zm.896 2.714c-.21-.516-.397-1.044-.57-1.582h2.848c.201.54.424 1.069.674 1.582h-2.952zm1.358 2.717c-.157-.264-.311-.531-.457-.804-.138-.256-.267-.519-.394-.778h3.052c.314.547.657 1.075 1.029 1.582h-3.23zm1.927 2.72l-.129-.151c-.38-.461-.734-.941-1.073-1.434h3.403c.48.558.992 1.089 1.539 1.585h-3.74zm1.021 1.13h2.969l-1.281 1.562c-.592-.489-1.155-1.012-1.688-1.562zm-6.233 16.478c-.277-.19-.553-.385-.826-.584l-.122-.085c-.263-.188-.517-.381-.774-.577l-.069-.053 2.277-2.773.625-.763 3.624-4.415 1.471-1.793.929-1.134.96-1.168.269-.325.072-.09.02-.023.358-.439.551-.669 1.181-1.438.122-.148.149-.18.089-.109.365-.447.323-.394.236-.289-.189.288-.298.448-.316.479-.134.203-.179.269-.87 1.318-.302.454-.328.499-.118.179-.194.293-.312.473-.542.817-.748 1.134-7.296 11.036-.004.006zm2.967 1.824c-.336-.186-.673-.378-1.01-.576-.339-.201-.677-.409-1.014-.626l.007-.009 7.706-11.656.75-1.134.127-.192.312-.473.312-.472.293-.446.75-1.132.459-.695.312-.472.277-.42.042-.061.708-1.068.481-.729.312-.472.254-.385.062-.096.687-1.039.077-.115-.063.115-.588 1.104-.018.03-.254.475-.267.498-.326.612-.605 1.13-.083.157-.271.507-.267.499-.228.424-.604 1.132-.456.853-.187.348-.08.15-.125.232-.143.269-.463.865-6.874 12.861-.002.007zm3.472 1.675l-.005.009c-.345-.146-.687-.3-1.027-.457l-.035-.016c-.415-.192-.826-.393-1.234-.599l-.168-.081v-.004l7.16-13.395.179-.332.267-.498.162-.304.104-.195.739-1.388.551-1.025.057-.106.21-.392.269-.507.37-.688.603-1.13.04-.077.267-.498.271-.505.271-.505.603-1.135.326-.605-.002.01-.245.596-.463 1.135-.252.614-.216.529-.18.441-.035.083-.428 1.047-.381.938-.219.531-.048.118-.166.406-.297.726-.647 1.583-.092.231-.214.522-.155.38-.06.145-.756 1.852-5.124 12.546zm3.263 1.218l-.002.011c-.367-.12-.734-.243-1.1-.374-.374-.134-.747-.271-1.117-.418h-.002l.002-.008 5.885-14.397.214-.525.018-.048.194-.477.269-.657.647-1.583.125-.304.214-.524.124-.304.092-.229.556-1.357.254-.614.209-.516.003-.009.113-.28.103-.251.429-1.045.096-.234-.071.234-.33 1.086-.151.499-.016.05-.163.54-.164.54-.455 1.497-.026.09-.14.459-.164.542-.039.131-.177.577-.304 1.006-.28.922-.063.212-.101.332-.166.543-4.516 14.883zm3.722.976v.009c-.332-.07-.665-.146-.997-.228l-.136-.028c-.441-.109-.881-.223-1.315-.343l-.194-.051.002-.004 4.221-13.917.295-.975.166-.54.164-.542.037-.118.341-1.134.425-1.393.057-.19.106-.35.167-.549.069-.233.481-1.587.062-.21.167-.54.113-.38.053-.169.428-1.416.309-1.012-.196 1.012-.287 1.476-.021.109-.088.454-.106.554-.024.122-.306 1.587-.072.367-.109.562-.039.203-.068.353-.238 1.23-.221 1.134-.067.358-.107.556-.109.555-2.963 15.268zm3.439.56v.007c-.381-.044-.768-.095-1.152-.149-.392-.059-.782-.122-1.176-.191l.002-.009 2.957-15.27.109-.556.107-.555.111-.573.219-1.134.199-1.023.106-.558.002-.002.107-.56.111-.572.289-1.491.02-.096.087-.459.109-.562.022-.109.242-1.251-.124 1.251-.012.127-.055.565-.043.438-.014.127-.144 1.46-.062.627-.051.505-.006.063-.055.562-.095.958-.113 1.134-.065.687-.057.563-.055.562-1.52 15.484zm3.845.247c-.385-.005-.774-.02-1.161-.035-.461-.018-.92-.048-1.375-.083l-.182-.011v-.005l1.523-15.485.058-.564.057-.563.076-.796.111-1.134.086-.854.055-.564.017-.164.04-.399.072-.732.133-1.349.022-.238.032-.326.055-.565.026-.238.153-1.585.069-.706v-.005l.005.711.009 1.585v.249l.004.568v.312l.002.254.007 1.333.005.749v.383l.002.184.002.566.005.833.004 1.134.004.844.005.566.002.566.077 15.56v.004zm.913-36.814l-.004-.004v-.002l-.046-.055-.037-.046-.024-.026-.111-.125-.328-.365-.302.365-.15.182-.057.07-.012.013-.041.052-.063.074-.07.087-.026.033-.046.055-.039.048v.002l-.115.138h.002l-.002.002v-.002l-.101.122-.049.063h-.002l-.101.125-.101.123h-.002l-.249.306c-.234-.26-.404-.575-.485-.927l-.014-.055c-.025-.133-.043-.267-.043-.407l.013-.105c.009-.197.048-.385.109-.566l.018-.055c.12-.326.319-.61.575-.835.367-.324.841-.524 1.37-.527.529.002 1.005.203 1.372.527.254.225.455.509.577.835l.016.055c.062.181.101.369.111.566l.009.105c0 .14-.013.273-.039.407l-.018.055c-.079.352-.249.667-.483.927l-.048-.059-.142-.175-.18-.217-.044-.052v-.002l-.092-.109-.067-.085-.146-.175v-.002l-.039-.05-.049-.055-.004-.007-.074-.092-.066-.081-.061-.074zm2.566 36.689c-.385.031-.77.057-1.154.074-.397.022-.796.037-1.193.042v-.009l-.079-15.556v-.566l-.004-.566-.005-.837-.004-1.134-.005-.847-.002-.565-.002-.171v-.397l-.005-.734-.009-1.338v-.563l-.004-.568v-.247l-.007-1.133v-.004l.111 1.137.024.238.055.565.033.326.023.238.131 1.349.07.701.044.431.013.138.055.562.088.884.111 1.134.078.796.058.563.052.564 1.526 15.485.002.009-.001-.001zm2.732-.332l-.057.009c-.459.072-.918.134-1.377.188l-.17.023v-.002l-1.526-15.491-.055-.562-.055-.563-.069-.687-.109-1.134-.101-1.006-.055-.562-.002-.016-.055-.553-.057-.579-.143-1.46-.013-.127-.044-.438-.057-.565-.011-.127-.158-1.585-.078-.812.164.812.323 1.585.02.089.113.558.099.483.014.07.31 1.517.099.482.116.56.018.09.094.466.229 1.117.231 1.134.109.538.113.555.114.556 3.108 15.243.002.009-1.084.185zm4.476-.988c-.371.107-.745.208-1.119.305-.385.096-.773.188-1.16.271l-.002-.007-2.884-14.126-.227-1.119-.112-.553-.113-.556-.065-.312-.231-1.134-.275-1.355-.046-.228-.068-.325-.113-.56-.051-.247-.323-1.587-.032-.155-.114-.553-.085-.422-.028-.138-.275-1.351v-.003l.402 1.322.052.169.114.38.164.54.062.21.481 1.587.041.133.167.551.138.448.025.09.453 1.493.343 1.134.037.118.164.54.164.542 4.518 14.892.002.006h-.004zm2.66-.881l-.099.04c-.433.157-.86.306-1.289.448l-.188.065v-.005l-4.518-14.894-.164-.54-.101-.332-.065-.212-.279-.922-.481-1.582-.074-.247-.164-.542-.103-.343-.065-.208-.415-1.379-.166-.54-.164-.54-.016-.05-.15-.499-.33-1.086-.342-1.135-.065-.214-.002-.005.092.219.475 1.135.419.999.224.526.023.06.195.463.279.667.494 1.174.173.413.05.115.217.521.207.496.667 1.583.245.585.221.521.009.028.21.494 1.232 2.939 4.789 11.401.002.007c-.326.134-.655.256-.983.376zm3.115-1.307c-.361.173-.722.337-1.089.494l-.002-.007-6.022-14.343-.025-.055-.195-.465-.221-.522-.061-.146-.665-1.583-.396-.944-.078-.188-.141-.332-.223-.531-.304-.724-.464-1.106-.011-.023-.207-.499-.224-.528-.235-.558-.293-.701-.005-.01.378.711.271.505.271.505.265.498.042.077.605 1.13.284.535.271.508.267.498.026.046.604 1.132.743 1.388.104.195.162.304.267.498.175.332 6.819 12.758.341.632.005.009c-.344.176-.692.346-1.039.51zm3.383-1.834l-.118.072c-.345.205-.69.411-1.04.607l-.188.109v-.004l-2.186-4.088-4.69-8.773-.463-.865-.143-.269-.122-.232-.269-.498-.455-.853-.605-1.132-.316-.591-.265-.498-.267-.498-.007-.011-.599-1.119-.326-.612-.267-.498-.256-.475-.013-.033-.591-1.102-.533-.992-.071-.137-.003-.005.768 1.134.653.969.109.166.21.311.319.468.542.807.551.812.214.317.107.159.316.468.647.96.765 1.132.228.337.316.47.317.468.21.309.765 1.134.21.312 7.523 11.139.004.007c-.321.212-.649.417-.981.618zm2.89-1.947c-.319.236-.643.468-.968.697l-.003-.009-7.309-10.817-.766-1.134-.634-.94-.316-.47-.116-.173-.201-.297-.192-.284-.371-.551-1.071-1.587-.013-.016-.06-.09h-.002l.07.084.018.021 1.303 1.587.551.671.362.439.018.021.07.088.271.327.958 1.168.926 1.134 1.473 1.795.542.662 3.082 3.753 2.898 3.532-.52.389zm-55.343-32.578l-.043.583-.029.483c-.021.49-.037.984-.037 1.478 0 .492.016.984.035 1.473l.026.431.044.614.021.289 2.859-.28 2.089-.208-.021-.275-.021-.446-.022-.365c-.018-.413-.03-.826-.03-1.233 0-.422.013-.841.033-1.263l.02-.334.026-.474.02-.275-.706-.068-4.24-.417-.024.287zm67.154.564l.024.413c.023.514.039 1.025.039 1.539 0 .516-.016 1.032-.039 1.547l-.028.457-.037.66 4.393.435c.086-1.032.127-2.063.127-3.102 0-1.021-.041-2.044-.124-3.064l-4.394.433.039.682zm1.155.363v-.024l2.146-.212c.03.608.044 1.22.044 1.823 0 .616-.014 1.239-.044 1.86l-2.146-.212v-.046c.026-.58.039-1.104.039-1.6 0-.488-.013-1.008-.039-1.589zm-63.22-1.848l.063-.448.05-.367c.127-.822.289-1.637.485-2.444l.083-.315.118-.463.072-.267-4.754-1.442-.079.277-.161.59-.114.433c-.115.47-.223.944-.319 1.425-.101.496-.181.983-.255 1.469l-.063.439-.074.612-.035.284 4.948.49.035-.273zm61.884 7.509l-.087.625-.07.502c-.072.47-.15.936-.242 1.401l-.039.194c-.092.463-.197.922-.311 1.381l-.127.485-.157.609 4.225 1.281c.56-1.977.962-4 1.204-6.046l-3.029-.299-1.367-.133zm2.398 5.057l-2.062-.628.016-.057c.118-.489.228-.97.316-1.42l.042-.206c.092-.459.173-.933.253-1.451l.009-.061.28.026 1.864.184c-.181 1.215-.421 2.425-.718 3.613zm-10.09-.399l-3.436-1.041-1.479-.45-.077.214-.133.37-.042.109-.192.498-.148.361-.122.275-.155.352-.146.319c-.123.258-.252.512-.385.763l-.074.148v.005c-.206.382-.422.759-.651 1.13-.19.311-.387.618-.595.923-.153.227-.323.441-.485.662l-.487.66-.238.304-.018.02-.131.146c-.306.367-.625.726-.957 1.075l-.215.226-.302.286c-.284.279-.568.56-.869.826l-.097.092.175.214.748.909.551.674.931 1.134.851 1.036.002.002 3.698 4.505.002.005 1.301 1.582 1.943 2.369c1.766-1.503 3.374-3.145 4.814-4.902 1.615-1.967 3.021-4.078 4.203-6.299 1.082-2.031 1.982-4.145 2.688-6.323l-4.894-1.486-5.579-1.693zm6.786 8.968c-1.15 2.159-2.522 4.216-4.083 6.115-1.163 1.421-2.439 2.761-3.804 3.998l-1.202-1.465-1.303-1.587-3.7-4.507-.26-.319-.932-1.134-1.141-1.391-.157-.192-.088-.107.533-.526.118-.127.101-.104.245-.267c.332-.358.638-.699.913-1.034l.171-.214.078-.105.18-.233c.293-.378.572-.759.826-1.13l.018-.026c.354-.516.671-1.038.971-1.559l.336-.597.062-.12.02-.037.19-.381.214-.426.095-.203.059-.129.293-.658.065-.166.088-.215.087-.218.457.138.196.061 3.241.982 5.576 1.691 3.774 1.146c-.62 1.725-1.368 3.419-2.237 5.046zm-12.663-3.954l.281.754.591 1.587.422 1.132.588 1.583.424 1.134 2.247 6.03.306-.461 8.175-12.227-10.726.385-2.308.083zm7.659 2.528l-2.393 3.583-1.285-3.451 3.678-.132z"/></svg>