<?xml version="1.0" encoding="utf-8"?>
<!-- Generator: Adobe Illustrator 15.1.0, SVG Export Plug-In . SVG Version: 6.00 Build 0)  -->
<!DOCTYPE svg PUBLIC "-//W3C//DTD SVG 1.1//EN" "http://www.w3.org/Graphics/SVG/1.1/DTD/svg11.dtd">
<svg version="1.1" id="Layer_1" xmlns="http://www.w3.org/2000/svg" xmlns:xlink="http://www.w3.org/1999/xlink" x="0px" y="0px"
	 width="83.293px" height="83.296px" viewBox="0 0 83.293 83.296" enable-background="new 0 0 83.293 83.296" xml:space="preserve">
<path fill="#FFFFFF" d="M65.147,4.458h0.273V2.655h0.675V2.411h-1.619v0.245h0.671V4.458z M66.643,2.719l0.586,1.74h0.242
	l0.584-1.74v1.74h0.258V2.411h-0.407l-0.557,1.707l-0.554-1.707h-0.41v2.048h0.258V2.719z M7.521,44.228
	c-0.015-0.201-0.023-0.404-0.035-0.604c-0.011-0.181-0.023-0.36-0.032-0.54c-0.018-0.413-0.026-0.829-0.03-1.242
	c0-0.085-0.005-0.168-0.005-0.251c0-0.081,0.005-0.159,0.005-0.24c0.004-0.431,0.015-0.857,0.034-1.285
	c0.007-0.164,0.018-0.328,0.028-0.49c0.012-0.216,0.021-0.431,0.037-0.647L3.13,38.497c-0.083,1.029-0.125,2.063-0.125,3.102
	c0,1.019,0.039,2.042,0.12,3.064l3.233-0.319L7.521,44.228z M6.29,41.76l0.002,0.092c0.003,0.453,0.014,0.872,0.033,1.288
	c0,0.024,0,0.046,0.002,0.07l-0.081,0.009l-2.065,0.203c-0.028-0.607-0.043-1.217-0.043-1.823c0-0.619,0.015-1.242,0.046-1.86
	l2.146,0.212c-0.002,0.02-0.004,0.044-0.004,0.066c-0.02,0.437-0.03,0.883-0.033,1.329L6.29,41.426
	c-0.002,0.055-0.004,0.109-0.004,0.166C6.286,41.649,6.288,41.706,6.29,41.76z M16.589,70.996l0.014-0.015l3.23-3.937
	c0.004-0.005,0.004-0.005,0.007-0.007l0.443-0.54l3.25-3.963l0.853-1.038l0.929-1.134l1.301-1.583l0.155-0.188l0.02-0.026
	c-0.03-0.026-0.059-0.057-0.09-0.085c-0.302-0.265-0.59-0.549-0.879-0.833c-0.096-0.097-0.2-0.186-0.297-0.284
	c-0.062-0.063-0.122-0.127-0.184-0.192c-0.341-0.356-0.673-0.726-0.994-1.11c-0.046-0.055-0.099-0.109-0.143-0.166
	c-0.002,0-0.002,0-0.002,0l0,0c-0.159-0.194-0.309-0.394-0.463-0.595c-0.092-0.12-0.178-0.247-0.268-0.369
	c-0.194-0.265-0.391-0.524-0.574-0.8c-0.175-0.256-0.339-0.521-0.503-0.785c-0.223-0.369-0.441-0.74-0.646-1.128h-0.003
	l-0.002-0.007c-0.033-0.061-0.062-0.124-0.096-0.188c-0.127-0.242-0.25-0.485-0.365-0.73c-0.055-0.111-0.103-0.227-0.155-0.341
	c-0.051-0.106-0.097-0.216-0.145-0.323c-0.044-0.096-0.087-0.189-0.127-0.286c-0.052-0.122-0.101-0.245-0.148-0.367
	c-0.065-0.159-0.127-0.319-0.184-0.481c-0.018-0.039-0.035-0.08-0.05-0.124c-0.044-0.121-0.088-0.238-0.129-0.358
	c-0.026-0.07-0.053-0.14-0.077-0.208l-4.913,1.489l-0.822,0.248l-4.756,1.445c-0.002,0-0.004,0-0.007,0.002l-2.714,0.822
	l-2.173,0.66c0.694,2.146,1.587,4.262,2.686,6.323c1.218,2.275,2.634,4.376,4.208,6.299C13.247,67.891,14.858,69.527,16.589,70.996z
	 M8.567,59.259c-0.865-1.615-1.612-3.309-2.235-5.044l1.053-0.321l2.722-0.822l4.756-1.445l0.822-0.248l2.695-0.818l1.195-0.362
	c0.026,0.067,0.053,0.136,0.081,0.201c0.03,0.079,0.063,0.155,0.094,0.231c0.021,0.051,0.039,0.101,0.062,0.152
	c0.092,0.215,0.188,0.43,0.283,0.643l0.046,0.1c0.04,0.087,0.081,0.174,0.118,0.258c0.068,0.144,0.146,0.288,0.219,0.43
	c0.055,0.114,0.109,0.226,0.168,0.34l0.031,0.062c0.021,0.047,0.046,0.09,0.072,0.141c0.106,0.198,0.223,0.393,0.334,0.592
	c0.277,0.48,0.564,0.957,0.87,1.416c0.037,0.055,0.081,0.114,0.118,0.169c0.223,0.325,0.468,0.662,0.77,1.058l0.057,0.072v0.002
	c0.14,0.186,0.284,0.372,0.428,0.549c0.271,0.33,0.58,0.678,0.914,1.036c0.097,0.101,0.182,0.198,0.282,0.304l0.05,0.055
	c0.049,0.05,0.094,0.099,0.145,0.148c0.171,0.177,0.346,0.35,0.522,0.518L25.15,58.78l-1.3,1.583l-0.93,1.134l-0.264,0.321
	l-3.248,3.963l-0.45,0.544l-2.503,3.05c-1.359-1.23-2.636-2.573-3.804-3.996C11.092,63.471,9.718,61.414,8.567,59.259z
	 M18.854,61.497l0.424-1.134l0.595-1.583l0.424-1.132l0.595-1.587l0.304-0.811l-2.814-0.107L8.165,54.759l0.307,0.461l8.148,12.24
	L18.854,61.497z M13.531,57.764l3.679,0.138l-1.294,3.449L13.531,57.764z M8.694,50.835c-0.065-0.225-0.118-0.454-0.179-0.68
	c-0.033-0.133-0.07-0.264-0.104-0.4C8.165,48.75,7.965,47.74,7.81,46.729c-0.022-0.146-0.042-0.297-0.062-0.444
	c-0.03-0.216-0.063-0.433-0.09-0.647l-1.84,0.182l-2.554,0.253c0.236,2.024,0.637,4.045,1.205,6.043l3.735-1.133L8.694,50.835z
	 M5.261,50.695c-0.3-1.188-0.54-2.397-0.719-3.613l1.386-0.136l0.76-0.076c0,0.011,0,0.02,0.005,0.026
	C6.85,47.948,7.06,49,7.313,50.024c0.004,0.016,0.009,0.031,0.011,0.046L5.261,50.695z M41.646,83.296
	c23.003,0,41.646-18.646,41.646-41.647C83.293,18.646,64.649,0.002,41.646,0C18.646,0.002,0,18.646,0,41.649
	C0,64.649,18.646,83.296,41.646,83.296z M1.134,41.649C1.134,30.458,5.665,20.333,13,13C20.333,5.667,30.455,1.132,41.646,1.132
	c11.19,0,21.315,4.536,28.648,11.869s11.866,17.458,11.868,28.648c-0.002,11.188-4.535,21.315-11.868,28.648
	c-7.333,7.331-17.458,11.864-28.648,11.864c-11.191,0-21.313-4.533-28.646-11.864C5.665,62.964,1.134,52.837,1.132,41.649H1.134z
	 M68.585,43.067c0.007-0.094,0.012-0.188,0.016-0.284c0.02-0.402,0.033-0.809,0.033-1.215c0-0.391-0.014-0.78-0.031-1.171
	c-0.006-0.123-0.013-0.245-0.02-0.367c-0.004-0.129-0.018-0.258-0.028-0.389l-3.847,0.378l-0.544,0.055
	c0.004,0.057,0.004,0.112,0.006,0.166c0.021,0.372,0.033,0.739,0.037,1.108c0.003,0.033,0.005,0.068,0.005,0.101
	c0,0.042,0.002,0.081,0.002,0.12c0,0.035-0.002,0.072-0.002,0.109c0,0.267-0.018,0.533-0.028,0.802
	c-0.007,0.155-0.007,0.31-0.016,0.465c-0.004,0.048-0.002,0.094-0.004,0.14l0.887,0.087l3.502,0.347
	C68.563,43.367,68.579,43.218,68.585,43.067z M67.488,42.276l-2.15-0.212c0.004-0.129,0.006-0.256,0.006-0.38
	c0-0.039,0.005-0.079,0.005-0.116c0-0.04-0.005-0.079-0.005-0.127c0-0.113-0.004-0.229-0.006-0.347l2.152-0.212
	c0.007,0.247,0.009,0.47,0.009,0.687C67.499,41.791,67.497,42.022,67.488,42.276z M14.954,32.75
	c0.046-0.133,0.097-0.271,0.146-0.415c0.044-0.125,0.086-0.247,0.129-0.367c0.132-0.363,0.271-0.724,0.416-1.08
	c0.02-0.044,0.039-0.09,0.057-0.129c0.148-0.356,0.306-0.708,0.468-1.06c0.057-0.12,0.113-0.24,0.175-0.363
	c0.065-0.133,0.124-0.264,0.188-0.389l0.12-0.247l-1.4-0.75l-2.981-1.591l-0.129,0.256c-0.092,0.182-0.19,0.365-0.28,0.555
	c-0.063,0.129-0.127,0.258-0.189,0.391c-0.42,0.901-0.798,1.812-1.135,2.741c-0.051,0.138-0.094,0.269-0.138,0.398
	c-0.07,0.201-0.136,0.4-0.197,0.592l-0.092,0.275l1.933,0.585l2.826,0.857L14.954,32.75z M22.198,30.701l0.126-0.221l0.009-0.017
	c0.031-0.053,0.07-0.112,0.109-0.184c0.068-0.112,0.138-0.228,0.208-0.348c0.107-0.173,0.221-0.35,0.334-0.527
	c0.074-0.114,0.149-0.225,0.221-0.332c0.042-0.059,0.086-0.118,0.125-0.177c0.083-0.12,0.166-0.24,0.254-0.361
	c0.074-0.103,0.144-0.203,0.214-0.299c0.12-0.16,0.245-0.317,0.371-0.474c0.053-0.065,0.101-0.133,0.153-0.199
	c0.035-0.042,0.062-0.076,0.083-0.104l0.016-0.02c0.356-0.433,0.736-0.85,1.13-1.261c0.369-0.387,0.752-0.767,1.154-1.132
	c0.262-0.236,0.528-0.468,0.804-0.693c0.088-0.07,0.188-0.145,0.293-0.225c0.289-0.229,0.584-0.45,0.886-0.667
	c0.56-0.4,1.143-0.778,1.746-1.132c0.226-0.131,0.45-0.26,0.682-0.385l0,0l0.044-0.024l0.028-0.015
	c-0.011,0.007,0.02-0.006,0.065-0.033c0.265-0.14,0.54-0.277,0.815-0.409c0.105-0.05,0.215-0.096,0.328-0.151
	c0.201-0.089,0.4-0.179,0.599-0.265c0.125-0.052,0.252-0.1,0.381-0.155c0.126-0.05,0.258-0.099,0.385-0.149
	c0.061-0.021,0.117-0.046,0.179-0.067c0.131-0.048,0.263-0.094,0.39-0.143c0.069-0.024,0.133-0.048,0.184-0.065l0.262-0.087
	l-0.233-0.769l-1.214-3.991l-0.275,0.092c-0.104,0.035-0.218,0.07-0.336,0.111l0,0c-0.148,0.052-0.3,0.105-0.45,0.16
	c-0.247,0.092-0.492,0.186-0.734,0.284c-0.145,0.057-0.289,0.113-0.438,0.175c-0.271,0.114-0.535,0.234-0.8,0.356
	c-0.114,0.05-0.229,0.101-0.35,0.155c-0.381,0.184-0.757,0.372-1.13,0.571l-0.031,0.017c-1.156,0.617-2.249,1.314-3.28,2.07
	c-0.394,0.288-0.778,0.585-1.152,0.894c-0.096,0.077-0.186,0.16-0.281,0.238c-0.604,0.509-1.183,1.034-1.733,1.585
	c-0.367,0.367-0.72,0.747-1.061,1.132c-0.24,0.269-0.48,0.542-0.708,0.82c-0.074,0.092-0.143,0.184-0.205,0.262
	c-0.132,0.166-0.263,0.337-0.394,0.503c-0.053,0.072-0.107,0.138-0.162,0.209c-0.109,0.146-0.208,0.291-0.309,0.431
	c-0.115,0.162-0.231,0.326-0.345,0.492c-0.024,0.038-0.051,0.072-0.077,0.109c-0.103,0.151-0.198,0.302-0.297,0.45
	c-0.131,0.204-0.263,0.413-0.392,0.621c-0.089,0.146-0.177,0.295-0.264,0.441c-0.062,0.107-0.116,0.21-0.171,0.304l-0.145,0.253
	l0.571,0.304l0.438,0.236l2.969,1.584L22.198,30.701z M69.642,24.476c-0.158-0.258-0.319-0.512-0.481-0.761
	c-0.115-0.177-0.229-0.356-0.345-0.529c-0.184-0.271-0.374-0.536-0.564-0.798c-0.104-0.148-0.21-0.297-0.316-0.444
	c-0.259-0.348-0.527-0.688-0.798-1.023c-0.04-0.052-0.081-0.107-0.125-0.16c-0.4-0.489-0.815-0.957-1.239-1.418
	c-1.036-1.125-2.14-2.175-3.31-3.13c-1.478-1.213-3.051-2.277-4.699-3.204c-0.214-0.12-0.428-0.249-0.646-0.367
	c-0.031-0.015-0.06-0.028-0.088-0.044c-0.419-0.223-0.844-0.435-1.271-0.638c-0.167-0.081-0.337-0.153-0.505-0.227
	c-0.296-0.138-0.595-0.273-0.895-0.398c-0.192-0.081-0.383-0.155-0.572-0.231c-0.284-0.112-0.568-0.223-0.857-0.328
	c-0.201-0.074-0.404-0.146-0.607-0.214c-0.157-0.055-0.319-0.107-0.477-0.159l-0.8,2.638l-0.479,1.578
	c0.129,0.043,0.256,0.092,0.383,0.135c0.159,0.055,0.318,0.111,0.477,0.17c0.258,0.094,0.511,0.192,0.767,0.295
	c0.157,0.063,0.312,0.125,0.468,0.19c0.265,0.111,0.527,0.227,0.789,0.35c0.14,0.062,0.28,0.123,0.418,0.188
	c0.304,0.145,0.601,0.297,0.897,0.45c0.09,0.046,0.18,0.087,0.27,0.136c1.353,0.723,2.648,1.565,3.877,2.505
	c0.247,0.19,0.496,0.376,0.737,0.573c0.004,0.004,0.013,0.008,0.017,0.013c0.436,0.358,0.855,0.734,1.271,1.119
	c0.544,0.507,1.068,1.034,1.576,1.585c0.189,0.209,0.38,0.415,0.565,0.629c0.146,0.168,0.291,0.332,0.436,0.502
	c0.028,0.035,0.061,0.07,0.087,0.105c0.035,0.037,0.062,0.079,0.092,0.118c0.243,0.295,0.479,0.597,0.708,0.907
	c0.077,0.103,0.153,0.209,0.228,0.314c0.18,0.25,0.358,0.5,0.533,0.756c0.088,0.129,0.171,0.26,0.256,0.391
	c0.155,0.238,0.311,0.479,0.461,0.724c0.088,0.144,0.173,0.289,0.256,0.433c0.072,0.125,0.146,0.241,0.217,0.363l3.886-2.074
	c-0.085-0.148-0.166-0.297-0.253-0.446C69.871,24.858,69.759,24.666,69.642,24.476z M66.767,26.064
	c-0.131-0.214-0.267-0.424-0.402-0.634l-0.071-0.105c-0.063-0.101-0.127-0.201-0.195-0.299c-0.181-0.265-0.364-0.527-0.553-0.787
	l-0.09-0.125c-0.05-0.068-0.098-0.135-0.146-0.206c-0.236-0.31-0.485-0.629-0.732-0.935l-0.022-0.026
	c-0.028-0.04-0.055-0.074-0.076-0.101c-0.035-0.042-0.072-0.083-0.107-0.125c-0.096-0.114-0.192-0.228-0.29-0.339l-0.049-0.057
	l-0.098-0.112c-0.444-0.511-0.903-0.999-1.375-1.473c-0.385-0.389-0.776-0.769-1.178-1.132c-0.33-0.295-0.663-0.584-0.999-0.861
	c-0.219-0.179-0.444-0.352-0.669-0.522L59.6,18.139c-1.291-0.99-2.648-1.867-4.039-2.61c-0.055-0.028-0.109-0.055-0.164-0.081
	c-0.037-0.017-0.071-0.037-0.111-0.057c-0.311-0.16-0.618-0.317-0.931-0.465c-0.107-0.053-0.215-0.101-0.324-0.146l-0.111-0.053
	c-0.272-0.125-0.544-0.247-0.819-0.363c-0.113-0.046-0.228-0.094-0.341-0.138l-0.145-0.059c-0.219-0.085-0.435-0.172-0.651-0.253
	l0.166-0.546l0.459-1.513c0.261,0.096,0.521,0.197,0.778,0.3l0.175,0.07c0.127,0.05,0.254,0.101,0.381,0.153
	c0.288,0.123,0.574,0.251,0.863,0.383l0.189,0.087c0.099,0.043,0.197,0.087,0.298,0.135c0.406,0.192,0.817,0.4,1.213,0.608
	c0.028,0.015,0.055,0.028,0.096,0.05c0.129,0.067,0.256,0.142,0.383,0.214c0.083,0.048,0.166,0.096,0.245,0.14
	c1.626,0.918,3.151,1.956,4.537,3.095c1.11,0.907,2.184,1.923,3.195,3.021c0.455,0.494,0.844,0.939,1.194,1.368l0.048,0.059
	l0.074,0.096c0.284,0.354,0.537,0.677,0.77,0.988c0.057,0.079,0.113,0.16,0.17,0.238c0.048,0.063,0.092,0.129,0.136,0.19
	c0.184,0.254,0.367,0.512,0.547,0.771c0.069,0.107,0.14,0.214,0.209,0.326l0.121,0.182c0.154,0.238,0.308,0.477,0.456,0.721
	L66.767,26.064z M67.245,33.074c-0.041-0.129-0.083-0.26-0.126-0.389c-0.035-0.101-0.07-0.203-0.109-0.304
	c-0.127-0.354-0.263-0.706-0.404-1.056c-0.007-0.018-0.016-0.04-0.022-0.057c-0.15-0.363-0.312-0.723-0.479-1.082
	c-0.048-0.105-0.101-0.21-0.152-0.317c-0.062-0.127-0.127-0.254-0.188-0.378l-1.849,0.988l-0.298,0.16l-1.744,0.931
	c0.007,0.016,0.013,0.026,0.018,0.04c0.016,0.035,0.03,0.07,0.048,0.105c0.197,0.406,0.385,0.813,0.556,1.224
	c0,0.004,0.004,0.011,0.004,0.016c0.035,0.081,0.062,0.162,0.092,0.24c0.136,0.341,0.267,0.68,0.385,1.023
	c0.014,0.037,0.028,0.074,0.044,0.109c0,0.011,0.004,0.018,0.009,0.028l0.087-0.028l1.257-0.38l0.641-0.194L67.245,33.074z
	 M63.723,32.96c-0.062-0.155-0.123-0.306-0.184-0.455c-0.06-0.144-0.123-0.289-0.188-0.441l0.798-0.429l0.05-0.026l0.173-0.09
	l0.881-0.472c0.105,0.229,0.197,0.446,0.284,0.654l0.018,0.039l0.005,0.016c0.074,0.184,0.15,0.376,0.227,0.579l-1.102,0.334
	L63.723,32.96z M14.71,43.113c0.009,0.133,0.021,0.271,0.03,0.406l3.01-0.297l1.379-0.136c-0.004-0.052,0-0.101-0.004-0.151
	c-0.009-0.153-0.009-0.304-0.018-0.457c-0.014-0.3-0.028-0.597-0.028-0.894c0-0.079,0.006-0.158,0.009-0.238
	c0.004-0.376,0.015-0.752,0.037-1.128c0.004-0.048,0.002-0.096,0.004-0.146l-3.469-0.341l-0.918-0.09
	c-0.011,0.146-0.023,0.293-0.032,0.439c-0.005,0.098-0.014,0.197-0.018,0.295c-0.018,0.405-0.031,0.809-0.031,1.215
	c0,0.394,0.014,0.787,0.031,1.181C14.696,42.886,14.705,43,14.71,43.113z M15.807,40.881l2.146,0.212
	c-0.004,0.168-0.007,0.332-0.007,0.492c0,0.155,0.003,0.314,0.007,0.479l-0.314,0.033l-1.832,0.179
	c-0.009-0.245-0.011-0.47-0.011-0.684C15.796,41.367,15.798,41.131,15.807,40.881z M20.271,34.355
	c0.002-0.011,0.004-0.018,0.008-0.028c0.016-0.042,0.033-0.081,0.049-0.125c0.115-0.339,0.244-0.673,0.378-1.008
	c0.03-0.079,0.057-0.16,0.09-0.238c0.004-0.009,0.009-0.02,0.013-0.028c0.171-0.413,0.358-0.82,0.553-1.222
	c0.016-0.031,0.028-0.063,0.044-0.096c0.007-0.013,0.011-0.024,0.018-0.04l-2.039-1.091l-0.228-0.122l-1.622-0.866
	c-0.061,0.125-0.126,0.249-0.188,0.374c-0.048,0.103-0.099,0.203-0.145,0.304c-0.166,0.35-0.323,0.702-0.472,1.06
	c-0.009,0.022-0.016,0.039-0.024,0.061c-0.146,0.35-0.277,0.702-0.409,1.058c-0.043,0.122-0.085,0.243-0.126,0.365
	c-0.044,0.118-0.081,0.241-0.123,0.361l0.21,0.065l2.123,0.643l1.803,0.544L20.271,34.355z M19.763,32.491
	c0,0-0.004,0.009-0.009,0.02c-0.004,0.006-0.006,0.015-0.006,0.015s0,0,0-0.002c-0.06,0.142-0.116,0.286-0.173,0.437l-2.065-0.625
	c0.081-0.219,0.159-0.417,0.238-0.601l0.028-0.072c0.083-0.199,0.17-0.402,0.267-0.614l0.334,0.179l0.245,0.129l0.475,0.254
	l0.85,0.455c-0.065,0.146-0.127,0.289-0.184,0.428C19.763,32.491,19.763,32.491,19.763,32.491z M15.522,34.845
	c-0.023,0.098-0.05,0.199-0.074,0.297c-0.19,0.772-0.346,1.55-0.466,2.337c-0.02,0.118-0.034,0.236-0.05,0.356
	c-0.02,0.131-0.035,0.265-0.053,0.398l0.148,0.015l3.889,0.38l0.354,0.035c0.002-0.011,0.002-0.022,0.006-0.035
	c0.005-0.037,0.014-0.074,0.018-0.113c0.062-0.444,0.132-0.888,0.219-1.327l0.005-0.017c0.009-0.042,0.02-0.083,0.028-0.127
	c0.076-0.378,0.166-0.756,0.265-1.132c0.004-0.015,0.006-0.03,0.011-0.046c0.013-0.052,0.023-0.105,0.037-0.157l-4.221-1.279
	C15.602,34.565,15.56,34.705,15.522,34.845z M16.442,35.854l1.938,0.588l0.126,0.039c-0.037,0.164-0.072,0.324-0.103,0.485
	c-0.004,0.024-0.009,0.053-0.013,0.077c-0.026,0.127-0.051,0.256-0.074,0.389l-2.146-0.212
	C16.251,36.762,16.34,36.305,16.442,35.854z M50.243,15.711l-0.278-0.092l-1.21,3.991l-0.232,0.767l0.254,0.089
	c0.062,0.022,0.127,0.048,0.201,0.072c0.129,0.046,0.26,0.094,0.394,0.14v0.002c0.052,0.02,0.104,0.042,0.157,0.061
	c0.142,0.055,0.282,0.107,0.422,0.164c0.124,0.048,0.244,0.096,0.365,0.148c0.212,0.087,0.422,0.184,0.634,0.28
	c0.101,0.048,0.201,0.09,0.29,0.133c0.309,0.146,0.612,0.297,0.907,0.455c0.254,0.138,0.485,0.271,0.717,0.404
	c0.014,0.011,0.028,0.017,0.044,0.026c0.155,0.09,0.311,0.186,0.464,0.28c0.424,0.262,0.839,0.538,1.245,0.826
	c0.39,0.278,0.77,0.566,1.142,0.87l0.002,0.002l0.028,0.022c0.271,0.225,0.538,0.455,0.8,0.691c0.397,0.36,0.782,0.741,1.156,1.132
	c0.39,0.407,0.768,0.824,1.13,1.266l0.07,0.085c0.059,0.077,0.113,0.157,0.175,0.234c0.254,0.326,0.507,0.656,0.747,0.999
	c0.031,0.046,0.062,0.089,0.097,0.135c0.021,0.031,0.044,0.063,0.065,0.094c0.297,0.435,0.586,0.887,0.856,1.353
	c0.035,0.059,0.062,0.099,0.077,0.125l0.009,0.013l0.129,0.221l0.413-0.221l3.976-2.126l-0.146-0.251
	c-0.055-0.094-0.111-0.194-0.171-0.297c-0.092-0.157-0.186-0.314-0.281-0.47c-0.132-0.216-0.267-0.428-0.402-0.638
	c-0.092-0.138-0.184-0.28-0.277-0.42c-0.024-0.035-0.046-0.065-0.07-0.101c-0.136-0.199-0.273-0.391-0.408-0.581
	c-0.079-0.109-0.158-0.221-0.245-0.337c-0.053-0.074-0.109-0.142-0.166-0.214c-0.197-0.256-0.392-0.514-0.595-0.763
	c-0.231-0.28-0.468-0.553-0.706-0.822c-0.346-0.389-0.704-0.765-1.068-1.132c-0.525-0.522-1.064-1.023-1.622-1.5
	c-0.033-0.024-0.068-0.057-0.101-0.085c-0.092-0.079-0.182-0.162-0.282-0.245c-0.374-0.306-0.758-0.601-1.147-0.887
	c-1.054-0.772-2.155-1.469-3.298-2.079c-0.374-0.196-0.75-0.387-1.13-0.568c-0.121-0.057-0.236-0.107-0.346-0.155
	c-0.263-0.123-0.529-0.243-0.8-0.356c-0.153-0.063-0.302-0.125-0.45-0.181c-0.236-0.096-0.473-0.186-0.713-0.275
	c-0.166-0.059-0.334-0.121-0.503-0.177C50.45,15.778,50.346,15.746,50.243,15.711z M31.45,10.402
	c-0.151,0.048-0.302,0.098-0.452,0.148c-0.206,0.072-0.416,0.144-0.621,0.219c-0.282,0.103-0.562,0.214-0.844,0.323
	c-0.188,0.077-0.38,0.151-0.568,0.229c-0.314,0.131-0.625,0.273-0.936,0.413c-0.155,0.072-0.311,0.138-0.466,0.21
	c-0.426,0.203-0.85,0.417-1.271,0.64c-0.037,0.02-0.074,0.038-0.111,0.057c-0.003,0.002-0.007,0.002-0.009,0.004
	c-0.315,0.17-0.621,0.35-0.932,0.527c-0.159,0.096-0.328,0.181-0.485,0.277c-0.321,0.192-0.634,0.398-0.946,0.599
	c-0.138,0.089-0.282,0.175-0.42,0.267c-0.177,0.118-0.345,0.245-0.518,0.367c-0.702,0.489-1.386,0.994-2.039,1.532
	c-1.598,1.307-3.045,2.751-4.339,4.301c-0.07,0.081-0.145,0.162-0.21,0.243c-0.328,0.398-0.641,0.802-0.944,1.211
	c-0.103,0.136-0.196,0.275-0.297,0.413c-0.199,0.277-0.398,0.555-0.59,0.839c-0.109,0.164-0.215,0.33-0.324,0.494
	c-0.168,0.264-0.336,0.526-0.498,0.795c-0.109,0.179-0.214,0.358-0.321,0.54c-0.085,0.146-0.168,0.295-0.251,0.443l3.886,2.074
	c0.063-0.111,0.134-0.221,0.196-0.33c0.092-0.155,0.184-0.308,0.275-0.461c0.136-0.225,0.28-0.448,0.425-0.669
	c0.094-0.146,0.188-0.295,0.286-0.439c0.081-0.122,0.168-0.24,0.251-0.358c0.063-0.089,0.125-0.179,0.188-0.269
	c0.02-0.026,0.039-0.053,0.057-0.079c0.087-0.121,0.173-0.247,0.263-0.367c0.249-0.333,0.502-0.66,0.767-0.984
	c0.016-0.018,0.028-0.035,0.042-0.052c0.028-0.035,0.059-0.068,0.087-0.103c0.321-0.385,0.656-0.76,1.001-1.132
	c0.114-0.121,0.224-0.243,0.337-0.361c0.397-0.417,0.811-0.826,1.237-1.224c0.411-0.382,0.835-0.756,1.276-1.117
	c0.004-0.004,0.013-0.011,0.018-0.015c0.699-0.571,1.427-1.11,2.189-1.622c0.517-0.345,1.052-0.671,1.596-0.986
	c0.267-0.153,0.529-0.308,0.8-0.452c0.009-0.007,0.018-0.011,0.026-0.018c0.394-0.21,0.792-0.407,1.189-0.597
	c0.131-0.062,0.262-0.116,0.392-0.177c0.269-0.123,0.539-0.245,0.812-0.36c0.159-0.066,0.317-0.127,0.475-0.19
	c0.249-0.098,0.494-0.194,0.743-0.284c0.17-0.065,0.341-0.125,0.516-0.184c0.113-0.039,0.228-0.085,0.341-0.122l-0.942-3.108
	L31.45,10.402z M30.711,14.157l-0.098,0.037c-0.132,0.055-0.265,0.105-0.396,0.16c-0.282,0.12-0.562,0.247-0.851,0.376l-0.14,0.063
	c-0.088,0.042-0.175,0.081-0.263,0.12c-0.441,0.21-0.846,0.415-1.235,0.623l-0.03,0.015h-0.002
	c-0.226,0.123-0.446,0.249-0.667,0.378l-0.159,0.092c-0.632,0.365-1.176,0.7-1.661,1.027c-0.789,0.527-1.561,1.1-2.295,1.701
	c-0.332,0.271-0.665,0.564-0.997,0.861c-0.397,0.36-0.793,0.738-1.185,1.132c-0.145,0.146-0.293,0.293-0.435,0.441
	c-0.383,0.402-0.72,0.776-1.038,1.144c-0.151,0.175-0.307,0.35-0.446,0.52c-0.018,0.02-0.03,0.042-0.039,0.052
	c-0.136,0.167-0.265,0.339-0.396,0.507c-0.134,0.173-0.271,0.339-0.4,0.514c-0.06,0.079-0.113,0.155-0.171,0.236l-0.104,0.146
	c-0.175,0.243-0.35,0.485-0.516,0.734c-0.074,0.109-0.148,0.223-0.219,0.333l-0.083,0.126c-0.122,0.188-0.243,0.376-0.36,0.568
	l-1.899-1.014c0.148-0.243,0.299-0.479,0.452-0.715l0.107-0.166c0.069-0.105,0.135-0.21,0.205-0.314
	c0.184-0.271,0.376-0.542,0.568-0.807l0.122-0.17c0.053-0.077,0.105-0.153,0.164-0.229c0.309-0.416,0.605-0.798,0.911-1.169
	c0.026-0.033,0.058-0.066,0.086-0.099c0.039-0.046,0.08-0.092,0.117-0.138c0.33-0.396,0.672-0.778,1.017-1.156
	c0.151-0.164,0.307-0.317,0.459-0.476c0.861-0.894,1.767-1.745,2.713-2.521c0.575-0.47,1.218-0.955,1.972-1.479l0.203-0.145
	c0.099-0.072,0.196-0.142,0.295-0.209c0.07-0.044,0.143-0.09,0.214-0.133c0.063-0.04,0.129-0.081,0.19-0.123l0.155-0.099
	c0.251-0.164,0.501-0.328,0.759-0.479c0.076-0.048,0.157-0.092,0.235-0.135c0.079-0.044,0.162-0.09,0.236-0.134l0.157-0.092
	c0.238-0.14,0.477-0.277,0.724-0.411l0.042-0.022h0.004c0.03-0.015,0.065-0.033,0.088-0.043c0.406-0.216,0.821-0.424,1.228-0.619
	c0.083-0.04,0.167-0.077,0.254-0.114l0.192-0.087c0.302-0.138,0.604-0.273,0.907-0.4c0.12-0.053,0.242-0.101,0.365-0.149l0.181-0.07
	c0.252-0.103,0.505-0.201,0.759-0.293l0.623,2.059C31.124,13.993,30.919,14.074,30.711,14.157z M72.911,30.738
	c-0.048-0.138-0.097-0.28-0.148-0.422c-0.164-0.455-0.337-0.912-0.525-1.369l-0.011-0.017c-0.181-0.442-0.382-0.896-0.592-1.349
	c-0.062-0.131-0.127-0.26-0.188-0.383c-0.096-0.199-0.194-0.393-0.293-0.583l-0.131-0.256l-3.947,2.107l-0.192,0.105l-0.24,0.126
	l0.122,0.247c0.068,0.138,0.134,0.28,0.205,0.428c0.058,0.118,0.112,0.232,0.167,0.346c0.175,0.374,0.341,0.75,0.496,1.125
	c0.006,0.013,0.015,0.04,0.028,0.072c0.146,0.358,0.284,0.719,0.415,1.082c0.042,0.109,0.079,0.223,0.12,0.336
	c0.051,0.144,0.101,0.282,0.145,0.415l0.085,0.26l4.759-1.442l-0.09-0.273C73.033,31.109,72.975,30.923,72.911,30.738z
	 M63.486,35.911c0.099,0.376,0.188,0.756,0.267,1.132c0.009,0.046,0.021,0.092,0.03,0.138l0,0c0.088,0.448,0.16,0.896,0.221,1.344
	c0.005,0.035,0.011,0.068,0.016,0.103c0.004,0.013,0.004,0.024,0.009,0.037l0.343-0.035l4.046-0.398
	c-0.018-0.142-0.03-0.282-0.053-0.422c-0.013-0.103-0.028-0.203-0.043-0.304c-0.118-0.783-0.273-1.563-0.464-2.341
	c-0.026-0.114-0.057-0.223-0.087-0.337c-0.033-0.135-0.074-0.267-0.111-0.4l-2.757,0.833l-1.464,0.446
	c0.013,0.05,0.021,0.098,0.034,0.148C63.478,35.876,63.481,35.894,63.486,35.911z M65.234,36.346l1.622-0.492
	c0.103,0.452,0.192,0.911,0.271,1.366l-2.146,0.212c-0.026-0.164-0.057-0.319-0.088-0.472c-0.03-0.155-0.065-0.315-0.101-0.481
	L65.234,36.346z M14.979,45.682c0.059,0.375,0.12,0.747,0.194,1.121c0.002,0.009,0.005,0.02,0.005,0.028
	c0.078,0.394,0.168,0.785,0.267,1.176c0.021,0.096,0.048,0.192,0.071,0.289c0.038,0.145,0.081,0.291,0.121,0.435L18.38,47.9
	l1.475-0.448c-0.013-0.054-0.021-0.107-0.035-0.159c-0.043-0.171-0.078-0.341-0.117-0.512c-0.127-0.529-0.232-1.056-0.317-1.587
	c-0.028-0.186-0.067-0.372-0.094-0.56c-0.007-0.048-0.018-0.092-0.022-0.14l-0.889,0.087l-0.896,0.087l-2.605,0.258
	c0.016,0.12,0.028,0.243,0.046,0.365C14.941,45.421,14.959,45.552,14.979,45.682z M17.595,45.797l0.722-0.072
	c0.057,0.319,0.122,0.636,0.189,0.951l-2.067,0.627c-0.055-0.229-0.103-0.453-0.146-0.675l-0.004-0.024l-0.005-0.022
	c-0.039-0.203-0.079-0.416-0.118-0.645L17.595,45.797z M63.438,47.45l0.933,0.282l3.285,0.999c0.035-0.129,0.074-0.258,0.109-0.387
	c0.031-0.116,0.06-0.232,0.088-0.35c0.089-0.365,0.175-0.732,0.247-1.102l0.018-0.087c0.071-0.374,0.138-0.745,0.194-1.119
	c0.02-0.122,0.035-0.245,0.052-0.367c0.018-0.131,0.033-0.262,0.049-0.391l-4.042-0.4l-0.348-0.033
	c-0.006,0.046-0.017,0.092-0.021,0.135c-0.026,0.19-0.065,0.376-0.096,0.564c-0.086,0.534-0.192,1.062-0.315,1.587
	c-0.041,0.173-0.076,0.35-0.122,0.522C63.456,47.351,63.449,47.401,63.438,47.45z M64.975,45.725l2.15,0.212
	c-0.037,0.225-0.076,0.438-0.115,0.641l-0.009,0.046l-0.009,0.046c-0.044,0.206-0.088,0.413-0.138,0.634l-2.07-0.627
	C64.854,46.361,64.918,46.046,64.975,45.725z M74.636,44.11c0.015-0.208,0.032-0.416,0.046-0.629
	c0.009-0.138,0.018-0.28,0.026-0.426c0.02-0.479,0.035-0.962,0.035-1.442c0-0.011,0-0.026,0-0.048c0-0.024,0-0.042,0-0.052
	c0-0.47-0.016-0.938-0.035-1.406c-0.007-0.159-0.018-0.314-0.026-0.465c-0.011-0.201-0.028-0.4-0.042-0.592l-0.021-0.291
	l-4.951,0.488l0.022,0.275c0.009,0.144,0.018,0.295,0.026,0.45c0.004,0.126,0.013,0.247,0.018,0.365
	c0.017,0.413,0.03,0.822,0.03,1.233v0.026c0,0.404-0.014,0.811-0.03,1.217c-0.007,0.127-0.014,0.253-0.022,0.385
	c-0.009,0.153-0.013,0.299-0.026,0.439l-0.018,0.275l4.944,0.487L74.636,44.11z M74.426,37.041c-0.02-0.148-0.037-0.301-0.063-0.457
	c-0.07-0.47-0.15-0.938-0.242-1.408c-0.003-0.006-0.003-0.022-0.009-0.043c-0.095-0.481-0.206-0.959-0.321-1.438
	c-0.04-0.146-0.074-0.289-0.114-0.428c-0.052-0.208-0.111-0.409-0.166-0.608l-0.078-0.277l-4.757,1.442l0.074,0.267
	c0.037,0.136,0.07,0.278,0.109,0.424c0.035,0.133,0.07,0.264,0.101,0.389c0.097,0.402,0.188,0.802,0.267,1.2
	c0,0.004,0.005,0.02,0.009,0.04c0.079,0.396,0.145,0.793,0.206,1.191c0.018,0.109,0.032,0.221,0.048,0.337
	c0.021,0.157,0.048,0.308,0.065,0.457l0.033,0.271l2.367-0.231l2.579-0.253l-0.035-0.287C74.476,37.433,74.454,37.238,74.426,37.041
	z M69.55,45.032c-0.018,0.151-0.044,0.306-0.066,0.468c-0.018,0.116-0.032,0.225-0.05,0.332c-0.062,0.413-0.131,0.824-0.212,1.231
	l-0.002,0.011c-0.079,0.398-0.171,0.798-0.27,1.198c-0.026,0.118-0.061,0.238-0.092,0.363c-0.041,0.146-0.074,0.293-0.111,0.433
	l-0.076,0.267l4.761,1.442l0.074-0.279c0.055-0.188,0.109-0.379,0.161-0.573c0.037-0.151,0.079-0.3,0.118-0.454
	c0.109-0.459,0.217-0.921,0.309-1.388c0.006-0.026,0.011-0.055,0.018-0.083c0.094-0.468,0.172-0.938,0.244-1.407
	c0.024-0.162,0.046-0.319,0.065-0.472c0.029-0.199,0.051-0.396,0.072-0.588l0.035-0.287l-4.944-0.487L69.55,45.032z M12.048,24.963
	c0.087-0.155,0.188-0.312,0.283-0.479c0.109-0.188,0.215-0.372,0.324-0.551c0.17-0.28,0.345-0.555,0.524-0.833
	c0.113-0.172,0.219-0.341,0.328-0.5c0.205-0.306,0.419-0.605,0.636-0.907c0.099-0.133,0.188-0.267,0.277-0.389
	c0.319-0.426,0.647-0.848,0.983-1.261c0.236-0.287,0.487-0.568,0.739-0.857c0.249-0.282,0.505-0.564,0.765-0.841
	c0.997-1.06,2.062-2.072,3.204-3.008c0.396-0.319,0.801-0.636,1.211-0.944c1.352-1.007,2.789-1.93,4.323-2.75
	c0.014-0.006,0.04-0.02,0.075-0.037c0.452-0.24,0.904-0.468,1.359-0.684c0.152-0.074,0.314-0.142,0.482-0.219
	c0.324-0.148,0.646-0.293,0.973-0.431c0.187-0.076,0.381-0.153,0.577-0.231c0.3-0.118,0.597-0.234,0.892-0.343
	c0.201-0.072,0.402-0.142,0.608-0.212c0.177-0.061,0.347-0.125,0.511-0.182l0.263-0.085L31.212,8.64l-1.272-4.186l-0.271,0.09
	c-2.164,0.702-4.291,1.598-6.365,2.704l-0.02,0.011l-0.007,0.006c-2.284,1.22-4.391,2.64-6.325,4.225
	c-1.996,1.635-3.799,3.445-5.396,5.39c-1.476,1.801-2.773,3.718-3.893,5.725l-0.143,0.249l4.392,2.35L12.048,24.963z M49.288,6.509
	H34.029l7.63,10.577L49.288,6.509z M39.505,9.311h4.31l-2.157,2.986L39.505,9.311z M52.169,9.307c0.166,0.055,0.338,0.12,0.52,0.184
	c0.21,0.072,0.413,0.142,0.616,0.214c0.302,0.111,0.608,0.231,0.912,0.354c0.192,0.076,0.38,0.148,0.562,0.225
	c0.337,0.14,0.669,0.289,1.001,0.444c0.153,0.07,0.306,0.135,0.448,0.201c0.479,0.228,0.953,0.463,1.421,0.713
	c1.949,1.042,3.805,2.275,5.532,3.696c1.702,1.395,3.282,2.966,4.708,4.708c0.327,0.402,0.651,0.817,0.966,1.239
	c0.09,0.121,0.179,0.251,0.275,0.385c0.214,0.297,0.424,0.592,0.629,0.894c0.116,0.168,0.226,0.343,0.342,0.522
	c0.177,0.271,0.35,0.542,0.518,0.817c0.113,0.186,0.226,0.376,0.334,0.568c0.104,0.17,0.204,0.33,0.293,0.492l0.136,0.24
	l2.166-1.156l2.228-1.191l-0.14-0.251c-1.147-2.055-2.457-3.96-3.897-5.718c-1.637-1.998-3.444-3.799-5.395-5.399
	c-1.982-1.628-4.111-3.044-6.35-4.236c-2.039-1.091-4.175-1.998-6.367-2.708l-0.272-0.09l-1.447,4.767L52.169,9.307z M72.459,26.692
	c0.065,0.138,0.133,0.269,0.198,0.407c0.215,0.465,0.427,0.935,0.621,1.405c0.004,0.015,0.009,0.028,0.016,0.039
	c0.189,0.459,0.364,0.925,0.535,1.388c0.053,0.146,0.101,0.293,0.148,0.437c0.072,0.201,0.145,0.4,0.21,0.601l0.196-0.059
	l4.031-1.224c-0.628-1.93-1.41-3.834-2.363-5.694l-3.893,2.081C72.264,26.276,72.36,26.486,72.459,26.692z M75.556,25.54
	c0.522,1.108,0.992,2.247,1.407,3.403L74.9,29.57c-0.003-0.009-0.005-0.018-0.009-0.026c-0.192-0.531-0.372-0.999-0.551-1.432
	l-0.005-0.011l-0.004-0.018l-0.007-0.011c-0.184-0.444-0.394-0.918-0.645-1.454c-0.009-0.022-0.018-0.042-0.026-0.063L75.556,25.54z
	 M8.874,46.149c0.018,0.133,0.032,0.267,0.057,0.407c0.146,0.973,0.337,1.945,0.577,2.907c0.035,0.153,0.076,0.302,0.113,0.448
	c0.053,0.199,0.109,0.393,0.164,0.588l0.079,0.279l4.758-1.444l-0.074-0.267c-0.042-0.146-0.079-0.301-0.118-0.459
	c-0.032-0.116-0.062-0.229-0.087-0.341c-0.101-0.404-0.192-0.811-0.275-1.213c0-0.007-0.003-0.02-0.005-0.031
	c-0.078-0.4-0.145-0.793-0.205-1.187c-0.018-0.122-0.035-0.245-0.053-0.374c-0.021-0.148-0.044-0.293-0.062-0.431l-0.035-0.275
	l-4.526,0.446l-0.133,0.013l-0.286,0.028l0.032,0.287C8.821,45.734,8.843,45.939,8.874,46.149z M9.324,30.351
	c0.048-0.146,0.098-0.295,0.152-0.441c0.169-0.468,0.346-0.933,0.538-1.395c0.004-0.015,0.013-0.035,0.021-0.052
	c0.192-0.461,0.396-0.92,0.608-1.375c0.069-0.146,0.14-0.289,0.209-0.435c0.095-0.194,0.184-0.389,0.282-0.579l-0.807-0.431
	l-3.086-1.65c-0.938,1.836-1.727,3.74-2.36,5.694l4.225,1.281C9.176,30.762,9.25,30.556,9.324,30.351z M8.968,28.082l-0.002,0.002
	c-0.187,0.455-0.367,0.925-0.554,1.438c-0.006,0.015-0.011,0.03-0.017,0.046l-2.062-0.625c0.411-1.152,0.883-2.289,1.407-3.403
	l1.902,1.019c-0.009,0.015-0.018,0.033-0.022,0.05c-0.24,0.507-0.445,0.97-0.632,1.42L8.968,28.082z M7.75,36.908
	c0.022-0.17,0.044-0.341,0.07-0.511c0.076-0.499,0.159-0.992,0.258-1.488c0.002-0.007,0.004-0.016,0.004-0.022
	c0.101-0.5,0.215-0.995,0.335-1.486c0.035-0.142,0.072-0.284,0.111-0.424c0.057-0.218,0.107-0.437,0.166-0.653l-3.751-1.137
	l-0.472-0.144c-0.56,1.978-0.962,4-1.202,6.045l4.394,0.435C7.687,37.316,7.72,37.111,7.75,36.908z M7.317,33.129
	c-0.14,0.566-0.254,1.066-0.35,1.561c-0.092,0.463-0.18,0.966-0.267,1.537c-0.005,0.02-0.007,0.042-0.009,0.061l-2.146-0.212
	c0.182-1.213,0.42-2.422,0.717-3.611l2.063,0.625C7.324,33.105,7.322,33.116,7.317,33.129z M74.765,32.958
	c0.044,0.155,0.087,0.31,0.122,0.465c0.122,0.496,0.236,0.992,0.337,1.493c0,0.009,0.004,0.02,0.004,0.029
	c0.099,0.494,0.182,0.988,0.258,1.484c0.022,0.146,0.04,0.295,0.062,0.441c0.03,0.216,0.065,0.433,0.09,0.651l4.396-0.435
	c-0.236-2.024-0.636-4.048-1.207-6.048l-4.225,1.283C74.659,32.532,74.712,32.746,74.765,32.958z M78.034,32.464
	c0.298,1.187,0.542,2.396,0.722,3.611l-2.146,0.212c0-0.009-0.005-0.02-0.005-0.028c-0.087-0.564-0.175-1.064-0.262-1.513
	l-0.009-0.037v-0.015c-0.097-0.474-0.21-0.977-0.348-1.541c-0.005-0.022-0.011-0.043-0.016-0.063L78.034,32.464z M32.593,9.296
	L32.593,9.296l1.692,5.578l0.638,2.103l0.8,2.634l0.053,0.179c0.079-0.022,0.157-0.04,0.231-0.059
	c0.125-0.031,0.25-0.062,0.372-0.092c0.041-0.011,0.083-0.02,0.122-0.028c0.175-0.042,0.354-0.081,0.531-0.118
	c0.125-0.026,0.252-0.053,0.376-0.077c0.226-0.046,0.452-0.081,0.68-0.118c0.114-0.017,0.226-0.037,0.337-0.055
	c0.337-0.048,0.669-0.089,1.005-0.122c0,0,0-0.002,0.003-0.002c0.736-0.074,1.471-0.109,2.203-0.109c0.745,0,1.488,0.04,2.223,0.112
	l0,0h0.002c0.009,0,0.016,0.004,0.026,0.004c0.33,0.033,0.662,0.074,0.992,0.122c0.111,0.018,0.226,0.037,0.337,0.055
	c0.229,0.035,0.457,0.077,0.687,0.12c0.124,0.022,0.247,0.048,0.369,0.075c0.171,0.035,0.341,0.074,0.509,0.114
	c0.051,0.011,0.101,0.021,0.151,0.035c0.118,0.028,0.236,0.057,0.354,0.087c0.077,0.018,0.155,0.035,0.232,0.057l0.055-0.179
	l0.721-2.376l0.715-2.354c0-0.002,0-0.004,0-0.007l1.574-5.182L50.7,9.3l1.485-4.896c-2.203-0.623-4.465-1.053-6.751-1.278
	c-1.264-0.127-2.536-0.19-3.81-0.19c-1.253,0-2.51,0.059-3.767,0.184c-2.26,0.225-4.518,0.647-6.752,1.281l0.734,2.417L32.593,9.296
	z M37.97,4.245c1.198-0.116,2.427-0.177,3.655-0.177c1.232,0,2.479,0.061,3.698,0.184c1.833,0.182,3.658,0.499,5.438,0.946
	l-1.146,3.775l-0.118,0.389l-1.573,5.191l-0.715,2.354l-0.466,1.535c-0.078-0.018-0.161-0.037-0.244-0.055
	c-0.127-0.024-0.254-0.05-0.387-0.077c-0.238-0.046-0.479-0.087-0.72-0.127l-0.124-0.02c-0.077-0.013-0.151-0.024-0.229-0.037
	c-0.376-0.052-0.718-0.094-1.067-0.131c-0.771-0.076-1.558-0.118-2.336-0.118c-0.78,0-1.559,0.039-2.319,0.116
	c-0.325,0.033-0.669,0.077-1.058,0.131c-0.07,0.011-0.145,0.021-0.219,0.035l-0.129,0.022c-0.24,0.037-0.479,0.079-0.711,0.123
	c-0.131,0.024-0.258,0.05-0.397,0.081c-0.085,0.018-0.168,0.035-0.253,0.055l-0.543-1.792l-0.638-2.099l-1.691-5.58l-0.752-2.479
	l-0.394-1.298C34.313,4.743,36.139,4.426,37.97,4.245z M62.498,66.985L62.498,66.985L62.498,66.985l-3.624-4.417l-0.881-1.071
	l-0.929-1.134l-1.298-1.583l-0.232-0.279c0.33-0.275,0.651-0.56,0.967-0.853c0.537-0.503,1.053-1.032,1.541-1.587
	c0.163-0.186,0.327-0.372,0.484-0.562c0.153-0.187,0.3-0.379,0.444-0.568c0.394-0.512,0.763-1.041,1.11-1.585
	c0.236-0.371,0.459-0.748,0.671-1.135c0.05-0.09,0.104-0.177,0.155-0.271c0.229-0.429,0.437-0.868,0.638-1.312
	c0.171-0.371,0.328-0.752,0.475-1.135c0.192-0.494,0.372-0.994,0.526-1.508c0.007-0.024,0.014-0.05,0.022-0.074
	c0.109-0.374,0.21-0.752,0.302-1.132c0.127-0.522,0.231-1.049,0.318-1.587c0.062-0.374,0.114-0.75,0.158-1.132
	c0.009-0.092,0.021-0.182,0.03-0.273c0.044-0.433,0.07-0.87,0.087-1.309c0.009-0.275,0.018-0.553,0.018-0.831
	c0-0.103-0.004-0.201-0.004-0.302c-0.009-0.533-0.035-1.062-0.079-1.584c-0.009-0.085-0.011-0.171-0.021-0.256
	c-0.026-0.295-0.065-0.588-0.104-0.879c-0.075-0.535-0.171-1.06-0.282-1.584c-0.085-0.38-0.175-0.758-0.278-1.132
	c-0.052-0.201-0.104-0.404-0.166-0.603c-0.101-0.33-0.209-0.656-0.323-0.981c-0.138-0.38-0.284-0.758-0.441-1.132
	c-0.228-0.54-0.477-1.066-0.747-1.584c-0.042-0.085-0.083-0.173-0.127-0.258c-0.16-0.295-0.326-0.585-0.496-0.872
	c-0.326-0.544-0.676-1.073-1.045-1.584c-0.269-0.376-0.547-0.745-0.84-1.1c-0.011-0.013-0.02-0.021-0.028-0.035
	c-0.456-0.551-0.939-1.082-1.446-1.585c-0.394-0.393-0.809-0.767-1.233-1.132c-0.106-0.09-0.21-0.184-0.319-0.275
	c-0.565-0.466-1.158-0.903-1.77-1.31c-0.577-0.382-1.172-0.741-1.786-1.071c-0.042-0.02-0.081-0.04-0.12-0.061
	c-1.218-0.641-2.498-1.172-3.836-1.578c-0.007-0.002-0.016-0.002-0.02-0.007c-1.345-0.404-2.743-0.684-4.182-0.824
	c-0.701-0.07-1.414-0.107-2.14-0.105c-0.722-0.002-1.438,0.035-2.138,0.105c-1.44,0.14-2.837,0.422-4.179,0.824
	c-0.009,0.004-0.016,0.004-0.022,0.007c-1.338,0.406-2.618,0.938-3.834,1.578c-0.039,0.024-0.083,0.042-0.122,0.063
	c-0.612,0.328-1.209,0.687-1.786,1.069c-0.611,0.407-1.204,0.844-1.772,1.31c-0.106,0.092-0.21,0.186-0.318,0.275
	c-0.425,0.365-0.838,0.739-1.233,1.132c-0.505,0.503-0.987,1.034-1.442,1.585c-0.009,0.013-0.02,0.024-0.03,0.035
	c-0.293,0.354-0.568,0.726-0.84,1.1c-0.367,0.512-0.719,1.041-1.045,1.584c-0.17,0.287-0.336,0.577-0.493,0.872
	c-0.046,0.085-0.088,0.173-0.132,0.258c-0.269,0.518-0.518,1.044-0.745,1.584c-0.157,0.374-0.304,0.752-0.439,1.132
	c-0.115,0.326-0.225,0.653-0.325,0.983c-0.06,0.199-0.111,0.4-0.166,0.601c-0.104,0.374-0.195,0.752-0.278,1.132
	c-0.109,0.524-0.205,1.049-0.279,1.584c-0.039,0.291-0.079,0.584-0.109,0.879c-0.007,0.085-0.009,0.17-0.018,0.256
	c-0.044,0.522-0.07,1.051-0.079,1.584c-0.002,0.101-0.008,0.199-0.008,0.302c0,0.277,0.011,0.555,0.021,0.831
	c0.018,0.439,0.044,0.876,0.083,1.309c0.011,0.092,0.026,0.182,0.035,0.273c0.044,0.382,0.096,0.758,0.157,1.132
	c0.087,0.538,0.192,1.064,0.316,1.587c0.092,0.38,0.19,0.758,0.305,1.132c0.006,0.024,0.013,0.048,0.02,0.074
	c0.155,0.514,0.334,1.014,0.526,1.508c0.148,0.383,0.306,0.764,0.473,1.135c0.2,0.443,0.41,0.883,0.643,1.312
	c0.048,0.094,0.103,0.181,0.152,0.271c0.215,0.387,0.438,0.764,0.674,1.135c0.345,0.544,0.714,1.073,1.105,1.585
	c0.148,0.189,0.293,0.382,0.446,0.57c0.157,0.19,0.321,0.374,0.485,0.56c0.487,0.555,1.001,1.084,1.543,1.587
	c0.312,0.293,0.634,0.577,0.964,0.85l-0.231,0.282l-1.301,1.583l-0.171,0.21L25.3,61.497l-0.881,1.071l-3.624,4.42l-2.146,2.613
	l-1.124,1.371l-0.002,0.002l-0.362,0.441l0.45,0.358c0.437,0.348,0.883,0.685,1.333,1.012c0.479,0.348,0.968,0.688,1.462,1.015
	c0.503,0.33,1.015,0.653,1.535,0.962c0.433,0.256,0.869,0.498,1.307,0.736c0.074,0.037,0.142,0.081,0.214,0.118
	c0.005,0.002,0.005,0.002,0.005,0.004c0.013,0.005,0.021,0.012,0.026,0.012c0,0,0,0,0.002,0.002
	c0.649,0.343,1.305,0.664,1.965,0.971c0.535,0.244,1.077,0.484,1.626,0.708l0.002,0.002c0.514,0.208,1.03,0.404,1.55,0.59
	c0.049,0.018,0.097,0.037,0.145,0.057c0.551,0.195,1.104,0.379,1.665,0.551l0.009,0.003l0.018,0.004l0,0
	c0.586,0.177,1.177,0.332,1.767,0.479c0.115,0.028,0.231,0.06,0.345,0.09c0.577,0.138,1.154,0.265,1.738,0.378
	c0.592,0.114,1.187,0.217,1.785,0.304c0.27,0.04,0.54,0.066,0.81,0.101c0.314,0.04,0.629,0.086,0.948,0.118h0.009
	c0.004,0,0.007,0,0.011,0h0.007c0.712,0.072,1.44,0.116,2.168,0.146c0.529,0.024,1.064,0.04,1.604,0.04
	c0.083,0,0.14-0.005,0.175-0.005l0,0c0.383,0,0.768-0.018,1.149-0.033c0.224-0.004,0.441-0.004,0.66-0.015
	c0.473-0.024,0.944-0.063,1.416-0.103c0.107-0.009,0.215-0.014,0.319-0.024c0.014,0,0.026,0,0.037-0.002l0.002-0.002h0.005
	c0.726-0.072,1.449-0.169,2.168-0.28c0.221-0.037,0.441-0.081,0.66-0.12c0.363-0.062,0.728-0.12,1.091-0.194h0.004
	c0.348-0.072,0.693-0.157,1.041-0.238c0.24-0.055,0.483-0.103,0.724-0.164c0.203-0.051,0.406-0.114,0.609-0.168
	c0.369-0.099,0.736-0.195,1.104-0.307v-0.002h0.002l0.011-0.002c0.138-0.042,0.271-0.09,0.408-0.132
	c0.291-0.094,0.58-0.189,0.868-0.288c0.263-0.092,0.524-0.184,0.785-0.277c0.246-0.092,0.496-0.194,0.742-0.291
	c0.305-0.118,0.61-0.231,0.914-0.358c0.002,0,0.002,0,0.002,0c0.221-0.094,0.439-0.199,0.66-0.295
	c0.332-0.146,0.665-0.286,0.992-0.443c0.531-0.252,1.061-0.517,1.585-0.796c0.002-0.002,0.002-0.002,0.005-0.002c0,0,0,0,0.002,0
	c0,0,0-0.003,0.002-0.005l0,0c0.002-0.002,0.007-0.002,0.011-0.002v-0.002c0.162-0.088,0.315-0.175,0.475-0.265
	c0.483-0.269,0.953-0.54,1.409-0.817c0.123-0.074,0.241-0.155,0.361-0.232c0.382-0.238,0.765-0.479,1.139-0.728
	c0-0.002,0.002-0.002,0.004-0.004c0.501-0.339,0.992-0.687,1.472-1.043c0.129-0.096,0.255-0.196,0.387-0.293
	c0.205-0.155,0.413-0.308,0.618-0.472l0.45-0.356l-0.364-0.446L62.498,66.985z M54.815,57.624l-1.283-1.562h2.969
	C55.968,56.612,55.407,57.135,54.815,57.624z M57.652,54.78c-0.041,0.051-0.087,0.101-0.129,0.151h-4.118
	c0.547-0.496,1.059-1.027,1.539-1.585h3.781C58.387,53.839,58.03,54.319,57.652,54.78z M44.614,45.194L44,44.446l-0.08-0.098
	c0.092-0.087,0.175-0.186,0.253-0.286c0.341-0.431,0.573-0.956,0.656-1.528h10.332c-0.035,0.52-0.099,1.027-0.19,1.528
	c-0.07,0.384-0.153,0.763-0.254,1.132c-0.148,0.544-0.327,1.073-0.537,1.587c-0.16,0.387-0.337,0.763-0.529,1.132
	c-0.288,0.551-0.616,1.08-0.975,1.582c-0.28,0.396-0.582,0.773-0.9,1.135c-0.464,0.522-0.967,1.01-1.504,1.455l-1.196-1.455
	l-0.371-0.455l-0.558-0.68l-1.303-1.582l-0.8-0.977l-0.129-0.155l-0.759-0.924l0,0L44.614,45.194z M38.833,40.512
	c-0.142,0.258-0.251,0.54-0.316,0.835c-0.005,0.02-0.011,0.037-0.016,0.055H28.108c0-0.018,0-0.035,0-0.055
	c0.013-0.536,0.057-1.067,0.129-1.584c0.004-0.029,0.006-0.055,0.011-0.081v0.831H38.833z M38.466,42.534
	c0.083,0.572,0.315,1.097,0.656,1.528c0.078,0.1,0.161,0.196,0.251,0.286l-0.568,0.691l-0.126,0.155l-0.204,0.247l-1.097,1.34
	l-0.356,0.433l-0.572,0.7l-0.527,0.64l-0.773,0.942L34.22,50.63l-1.198,1.455c-0.538-0.445-1.04-0.933-1.504-1.455
	c-0.319-0.361-0.618-0.738-0.9-1.135c-0.358-0.502-0.684-1.031-0.975-1.582c-0.192-0.37-0.367-0.746-0.527-1.132
	c-0.212-0.514-0.391-1.042-0.537-1.587c-0.101-0.369-0.186-0.748-0.256-1.132c-0.09-0.501-0.153-1.008-0.188-1.528H38.466z
	 M28.296,39.38c0.044-0.251,0.097-0.502,0.151-0.752c0.094-0.402,0.203-0.8,0.33-1.189v1.051h25.927v-0.439
	c0.053,0.192,0.101,0.382,0.145,0.577c0.057,0.25,0.104,0.5,0.148,0.752H43.408c-0.507-0.33-1.11-0.527-1.762-0.527
	s-1.255,0.197-1.76,0.527H28.296z M54.162,36.471c0.078,0.19,0.152,0.38,0.223,0.573c0.037,0.105,0.07,0.212,0.107,0.317H28.803
	c0.035-0.105,0.07-0.212,0.107-0.317c0.12-0.328,0.251-0.647,0.396-0.964v0.391H54.162z M49.196,30.405
	c0.034,0.024,0.069,0.05,0.104,0.074c0.369,0.254,0.726,0.527,1.069,0.815H32.926c0.343-0.289,0.699-0.562,1.068-0.815
	c0.035-0.024,0.07-0.05,0.107-0.074H49.196z M36.151,29.275c0.309-0.14,0.621-0.267,0.942-0.38c0.588-0.212,1.193-0.385,1.816-0.511
	h5.478c0.62,0.126,1.229,0.299,1.813,0.511c0.319,0.114,0.634,0.241,0.942,0.38H36.151z M51.557,32.427
	c0.231,0.247,0.452,0.502,0.664,0.767c0.031,0.042,0.063,0.081,0.097,0.123H30.98c0.03-0.042,0.061-0.081,0.094-0.123
	c0.212-0.265,0.433-0.52,0.662-0.767H51.557z M53.112,34.449c0.184,0.288,0.354,0.585,0.517,0.889h-23.96
	c0.157-0.304,0.332-0.601,0.511-0.889H53.112z M55.141,40.512c0.024,0.277,0.04,0.555,0.044,0.835
	c0.002,0.02,0.002,0.037,0.002,0.055H44.794c-0.005-0.018-0.009-0.035-0.014-0.055c-0.069-0.295-0.177-0.577-0.318-0.835H55.141z
	 M59.91,51.408c-0.148,0.272-0.302,0.54-0.459,0.804h-3.608c0.369-0.507,0.715-1.035,1.029-1.582h3.43
	C60.173,50.892,60.046,51.152,59.91,51.408z M60.807,49.495h-3.329c0.252-0.513,0.475-1.042,0.676-1.582h3.226
	C61.209,48.451,61.021,48.978,60.807,49.495z M61.707,46.781h-3.183c0.153-0.52,0.284-1.049,0.39-1.587h3.125
	C61.949,45.731,61.838,46.261,61.707,46.781z M62.251,43.677c-0.011,0.129-0.032,0.255-0.046,0.385h-3.107
	c0.067-0.521,0.113-1.049,0.135-1.583h3.098C62.314,42.881,62.291,43.281,62.251,43.677z M62.262,39.763
	c0.049,0.522,0.075,1.051,0.083,1.584h-3.104c-0.011-0.533-0.043-1.064-0.103-1.584H62.262z M61.829,37.043
	c0.12,0.524,0.224,1.049,0.302,1.584h-3.156c-0.096-0.535-0.214-1.064-0.354-1.584H61.829z M61.012,34.327
	c0.162,0.433,0.315,0.868,0.45,1.309c0.026,0.09,0.051,0.186,0.077,0.275h-3.271c-0.186-0.54-0.399-1.066-0.636-1.584H61.012z
	 M59.751,31.61c0.053,0.094,0.106,0.186,0.159,0.277c0.228,0.426,0.436,0.863,0.634,1.307h-3.479c-0.3-0.546-0.63-1.073-0.983-1.584
	H59.751z M57.947,28.895c0.4,0.509,0.776,1.036,1.128,1.584H55.23c-0.457-0.56-0.95-1.086-1.471-1.584H57.947z M57.001,27.761
	h-4.544c-0.134-0.103-0.267-0.208-0.4-0.311v-0.199h-0.281c-0.545-0.389-1.11-0.748-1.701-1.076h5.325
	C55.959,26.674,56.496,27.203,57.001,27.761z M35.636,21.833c1.281-0.385,2.609-0.656,3.982-0.789
	c0.669-0.065,1.347-0.098,2.028-0.098c0.687,0,1.361,0.033,2.032,0.098c1.369,0.133,2.702,0.402,3.979,0.789
	c0.483,0.146,0.957,0.315,1.423,0.494H34.215C34.683,22.148,35.155,21.979,35.636,21.833z M31.758,23.459h19.781
	c0.863,0.472,1.691,1.001,2.475,1.585h-6.4c-1.919-0.706-3.991-1.093-6.155-1.093c-2.163,0-4.235,0.387-6.154,1.093h-6.024
	C30.064,24.46,30.893,23.931,31.758,23.459z M27.898,26.176h4.944c-0.84,0.466-1.636,0.997-2.383,1.585h-4.166
	C26.799,27.203,27.334,26.674,27.898,26.176z M25.346,28.895h3.812c-0.521,0.499-1.015,1.025-1.474,1.584h-3.462
	C24.571,29.931,24.947,29.404,25.346,28.895z M23.387,31.887c0.051-0.092,0.105-0.184,0.157-0.277h3.292
	c-0.354,0.511-0.685,1.038-0.983,1.584h-3.1C22.95,32.75,23.159,32.313,23.387,31.887z M21.833,35.636
	c0.136-0.441,0.288-0.876,0.452-1.309h2.999c-0.236,0.518-0.45,1.044-0.636,1.584h-2.892C21.782,35.822,21.807,35.726,21.833,35.636
	z M21.468,37.043h2.828c-0.14,0.52-0.26,1.049-0.354,1.584h-2.776C21.245,38.093,21.348,37.568,21.468,37.043z M21.035,39.763h2.741
	c-0.058,0.52-0.09,1.051-0.101,1.584h-2.724C20.959,40.814,20.987,40.285,21.035,39.763z M21.044,43.677
	c-0.039-0.396-0.062-0.796-0.079-1.198h2.72c0.021,0.533,0.067,1.062,0.135,1.583h-2.728C21.076,43.933,21.057,43.806,21.044,43.677
	z M21.59,46.781c-0.133-0.52-0.242-1.049-0.336-1.587h2.749c0.105,0.538,0.236,1.067,0.39,1.587H21.59z M22.486,49.495
	c-0.21-0.516-0.397-1.044-0.57-1.582h2.848c0.201,0.54,0.424,1.069,0.674,1.582H22.486z M23.844,52.212
	c-0.157-0.264-0.311-0.531-0.457-0.804c-0.138-0.256-0.267-0.519-0.394-0.778h3.052c0.314,0.547,0.657,1.075,1.029,1.582H23.844z
	 M25.771,54.932c-0.042-0.051-0.085-0.101-0.129-0.151c-0.38-0.461-0.734-0.941-1.073-1.434h3.403
	c0.48,0.558,0.992,1.089,1.539,1.585H25.771z M26.792,56.062h2.969l-1.281,1.562C27.888,57.135,27.325,56.612,26.792,56.062z
	 M20.559,72.54c-0.277-0.19-0.553-0.385-0.826-0.584c-0.042-0.028-0.083-0.057-0.122-0.085c-0.263-0.188-0.517-0.381-0.774-0.577
	c-0.021-0.018-0.043-0.033-0.069-0.053l2.277-2.773l0.625-0.763l3.624-4.415l1.471-1.793l0.929-1.134l0.96-1.168l0.269-0.325
	l0.072-0.09l0.02-0.023l0.358-0.439l0.551-0.669l1.181-1.438l0.122-0.148l0.149-0.18l0.089-0.109l0.365-0.447l0.323-0.394
	l0.236-0.289L32.2,54.932l-0.298,0.448l-0.316,0.479l-0.134,0.203l-0.179,0.269l-0.87,1.318l-0.302,0.454l-0.328,0.499l-0.118,0.179
	l-0.194,0.293l-0.312,0.473l-0.542,0.817l-0.748,1.134l-7.296,11.036L20.559,72.54z M23.526,74.364
	c-0.336-0.186-0.673-0.378-1.01-0.576c-0.339-0.201-0.677-0.409-1.014-0.626l0.007-0.009l7.706-11.656l0.75-1.134l0.127-0.192
	l0.312-0.473l0.312-0.472l0.293-0.446l0.75-1.132l0.459-0.695l0.312-0.472l0.277-0.42L32.849,56l0.708-1.068l0.481-0.729
	l0.312-0.472l0.254-0.385l0.062-0.096l0.687-1.039l0.077-0.115l-0.063,0.115l-0.588,1.104l-0.018,0.03l-0.254,0.475l-0.267,0.498
	l-0.326,0.612l-0.605,1.13l-0.083,0.157l-0.271,0.507l-0.267,0.499l-0.228,0.424l-0.604,1.132l-0.456,0.853l-0.187,0.348l-0.08,0.15
	l-0.125,0.232l-0.143,0.269l-0.463,0.865l-6.874,12.861L23.526,74.364z M26.998,76.039l-0.005,0.009
	c-0.345-0.146-0.687-0.3-1.027-0.457c-0.011-0.004-0.021-0.009-0.035-0.016c-0.415-0.192-0.826-0.393-1.234-0.599
	c-0.055-0.026-0.111-0.053-0.168-0.081l0,0v-0.004l7.16-13.395l0.179-0.332l0.267-0.498l0.162-0.304l0.104-0.195l0.739-1.388
	l0.551-1.025l0.057-0.106l0.21-0.392l0.269-0.507l0.37-0.688l0.603-1.13l0.04-0.077l0.267-0.498l0.271-0.505l0.271-0.505
	l0.603-1.135l0.326-0.605l-0.002,0.01l-0.245,0.596l-0.463,1.135l-0.252,0.614l-0.216,0.529l-0.18,0.441l-0.035,0.083l-0.428,1.047
	l-0.381,0.938l-0.219,0.531l-0.048,0.118l-0.166,0.406l-0.297,0.726l-0.647,1.583l-0.092,0.231l-0.214,0.522l-0.155,0.38
	l-0.06,0.145l-0.756,1.852L26.998,76.039z M30.261,77.257l-0.002,0.011c-0.367-0.12-0.734-0.243-1.1-0.374
	c-0.374-0.134-0.747-0.271-1.117-0.418H28.04l0.002-0.008l5.885-14.397l0.214-0.525l0.018-0.048l0.194-0.477l0.269-0.657
	l0.647-1.583l0.125-0.304l0.214-0.524l0.124-0.304l0.092-0.229l0.556-1.357l0.254-0.614l0.209-0.516l0.003-0.009l0.113-0.28
	l0.103-0.251l0.429-1.045l0.096-0.234l-0.071,0.234l-0.33,1.086l-0.151,0.499l-0.016,0.05l-0.163,0.54l-0.164,0.54l-0.455,1.497
	l-0.026,0.09l-0.14,0.459l-0.164,0.542l-0.039,0.131l-0.177,0.577l-0.304,1.006l-0.28,0.922l-0.063,0.212l-0.101,0.332l-0.166,0.543
	L30.261,77.257z M33.983,78.233v0.009c-0.332-0.07-0.665-0.146-0.997-0.228c-0.046-0.009-0.092-0.018-0.136-0.028
	c-0.441-0.109-0.881-0.223-1.315-0.343c-0.065-0.018-0.131-0.033-0.194-0.051l0,0l0.002-0.004l4.221-13.917l0.295-0.975l0.166-0.54
	l0.164-0.542l0.037-0.118l0.341-1.134l0.425-1.393l0.057-0.19l0.106-0.35l0.167-0.549l0.069-0.233l0.481-1.587l0.062-0.21
	l0.167-0.54l0.113-0.38l0.053-0.169l0.428-1.416l0.309-1.012l-0.196,1.012l-0.287,1.476l-0.021,0.109l-0.088,0.454l-0.106,0.554
	l-0.024,0.122l-0.306,1.587l-0.072,0.367l-0.109,0.562l-0.039,0.203l-0.068,0.353l-0.238,1.23l-0.221,1.134l-0.067,0.358
	l-0.107,0.556l-0.109,0.555L33.983,78.233z M37.422,78.793V78.8l0,0c-0.381-0.044-0.768-0.095-1.152-0.149
	c-0.392-0.059-0.782-0.122-1.176-0.191l0.002-0.009l2.957-15.27l0.109-0.556l0.107-0.555l0.111-0.573l0.219-1.134l0.199-1.023
	l0.106-0.558l0.002-0.002l0.107-0.56l0.111-0.572l0.289-1.491l0.02-0.096l0.087-0.459l0.109-0.562l0.022-0.109l0.242-1.251l0,0
	l-0.124,1.251l-0.012,0.127l-0.055,0.565l-0.043,0.438l-0.014,0.127l-0.144,1.46l-0.062,0.627l-0.051,0.505l-0.006,0.063
	l-0.055,0.562l-0.095,0.958l-0.113,1.134l-0.065,0.687l-0.057,0.563l-0.055,0.562L37.422,78.793z M41.267,79.04L41.267,79.04
	c-0.385-0.005-0.774-0.02-1.161-0.035c-0.461-0.018-0.92-0.048-1.375-0.083c-0.061-0.004-0.122-0.007-0.182-0.011v-0.005
	l1.523-15.485l0.058-0.564l0.057-0.563l0.076-0.796l0.111-1.134l0.086-0.854l0.055-0.564l0.017-0.164l0.04-0.399l0.072-0.732
	l0.133-1.349l0.022-0.238l0.032-0.326l0.055-0.565l0.026-0.238l0.153-1.585l0.069-0.706v-0.005l0.005,0.711l0.009,1.585v0.249
	l0.004,0.568v0.312l0.002,0.254l0.007,1.333l0.005,0.749v0.383l0.002,0.184l0.002,0.566l0.005,0.833l0.004,1.134l0.004,0.844
	l0.005,0.566l0.002,0.566l0.077,15.56V79.04z M42.18,42.226l-0.004-0.004l0,0v-0.002l-0.046-0.055l-0.037-0.046l-0.024-0.026
	l-0.111-0.125l-0.328-0.365l-0.302,0.365l-0.15,0.182l-0.057,0.07l-0.012,0.013l-0.041,0.052l0,0l-0.063,0.074l0,0l-0.07,0.087
	l-0.026,0.033l-0.046,0.055l-0.039,0.048v0.002l-0.115,0.138h0.002l0,0l-0.002,0.002v-0.002l-0.101,0.122l-0.049,0.063h-0.002
	l-0.101,0.125l-0.101,0.123h-0.002l-0.249,0.306c-0.234-0.26-0.404-0.575-0.485-0.927c-0.005-0.018-0.011-0.038-0.014-0.055
	c-0.025-0.133-0.043-0.267-0.043-0.407c0-0.037,0.009-0.068,0.013-0.105c0.009-0.197,0.048-0.385,0.109-0.566
	c0.005-0.018,0.009-0.037,0.018-0.055c0.12-0.326,0.319-0.61,0.575-0.835c0.367-0.324,0.841-0.524,1.37-0.527
	c0.529,0.002,1.005,0.203,1.372,0.527c0.254,0.225,0.455,0.509,0.577,0.835c0.005,0.018,0.009,0.037,0.016,0.055
	c0.062,0.181,0.101,0.369,0.111,0.566c0,0.037,0.009,0.068,0.009,0.105c0,0.14-0.013,0.273-0.039,0.407
	c-0.005,0.017-0.011,0.037-0.018,0.055c-0.079,0.352-0.249,0.667-0.483,0.927l-0.048-0.059l-0.142-0.175l-0.18-0.217l-0.044-0.052
	c0,0,0,0,0-0.002l0,0l-0.092-0.109l-0.067-0.085l-0.146-0.175v-0.002l-0.039-0.05l-0.049-0.055l-0.004-0.007l-0.074-0.092
	L42.241,42.3L42.18,42.226z M44.746,78.915c-0.385,0.031-0.77,0.057-1.154,0.074c-0.397,0.022-0.796,0.037-1.193,0.042v-0.009
	l-0.079-15.556V62.9l-0.004-0.566l-0.005-0.837l-0.004-1.134l-0.005-0.847L42.3,58.951l-0.002-0.171v-0.397l-0.005-0.734
	l-0.009-1.338v-0.249v-0.314l-0.004-0.568v-0.247l-0.007-1.133v-0.004l0.111,1.137l0.024,0.238l0.055,0.565l0.033,0.326l0.023,0.238
	l0.131,1.349l0.07,0.701l0.044,0.431l0.013,0.138l0.055,0.562l0.088,0.884l0.111,1.134l0.078,0.796l0.058,0.563l0.052,0.564
	l1.526,15.485l0.002,0.009C44.748,78.915,44.748,78.915,44.746,78.915z M47.478,78.583c-0.02,0-0.039,0.007-0.057,0.009
	c-0.459,0.072-0.918,0.134-1.377,0.188c-0.057,0.008-0.113,0.02-0.17,0.023v-0.002L44.348,63.31l-0.055-0.562l-0.055-0.563
	l-0.069-0.687l-0.109-1.134l-0.101-1.006l-0.055-0.562l-0.002-0.016l-0.055-0.553l-0.057-0.579l-0.143-1.46l-0.013-0.127
	l-0.044-0.438l-0.057-0.565l-0.011-0.127l-0.158-1.585l-0.078-0.812l0.164,0.812l0.323,1.585l0.02,0.089l0.113,0.558l0.099,0.483
	l0.014,0.07l0.31,1.517l0.099,0.482l0.116,0.56l0.018,0.09l0.094,0.466l0.229,1.117l0.231,1.134l0.109,0.538l0.113,0.555
	l0.114,0.556l3.108,15.243l0.002,0.009C48.204,78.463,47.841,78.524,47.478,78.583z M51.954,77.595
	c-0.371,0.107-0.745,0.208-1.119,0.305c-0.385,0.096-0.773,0.188-1.16,0.271l-0.002-0.007l-2.884-14.126l-0.227-1.119l-0.112-0.553
	l-0.113-0.556l-0.065-0.312l-0.231-1.134l-0.275-1.355l-0.046-0.228l-0.068-0.325l-0.113-0.56l-0.051-0.247l-0.323-1.587
	l-0.032-0.155l-0.114-0.553l-0.085-0.422l-0.028-0.138l-0.275-1.351V53.44l0.402,1.322l0.052,0.169l0.114,0.38l0.164,0.54
	l0.062,0.21l0.481,1.587l0.041,0.133l0.167,0.551l0.138,0.448l0.025,0.09l0.453,1.493l0.343,1.134l0.037,0.118l0.164,0.54
	l0.164,0.542l4.518,14.892l0.002,0.006H51.954z M54.614,76.714c-0.033,0.014-0.067,0.029-0.099,0.04
	c-0.433,0.157-0.86,0.306-1.289,0.448c-0.063,0.021-0.125,0.043-0.188,0.065v-0.005l-4.518-14.894l-0.164-0.54l-0.101-0.332
	l-0.065-0.212l-0.279-0.922L47.43,58.78l-0.074-0.247l-0.164-0.542l-0.103-0.343l-0.065-0.208l-0.415-1.379l-0.166-0.54l-0.164-0.54
	l-0.016-0.05l-0.15-0.499l-0.33-1.086l-0.342-1.135l-0.065-0.214l-0.002-0.005l0.092,0.219l0.475,1.135l0.419,0.999l0.224,0.526
	l0.023,0.06l0.195,0.463l0.279,0.667l0.494,1.174l0.173,0.413l0.05,0.115l0.217,0.521l0.207,0.496l0.667,1.583l0.245,0.585
	l0.221,0.521l0.009,0.028l0.21,0.494l1.232,2.939l4.789,11.401l0.002,0.007C55.271,76.472,54.942,76.594,54.614,76.714z
	 M57.729,75.407c-0.361,0.173-0.722,0.337-1.089,0.494l-0.002-0.007l-6.022-14.343l-0.025-0.055l-0.195-0.465l-0.221-0.522
	l-0.061-0.146l-0.665-1.583l-0.396-0.944l-0.078-0.188l-0.141-0.332l-0.223-0.531l-0.304-0.724l-0.464-1.106l-0.011-0.023
	l-0.207-0.499l-0.224-0.528l-0.235-0.558l-0.293-0.701l-0.005-0.01l0.378,0.711l0.271,0.505l0.271,0.505l0.265,0.498l0.042,0.077
	l0.605,1.13l0.284,0.535l0.271,0.508l0.267,0.498l0.026,0.046l0.604,1.132l0.743,1.388l0.104,0.195l0.162,0.304l0.267,0.498
	l0.175,0.332l6.819,12.758l0.341,0.632l0.005,0.009C58.424,75.073,58.076,75.243,57.729,75.407z M61.112,73.573
	c-0.039,0.024-0.078,0.048-0.118,0.072c-0.345,0.205-0.69,0.411-1.04,0.607c-0.063,0.035-0.122,0.072-0.188,0.109v-0.004
	l-2.186-4.088l-4.69-8.773l-0.463-0.865l-0.143-0.269l-0.122-0.232l-0.269-0.498l-0.455-0.853l-0.605-1.132l-0.316-0.591
	l-0.265-0.498l-0.267-0.498l-0.007-0.011l-0.599-1.119l-0.326-0.612l-0.267-0.498l-0.256-0.475l-0.013-0.033l-0.591-1.102
	l-0.533-0.992l-0.071-0.137l-0.003-0.005l0.768,1.134l0.653,0.969l0.109,0.166l0.21,0.311l0.319,0.468l0.542,0.807l0.551,0.812
	l0.214,0.317l0.107,0.159l0.316,0.468l0.647,0.96l0.765,1.132l0.228,0.337l0.316,0.47l0.317,0.468l0.21,0.309l0.765,1.134
	l0.21,0.312l7.523,11.139l0.004,0.007C61.772,73.167,61.444,73.372,61.112,73.573z M64.002,71.626
	c-0.319,0.236-0.643,0.468-0.968,0.697l-0.003-0.009l-7.309-10.817l-0.766-1.134l-0.634-0.94l-0.316-0.47l-0.116-0.173l-0.201-0.297
	l-0.192-0.284l-0.371-0.551l-1.071-1.587l-0.013-0.016l-0.06-0.09H51.98l0.07,0.084l0.018,0.021l1.303,1.587l0.551,0.671
	l0.362,0.439l0.018,0.021l0.07,0.088l0.271,0.327l0.958,1.168l0.926,1.134L58,63.29l0.542,0.662l3.082,3.753l2.898,3.532l0,0
	C64.352,71.366,64.177,71.495,64.002,71.626z M8.659,39.048c-0.018,0.19-0.032,0.385-0.043,0.583
	c-0.012,0.157-0.022,0.319-0.029,0.483c-0.021,0.49-0.037,0.984-0.037,1.478c0,0.492,0.016,0.984,0.035,1.473
	c0.009,0.149,0.018,0.291,0.026,0.431c0.009,0.21,0.03,0.416,0.044,0.614l0.021,0.289l2.859-0.28l2.089-0.208l-0.021-0.275
	c-0.009-0.142-0.013-0.289-0.021-0.446c-0.009-0.125-0.018-0.247-0.022-0.365c-0.018-0.413-0.03-0.826-0.03-1.233
	c0-0.422,0.013-0.841,0.033-1.263c0.002-0.107,0.011-0.219,0.02-0.334c0.009-0.164,0.013-0.321,0.026-0.474l0.02-0.275l-0.706-0.068
	l-4.24-0.417L8.659,39.048z M75.813,39.612c0.009,0.138,0.018,0.275,0.024,0.413c0.023,0.514,0.039,1.025,0.039,1.539
	c0,0.516-0.016,1.032-0.039,1.547c-0.007,0.153-0.018,0.304-0.028,0.457c-0.014,0.221-0.02,0.441-0.037,0.66l4.393,0.435
	c0.086-1.032,0.127-2.063,0.127-3.102c0-1.021-0.041-2.044-0.124-3.064l-4.394,0.433C75.794,39.157,75.803,39.384,75.813,39.612z
	 M76.968,39.975c0-0.009,0-0.018,0-0.024l2.146-0.212c0.03,0.608,0.044,1.22,0.044,1.823c0,0.616-0.014,1.239-0.044,1.86
	l-2.146-0.212c0-0.016,0-0.031,0-0.046c0.026-0.58,0.039-1.104,0.039-1.6C77.007,41.076,76.994,40.556,76.968,39.975z
	 M13.748,38.127c0.015-0.144,0.039-0.293,0.063-0.448c0.015-0.125,0.032-0.247,0.05-0.367c0.127-0.822,0.289-1.637,0.485-2.444
	c0.026-0.103,0.055-0.208,0.083-0.315c0.039-0.159,0.076-0.314,0.118-0.463l0.072-0.267l-4.754-1.442l-0.079,0.277
	c-0.052,0.192-0.109,0.389-0.161,0.59c-0.037,0.14-0.079,0.282-0.114,0.433c-0.115,0.47-0.223,0.944-0.319,1.425
	c-0.101,0.496-0.181,0.983-0.255,1.469c-0.024,0.148-0.042,0.295-0.063,0.439c-0.026,0.208-0.051,0.409-0.074,0.612l-0.035,0.284
	l4.948,0.49L13.748,38.127z M75.632,45.636c-0.023,0.209-0.059,0.415-0.087,0.625c-0.024,0.168-0.044,0.334-0.07,0.502
	c-0.072,0.47-0.15,0.936-0.242,1.401c-0.014,0.065-0.026,0.131-0.039,0.194c-0.092,0.463-0.197,0.922-0.311,1.381
	c-0.04,0.161-0.083,0.323-0.127,0.485c-0.053,0.203-0.101,0.406-0.157,0.609l4.225,1.281c0.56-1.977,0.962-4,1.204-6.046
	l-3.029-0.299L75.632,45.636z M78.03,50.693l-2.062-0.628c0.007-0.018,0.009-0.037,0.016-0.057c0.118-0.489,0.228-0.97,0.316-1.42
	l0.042-0.206c0.092-0.459,0.173-0.933,0.253-1.451l0.009-0.061l0.28,0.026l1.864,0.184C78.567,48.295,78.327,49.505,78.03,50.693z
	 M67.94,50.294l-3.436-1.041l-1.479-0.45c-0.024,0.072-0.051,0.142-0.077,0.214c-0.043,0.125-0.087,0.247-0.133,0.37
	c-0.016,0.037-0.031,0.074-0.042,0.109c-0.065,0.168-0.127,0.335-0.192,0.498c-0.05,0.123-0.098,0.243-0.148,0.361
	c-0.039,0.094-0.081,0.184-0.122,0.275c-0.051,0.115-0.101,0.234-0.155,0.352c-0.051,0.107-0.097,0.215-0.146,0.319
	c-0.123,0.258-0.252,0.512-0.385,0.763c-0.026,0.051-0.048,0.101-0.074,0.148c0,0.002,0,0.002,0,0.002v0.003
	c-0.206,0.382-0.422,0.759-0.651,1.13c-0.19,0.311-0.387,0.618-0.595,0.923c-0.153,0.227-0.323,0.441-0.485,0.662
	c-0.164,0.219-0.319,0.443-0.487,0.66c-0.081,0.101-0.155,0.203-0.238,0.304l0,0c-0.004,0.006-0.011,0.013-0.018,0.02
	c-0.039,0.05-0.087,0.096-0.131,0.146c-0.306,0.367-0.625,0.726-0.957,1.075c-0.07,0.074-0.143,0.151-0.215,0.226
	c-0.096,0.098-0.203,0.189-0.302,0.286c-0.284,0.279-0.568,0.56-0.869,0.826c-0.035,0.03-0.063,0.063-0.097,0.092l0.175,0.214
	l0.748,0.909l0.551,0.674l0.931,1.134l0.851,1.036c0,0.002,0.002,0.002,0.002,0.002l3.698,4.505c0,0.002,0,0.005,0.002,0.005
	l1.301,1.582l1.943,2.369c1.766-1.503,3.374-3.145,4.814-4.902c1.615-1.967,3.021-4.078,4.203-6.299
	c1.082-2.031,1.982-4.145,2.688-6.323l-4.894-1.486L67.94,50.294z M74.726,59.262c-1.15,2.159-2.522,4.216-4.083,6.115
	c-1.163,1.421-2.439,2.761-3.804,3.998l-1.202-1.465l-1.303-1.587l-3.7-4.507l-0.26-0.319l-0.932-1.134l-1.141-1.391l-0.157-0.192
	l-0.088-0.107c0.18-0.17,0.356-0.347,0.533-0.526l0.118-0.127l0.101-0.104c0.088-0.092,0.162-0.177,0.245-0.267
	c0.332-0.358,0.638-0.699,0.913-1.034c0.058-0.069,0.114-0.142,0.171-0.214l0.078-0.105c0.062-0.078,0.118-0.157,0.18-0.233
	c0.293-0.378,0.572-0.759,0.826-1.13c0.007-0.009,0.014-0.018,0.018-0.026c0.354-0.516,0.671-1.038,0.971-1.559
	c0.113-0.201,0.231-0.398,0.336-0.597c0.022-0.039,0.042-0.079,0.062-0.12l0.02-0.037c0.063-0.127,0.127-0.254,0.19-0.381
	c0.07-0.14,0.145-0.279,0.214-0.426c0.033-0.068,0.065-0.138,0.095-0.203l0.059-0.129c0.101-0.219,0.196-0.438,0.293-0.658
	c0.021-0.057,0.044-0.111,0.065-0.166c0.03-0.072,0.062-0.145,0.088-0.215c0.03-0.071,0.059-0.144,0.087-0.218l0.457,0.138
	l0.196,0.061l3.241,0.982l5.576,1.691l3.774,1.146C76.343,55.941,75.595,57.635,74.726,59.262z M62.063,55.308l0.281,0.754
	l0.591,1.587l0.422,1.132l0.588,1.583l0.424,1.134l2.247,6.03l0.306-0.461l8.175-12.227l-10.726,0.385L62.063,55.308z
	 M69.722,57.836l-2.393,3.583l-1.285-3.451L69.722,57.836z"/>
</svg>
