<svg xmlns="http://www.w3.org/2000/svg" width="83.293" height="83.296" viewBox="0 0 83.293 83.296"><path fill="#fff" d="M7.52 44.228l-.034-.604-.032-.54c-.018-.413-.026-.83-.03-1.243l-.005-.25v-.24c0-.43.01-.85.03-1.28l.03-.49.03-.64-4.4-.43c-.08 1.03-.124 2.06-.124 3.1 0 1.02.04 2.04.12 3.06l3.233-.32 1.163-.11zM6.29 41.76l.002.092c.003.453.014.872.033 1.288l.002.07-.08.008-2.066.203c-.02-.6-.04-1.21-.04-1.82 0-.62.02-1.24.05-1.86l2.15.21v.07c-.02.44-.03.89-.03 1.33v.25l.004.17zm10.3 29.236l.013-.015 3.23-3.93.007-.01.443-.54 3.25-3.96.853-1.04.93-1.13 1.3-1.58.155-.18.02-.024-.09-.086c-.3-.266-.59-.55-.87-.833l-.29-.28-.18-.19c-.34-.356-.67-.727-.99-1.11l-.144-.166h-.004l-.465-.6-.27-.37c-.19-.263-.39-.52-.57-.8-.175-.254-.34-.52-.503-.782-.22-.37-.44-.74-.643-1.13h-.003l-.003-.01-.096-.186c-.125-.24-.25-.482-.363-.73l-.155-.34-.144-.322-.125-.282-.15-.368-.185-.48-.05-.127-.13-.356-.076-.21-4.913 1.49-.824.247L9.783 52l-.01.002-2.712.82-2.17.66c.696 2.143 1.588 4.26 2.688 6.32 1.216 2.274 2.632 4.375 4.206 6.3 1.47 1.797 3.083 3.433 4.814 4.902zM8.566 59.26c-.865-1.616-1.612-3.31-2.235-5.046l1.06-.32 2.72-.822 4.76-1.445.82-.248 2.7-.82 1.2-.36.08.2.096.23.06.15.283.64.045.1.12.26.218.43.17.34.03.06.074.14.33.59c.277.48.564.95.87 1.41l.12.17c.22.32.47.66.77 1.053l.056.072.424.55c.27.33.58.677.915 1.035l.28.303.05.054.14.15c.17.174.348.35.524.514l-.09.107-1.3 1.582-.93 1.134-.268.32-3.245 3.96-.45.546-2.502 3.05c-1.36-1.23-2.633-2.57-3.8-3.993-1.555-1.91-2.93-3.964-4.08-6.12zm10.287 2.238l.424-1.135.595-1.582.424-1.13.595-1.58.31-.81-2.81-.1-10.21-.38.31.46 8.15 12.24 2.235-5.96zm-5.323-3.734l3.68.138-1.294 3.45-2.385-3.588zm-4.836-6.93l-.18-.68-.103-.4c-.24-1.004-.44-2.014-.6-3.025l-.06-.45-.09-.65-1.84.18-2.55.25c.24 2.02.64 4.04 1.21 6.04l3.74-1.13.49-.15zm-3.433-.14c-.3-1.187-.54-2.395-.71-3.612l1.39-.136.76-.075.01.03c.16 1.06.37 2.11.62 3.13l.01.05-2.06.63zm36.39 32.602c23.01 0 41.65-18.646 41.65-41.646C83.3 18.64 64.65 0 41.65 0 18.645.002 0 18.646 0 41.65c0 23 18.646 41.646 41.646 41.646zM1.14 41.65C1.138 30.457 5.668 20.332 13 13 20.333 5.667 30.455 1.132 41.646 1.132c11.19 0 21.315 4.536 28.648 11.87S82.16 30.458 82.162 41.648c-.002 11.187-4.535 21.314-11.868 28.646S52.836 82.162 41.646 82.162c-11.19 0-21.313-4.533-28.646-11.865C5.665 62.964 1.134 52.837 1.132 41.65h.002zm67.45 1.417l.018-.284c.02-.402.032-.81.032-1.215 0-.39-.014-.78-.03-1.17l-.02-.368-.03-.39-3.846.38-.544.054.006.166c.02.372.035.74.04 1.108l.004.1.002.12-.002.11-.028.802-.016.465-.005.14.89.087 3.51.348.03-.453zm-1.096-.79l-2.15-.213.006-.38.006-.116-.004-.127-.006-.34 2.15-.21.01.69-.01.71zm-52.54-9.527l.146-.415.13-.367c.13-.363.27-.724.413-1.08l.057-.13c.15-.355.307-.707.47-1.06l.174-.362.188-.39.12-.246-1.4-.75-2.98-1.59-.13.255-.28.555-.19.39c-.42.902-.797 1.813-1.134 2.742l-.14.398-.2.592-.09.275 1.93.585 2.827.857.083-.26zm7.244-2.05l.126-.22.01-.017.108-.184.21-.35.334-.53.22-.33.126-.18.253-.36.214-.3.37-.48.15-.2.08-.11.01-.02c.36-.435.74-.85 1.13-1.26.37-.39.76-.77 1.16-1.135.26-.236.53-.468.806-.693l.292-.225c.29-.23.582-.45.884-.67.56-.4 1.142-.78 1.745-1.133l.68-.384.042-.023.03-.016.063-.03c.262-.14.54-.275.812-.41l.33-.15.6-.263.38-.154.385-.147.18-.07.39-.145.184-.063.265-.085-.234-.77-1.215-3.99-.276.095-.335.11-.45.16-.738.285-.44.174c-.27.112-.536.232-.8.354l-.35.154c-.38.18-.758.37-1.13.57l-.03.02c-1.158.612-2.25 1.31-3.28 2.07-.396.29-.78.58-1.154.89l-.28.236c-.604.51-1.183 1.033-1.733 1.584-.37.367-.72.747-1.06 1.13-.24.27-.48.54-.71.82l-.205.26-.398.505-.16.21-.31.43-.342.49-.075.11-.296.45-.39.62-.26.44-.17.3-.148.25.57.304.44.237 2.97 1.585.41.22zm47.445-6.224l-.48-.76-.346-.53c-.185-.27-.375-.536-.564-.798l-.316-.444c-.26-.348-.526-.688-.797-1.023l-.127-.16c-.4-.48-.816-.95-1.24-1.41-1.035-1.12-2.14-2.17-3.31-3.13-1.478-1.21-3.05-2.27-4.698-3.2l-.646-.36-.09-.04c-.42-.224-.85-.436-1.27-.64l-.51-.226c-.3-.14-.598-.273-.9-.4l-.57-.23c-.283-.112-.566-.223-.855-.33l-.61-.212-.476-.16-.8 2.64-.48 1.58.38.134.476.17.77.294.47.19c.265.11.526.224.79.35l.417.185c.303.14.6.293.896.45l.27.132c1.354.728 2.65 1.57 3.877 2.51.243.19.492.378.732.575l.02.01c.44.357.86.733 1.274 1.12.543.505 1.067 1.032 1.576 1.583l.568.63.435.5.09.11.09.116c.244.296.48.6.71.91l.23.31.53.757.257.39.46.724.253.438.216.36 3.89-2.075-.257-.447-.347-.574zm-2.875 1.588l-.402-.634-.07-.105-.195-.3c-.18-.264-.36-.526-.55-.786l-.09-.13-.14-.21c-.23-.31-.48-.63-.73-.94l-.02-.03-.07-.1-.11-.13-.29-.34-.05-.057-.093-.11c-.444-.51-.903-1-1.376-1.474-.385-.39-.775-.77-1.18-1.133-.33-.293-.66-.58-1-.86-.22-.18-.442-.35-.67-.52l-.113-.086c-1.29-.99-2.647-1.87-4.04-2.61l-.163-.08-.11-.06c-.31-.16-.62-.315-.93-.463l-.323-.143-.11-.054c-.273-.123-.546-.245-.82-.36l-.34-.14-.147-.06-.65-.25.162-.55.46-1.514.777.3.18.07.38.154.86.39.19.09.3.132c.4.19.81.4 1.21.606l.098.05.384.213.24.14c1.63.92 3.15 1.96 4.54 3.1 1.11.908 2.188 1.92 3.197 3.02.454.496.844.94 1.194 1.37l.05.06.074.095c.282.355.535.678.77.99l.17.24.135.19.543.77.21.327.12.18c.156.24.31.478.458.72l-1.9 1.016zm.477 7.01l-.126-.39-.11-.303c-.13-.35-.27-.7-.41-1.05l-.02-.05c-.15-.36-.32-.72-.48-1.08l-.15-.31-.19-.38-1.85.99-.3.16-1.75.93.02.04.043.107c.196.405.385.81.556 1.223l.004.012.095.24c.14.34.27.68.386 1.024l.047.11.01.024.09-.03 1.26-.38.64-.193 2.222-.68zm-3.522-.114l-.184-.455-.19-.44.79-.43.05-.026.17-.09.88-.48.28.65.02.04.006.01.226.58-1.103.33-.96.29zM14.71 43.113l.03.406 3.01-.3 1.38-.14-.005-.15-.018-.46c-.014-.3-.028-.6-.028-.9v-.24c0-.38.01-.758.03-1.13v-.15l-3.47-.34-.92-.09-.034.44-.018.292c-.02.404-.03.81-.03 1.214 0 .39.01.784.03 1.18l.015.34zm1.097-2.232l2.146.22-.007.49.007.48-.314.03-1.84.18-.01-.68.01-.71zm4.464-6.52l.01-.03.05-.12c.12-.34.25-.67.38-1.01l.09-.24.02-.03c.17-.41.36-.82.56-1.22l.047-.09.018-.04-2.04-1.09-.224-.12-1.62-.86-.19.376-.144.305c-.166.35-.323.7-.472 1.06l-.022.06c-.14.35-.272.7-.41 1.06l-.12.36-.12.36.21.068 2.123.64 1.805.543.09.03zm-.5-1.86l-.01.02v.02l-.17.44-2.06-.62.24-.6.03-.072.267-.613.333.18.243.13.476.253.85.453-.187.427v-.01zm-4.24 2.36l-.07.3c-.19.77-.34 1.55-.46 2.34l-.05.357-.05.396.148.016 3.89.38.355.04.008-.036.02-.113c.06-.443.13-.89.22-1.326l.004-.02.027-.128c.077-.377.167-.755.266-1.13l.018-.047.036-.157-4.22-1.28-.12.416zm.92 1.01l1.94.59.13.04-.1.488-.01.077-.07.39-2.146-.212c.08-.456.17-.913.274-1.364zm33.8-20.14l-.28-.09-1.21 3.99-.23.77.26.09.2.07.4.14v.004l.16.06.424.165.365.147.633.28.29.134c.31.145.61.296.906.454l.715.406.047.02.46.28c.426.26.84.535 1.247.823.39.28.77.567 1.14.87h.004l.03.025c.27.222.54.452.8.69.4.36.78.74 1.155 1.13.39.405.77.822 1.13 1.264l.07.083.176.233c.257.328.51.658.75 1l.098.136.065.09c.294.436.583.888.852 1.354l.08.127.01.01.127.22.415-.22 3.976-2.125-.145-.25-.17-.297-.28-.47-.4-.64-.28-.42-.07-.1-.404-.58-.245-.333-.168-.215c-.2-.26-.394-.515-.597-.764-.23-.28-.47-.55-.708-.82-.348-.39-.705-.763-1.07-1.13-.525-.523-1.064-1.024-1.623-1.5l-.1-.086-.28-.243c-.378-.305-.76-.6-1.15-.886-1.055-.774-2.156-1.47-3.3-2.08-.372-.197-.75-.388-1.13-.57l-.35-.153c-.26-.12-.53-.24-.8-.353l-.45-.18-.71-.28-.504-.177-.32-.11zm-18.79-5.32l-.45.15-.62.22-.842.325-.57.23c-.313.13-.624.27-.935.41l-.47.21c-.43.21-.85.42-1.27.64l-.12.06-.006.01c-.317.17-.62.35-.934.528l-.486.276c-.32.19-.636.397-.948.6l-.42.265-.52.366c-.7.49-1.388.996-2.04 1.53-1.6 1.31-3.046 2.75-4.34 4.3l-.21.248c-.328.4-.64.8-.944 1.21l-.296.417c-.2.275-.4.553-.59.84l-.327.49-.5.793-.32.54-.252.444 3.89 2.075.196-.33.278-.46c.137-.223.28-.45.426-.67l.29-.44.25-.354.19-.27.055-.076.26-.37c.25-.332.5-.66.766-.983l.04-.05.087-.104c.32-.383.656-.76 1-1.13l.338-.36c.4-.42.81-.827 1.24-1.225.41-.383.836-.757 1.277-1.12l.02-.013c.7-.57 1.428-1.11 2.19-1.622.517-.34 1.05-.67 1.596-.98.27-.153.53-.31.8-.452l.03-.016c.395-.21.793-.41 1.19-.6l.39-.178c.27-.12.54-.243.814-.36l.475-.19.74-.28.516-.185.34-.12-.94-3.11-.336-1.106zm-.74 3.76l-.092.036-.396.16-.85.378-.14.065-.263.12c-.44.21-.847.415-1.236.623l-.03.01h-.01l-.665.38-.16.09c-.633.368-1.177.7-1.66 1.03-.79.528-1.563 1.1-2.297 1.7-.332.273-.665.566-.997.863-.396.36-.792.74-1.184 1.13l-.434.44c-.384.41-.72.78-1.04 1.15l-.447.52-.04.05-.394.51-.4.517-.17.236-.1.14c-.17.243-.35.485-.51.734l-.22.334-.08.125-.36.567-1.9-1.015.455-.716.107-.167.206-.313c.187-.27.38-.54.57-.806l.12-.17.167-.23c.31-.415.6-.797.91-1.17l.082-.1.116-.14c.33-.393.67-.775 1.016-1.153l.46-.47c.86-.896 1.764-1.747 2.71-2.52.57-.47 1.214-.958 1.97-1.48l.2-.147.296-.21.213-.13.19-.123.157-.1c.25-.164.5-.328.76-.48l.233-.136.238-.135.16-.09c.24-.14.48-.28.728-.41l.04-.026.09-.04c.408-.215.82-.423 1.23-.62l.25-.112.196-.088c.3-.14.603-.274.906-.4l.364-.15.18-.07c.255-.103.508-.2.76-.293l.625 2.06-.62.247zm42.2 16.58l-.14-.42c-.165-.457-.34-.914-.526-1.37l-.013-.018c-.18-.44-.38-.895-.592-1.35l-.187-.38-.295-.584-.13-.257-3.95 2.106-.19.105-.24.127.12.25.21.428.17.347c.177.38.34.75.498 1.13l.03.078c.145.357.282.72.414 1.08l.12.337.14.414.087.26 4.76-1.443-.09-.27-.186-.558zm-9.42 5.17c.1.37.188.75.267 1.13l.03.14c.088.45.16.89.22 1.34l.017.1.01.04.35-.038 4.048-.4-.054-.422-.042-.304c-.117-.785-.272-1.565-.464-2.34l-.085-.34-.11-.4-2.76.833-1.46.442.034.15.017.058zm1.748.43l1.62-.498c.106.45.194.91.273 1.363l-2.15.214-.083-.477-.1-.48.443-.133zM14.98 45.68c.058.375.12.747.193 1.12l.005.03c.078.393.168.784.267 1.175l.07.29.122.434 2.743-.83 1.475-.45-.035-.16-.117-.51c-.127-.53-.232-1.06-.317-1.59l-.094-.56-.022-.14-.89.08-.895.083-2.605.26.046.362.053.39zm2.615.114l.722-.07c.057.318.122.635.19.95l-2.068.626-.15-.674-.01-.024-.01-.022-.12-.645 1.43-.14zm45.843 1.655l.934.28 3.285 1 .11-.39.087-.35c.088-.37.174-.73.246-1.1l.02-.09c.07-.38.137-.75.193-1.12l.05-.37.05-.4-4.04-.4-.35-.03-.02.13-.096.566c-.086.534-.192 1.062-.315 1.587l-.122.52-.032.15zm1.537-1.73l2.15.21-.115.64-.01.04-.008.042-.14.635-2.068-.625c.07-.316.134-.63.19-.952zm9.662-1.62l.045-.63.026-.43c.02-.48.035-.96.035-1.44v-.1c0-.47-.017-.94-.035-1.408l-.026-.467-.04-.59-.022-.29-4.95.49.02.273.026.45.02.366c.016.413.028.822.028 1.233v.03c0 .404-.014.812-.03 1.22l-.02.383-.027.44-.018.277 4.94.49.02-.29zm-.21-7.07l-.063-.46c-.07-.47-.15-.94-.242-1.41l-.01-.045c-.094-.48-.205-.96-.32-1.44l-.114-.427-.165-.608-.078-.28-4.758 1.443.074.265.11.43.1.39c.1.4.19.8.27 1.2l.01.04c.08.394.15.79.21 1.19l.05.336.07.46.04.27 2.367-.23 2.58-.25-.04-.29-.072-.59zm-4.877 8l-.065.46-.05.333c-.063.42-.132.83-.212 1.23l-.002.02c-.08.396-.17.8-.27 1.196l-.09.363-.11.432-.07.27 4.76 1.44.08-.28.16-.575.12-.455c.11-.46.22-.92.31-1.39l.02-.08c.1-.464.178-.935.25-1.403l.062-.472.073-.587.033-.285-4.942-.488-.03.272zM12.048 24.96l.283-.48.33-.55c.17-.28.35-.554.53-.832l.33-.5c.21-.305.42-.604.64-.906l.28-.39c.32-.425.65-.847.986-1.26.237-.287.488-.568.74-.857.25-.284.505-.566.765-.84.998-1.06 2.063-2.075 3.205-3.01.394-.32.8-.637 1.21-.945 1.35-1.007 2.79-1.93 4.322-2.75l.076-.037c.453-.24.905-.47 1.36-.685l.48-.22c.326-.146.648-.29.975-.43l.578-.23.894-.343.61-.213.51-.183.26-.09-.174-.58-1.273-4.19-.27.09c-2.165.7-4.292 1.59-6.366 2.7l-.02.01-.01.002c-2.286 1.22-4.39 2.64-6.327 4.225-1.997 1.635-3.8 3.445-5.397 5.39-1.48 1.8-2.773 3.72-3.893 5.725l-.143.25 4.39 2.35.14-.243zm37.24-18.45h-15.26l7.63 10.576L49.29 6.51zm-9.783 2.8h4.31l-2.156 2.987L39.5 9.31zm12.664-.003l.52.184.61.22c.3.11.61.23.91.36l.56.23c.33.14.67.29 1 .45l.45.2c.48.23.95.463 1.42.713 1.95 1.043 3.8 2.276 5.53 3.697 1.7 1.393 3.28 2.964 4.7 4.706.33.4.65.818.97 1.24l.27.385c.21.3.422.596.626.898l.345.52c.176.27.35.54.52.817l.33.567.294.49.132.24 2.166-1.155 2.227-1.19-.14-.25c-1.144-2.054-2.453-3.96-3.894-5.72-1.64-1.995-3.445-3.8-5.397-5.4-1.987-1.624-4.11-3.04-6.35-4.232-2.04-1.09-4.18-2-6.37-2.71l-.27-.09-1.447 4.76.26.086zm20.29 17.385l.19.407c.21.46.42.93.62 1.4l.01.04c.19.46.36.92.53 1.38l.144.43.21.6.196-.06 4.03-1.227c-.63-1.93-1.41-3.834-2.363-5.694l-3.894 2.08.303.62zm3.09-1.152c.52 1.108.99 2.247 1.4 3.403l-2.07.627-.01-.026c-.19-.53-.37-1-.55-1.432l-.008-.01v-.02l-.01-.01c-.184-.444-.395-.918-.645-1.454l-.027-.063 1.91-1.015zM8.87 46.15l.06.406c.15.973.34 1.945.58 2.906l.114.45.165.588.08.278 4.76-1.444-.08-.267-.12-.46-.09-.34c-.1-.404-.197-.81-.28-1.213l-.004-.03c-.08-.4-.148-.794-.208-1.19l-.055-.372-.06-.432-.034-.275-4.526.447-.13.012-.285.03.034.286.08.62zm.45-15.8l.15-.44c.17-.468.35-.933.54-1.395l.02-.052c.195-.46.4-.92.61-1.375l.21-.435.28-.58-.805-.43-3.086-1.65c-.93 1.836-1.72 3.74-2.36 5.694l4.23 1.28.22-.616zm-.354-2.268l-.003.002c-.187.455-.367.925-.554 1.438l-.02.046-2.06-.625c.41-1.152.88-2.29 1.4-3.403l1.9 1.02-.024.05c-.24.506-.444.97-.63 1.42l-.02.052zm-1.22 8.826l.07-.51c.076-.5.16-.993.258-1.49l.004-.02c.1-.5.215-.996.335-1.487l.11-.42.167-.65-3.75-1.13-.473-.14c-.56 1.98-.96 4-1.2 6.05l4.4.435.086-.617zm-.433-3.78c-.14.567-.254 1.067-.35 1.562-.092.463-.18.966-.267 1.537l-.01.06-2.145-.21c.19-1.214.42-2.423.72-3.612l2.07.625-.004.04zm67.45-.17l.12.465c.122.496.236.992.338 1.493l.01.03c.09.493.18.987.25 1.483l.06.44.09.65 4.4-.44c-.233-2.03-.633-4.05-1.204-6.05l-4.22 1.29.163.63zm3.267-.494c.298 1.187.542 2.396.722 3.61l-2.146.213-.004-.028c-.088-.57-.176-1.07-.263-1.52l-.01-.04v-.02c-.1-.48-.21-.98-.35-1.54l-.02-.07 2.06-.628zM32.594 9.296l1.69 5.578.64 2.103.8 2.634.052.18.23-.06.373-.09.12-.03.53-.11.37-.07.68-.12.33-.05c.33-.05.67-.09 1-.12.735-.073 1.47-.11 2.2-.11.746 0 1.49.04 2.224.114h.025c.33.03.66.07.99.12l.34.056.686.12.37.073.51.113.15.034.353.084.23.056.06-.18.72-2.375.717-2.353v-.006l1.58-5.184.116-.394 1.483-4.892c-2.2-.62-4.464-1.05-6.75-1.275-1.264-.13-2.535-.19-3.81-.19-1.253 0-2.51.06-3.767.18-2.26.226-4.52.648-6.757 1.28l.735 2.42.75 2.48zm5.376-5.05c1.198-.117 2.427-.178 3.655-.178 1.232 0 2.48.06 3.698.184 1.833.182 3.657.5 5.438.946l-1.14 3.775-.11.39-1.57 5.19-.71 2.354-.465 1.535-.246-.055-.39-.077-.72-.127-.124-.02-.23-.037c-.372-.052-.715-.094-1.062-.13-.77-.077-1.56-.12-2.332-.12-.78 0-1.56.04-2.32.117-.323.033-.67.077-1.056.13l-.22.036-.13.02-.71.12-.396.08-.252.05-.542-1.8-.637-2.1-1.7-5.58-.756-2.48-.392-1.3c1.78-.45 3.606-.765 5.44-.946zm24.528 62.74l-3.624-4.418-.88-1.07-.93-1.135-1.3-1.582-.23-.27c.33-.27.65-.56.967-.85.54-.5 1.06-1.03 1.55-1.58l.49-.56.45-.57c.395-.51.764-1.04 1.11-1.582.237-.37.46-.75.67-1.136l.157-.27c.23-.43.437-.87.638-1.315.17-.37.33-.753.478-1.136.19-.496.37-.996.525-1.51l.02-.074c.11-.374.213-.75.305-1.13.13-.52.23-1.05.32-1.59.06-.374.112-.75.16-1.13l.03-.275c.04-.43.07-.87.083-1.31.01-.273.02-.55.02-.83l-.005-.3c-.01-.534-.035-1.063-.08-1.585l-.02-.255c-.03-.296-.066-.59-.105-.88-.076-.535-.17-1.06-.28-1.58-.09-.38-.18-.76-.28-1.13l-.167-.608c-.1-.33-.21-.656-.323-.98-.14-.38-.284-.76-.44-1.133-.23-.54-.48-1.065-.748-1.58l-.13-.26c-.16-.3-.326-.59-.496-.87-.323-.55-.673-1.08-1.042-1.59-.27-.377-.546-.746-.84-1.1l-.03-.036c-.455-.555-.94-1.086-1.445-1.59-.394-.39-.81-.765-1.232-1.13l-.312-.274c-.565-.463-1.158-.9-1.77-1.31-.577-.38-1.173-.74-1.786-1.07l-.12-.06c-1.217-.64-2.497-1.17-3.836-1.576l-.02-.01c-1.347-.406-2.744-.686-4.184-.826-.7-.07-1.413-.108-2.14-.106-.72 0-1.437.037-2.137.107-1.44.14-2.84.42-4.18.822l-.022.01c-1.336.408-2.616.94-3.832 1.58l-.122.06c-.61.327-1.21.686-1.783 1.07-.61.405-1.205.84-1.773 1.31l-.318.27c-.427.368-.84.74-1.235 1.135-.503.502-.985 1.033-1.44 1.584l-.03.033c-.29.356-.567.728-.84 1.1-.366.51-.72 1.04-1.044 1.586-.17.287-.337.577-.494.87l-.133.26c-.268.52-.517 1.044-.744 1.584-.154.374-.3.75-.44 1.13-.11.328-.22.655-.32.985l-.167.6c-.104.372-.195.75-.278 1.13-.11.523-.205 1.05-.28 1.583-.04.29-.08.585-.11.88l-.016.256c-.046.52-.07 1.05-.08 1.58l-.01.3c0 .276.01.555.02.83.02.44.046.876.085 1.31l.033.27c.04.384.093.76.154 1.134.09.536.197 1.06.32 1.585.09.38.19.76.306 1.133l.02.07c.154.514.333 1.014.525 1.51.15.38.31.76.476 1.133.2.44.41.883.646 1.31l.15.27c.22.39.44.767.677 1.14.347.543.716 1.072 1.107 1.584l.448.57.485.56c.49.558 1 1.086 1.545 1.59.31.294.63.58.96.85l-.23.284-1.3 1.583-.17.21-.76.92-.88 1.07-3.624 4.42-2.15 2.62-1.124 1.37-.365.44.45.36c.44.347.883.685 1.333 1.01.48.35.967.69 1.46 1.017.504.33 1.016.65 1.536.96.433.254.87.495 1.31.733l.212.12v.002l.028.01c.65.34 1.308.662 1.968.97.533.243 1.075.483 1.624.71h.003c.512.21 1.03.402 1.55.59l.143.06c.55.192 1.103.38 1.664.55h.01l.018.004c.59.18 1.18.338 1.77.48l.343.09c.575.14 1.15.27 1.736.38.59.117 1.186.22 1.784.307l.81.104c.317.04.63.084.95.115h.028c.71.076 1.44.12 2.17.15.53.02 1.06.04 1.6.04l.17-.006c.385 0 .77-.02 1.15-.035l.66-.013c.475-.022.946-.06 1.417-.102l.32-.024.036-.002h.005c.72-.07 1.45-.17 2.16-.28l.66-.12c.366-.06.73-.12 1.095-.193.347-.075.69-.16 1.04-.24L51.14 79l.61-.17c.37-.1.737-.2 1.105-.31l.01-.005.41-.13.868-.286.783-.28.74-.29c.307-.118.61-.23.915-.358l.66-.293c.34-.146.67-.287 1-.443.53-.25 1.06-.517 1.585-.796l.007-.002h.004l.004-.005.01-.003.477-.268c.485-.27.956-.54 1.41-.816l.36-.23c.385-.236.768-.48 1.14-.73h.006c.5-.34.994-.688 1.474-1.04l.384-.297.62-.47.45-.356-.36-.446-3.27-3.99zm-7.684-9.36l-1.282-1.563h2.97c-.534.55-1.095 1.07-1.688 1.562zm2.838-2.845l-.13.15h-4.118c.548-.49 1.06-1.02 1.54-1.58h3.78c-.337.5-.695.98-1.072 1.44zm-13.04-9.58L44 44.45l-.08-.097.253-.286c.34-.432.573-.956.656-1.527h10.33c-.04.52-.1 1.026-.19 1.527-.07.384-.15.764-.26 1.132-.15.54-.33 1.07-.54 1.58-.16.39-.34.76-.53 1.13-.29.55-.62 1.08-.98 1.58-.28.39-.58.77-.9 1.13-.47.52-.97 1.01-1.51 1.454l-1.19-1.455-.37-.454-.56-.68-1.304-1.58-.8-.98-.13-.157-.76-.925-.544-.66zm-5.78-4.68c-.14.26-.25.54-.315.84l-.016.06H28.11v-.05c.013-.54.057-1.07.13-1.587l.01-.08v.83h10.585zm-.366 2.03c.083.57.315 1.1.656 1.53l.25.29-.567.69-.126.155-.21.248-1.1 1.34-.36.438-.57.7-.53.64-.77.94-.93 1.136-1.2 1.455c-.54-.443-1.04-.932-1.51-1.453-.32-.36-.62-.733-.9-1.13-.36-.502-.688-1.03-.98-1.582-.19-.37-.366-.744-.526-1.13-.214-.51-.39-1.04-.54-1.585-.1-.37-.186-.75-.256-1.134-.09-.5-.155-1.007-.19-1.526h10.33zm-10.17-3.15c.044-.25.097-.5.15-.75.095-.4.204-.8.33-1.19v1.05h25.928v-.44l.146.58c.057.25.104.5.147.75h-11.59c-.507-.33-1.11-.523-1.76-.523s-1.256.197-1.76.527h-11.59zm25.866-2.91l.223.578.107.316h-25.69l.108-.316c.12-.33.25-.65.396-.967v.39h24.856zm-4.967-6.06l.104.073c.36.25.72.525 1.06.813H32.92c.343-.29.7-.56 1.068-.815l.107-.073H49.19zM36.15 29.28c.31-.14.625-.268.946-.38.588-.213 1.193-.386 1.816-.51h5.478c.62.124 1.23.297 1.813.51.32.113.635.24.943.38h-10.99zm15.41 3.15c.23.248.45.503.664.768l.1.123H30.98l.094-.12c.212-.26.433-.52.662-.76h19.82zm1.554 2.023c.186.287.355.584.52.888H29.67c.156-.3.33-.6.51-.89h22.93zm2.03 6.062c.025.277.042.555.046.835v.054H44.795l-.015-.055c-.07-.3-.18-.58-.32-.84h10.68zm4.77 10.896c-.148.28-.303.54-.46.81h-3.607c.37-.51.716-1.03 1.03-1.58h3.43l-.393.78zm.897-1.91h-3.33c.25-.51.48-1.04.68-1.58h3.23c-.17.54-.36 1.07-.57 1.58zm.9-2.71h-3.18c.16-.52.29-1.04.39-1.58h3.13c-.09.54-.2 1.07-.33 1.59zm.55-3.1l-.04.39H59.1c.068-.52.114-1.05.136-1.58h3.1c-.02.4-.042.8-.082 1.2zm.01-3.91c.05.52.08 1.05.09 1.59h-3.11c-.01-.53-.04-1.062-.1-1.582h3.128zm-.43-2.72c.12.53.23 1.05.3 1.59h-3.16c-.09-.533-.21-1.062-.35-1.582h3.21zm-.82-2.71c.16.435.32.87.45 1.31l.08.276h-3.27c-.18-.54-.4-1.065-.63-1.583h3.38zm-1.26-2.715l.16.28c.23.425.44.86.64 1.306h-3.48c-.3-.55-.63-1.076-.98-1.587h3.67zm-1.81-2.73c.4.51.78 1.037 1.13 1.585h-3.85c-.454-.56-.95-1.088-1.47-1.586h4.19zM57 27.76h-4.543l-.4-.31v-.2h-.28c-.546-.388-1.11-.747-1.7-1.075H55.4c.56.5 1.096 1.028 1.6 1.586zm-21.364-5.927c1.28-.385 2.61-.656 3.982-.79.67-.064 1.347-.097 2.028-.097.687 0 1.36.033 2.032.098 1.37.133 2.702.402 3.98.79.482.145.955.314 1.422.493H34.215c.468-.18.94-.348 1.42-.494zm-3.878 1.626h19.78c.864.47 1.692 1 2.476 1.58h-6.4c-1.918-.71-3.99-1.1-6.154-1.1-2.163 0-4.235.38-6.154 1.09h-6.024c.782-.59 1.61-1.12 2.476-1.59zm-3.86 2.71h4.944c-.84.46-1.636.99-2.383 1.58h-4.17c.5-.56 1.04-1.09 1.6-1.59zm-2.552 2.72h3.812c-.52.5-1.015 1.02-1.474 1.58h-3.462c.35-.55.725-1.08 1.124-1.59zm-1.96 2.99l.158-.28h3.292c-.354.51-.685 1.03-.983 1.58h-3.1c.197-.45.406-.88.634-1.31zm-1.553 3.75c.136-.44.288-.88.452-1.31h3c-.237.52-.45 1.04-.637 1.58h-2.892l.077-.28zm-.365 1.4h2.828c-.14.52-.26 1.05-.354 1.58h-2.776c.08-.538.182-1.06.302-1.588zm-.433 2.72h2.74c-.057.52-.09 1.05-.1 1.58H20.95c.01-.537.037-1.06.085-1.588zm.01 3.91c-.04-.4-.063-.8-.08-1.2h2.72c.02.53.067 1.06.135 1.58h-2.728l-.048-.388zm.545 3.1c-.133-.52-.242-1.05-.336-1.588h2.75c.104.537.235 1.066.39 1.586H21.59zm.896 2.714c-.21-.52-.397-1.047-.57-1.584h2.848c.2.54.424 1.07.674 1.585h-2.952zm1.358 2.714c-.157-.265-.31-.53-.457-.806-.138-.257-.267-.52-.394-.778h3.052c.314.544.657 1.07 1.03 1.58h-3.23zm1.927 2.72l-.12-.15c-.38-.46-.73-.94-1.07-1.436h3.41c.48.56.99 1.09 1.54 1.584h-3.74zm1.03 1.13h2.97l-1.28 1.56c-.59-.49-1.15-1.01-1.68-1.56zm-6.24 16.49c-.27-.19-.55-.387-.82-.586l-.12-.088c-.26-.187-.51-.38-.77-.575l-.07-.053 2.28-2.775.626-.766 3.624-4.41 1.47-1.79.93-1.13.96-1.17.27-.32.07-.09.02-.024.36-.44.55-.666 1.18-1.44.122-.146.15-.18.09-.11.37-.443.325-.4.238-.29-.19.29-.3.45-.314.48-.133.2-.18.27-.87 1.32-.3.454-.33.5-.118.18-.196.297-.31.47-.54.82-.748 1.132-7.297 11.04-.007.004zm2.97 1.822c-.33-.188-.67-.38-1.01-.576-.34-.2-.67-.41-1.01-.63l.01-.01 7.707-11.65.75-1.133.127-.19.32-.473.31-.48.295-.446.75-1.13.46-.695.31-.47.276-.42.043-.06.704-1.068.48-.73.315-.47.252-.387.07-.1.69-1.04.076-.114-.06.114-.59 1.106-.02.03-.254.474-.27.495-.323.613-.604 1.13-.082.154-.27.51-.263.5-.227.42-.608 1.136-.46.85-.19.35-.08.15-.13.23-.142.27-.462.864-6.87 12.86v.01zM27 76.03v.01c-.343-.148-.685-.303-1.025-.46l-.035-.015c-.414-.193-.825-.394-1.233-.6l-.167-.08v-.005l7.16-13.395.177-.33.268-.49.164-.3.1-.193.74-1.39.55-1.023.06-.105.21-.397.27-.506.37-.69.6-1.13.04-.08.27-.496.27-.51.27-.504.6-1.136.32-.602v.01l-.248.6-.46 1.136-.253.61-.215.53-.18.44-.034.085-.426 1.046-.38.94-.22.53-.048.118-.17.41-.296.725-.643 1.582-.095.23-.213.522-.154.38-.06.143-.753 1.854L27 76.044zm3.27 1.216v.01c-.367-.12-.734-.244-1.1-.375-.374-.13-.747-.27-1.117-.41h-.002l.004-.01 5.884-14.4.217-.52.02-.05.193-.474.27-.653.64-1.583.12-.3.212-.522.12-.304.09-.23.558-1.357.258-.613.21-.515v-.01l.117-.28.1-.25.43-1.046.097-.233-.07.236-.33 1.08-.15.5-.018.05-.168.54-.164.54-.452 1.495-.025.09-.14.46-.163.54-.04.13-.173.58-.302 1-.28.92-.06.217-.1.33-.167.545L30.27 77.26zm3.724.974v.01c-.332-.07-.665-.15-.997-.23l-.14-.03c-.44-.11-.88-.222-1.32-.342l-.196-.053.003-.003 4.22-13.916.294-.98.166-.54.163-.54.04-.12.34-1.14.427-1.392.056-.19.103-.35.167-.55.07-.234.48-1.587.06-.21.17-.54.114-.38.05-.17.43-1.414.31-1.01-.2 1.01-.285 1.476-.02.11-.09.453-.107.555-.023.12-.306 1.587-.07.37-.11.56-.04.204-.064.353-.24 1.23-.22 1.13-.07.36-.11.553-.11.552-2.96 15.27zm3.44.56v.005c-.382-.046-.77-.097-1.153-.15-.39-.06-.78-.12-1.175-.19v-.01l2.96-15.27.11-.557.106-.556.11-.573.22-1.135.2-1.024.11-.56.11-.56.11-.573.29-1.49.02-.098.09-.46.11-.56.02-.11.245-1.25-.125 1.25-.016.126-.052.564-.04.44-.012.127-.144 1.46-.06.628-.053.506-.005.065-.052.562-.095.956-.11 1.137-.064.687-.056.56-.054.56-1.52 15.48zm3.844.246c-.384-.004-.773-.02-1.16-.033-.46-.02-.92-.05-1.375-.084l-.18-.01 1.52-15.484.06-.565.056-.56.08-.798.11-1.135.09-.854.06-.562.015-.162.04-.4.07-.73.135-1.35.02-.24.03-.33.06-.56.023-.238.153-1.586.07-.706v-.003l.008.71.01 1.59v.25l.004.57v.566l.008 1.335.01.75v1.135l.008.833.006 1.134.004.843.003.567.003.565.075 15.56zm.914-36.813l-.002-.004v-.003l-.045-.054-.038-.046-.025-.028-.113-.13-.33-.37-.303.36-.15.183-.057.07-.01.01-.04.053-.066.072-.07.09-.02.03-.04.057-.04.047-.115.14-.106.12-.05.064-.1.126-.1.122h-.004l-.25.307c-.232-.26-.402-.57-.483-.922l-.014-.057c-.026-.133-.044-.267-.044-.407l.01-.106c.01-.198.046-.386.11-.567l.015-.053c.12-.32.32-.61.575-.83.368-.322.84-.522 1.37-.525.53 0 1.006.202 1.37.526.258.23.46.51.58.84l.014.05c.063.184.103.37.11.57l.01.104c0 .14-.012.274-.037.408l-.02.055c-.08.35-.25.665-.483.925l-.047-.057-.143-.174-.18-.22-.045-.05v-.004l-.096-.11-.065-.084-.147-.178v-.004l-.04-.05-.048-.052-.006-.01-.075-.09-.067-.08-.068-.077zm2.568 36.69c-.384.03-.77.057-1.153.074-.394.02-.794.037-1.19.04v-.007l-.08-15.557v-.56l-.005-.567-.01-.838-.01-1.135-.01-.848v-1.13l-.006-.735-.01-1.336v-.564l-.004-.568v-.25l-.01-1.13v-.004l.11 1.137.024.24.055.566.03.32.02.24.13 1.35.07.7.044.43.015.14.05.56.09.88.112 1.134.08.8.06.56.05.56 1.53 15.49v.01zm2.734-.333l-.06.01c-.46.08-.917.14-1.376.19l-.17.02-1.525-15.49-.05-.56-.05-.56-.07-.69-.104-1.13-.1-1.004-.055-.562-.003-.016-.054-.554-.06-.58-.142-1.46-.012-.128-.043-.44-.057-.565-.01-.13-.16-1.583-.077-.81.165.815.32 1.585.02.09.115.56.1.486.014.07.31 1.516.1.484.114.56.02.09.09.464.23 1.116.23 1.136.11.54.114.556.112.558L48.57 78.4v.01l-1.08.182zm4.474-.98c-.37.11-.744.21-1.12.31-.383.094-.77.186-1.16.27v-.01l-2.89-14.13-.23-1.12-.11-.552-.114-.557-.066-.31-.23-1.13-.27-1.35-.04-.23-.062-.323-.11-.56-.05-.25-.324-1.584-.032-.155-.11-.552-.087-.42-.027-.135-.273-1.35.4 1.32.05.17.113.38.166.54.06.21.48 1.586.04.132.163.55.14.45.024.09.45 1.49.345 1.138.037.12.167.54.16.542 4.52 14.89v.007h-.005zm2.66-.88l-.1.04c-.432.16-.86.31-1.287.45l-.19.065v-.007l-4.52-14.89-.17-.54-.1-.332-.07-.21-.28-.922-.48-1.58-.075-.25-.163-.54-.102-.345-.067-.21-.41-1.38-.162-.54-.16-.54-.016-.05-.15-.495-.33-1.084-.34-1.137-.06-.213.09.22.48 1.137.417 1 .227.524.03.06.19.47.28.67.49 1.18.17.415.05.115.22.52.207.5.663 1.58.248.585.22.52.01.03.21.493 1.23 2.94 4.79 11.4v.006c-.33.136-.66.257-.982.38zm3.116-1.304c-.36.17-.725.337-1.09.494v-.01l-6.03-14.35-.024-.056-.2-.465-.22-.52-.06-.148-.67-1.583-.4-.946-.08-.19-.14-.33-.223-.53-.304-.726-.466-1.1-.01-.02-.21-.5-.222-.52-.233-.56-.296-.7-.002-.01.38.71.27.51.273.503.264.5.044.078.605 1.13.284.536.27.506.27.5.024.046.604 1.13.745 1.39.104.193.164.303.266.497.175.33 6.82 12.76.344.63v.006c-.345.175-.69.345-1.04.51zm3.38-1.833l-.118.07c-.345.205-.69.41-1.04.606l-.19.11v-.005l-2.184-4.09-4.69-8.774-.463-.862-.143-.27-.12-.23-.27-.49-.45-.855-.6-1.133-.31-.59-.268-.5-.268-.493-.008-.02-.6-1.117-.328-.613-.266-.494-.255-.477-.01-.03-.594-1.1-.532-.998-.07-.136-.002-.01.77 1.135.653.97.106.166.21.31.312.47.54.806.55.812.214.313.11.16.314.47.646.96.764 1.13.23.34.316.47.318.47.21.31.765 1.133.21.313 7.52 11.14.005.007c-.32.21-.65.42-.98.62zM64 71.625c-.317.235-.642.467-.967.697l-.003-.01-7.308-10.816-.767-1.135-.634-.94-.31-.47-.11-.17-.2-.3-.19-.29-.37-.55-1.07-1.59-.01-.013-.06-.09.07.084.02.02 1.307 1.59.55.67.36.44.018.02.07.09.27.325.96 1.17.925 1.135 1.45 1.8.542.663 3.082 3.752 2.897 3.532-.51.39zM8.66 39.05l-.044.583-.03.49c-.02.49-.036.983-.036 1.477 0 .492.016.984.035 1.473l.026.43.05.614.02.29 2.86-.28 2.09-.207-.02-.275-.02-.445-.02-.363c-.01-.414-.03-.827-.03-1.234 0-.422.02-.84.04-1.263l.02-.334.03-.474.02-.277-.706-.07-4.24-.416-.024.28zm67.152.564l.024.413c.022.514.04 1.025.04 1.54 0 .515-.018 1.03-.04 1.546l-.028.46-.037.66 4.4.44c.09-1.034.13-2.064.13-3.104 0-1.02-.04-2.05-.12-3.07l-4.39.43c.02.22.03.45.04.68zm1.156.363v-.024l2.146-.21c.03.61.045 1.22.045 1.827 0 .615-.02 1.238-.05 1.86l-2.15-.212v-.046c.02-.58.04-1.105.04-1.6 0-.488-.02-1.008-.04-1.59zm-63.22-1.848l.063-.45.05-.37c.13-.82.29-1.64.49-2.45l.09-.32.12-.47.08-.268-4.755-1.444-.08.28-.16.59-.114.432c-.116.47-.224.943-.32 1.424-.1.494-.18.98-.255 1.47l-.064.44-.072.61-.034.284 4.944.49.034-.272zm61.884 7.51l-.087.62-.07.51c-.072.47-.15.93-.242 1.4l-.04.19c-.09.46-.195.92-.31 1.38l-.127.48-.156.61 4.225 1.28c.56-1.98.962-4 1.203-6.05L77 45.77l-1.368-.13zm2.397 5.05l-2.07-.63.01-.06c.11-.49.23-.97.31-1.42l.04-.21c.09-.46.173-.936.253-1.45l.01-.06.28.02 1.865.185c-.18 1.21-.42 2.42-.716 3.61zm-10.09-.4l-3.44-1.04-1.48-.45-.08.21-.14.37-.04.1-.2.5-.15.36-.124.276-.156.35-.145.32c-.124.253-.25.51-.386.76l-.078.15c-.2.384-.42.76-.65 1.13-.19.313-.384.62-.593.925-.15.23-.32.44-.48.66l-.485.66-.24.307-.02.02-.13.145c-.303.37-.623.73-.955 1.08l-.212.226-.3.284c-.286.28-.57.56-.87.825l-.1.093.176.215.75.91.55.673.93 1.134.85 1.034.004.007 3.7 4.505v.004l1.304 1.58 1.945 2.37c1.764-1.507 3.37-3.15 4.81-4.905 1.615-1.97 3.02-4.08 4.203-6.3 1.083-2.03 1.983-4.146 2.69-6.323l-4.893-1.47-5.58-1.693zm6.78 8.97c-1.15 2.16-2.52 4.21-4.09 6.11-1.16 1.42-2.44 2.76-3.81 4l-1.2-1.47-1.305-1.59-3.7-4.51-.26-.32-.93-1.136-1.14-1.39-.158-.19-.09-.11.53-.525.12-.127.1-.106.246-.27c.33-.36.64-.7.91-1.037l.17-.213.08-.103.18-.234c.292-.38.57-.76.825-1.13l.015-.027c.358-.518.676-1.04.976-1.56l.336-.598.06-.12.02-.04.19-.38.217-.43.093-.2.06-.13.29-.66.067-.165.087-.214.086-.216.453.135.2.063 3.24.98 5.575 1.69 3.78 1.15c-.62 1.727-1.366 3.42-2.235 5.05zM62.06 55.3l.28.754.59 1.587.42 1.13.59 1.58.423 1.14 2.246 6.03.3-.46 8.173-12.23-10.727.387-2.31.084zm7.66 2.527l-2.39 3.585-1.29-3.453 3.68-.14z"/></svg>