<svg xmlns="http://www.w3.org/2000/svg" width="83.293" height="83.296" viewBox="0 0 83.293 83.296"><path fill="#fff" d="M7.52 44.228l-.034-.604-.032-.54c-.018-.413-.026-.83-.03-1.243l-.005-.25v-.24c0-.43.01-.85.03-1.28l.03-.49.03-.64-4.4-.43c-.08 1.03-.13 2.06-.13 3.1 0 1.02.04 2.04.12 3.06l3.23-.32 1.16-.11zM6.29 41.76l.002.092c.003.453.014.872.033 1.288l.002.07-.08.008-2.066.203c-.02-.6-.04-1.21-.04-1.82 0-.62.02-1.24.05-1.86l2.15.21v.07c-.02.44-.03.89-.03 1.33v.25l.01.17zm10.3 29.236l.013-.015 3.23-3.93.007-.01.443-.54 3.25-3.96.853-1.04.93-1.13 1.3-1.58.155-.18.02-.02-.09-.08c-.3-.26-.59-.55-.87-.83l-.29-.28-.18-.19c-.34-.35-.67-.722-.99-1.11l-.14-.16-.46-.6-.27-.37c-.19-.264-.39-.52-.57-.8-.172-.255-.34-.52-.5-.783-.22-.37-.44-.74-.643-1.13h-.003l-.003-.01-.095-.185c-.123-.24-.25-.48-.36-.73l-.156-.34-.143-.32-.125-.283-.15-.37-.183-.48-.05-.127-.13-.355-.077-.21-4.913 1.49-.826.247L9.784 52l-.01.002-2.713.82-2.17.66c.7 2.143 1.59 4.26 2.69 6.32 1.22 2.274 2.63 4.375 4.21 6.3 1.47 1.797 3.086 3.433 4.817 4.902zM8.566 59.26c-.865-1.616-1.612-3.31-2.235-5.046l1.06-.32 2.72-.822 4.76-1.445.82-.248 2.7-.82 1.2-.36.08.2.1.23.06.15.29.64.05.1.12.26.22.43.17.34.03.06.074.14.33.59c.28.48.566.95.87 1.41l.12.17c.22.32.47.66.77 1.05l.058.07.425.55c.27.33.58.67.917 1.03l.28.3.05.05.14.15c.17.173.348.35.524.513l-.09.107-1.3 1.583-.93 1.132-.27.32-3.246 3.96-.45.544-2.502 3.05c-1.36-1.23-2.63-2.57-3.8-3.994-1.552-1.91-2.93-3.963-4.08-6.12zm10.287 2.238l.424-1.135.595-1.582.424-1.13.595-1.58.31-.81-2.81-.1-10.21-.38.31.46 8.15 12.24 2.24-5.96zm-5.323-3.734l3.68.138-1.294 3.45-2.385-3.588zm-4.836-6.93l-.18-.68-.103-.4c-.24-1.004-.44-2.014-.6-3.025l-.06-.45-.09-.65-1.84.18-2.55.25c.24 2.02.64 4.04 1.21 6.04l3.74-1.13.49-.15zm-3.433-.14c-.3-1.187-.54-2.395-.71-3.612l1.39-.136.76-.075.01.03c.16 1.06.37 2.11.62 3.13l.01.05-2.06.63zm36.39 32.602c23.01 0 41.65-18.646 41.65-41.646C83.3 18.64 64.65 0 41.65 0 18.645.002 0 18.646 0 41.65c0 23 18.646 41.646 41.646 41.646zM1.14 41.65C1.138 30.457 5.668 20.332 13 13 20.333 5.667 30.455 1.132 41.646 1.132c11.19 0 21.315 4.536 28.648 11.87S82.16 30.458 82.162 41.648c-.002 11.187-4.535 21.314-11.868 28.646S52.836 82.162 41.646 82.162c-11.19 0-21.313-4.533-28.646-11.865C5.665 62.964 1.134 52.837 1.132 41.65h.002zm67.45 1.417l.018-.284c.02-.402.032-.81.032-1.215 0-.39-.014-.78-.03-1.17l-.02-.368-.03-.39-3.846.38-.544.054.006.166c.02.372.035.74.04 1.108l.004.1.002.12-.002.11-.028.802-.016.465-.005.14.89.087 3.51.348.03-.453zm-1.096-.79l-2.15-.213.006-.38.006-.116-.004-.127-.006-.34 2.15-.21.01.69-.01.71zm-52.54-9.527l.146-.415.13-.367c.13-.363.27-.724.413-1.08l.057-.13c.15-.355.307-.707.47-1.06l.174-.362.188-.39.12-.246-1.4-.75-2.98-1.59-.13.255-.28.555-.19.39c-.42.902-.797 1.813-1.134 2.742l-.14.398-.2.592-.09.275 1.93.585 2.827.857.083-.26zm7.244-2.05l.126-.22.01-.017.108-.184.21-.35.334-.53.22-.33.126-.18.253-.36.214-.3.37-.48.15-.2.08-.11.01-.02c.36-.44.74-.85 1.13-1.26.37-.39.76-.77 1.16-1.14.26-.24.53-.47.8-.7l.29-.23c.29-.23.58-.45.88-.67.56-.4 1.14-.78 1.74-1.132l.68-.385.043-.026.03-.015.062-.03c.263-.14.54-.277.813-.41l.33-.15.6-.265.38-.15.385-.148.18-.07.39-.146.182-.06.264-.086-.233-.77-1.216-3.99-.277.097-.334.11-.45.16-.74.285-.44.175c-.27.113-.536.233-.8.355l-.35.155c-.38.18-.76.37-1.13.57l-.03.02c-1.16.614-2.25 1.31-3.28 2.07-.396.29-.78.58-1.154.89l-.28.238c-.606.51-1.185 1.03-1.735 1.582-.37.367-.72.747-1.06 1.13-.24.27-.48.54-.71.82l-.204.26-.395.505-.16.21-.31.43-.342.49-.076.11-.294.45-.39.62-.26.44-.17.3-.146.25.57.305.44.24 2.97 1.587.41.22zm47.445-6.224l-.48-.76-.346-.53c-.185-.27-.375-.536-.564-.798l-.316-.444c-.26-.348-.526-.688-.797-1.023l-.127-.16c-.4-.48-.816-.95-1.24-1.41-1.035-1.12-2.14-2.17-3.31-3.13-1.478-1.21-3.05-2.27-4.698-3.2l-.646-.36-.09-.04c-.42-.22-.85-.43-1.27-.64l-.51-.22c-.3-.14-.6-.27-.9-.4l-.57-.23c-.29-.11-.57-.22-.86-.33l-.61-.21-.48-.16-.8 2.64-.48 1.58.38.14.47.17.77.296.47.19c.264.11.525.225.79.35l.416.186c.303.14.6.29.896.45l.27.13c1.354.73 2.65 1.57 3.877 2.51.245.19.494.38.734.575l.02.01c.44.357.86.733 1.274 1.12.54.505 1.065 1.03 1.574 1.583l.57.63.436.5.09.11.09.116c.243.295.48.6.71.91l.23.31.53.756.256.39.46.722.256.435.215.36 3.89-2.075-.257-.444-.346-.574zm-2.875 1.588l-.402-.634-.07-.105-.195-.3c-.18-.264-.36-.526-.55-.786l-.09-.13-.14-.21c-.23-.31-.48-.63-.73-.94l-.02-.03-.07-.1-.11-.13-.29-.34-.05-.06-.09-.11c-.44-.51-.9-1-1.37-1.48-.38-.39-.77-.77-1.18-1.14-.33-.293-.66-.58-1-.86-.22-.18-.44-.35-.67-.52l-.11-.086c-1.29-.99-2.643-1.87-4.04-2.61l-.16-.08-.11-.06c-.31-.16-.62-.316-.93-.464l-.322-.14-.11-.054c-.273-.124-.546-.246-.82-.36l-.34-.14-.147-.06-.65-.25.16-.55.46-1.515.776.3.18.07.38.156.86.39.19.09.3.13c.4.19.81.4 1.21.61l.098.05.385.213.24.14c1.63.92 3.15 1.96 4.54 3.1 1.11.906 2.187 1.92 3.196 3.02.454.494.844.94 1.194 1.37l.05.06.072.093c.284.355.537.68.77.99l.17.24.137.19.54.77.21.33.12.18c.158.24.31.475.46.72l-1.9 1.013zm.477 7.01l-.126-.39-.11-.303c-.13-.35-.27-.7-.41-1.05l-.02-.05c-.15-.36-.32-.72-.48-1.08l-.15-.31-.19-.38-1.85.99-.3.16-1.75.93.02.04.04.11c.19.41.38.81.55 1.23v.02l.092.24c.14.34.27.68.386 1.023l.047.11.01.024.09-.03 1.26-.38.64-.19 2.22-.68zm-3.522-.114l-.184-.455-.19-.44.79-.43.05-.026.17-.09.88-.48.28.65.02.04v.01l.22.58-1.107.33-.96.29zM14.71 43.113l.03.406 3.01-.3 1.38-.14-.005-.15-.018-.46c-.014-.3-.028-.6-.028-.9v-.24c0-.38.01-.76.03-1.13v-.15l-3.47-.34-.92-.09-.04.44-.02.29c-.02.4-.03.81-.03 1.21 0 .39.01.78.03 1.18l.01.34zm1.097-2.232l2.146.22-.007.49.007.48-.314.03-1.84.18-.01-.68.01-.71zm4.464-6.52l.01-.03.05-.12c.12-.34.25-.67.38-1.01l.09-.24.02-.03c.17-.41.36-.82.56-1.22l.05-.09.02-.04-2.04-1.09-.22-.12-1.62-.86-.19.38-.14.31c-.163.35-.32.7-.47 1.06l-.02.06c-.14.35-.272.7-.41 1.06l-.12.36-.12.36.21.07 2.12.64 1.807.55.09.03zm-.5-1.86l-.01.02v.02l-.17.44-2.06-.62.24-.6.03-.07.27-.61.34.18.25.13.476.26.85.457-.187.427v-.01zm-4.24 2.36l-.07.3c-.19.77-.34 1.55-.46 2.34l-.05.36-.05.4.15.02 3.89.38.36.04.01-.03.02-.113c.06-.442.13-.89.22-1.325l.01-.02.028-.13c.077-.375.167-.753.266-1.13l.018-.045.038-.16-4.22-1.28-.12.417zm.92 1.01l1.94.59.13.04-.1.49-.01.08-.07.39-2.14-.21c.08-.45.17-.91.28-1.36zm33.8-20.14l-.28-.09-1.21 3.99-.23.77.26.09.2.07.4.14v.01l.16.06.43.17.37.15.64.28.29.138c.31.146.61.297.905.455l.714.405.044.02.46.28c.428.26.84.534 1.25.822.39.28.77.565 1.14.87h.003l.03.023c.27.22.54.45.8.69.4.36.78.74 1.156 1.13.39.404.77.82 1.13 1.263l.07.08.177.233c.255.326.51.656.75 1l.096.134.065.09c.296.436.585.888.854 1.35l.08.13.01.01.128.22.416-.22 3.975-2.122-.143-.25-.17-.294-.28-.47-.4-.64-.28-.42-.07-.1-.402-.58-.244-.333-.166-.215c-.2-.26-.394-.515-.597-.764-.23-.28-.47-.55-.71-.82-.35-.39-.71-.763-1.07-1.13-.53-.523-1.066-1.024-1.625-1.5l-.1-.086-.28-.242c-.375-.303-.76-.6-1.15-.884-1.052-.775-2.153-1.47-3.3-2.08-.37-.198-.75-.39-1.13-.57l-.35-.154c-.26-.12-.53-.24-.8-.355l-.45-.18-.71-.28-.5-.176-.32-.11zm-18.79-5.32l-.45.15-.62.22-.84.33-.57.23c-.31.13-.62.27-.93.41l-.47.21c-.43.21-.85.42-1.27.64l-.12.06v.01c-.314.17-.62.35-.93.53l-.487.28c-.32.19-.64.4-.95.6l-.42.27-.52.367c-.7.49-1.39.997-2.04 1.53-1.6 1.31-3.046 2.75-4.34 4.3l-.21.25c-.33.4-.64.8-.944 1.21l-.3.416c-.2.277-.4.555-.59.84l-.325.49-.5.795-.32.54-.25.444 3.89 2.075.196-.33.28-.46c.137-.225.28-.45.426-.67l.29-.44.25-.356.19-.27.056-.077.26-.37c.25-.332.5-.66.766-.983l.04-.05.09-.106c.32-.38.653-.76 1-1.13l.335-.36c.4-.42.81-.824 1.24-1.222.41-.38.834-.755 1.275-1.12l.02-.01c.7-.57 1.428-1.11 2.19-1.623.517-.34 1.05-.67 1.596-.98.27-.15.53-.31.8-.45l.03-.016c.395-.21.79-.41 1.19-.6l.39-.18c.27-.12.54-.243.814-.36l.474-.19.74-.28.513-.185.34-.12-.94-3.11-.335-1.107zm-.74 3.76l-.09.04-.39.16-.85.38-.14.07-.26.12c-.44.21-.84.42-1.23.63l-.03.01h-.01l-.665.38-.16.09c-.634.367-1.18.7-1.66 1.03-.79.527-1.564 1.1-2.3 1.7-.33.272-.664.565-.996.862-.4.36-.795.74-1.187 1.13l-.43.44c-.384.41-.72.78-1.04 1.15l-.447.52-.04.05-.395.51-.4.517-.17.233-.1.14c-.17.24-.35.484-.51.733L17 25.4l-.08.125-.36.57-1.9-1.016.457-.716.11-.167.204-.31c.19-.27.38-.54.57-.804l.12-.17.17-.23c.31-.416.6-.798.91-1.17l.083-.1.115-.14c.33-.394.67-.776 1.012-1.154l.46-.47c.86-.9 1.765-1.75 2.71-2.52.57-.47 1.215-.96 1.97-1.48l.2-.15.297-.21.215-.13.19-.12.158-.1c.25-.17.5-.33.76-.48l.236-.14.238-.134.16-.09c.24-.14.48-.28.728-.41l.04-.027.09-.04c.41-.213.82-.42 1.23-.62l.25-.11.198-.09c.3-.14.6-.27.904-.4l.365-.15.18-.07c.25-.1.504-.2.76-.29l.62 2.06-.62.246zm42.2 16.58l-.14-.42c-.16-.45-.34-.91-.52-1.37l-.01-.01c-.18-.44-.38-.89-.59-1.35l-.18-.38-.296-.58-.13-.253-3.95 2.106-.19.105-.24.127.12.25.21.43.17.348c.177.38.34.75.498 1.13l.03.08c.147.356.284.72.416 1.08l.12.336.14.413.09.26 4.76-1.442-.09-.27-.187-.552zm-9.42 5.17c.1.37.19.75.27 1.13l.03.14c.09.45.16.89.22 1.34l.02.1.01.04.35-.03 4.05-.4-.05-.42-.04-.3c-.114-.782-.27-1.562-.46-2.34l-.086-.34-.11-.4-2.76.836-1.46.44.034.15.017.06zm1.75.43l1.62-.49c.11.45.2.91.28 1.37l-2.15.21-.08-.475-.1-.48.443-.132zm-50.27 9.33c.06.38.12.75.2 1.12l.01.03c.08.4.17.79.27 1.18l.07.29.12.44 2.744-.83 1.477-.45-.035-.16-.115-.51c-.13-.53-.235-1.06-.32-1.59l-.093-.56-.022-.14-.89.08-.892.087-2.604.26.044.36.054.39zm2.62.12l.72-.07c.06.32.12.64.19.95l-2.07.63-.15-.67-.01-.022-.01-.022-.12-.643 1.43-.14zm45.84 1.65l.94.28 3.29 1 .11-.39.086-.35c.088-.37.174-.73.246-1.1l.02-.09c.07-.38.14-.75.197-1.12l.05-.37.05-.4-4.04-.4-.35-.03-.02.13-.1.57c-.086.54-.192 1.06-.315 1.59l-.124.52-.03.15zm1.54-1.73l2.15.21-.11.64-.01.04-.002.04-.14.64-2.07-.62c.07-.31.136-.63.19-.95zm9.66-1.62l.05-.63.03-.43c.02-.48.03-.96.03-1.44v-.1c0-.47-.016-.94-.034-1.41l-.027-.46-.04-.59-.02-.29-4.95.49.02.278.022.45.02.366c.016.413.028.82.028 1.233v.03c0 .404-.012.81-.03 1.22l-.02.383-.025.44-.02.273 4.94.49.02-.29zm-.21-7.07l-.06-.46c-.07-.47-.15-.94-.24-1.41l-.01-.04c-.09-.48-.202-.96-.32-1.44l-.11-.422-.17-.61-.077-.28-4.76 1.44.075.265.11.43.1.39c.1.4.19.8.27 1.2l.01.04c.08.394.15.79.21 1.19l.05.336.07.46.04.27 2.37-.23 2.58-.25-.04-.29-.076-.59zm-4.87 8l-.06.46-.05.34c-.063.42-.132.83-.212 1.23l-.003.02c-.08.4-.17.8-.27 1.2l-.09.362-.11.437-.07.27 4.76 1.44.08-.28.16-.578.12-.457c.11-.46.22-.92.31-1.39l.02-.08c.1-.464.18-.935.25-1.403l.063-.47.07-.587.034-.286-4.942-.49-.03.273zm-57.5-20.07l.286-.48.33-.55c.17-.28.35-.55.53-.83l.33-.5c.21-.3.42-.6.64-.9l.28-.39c.32-.422.65-.844.988-1.26.24-.284.49-.57.74-.854.25-.284.507-.566.767-.84 1-1.06 2.064-2.075 3.206-3.01.393-.32.8-.637 1.21-.945 1.35-1.006 2.79-1.93 4.32-2.75l.076-.036c.455-.24.907-.47 1.36-.685l.48-.22c.328-.147.65-.29.977-.43l.577-.23.896-.344.61-.213.51-.183.26-.09-.174-.58-1.274-4.19-.27.09c-2.167.7-4.294 1.59-6.37 2.7l-.02.01h-.01c-2.285 1.22-4.39 2.64-6.33 4.22-1.993 1.635-3.8 3.445-5.393 5.39-1.48 1.8-2.774 3.72-3.894 5.725l-.143.25 4.39 2.35.14-.24zM49.29 6.51H34.03l7.63 10.576L49.29 6.51zm-9.783 2.8h4.31l-2.156 2.987L39.5 9.31zm12.664-.003l.52.184.61.22c.3.11.61.23.91.36l.56.23c.33.14.67.29 1 .45l.45.2c.48.23.95.47 1.42.72 1.95 1.05 3.8 2.28 5.53 3.7 1.7 1.4 3.28 2.97 4.7 4.71.33.4.65.82.97 1.24l.27.388c.21.3.42.596.63.898l.35.52c.18.27.35.54.52.818l.33.566.297.49.13.24 2.167-1.158 2.23-1.19-.14-.25c-1.146-2.054-2.455-3.96-3.896-5.72-1.64-1.995-3.446-3.8-5.4-5.4-1.985-1.624-4.11-3.04-6.35-4.232-2.04-1.09-4.18-2-6.37-2.71l-.27-.09-1.445 4.76.26.09zm20.29 17.385l.19.407c.21.46.42.93.62 1.4l.01.04c.19.46.36.92.53 1.38l.15.43.21.6.2-.06 4.03-1.23c-.63-1.93-1.41-3.84-2.362-5.7l-3.894 2.08.305.62zm3.09-1.152c.52 1.108.99 2.247 1.4 3.403l-2.07.627-.01-.026c-.19-.53-.37-1-.55-1.432l-.01-.01v-.02l-.01-.01c-.18-.444-.39-.918-.64-1.454l-.02-.063 1.91-1.015zM8.87 46.15l.06.406c.15.973.34 1.945.58 2.906l.114.45.165.588.08.278 4.76-1.444-.08-.267-.12-.46-.09-.34c-.1-.404-.2-.81-.28-1.213l-.01-.03c-.08-.4-.15-.794-.21-1.19l-.06-.372-.06-.432-.037-.275-4.526.447-.13.012-.283.03.034.286.08.62zm.45-15.8l.15-.44c.17-.468.35-.933.54-1.395l.02-.052c.195-.46.4-.92.61-1.375l.21-.435.28-.58-.805-.43-3.086-1.65c-.93 1.836-1.72 3.74-2.36 5.694l4.23 1.28.22-.616zm-.354-2.268l-.003.002c-.187.455-.367.925-.554 1.438l-.02.046-2.06-.625c.41-1.152.88-2.29 1.4-3.403l1.9 1.02-.03.05c-.24.506-.45.97-.63 1.42l-.02.052zm-1.22 8.826l.07-.51c.076-.5.16-.993.258-1.49l.004-.02c.1-.5.215-.996.335-1.487l.11-.42.167-.65-3.75-1.13-.473-.14c-.56 1.98-.96 4-1.2 6.05l4.4.44.086-.61zm-.433-3.78c-.14.567-.254 1.067-.35 1.562-.092.463-.18.966-.267 1.537l-.01.06-2.145-.21c.19-1.214.42-2.423.72-3.612l2.07.625v.04zm67.45-.17l.12.465c.122.496.236.992.338 1.493l.01.03c.09.493.18.987.25 1.483l.06.44.09.65 4.4-.44c-.23-2.03-.63-4.05-1.2-6.05l-4.22 1.29.17.63zm3.267-.494c.298 1.187.542 2.396.722 3.61l-2.146.213-.004-.028c-.088-.57-.176-1.07-.263-1.52l-.01-.04v-.02c-.1-.48-.21-.98-.35-1.54l-.02-.07 2.06-.63zM32.594 9.296l1.69 5.578.64 2.103.8 2.634.052.18.23-.06.373-.09.12-.03.53-.11.37-.07.68-.12.33-.05c.33-.05.67-.09 1-.12.73-.07 1.47-.11 2.2-.11.74 0 1.49.04 2.22.12h.02c.33.03.66.07.99.12l.34.06.68.12.37.08.51.113.15.034.352.085.23.057.06-.18.72-2.374.717-2.352v-.01l1.58-5.182.12-.394 1.48-4.9c-2.2-.62-4.463-1.05-6.75-1.275-1.263-.13-2.534-.19-3.81-.19-1.252 0-2.51.06-3.766.18-2.26.226-4.52.648-6.755 1.28l.735 2.42.75 2.48zm5.376-5.05c1.198-.117 2.427-.178 3.655-.178 1.232 0 2.48.06 3.698.184 1.833.182 3.657.5 5.438.946l-1.14 3.775-.11.39-1.57 5.19-.71 2.354-.46 1.535-.24-.055-.39-.077-.72-.127-.12-.02-.23-.037c-.37-.052-.713-.094-1.06-.13-.77-.077-1.56-.12-2.33-.12-.78 0-1.56.04-2.32.117-.324.033-.67.077-1.057.13l-.22.036-.13.02-.71.12-.4.08-.25.05-.542-1.8-.64-2.1-1.7-5.58-.754-2.48-.39-1.3c1.78-.45 3.607-.77 5.44-.95zm24.528 62.74l-3.624-4.418-.88-1.07-.93-1.135-1.3-1.582-.23-.27c.33-.27.65-.56.967-.85.54-.5 1.06-1.03 1.55-1.58l.49-.56.45-.57c.4-.51.77-1.04 1.11-1.58.24-.37.46-.75.67-1.13l.16-.27c.23-.43.44-.87.64-1.31.17-.37.33-.75.48-1.133.19-.496.37-.996.53-1.51l.02-.074c.11-.376.217-.75.31-1.13.13-.52.23-1.05.32-1.59.06-.376.11-.75.16-1.13l.03-.277c.04-.43.07-.87.082-1.31.01-.273.02-.55.02-.83l-.004-.3c-.01-.534-.035-1.063-.08-1.585l-.02-.254c-.03-.297-.066-.59-.105-.88-.075-.536-.17-1.06-.28-1.58-.09-.38-.18-.76-.28-1.13l-.166-.61c-.1-.33-.21-.656-.322-.98-.14-.38-.28-.76-.44-1.133-.23-.54-.48-1.065-.744-1.58l-.13-.26c-.16-.3-.33-.59-.5-.87-.32-.55-.67-1.08-1.04-1.59-.27-.377-.544-.746-.84-1.1l-.03-.036c-.453-.556-.94-1.087-1.443-1.59-.394-.39-.81-.766-1.232-1.13l-.312-.275c-.563-.463-1.156-.9-1.77-1.31-.575-.38-1.17-.74-1.784-1.07l-.12-.06c-1.217-.64-2.497-1.17-3.836-1.576l-.02-.01c-1.347-.406-2.744-.686-4.184-.826-.7-.07-1.414-.108-2.14-.106-.72 0-1.44.04-2.14.11-1.44.14-2.84.42-4.18.823l-.023.01c-1.337.408-2.617.94-3.833 1.58l-.124.06c-.61.327-1.21.686-1.78 1.07-.61.405-1.206.84-1.774 1.31l-.32.27c-.43.368-.84.74-1.238 1.135-.503.5-.985 1.03-1.44 1.582l-.03.03c-.29.358-.567.73-.84 1.1-.366.51-.72 1.04-1.044 1.588-.17.29-.34.58-.496.87l-.133.26c-.27.52-.516 1.047-.743 1.587-.154.375-.3.75-.44 1.13-.11.33-.22.656-.32.986l-.167.6c-.107.37-.198.75-.28 1.13-.11.522-.206 1.05-.28 1.582-.04.29-.08.585-.11.88l-.017.256c-.045.52-.07 1.05-.08 1.58l-.01.3c0 .278.01.557.02.83.02.44.047.878.086 1.31l.03.27c.04.386.094.76.155 1.136.09.537.194 1.06.32 1.586.09.38.19.76.303 1.134l.02.07c.153.514.332 1.014.524 1.51.15.38.31.76.477 1.13.2.44.41.886.648 1.31l.15.27c.22.39.44.77.675 1.14.35.546.72 1.075 1.11 1.587l.447.57.484.56c.49.56 1 1.09 1.546 1.59.31.297.63.58.96.85l-.23.287-1.3 1.584-.17.21-.76.92-.88 1.07L20.836 67l-2.15 2.62-1.122 1.37-.366.44.45.36c.44.347.884.685 1.334 1.01.48.35.968.69 1.46 1.017.505.33 1.017.65 1.537.96.43.255.87.496 1.31.734l.21.12.03.01c.65.34 1.31.67 1.97.97.532.25 1.074.49 1.623.71h.004c.51.21 1.03.41 1.55.59l.14.06c.55.2 1.104.38 1.665.55h.01l.018.01c.59.18 1.18.34 1.77.48l.347.09c.574.14 1.15.27 1.735.38.59.12 1.187.22 1.785.31l.81.102c.32.04.63.086.95.117h.03c.71.077 1.44.12 2.17.15.53.02 1.06.04 1.6.04l.17-.005c.387 0 .77-.02 1.15-.034l.66-.014c.477-.02.948-.06 1.42-.1l.32-.023h.04c.72-.07 1.45-.17 2.16-.28l.66-.12c.365-.06.73-.12 1.094-.192.35-.073.69-.16 1.04-.24l.72-.17.61-.17c.37-.1.74-.2 1.11-.31l.01-.004.41-.13.868-.284.782-.28.74-.29c.307-.12.61-.23.915-.36l.66-.293c.34-.145.67-.286 1-.44.53-.25 1.06-.52 1.588-.798l.008-.006h.007v-.004l.01-.004.476-.27c.486-.27.957-.54 1.41-.815l.36-.23c.386-.233.77-.48 1.14-.73h.007c.5-.34.995-.685 1.475-1.04l.384-.294.62-.47.45-.355-.36-.446-3.27-3.99zm-7.684-9.36l-1.282-1.563h2.97c-.534.55-1.095 1.07-1.688 1.562zm2.838-2.845l-.13.15h-4.118c.548-.49 1.06-1.02 1.54-1.58h3.78c-.337.5-.695.98-1.072 1.44zm-13.04-9.58L44 44.45l-.08-.097.253-.286c.34-.432.573-.956.656-1.527h10.33c-.04.52-.1 1.026-.19 1.527-.07.384-.15.764-.26 1.132-.15.54-.33 1.07-.54 1.58-.16.39-.34.76-.53 1.13-.29.55-.62 1.08-.98 1.58-.28.39-.58.77-.9 1.13-.47.52-.97 1.01-1.51 1.45l-1.19-1.46-.37-.46-.56-.68-1.31-1.58-.8-.98-.13-.158-.76-.925-.55-.66zm-5.78-4.68c-.14.26-.25.54-.315.84l-.016.06H28.11v-.05c.013-.54.057-1.07.13-1.58l.01-.08v.83h10.585zm-.366 2.03c.083.57.315 1.1.656 1.53l.25.29-.567.69-.126.16-.21.25-1.1 1.34-.36.44-.57.7-.53.64-.77.94-.93 1.14-1.2 1.458c-.54-.443-1.04-.932-1.51-1.453-.32-.36-.62-.73-.9-1.13-.36-.5-.69-1.03-.98-1.58-.19-.37-.37-.744-.53-1.13-.22-.51-.39-1.04-.54-1.585-.1-.37-.19-.75-.26-1.134-.09-.5-.16-1.006-.19-1.525h10.33zm-10.17-3.15c.044-.25.097-.5.15-.75.095-.4.204-.8.33-1.19v1.05h25.928v-.44l.146.58c.057.25.104.5.147.75h-11.59c-.507-.33-1.11-.52-1.76-.52s-1.256.2-1.76.53h-11.59zm25.866-2.91l.223.58.107.32h-25.69l.108-.31c.12-.33.25-.65.396-.963v.39h24.856zm-4.967-6.06l.104.08c.36.25.72.53 1.06.82H32.92c.343-.29.7-.56 1.068-.813l.107-.073H49.19zM36.15 29.28c.31-.14.625-.268.946-.38.588-.213 1.193-.386 1.816-.51h5.478c.62.124 1.23.297 1.813.51.32.113.635.24.943.38h-10.99zm15.41 3.15c.23.248.45.503.664.768l.1.123H30.98l.094-.12c.212-.26.433-.52.662-.76h19.82zm1.554 2.023c.186.287.355.584.52.888H29.67c.156-.3.33-.6.51-.89h22.93zm2.03 6.062c.025.277.042.555.046.835v.054H44.795l-.015-.055c-.07-.3-.18-.58-.32-.84h10.68zm4.77 10.896c-.148.28-.303.54-.46.81h-3.607c.37-.51.716-1.03 1.03-1.58h3.43l-.393.78zm.897-1.91h-3.33c.25-.51.48-1.04.68-1.58h3.23c-.17.54-.36 1.07-.57 1.58zm.9-2.71h-3.18c.16-.52.29-1.04.39-1.58h3.13c-.09.54-.2 1.07-.33 1.59zm.55-3.1l-.04.39H59.1c.068-.52.114-1.05.136-1.58h3.1c-.02.4-.042.8-.082 1.2zm.01-3.91c.05.52.08 1.05.09 1.59h-3.11c-.01-.53-.04-1.06-.1-1.58h3.13zm-.43-2.72c.12.53.23 1.05.3 1.59h-3.16c-.09-.53-.21-1.06-.35-1.58h3.21zm-.82-2.71c.16.44.32.87.45 1.31l.08.28h-3.27c-.18-.54-.4-1.06-.63-1.58h3.38zm-1.26-2.71l.16.28c.23.43.44.86.64 1.31h-3.48c-.3-.55-.63-1.07-.98-1.58h3.67zm-1.81-2.73c.4.51.78 1.04 1.13 1.59h-3.85c-.45-.56-.95-1.08-1.47-1.58h4.19zM57 27.76h-4.543l-.4-.31v-.2h-.28c-.546-.388-1.11-.747-1.7-1.075H55.4c.56.5 1.096 1.028 1.6 1.586zm-21.364-5.927c1.28-.385 2.61-.656 3.982-.79.67-.064 1.347-.097 2.028-.097.687 0 1.36.033 2.032.098 1.37.133 2.702.402 3.98.79.482.145.955.314 1.422.493H34.215c.468-.18.94-.348 1.42-.494zm-3.878 1.626h19.78c.864.47 1.692 1 2.476 1.58h-6.4c-1.918-.71-3.99-1.1-6.154-1.1-2.163 0-4.235.38-6.154 1.09h-6.024c.782-.59 1.61-1.12 2.476-1.59zm-3.86 2.71h4.944c-.84.46-1.636.99-2.383 1.58h-4.17c.5-.56 1.04-1.09 1.6-1.59zm-2.552 2.72h3.812c-.52.5-1.015 1.02-1.474 1.58h-3.462c.35-.55.725-1.08 1.124-1.59zm-1.96 2.99l.158-.28h3.292c-.354.51-.685 1.03-.983 1.58h-3.1c.197-.45.406-.88.634-1.31zm-1.553 3.75c.136-.44.288-.88.452-1.31h3c-.237.52-.45 1.04-.637 1.58h-2.892l.077-.28zm-.365 1.4h2.828c-.14.52-.26 1.05-.354 1.58h-2.776c.08-.54.182-1.06.302-1.59zm-.433 2.72h2.74c-.057.52-.09 1.05-.1 1.58H20.95c.01-.54.037-1.06.085-1.59zm.01 3.91c-.04-.4-.063-.8-.08-1.2h2.72c.02.53.067 1.06.135 1.58h-2.728l-.048-.39zm.545 3.1c-.133-.52-.242-1.05-.336-1.59h2.75c.104.53.235 1.06.39 1.58H21.59zm.896 2.71c-.21-.52-.397-1.05-.57-1.59h2.848c.2.54.424 1.07.674 1.58h-2.952zm1.358 2.71c-.157-.27-.31-.53-.457-.81-.138-.26-.267-.52-.394-.78h3.052c.314.54.657 1.07 1.03 1.58h-3.23zm1.927 2.72l-.12-.15c-.38-.46-.73-.94-1.07-1.44h3.41c.48.56.99 1.09 1.54 1.58h-3.74zm1.03 1.13h2.97l-1.28 1.56c-.59-.49-1.15-1.01-1.68-1.56zm-6.24 16.49c-.27-.19-.55-.39-.82-.59l-.12-.09c-.26-.19-.51-.38-.77-.578l-.07-.053 2.28-2.775.63-.768 3.63-4.41 1.47-1.79.93-1.13.96-1.17.27-.32.07-.09.02-.026.36-.44.55-.664 1.18-1.44.13-.148.15-.18.09-.11.37-.445.324-.4.24-.29-.19.29-.3.45-.315.48-.136.2-.18.27-.87 1.32-.3.453-.33.5-.12.18-.196.293-.31.47-.54.82-.745 1.13-7.3 11.04-.006.006zm2.97 1.82c-.33-.19-.67-.38-1.01-.58-.34-.2-.67-.41-1.01-.63l.01-.01 7.71-11.65.75-1.136.13-.19.32-.473.31-.48.3-.445.75-1.13.46-.696.31-.47.28-.42.045-.06.703-1.07.48-.73.315-.47.254-.387.07-.1.69-1.04.077-.115-.06.112-.59 1.11-.02.03-.254.472-.27.494-.323.613-.604 1.13-.08.156-.27.51-.264.5-.23.42-.61 1.134-.46.85-.19.35-.08.15-.13.23-.14.27-.464.864-6.87 12.86v.01zM27 76.03v.01c-.343-.148-.685-.303-1.025-.46l-.035-.015c-.414-.193-.825-.394-1.233-.6l-.167-.08v-.005l7.16-13.395.177-.33.268-.49.164-.3.1-.193.74-1.39.55-1.023.06-.11.21-.4.27-.51.37-.69.6-1.13.04-.08.27-.5.27-.51.27-.504.6-1.134.32-.603v.01l-.25.6-.46 1.14-.26.61-.22.53-.18.44-.036.083-.427 1.046-.38.94-.22.53-.048.116-.17.41-.298.724-.645 1.587-.094.23-.21.523-.155.38-.06.14-.75 1.854L27 76.044zm3.27 1.216v.01c-.367-.12-.734-.244-1.1-.375-.374-.13-.747-.27-1.117-.41h-.002l.01-.01 5.89-14.4.22-.52.02-.05.194-.47.27-.65.64-1.58.12-.3.21-.52.12-.3.09-.23.56-1.356.256-.612.21-.513v-.01l.116-.28.1-.25.43-1.047.097-.234-.07.236-.33 1.08-.15.5-.02.05-.17.54-.164.54-.45 1.494-.026.09-.14.46-.162.54-.04.13-.17.58-.3 1-.28.92-.06.218-.1.33-.17.545-4.52 14.886zm3.724.974v.01c-.332-.07-.665-.15-.997-.23l-.14-.03c-.44-.11-.88-.222-1.32-.342l-.196-.053.01-.003 4.22-13.916.3-.98.17-.54.162-.54.04-.12.34-1.14.427-1.392.053-.19.105-.35.166-.55.07-.234.48-1.587.06-.21.17-.54.115-.38.05-.17.43-1.414.31-1.01-.2 1.01-.285 1.47-.02.11-.09.45-.11.55-.02.12-.308 1.585-.07.37-.11.56-.04.203-.06.355-.24 1.23-.22 1.13-.07.36-.11.552-.11.55-2.96 15.27zm3.44.56v.005c-.382-.046-.77-.097-1.153-.15-.39-.06-.78-.12-1.17-.19v-.01l2.96-15.27.11-.557.11-.556.11-.573.22-1.14.2-1.03.11-.56.11-.56.11-.58.29-1.49.02-.097.09-.46.11-.56.02-.11.25-1.25-.123 1.25-.016.124-.052.564-.04.44-.01.127-.144 1.46-.06.63-.052.51-.003.064-.05.563-.095.956-.11 1.136-.063.684-.056.56-.052.56-1.52 15.48zm3.844.246c-.384-.004-.773-.02-1.16-.033-.46-.02-.92-.05-1.375-.084l-.18-.01 1.52-15.49.06-.57.056-.56.08-.8.11-1.14.09-.853.06-.563.01-.16.04-.4.07-.73.13-1.35.02-.24.03-.33.06-.56.02-.24.15-1.585.07-.71v-.004l.005.71.01 1.59v.25l.005.57v.565l.008 1.336.01.75v1.136l.01.833.006 1.133.003.84.003.565.003.564.077 15.56zm.914-36.813l-.002-.004v-.01l-.045-.06-.038-.05-.025-.03-.113-.13-.33-.37-.31.36-.15.184-.06.07-.01.01-.04.053-.07.072-.07.09-.02.03-.04.055-.04.045-.118.14-.106.12-.05.063-.1.124-.1.12h-.005l-.25.31c-.23-.26-.4-.57-.482-.926l-.016-.056c-.028-.133-.046-.267-.046-.407l.01-.106c.01-.197.046-.385.11-.566l.015-.054c.12-.32.32-.61.576-.83.37-.32.84-.52 1.37-.526.53 0 1.005.2 1.37.524.26.23.46.51.58.84l.013.05c.064.185.104.37.11.57l.01.105c0 .14-.01.273-.036.41l-.02.052c-.08.35-.25.664-.483.924l-.044-.058-.145-.173-.18-.22-.044-.05v-.007l-.095-.11-.064-.083-.145-.177v-.006l-.04-.05-.046-.054-.005-.01-.077-.09-.066-.08-.065-.077zm2.568 36.69c-.384.03-.77.057-1.153.074-.394.02-.794.037-1.19.04v-.007l-.08-15.557v-.56l-.005-.567-.01-.838-.01-1.135-.01-.848v-1.13l-.006-.735-.01-1.336v-.564l-.004-.568v-.25l-.01-1.13v-.004l.11 1.137.024.24.055.566.03.32.02.24.13 1.35.07.7.05.43.02.14.05.56.09.88.118 1.14.08.8.06.56.05.56 1.53 15.49v.01zm2.734-.333l-.06.01c-.46.08-.917.14-1.376.19l-.17.02-1.525-15.49-.05-.56-.05-.56-.07-.69-.104-1.13-.1-1.004-.06-.562-.01-.016-.058-.554-.06-.58-.14-1.46-.01-.128-.046-.44-.058-.565-.01-.13-.16-1.58-.08-.81.164.82.32 1.59.02.09.117.56.1.49.015.07.31 1.515.1.486.115.56.02.09.09.466.23 1.117.23 1.136.11.54.116.557.11.56 3.1 15.23v.01l-1.08.182zm4.474-.98c-.37.11-.744.21-1.12.31-.383.094-.77.186-1.16.27v-.01l-2.89-14.13-.23-1.12-.11-.552-.114-.557-.066-.31-.23-1.13-.27-1.35-.04-.23-.062-.32-.11-.56-.05-.25-.324-1.58-.032-.15-.11-.55-.087-.42-.027-.132-.273-1.35.4 1.32.05.17.113.38.166.54.06.21.48 1.586.04.13.163.55.14.45.024.09.45 1.49.34 1.14.03.12.163.54.16.54 4.52 14.89v.01h-.005zm2.66-.88l-.1.04c-.432.16-.86.31-1.287.45l-.19.065v-.007l-4.52-14.89-.17-.54-.1-.332-.07-.21-.28-.922-.48-1.58-.07-.25-.16-.54-.1-.345-.06-.21-.41-1.38-.162-.54-.16-.54-.015-.05-.15-.5-.33-1.09-.34-1.14-.06-.217.09.22.48 1.136.418 1 .228.523.03.06.19.47.28.67.49 1.18.17.416.05.114.22.52.206.5.663 1.58.247.59.22.52.01.03.21.494 1.23 2.94 4.79 11.4v.003c-.33.134-.66.255-.98.38zm3.116-1.304c-.36.17-.725.337-1.09.494v-.01l-6.03-14.35-.024-.056-.2-.465-.22-.52-.06-.15-.67-1.59-.4-.95-.08-.19-.14-.33-.223-.53-.304-.73-.466-1.1-.01-.02-.21-.5-.222-.52-.233-.56-.296-.7-.002-.01.38.71.27.51.273.504.264.5.05.077.61 1.13.29.54.27.51.27.5.024.044.604 1.13.746 1.39.102.194.164.3.266.496.177.33 6.82 12.76.345.63v.006c-.345.173-.69.343-1.04.51zm3.38-1.833l-.118.07c-.345.205-.69.41-1.04.606l-.19.11v-.01l-2.184-4.09-4.69-8.78-.463-.868-.15-.27-.12-.23-.27-.49-.45-.855-.6-1.134-.31-.59-.27-.5-.27-.494-.01-.02-.6-1.12-.33-.614-.268-.494-.255-.477-.01-.03-.595-1.1-.53-1-.07-.136-.004-.01.77 1.134.655.97.107.164.21.31.314.47.54.805.55.81.215.316.11.16.314.47.646.96.764 1.13.23.34.315.47.32.47.21.31.763 1.13.21.313 7.52 11.14.002.006c-.32.21-.65.42-.98.62zM64 71.625c-.317.235-.642.467-.967.697l-.003-.01-7.308-10.816-.767-1.135-.634-.94-.31-.47-.11-.17-.2-.3-.19-.29-.37-.55-1.07-1.59-.01-.01-.06-.09.07.09.02.02 1.31 1.59.55.67.36.44.02.02.07.09.27.33.96 1.17.93 1.137 1.45 1.8.55.663 3.08 3.752 2.897 3.53-.51.39zM8.66 39.05l-.044.583-.03.49c-.02.49-.036.983-.036 1.477 0 .492.016.984.035 1.473l.026.43.05.614.02.29 2.86-.28 2.09-.207-.02-.275-.02-.445-.02-.363c-.01-.414-.03-.827-.03-1.234 0-.422.02-.84.04-1.263l.02-.334.03-.474.02-.277-.7-.07-4.24-.416-.02.28zm67.152.564l.024.413c.022.514.04 1.025.04 1.54 0 .515-.018 1.03-.04 1.546l-.028.46-.037.66 4.4.44c.09-1.034.13-2.064.13-3.104 0-1.02-.04-2.05-.12-3.07l-4.39.43c.02.22.03.45.04.68zm1.156.363v-.024l2.146-.21c.03.61.045 1.22.045 1.827 0 .615-.02 1.238-.05 1.86l-2.15-.212v-.046c.02-.58.04-1.105.04-1.6 0-.488-.02-1.008-.04-1.59zm-63.22-1.848l.063-.45.05-.37c.13-.82.29-1.64.49-2.45l.09-.32.12-.47.08-.27-4.75-1.45-.08.28-.16.59-.11.43c-.11.47-.22.94-.32 1.42-.1.49-.18.98-.25 1.47l-.062.44-.072.61-.032.28 4.945.49.034-.27zm61.884 7.51l-.087.62-.07.51c-.072.47-.15.93-.242 1.4l-.04.19c-.09.46-.195.92-.31 1.38l-.127.48-.156.61 4.225 1.28c.56-1.98.962-4 1.203-6.05L77 45.77l-1.368-.13zm2.397 5.05l-2.07-.63.01-.06c.11-.49.23-.97.31-1.42l.04-.21c.09-.46.17-.94.25-1.45l.01-.06.28.02 1.86.18c-.18 1.21-.42 2.42-.72 3.61zm-10.09-.4l-3.44-1.04-1.48-.45-.08.21-.14.37-.04.1-.2.5-.15.36-.13.27-.16.35-.15.32c-.126.25-.25.51-.388.76l-.078.15c-.2.38-.42.76-.65 1.13-.19.31-.385.62-.594.92-.15.23-.32.44-.48.66l-.484.66-.24.3-.02.02-.13.146c-.305.37-.625.73-.957 1.08l-.21.226-.3.284c-.29.28-.57.56-.87.828l-.1.094.172.213.75.91.55.673.93 1.132.85 1.034.005.006 3.7 4.504v.006l1.303 1.58 1.945 2.37c1.762-1.508 3.37-3.15 4.81-4.906 1.613-1.97 3.02-4.08 4.2-6.3 1.084-2.03 1.984-4.146 2.69-6.323l-4.88-1.46-5.58-1.692zm6.78 8.97c-1.15 2.16-2.52 4.21-4.09 6.11-1.16 1.42-2.44 2.76-3.81 4l-1.2-1.47-1.31-1.59-3.7-4.51-.26-.32-.93-1.14-1.14-1.39-.16-.19-.09-.11.53-.53.12-.13.1-.11.24-.27c.33-.36.64-.7.91-1.037l.17-.213.08-.1.18-.234c.29-.38.57-.76.822-1.13l.015-.028c.36-.518.68-1.04.98-1.56l.335-.598.06-.12.02-.04.19-.38.217-.43.094-.2.06-.13.29-.66.065-.165.09-.215.083-.217.452.134.2.062 3.24.98 5.574 1.69 3.78 1.15c-.62 1.73-1.368 3.42-2.237 5.05zM62.06 55.3l.28.754.59 1.587.42 1.13.59 1.58.423 1.14 2.246 6.03.3-.46 8.17-12.23-10.73.39-2.31.09zm7.66 2.527l-2.39 3.585-1.29-3.453 3.68-.14z"/></svg>