<?xml version="1.0" standalone="no"?><!-- Generator: Adobe Fireworks CS5.1, Export SVG Extension by Aaron Beall (http://fireworks.abeall.com) . Version: 0.6.0  --><!DOCTYPE svg PUBLIC "-//W3C//DTD SVG 1.1//EN" "http://www.w3.org/Graphics/SVG/1.1/DTD/svg11.dtd"><svg id="" viewBox="0 0 23 25" style="background-color:#ffffff00" version="1.1"	xmlns="http://www.w3.org/2000/svg" xmlns:xlink="http://www.w3.org/1999/xlink" xml:space="preserve"	x="0px" y="0px" width="23px" height="25px">	<g>		<path d="M 22.4441 21.8302 L 13.9932 12.4797 L 22.3307 3.1792 C 23.0747 2.4534 23.0747 1.2768 22.3307 0.5519 C 21.5868 -0.1729 20.3807 -0.1729 19.6378 0.5519 L 11.4688 9.6653 L 3.333 0.5444 C 2.5891 -0.1815 1.3831 -0.1815 0.64 0.5444 C -0.1029 1.2702 -0.1029 2.4468 0.64 3.1717 L 8.9432 12.4806 L 0.5573 21.8312 C -0.1858 22.557 -0.1858 23.7308 0.5573 24.4556 C 1.3011 25.1815 2.5072 25.1815 3.2502 24.4556 L 11.4678 15.296 L 19.7491 24.4556 C 20.4932 25.1815 21.6991 25.1815 22.4421 24.4556 C 23.1852 23.7298 23.1862 22.557 22.4441 21.8312 L 22.4441 21.8302 Z" fill="#ffffff"/>	</g></svg>