<?xml version="1.0" standalone="no"?><!-- Generator: Adobe Fireworks CS5.1, Export SVG Extension by Aaron Beall (http://fireworks.abeall.com) . Version: 0.6.0  --><!DOCTYPE svg PUBLIC "-//W3C//DTD SVG 1.1//EN" "http://www.w3.org/Graphics/SVG/1.1/DTD/svg11.dtd"><svg id="" viewBox="0 0 25 25" style="background-color:#ffffff00" version="1.1"	xmlns="http://www.w3.org/2000/svg" xmlns:xlink="http://www.w3.org/1999/xlink" xml:space="preserve"	x="0px" y="0px" width="25px" height="25px">	<g id="Layer%201">		<path d="M 24.6572 22.3572 L 13.9855 1.0898 C 13.5767 0.3635 13.038 0.0004 12.4997 0 C 11.9611 0.0004 11.4221 0.3635 11.0139 1.0898 L 0.343 22.3572 C -0.4748 23.8113 0.2206 25 1.8883 25 L 23.1116 25 C 24.7785 25 25.475 23.8098 24.6572 22.3572 ZM 12.5005 22.0276 C 11.3519 22.0276 10.4215 21.0976 10.4215 19.9486 C 10.4215 18.7996 11.3519 17.8696 12.5005 17.8696 C 13.6491 17.8696 14.5784 18.7996 14.5784 19.9486 C 14.5784 21.0976 13.6491 22.0276 12.5005 22.0276 ZM 13.929 15.7913 L 11.0712 15.7913 L 10.4215 9.5524 C 10.4215 8.4042 11.3519 7.4738 12.5005 7.4738 C 13.6491 7.4738 14.5784 8.4042 14.5784 9.5524 L 13.929 15.7913 Z" fill="#ffffff"/>	</g></svg>