<?xml version="1.0" encoding="utf-8"?>
<!-- Generator: Adobe Illustrator 15.1.0, SVG Export Plug-In . SVG Version: 6.00 Build 0)  -->
<!DOCTYPE svg PUBLIC "-//W3C//DTD SVG 1.1//EN" "http://www.w3.org/Graphics/SVG/1.1/DTD/svg11.dtd">
<svg version="1.1" id="Layer_1" xmlns="http://www.w3.org/2000/svg" xmlns:xlink="http://www.w3.org/1999/xlink" x="0px" y="0px"
	 width="25px" height="25px" viewBox="0 0 25 25" enable-background="new 0 0 25 25" xml:space="preserve">
<path fill="none" d="z"/>
<path fill="#EC1C24" d="M24.657,22.357L13.984,1.09C13.575,0.364,13.038,0,12.5,0c-0.54,0-1.08,0.363-1.487,1.09L0.343,22.357
	C-0.477,23.811,0.22,25,1.886,25h21.223C24.777,25,25.473,23.811,24.657,22.357L24.657,22.357z M12.5,22.027
	c-1.15,0-2.08-0.93-2.08-2.08s0.93-2.078,2.08-2.078c1.15,0,2.078,0.93,2.078,2.07c0,1.14-0.93,2.08-2.078,2.08V22.027z
	 M13.928,15.791H11.07l-0.65-6.23c0-1.15,0.93-2.08,2.08-2.08c1.15,0,2.077,0.93,2.077,2.08l-0.65,6.24L13.928,15.791z"/>
<path fill="none" d="z"/>
</svg>
