<svg viewBox="0 0 25 25" style="background-color:#ffffff00" xmlns="http://www.w3.org/2000/svg" width="25" height="25"><path d="M24.657 22.357l-10.672-21.267c-.409-.726-.947-1.089-1.486-1.09-.539 0-1.078.363-1.486 1.09l-10.671 21.267c-.818 1.454-.122 2.643 1.545 2.643h21.223c1.667 0 2.363-1.19 1.546-2.643zm-12.157-.33c-1.149 0-2.079-.93-2.079-2.079s.93-2.079 2.079-2.079 2.078.93 2.078 2.079-.929 2.079-2.078 2.079zm1.428-6.236h-2.858l-.65-6.239c0-1.148.93-2.079 2.079-2.079s2.078.93 2.078 2.079l-.649 6.239z" fill="#fff"/></svg>