<?xml version="1.0" standalone="no"?><!-- Generator: Adobe Fireworks CS5.1, Export SVG Extension by Aaron Beall (http://fireworks.abeall.com) . Version: 0.6.0  --><!DOCTYPE svg PUBLIC "-//W3C//DTD SVG 1.1//EN" "http://www.w3.org/Graphics/SVG/1.1/DTD/svg11.dtd"><svg id="" viewBox="0 0 33 25" style="background-color:#ffffff00" version="1.1"	xmlns="http://www.w3.org/2000/svg" xmlns:xlink="http://www.w3.org/1999/xlink" xml:space="preserve"	x="0px" y="0px" width="33px" height="25px">	<path d="M 30.3049 9.7539 L 2.6942 9.7539 C 1.2078 9.7539 0 10.9812 0 12.4916 C 0 14.0021 1.2078 15.2286 2.6942 15.2286 L 30.3049 15.2286 C 31.7947 15.2286 33 14.0021 33 12.4916 C 33 10.9812 31.7947 9.7539 30.3049 9.7539 ZM 2.6942 5.4755 L 30.3049 5.4755 C 31.7947 5.4755 33 4.2483 33 2.7378 C 33 1.2264 31.7947 0 30.3049 0 L 2.6942 0 C 1.2078 0 0 1.2264 0 2.7378 C 0 4.2483 1.2078 5.4755 2.6942 5.4755 ZM 30.3049 19.5245 L 2.6942 19.5245 C 1.2078 19.5245 0 20.7492 0 22.2631 C 0 23.7769 1.2078 25 2.6942 25 L 30.3049 25 C 31.7947 25 33 23.7769 33 22.2631 C 33 20.7492 31.7947 19.5245 30.3049 19.5245 Z" fill="#ffffff"/></svg>