<svg viewBox="0 0 33 25" style="background-color:#ffffff00" xmlns="http://www.w3.org/2000/svg" width="33" height="25"><path d="M30.305 9.754H2.695C1.207 9.754 0 10.98 0 12.492s1.208 2.737 2.694 2.737h27.61C31.794 15.23 33 14 33 12.49c0-1.51-1.205-2.737-2.695-2.737zM2.695 5.476h27.61C31.795 5.476 33 4.25 33 2.738S31.795 0 30.305 0H2.695C1.207 0 0 1.226 0 2.738c0 1.51 1.208 2.738 2.694 2.738zm27.61 14.05H2.695C1.207 19.526 0 20.75 0 22.263S1.208 25 2.694 25h27.61C31.794 25 33 23.78 33 22.265s-1.205-2.74-2.695-2.74z" fill="#fff"/></svg>