<svg viewBox="0 0 33 25" style="background-color:#ffffff00" xmlns="http://www.w3.org/2000/svg" width="33" height="25"><path d="M30.305 9.754h-27.611c-1.486 0-2.694 1.227-2.694 2.738s1.208 2.737 2.694 2.737h27.611c1.49 0 2.695-1.226 2.695-2.737 0-1.51-1.205-2.738-2.695-2.738zm-27.611-4.278h27.611c1.49 0 2.695-1.227 2.695-2.738s-1.205-2.738-2.695-2.738h-27.611c-1.486 0-2.694 1.226-2.694 2.738 0 1.511 1.208 2.738 2.694 2.738zm27.611 14.049h-27.611c-1.486 0-2.694 1.225-2.694 2.739 0 1.514 1.208 2.737 2.694 2.737h27.611c1.49 0 2.695-1.223 2.695-2.737s-1.205-2.739-2.695-2.739z" fill="#fff"/></svg>