<svg xmlns="http://www.w3.org/2000/svg" width="878" height="1024" viewBox="0 0 878 1024"><g stroke="#449FDB" fill="none"><path opacity=".3" enable-background="new" d="M16 0v1024"/><path d="M32 0v1024"/><path opacity=".3" enable-background="new" d="M48 0v1024"/><path d="M64 0v1024"/><path opacity=".3" enable-background="new" d="M80 0v1024"/><path d="M96 0v1024"/><path opacity=".3" enable-background="new" d="M112 0v1024"/><path d="M128 0v1024"/><path opacity=".3" enable-background="new" d="M144 0v1024"/><path d="M160 0v1024"/><path opacity=".3" enable-background="new" d="M176 0v1024"/><path d="M192 0v1024"/><path opacity=".3" enable-background="new" d="M208 0v1024"/><path d="M224 0v1024"/><path opacity=".3" enable-background="new" d="M240 0v1024"/><path d="M256 0v1024"/><path opacity=".3" enable-background="new" d="M272 0v1024"/><path d="M288 0v1024"/><path opacity=".3" enable-background="new" d="M304 0v1024"/><path d="M320 0v1024"/><path opacity=".3" enable-background="new" d="M336 0v1024"/><path d="M352 0v1024"/><path opacity=".3" enable-background="new" d="M368 0v1024"/><path d="M384 0v1024"/><path opacity=".3" enable-background="new" d="M400 0v1024"/><path d="M416 0v1024"/><path opacity=".3" enable-background="new" d="M432 0v1024"/><path d="M448 0v1024"/><path opacity=".3" enable-background="new" d="M464 0v1024"/><path d="M480 0v1024"/><path opacity=".3" enable-background="new" d="M496 0v1024"/><path d="M512 0v1024"/><path opacity=".3" enable-background="new" d="M528 0v1024"/><path d="M544 0v1024"/><path opacity=".3" enable-background="new" d="M560 0v1024"/><path d="M576 0v1024"/><path opacity=".3" enable-background="new" d="M592 0v1024"/><path d="M608 0v1024"/><path opacity=".3" enable-background="new" d="M624 0v1024"/><path d="M640 0v1024"/><path opacity=".3" enable-background="new" d="M656 0v1024"/><path d="M672 0v1024"/><path opacity=".3" enable-background="new" d="M688 0v1024"/><path d="M704 0v1024"/><path opacity=".3" enable-background="new" d="M720 0v1024"/><path d="M736 0v1024"/><path opacity=".3" enable-background="new" d="M752 0v1024"/><path d="M768 0v1024"/><path opacity=".3" enable-background="new" d="M784 0v1024"/><path d="M800 0v1024"/><path opacity=".3" enable-background="new" d="M816 0v1024"/><path d="M832 0v1024"/><path opacity=".3" enable-background="new" d="M848 0v1024"/><path d="M864 0v1024"/><path opacity=".3" enable-background="new" d="M0 16h878"/><path d="M0 32h878"/><path opacity=".3" enable-background="new" d="M0 48h878"/><path d="M0 64h878"/><path opacity=".3" enable-background="new" d="M0 80h878"/><path d="M0 96h878"/><path opacity=".3" enable-background="new" d="M0 112h878"/><path d="M0 128h878"/><path opacity=".3" enable-background="new" d="M0 144h878"/><path d="M0 160h878"/><path opacity=".3" enable-background="new" d="M0 176h878"/><path d="M0 192h878"/><path opacity=".3" enable-background="new" d="M0 208h878"/><path d="M0 224h878"/><path opacity=".3" enable-background="new" d="M0 240h878"/><path d="M0 256h878"/><path opacity=".3" enable-background="new" d="M0 272h878"/><path d="M0 288h878"/><path opacity=".3" enable-background="new" d="M0 304h878"/><path d="M0 320h878"/><path opacity=".3" enable-background="new" d="M0 336h878"/><path d="M0 352h878"/><path opacity=".3" enable-background="new" d="M0 368h878"/><path d="M0 384h878"/><path opacity=".3" enable-background="new" d="M0 400h878"/><path d="M0 416h878"/><path opacity=".3" enable-background="new" d="M0 432h878"/><path d="M0 448h878"/><path opacity=".3" enable-background="new" d="M0 464h878"/><path d="M0 480h878"/><path opacity=".3" enable-background="new" d="M0 496h878"/><path d="M0 512h878"/><path opacity=".3" enable-background="new" d="M0 528h878"/><path d="M0 544h878"/><path opacity=".3" enable-background="new" d="M0 560h878"/><path d="M0 576h878"/><path opacity=".3" enable-background="new" d="M0 592h878"/><path d="M0 608h878"/><path opacity=".3" enable-background="new" d="M0 624h878"/><path d="M0 640h878"/><path opacity=".3" enable-background="new" d="M0 656h878"/><path d="M0 672h878"/><path opacity=".3" enable-background="new" d="M0 688h878"/><path d="M0 704h878"/><path opacity=".3" enable-background="new" d="M0 720h878"/><path d="M0 736h878"/><path opacity=".3" enable-background="new" d="M0 752h878"/><path d="M0 768h878"/><path opacity=".3" enable-background="new" d="M0 784h878"/><path d="M0 800h878"/><path opacity=".3" enable-background="new" d="M0 816h878"/><path d="M0 832h878"/><path opacity=".3" enable-background="new" d="M0 848h878"/><path d="M0 864h878"/><path opacity=".3" enable-background="new" d="M0 880h878"/><path d="M0 896h878"/><path opacity=".3" enable-background="new" d="M0 912h878"/><path d="M0 928h878"/><path opacity=".3" enable-background="new" d="M0 944h878"/><path d="M0 960h878"/><path opacity=".3" enable-background="new" d="M0 976h878"/><path d="M0 992h878"/><path opacity=".3" enable-background="new" d="M0 1008h878"/></g><path fill="#fff" d="M877.714 777.143v73.144c0 9.904-3.619 18.476-10.856 25.714-7.238 7.238-15.81 10.857-25.715 10.857h-804.571c-9.905 0-18.476-3.619-25.714-10.857-7.238-7.238-10.857-15.81-10.857-25.714v-73.144c0-9.904 3.619-18.476 10.857-25.714 7.238-7.237 15.81-10.856 25.714-10.856h804.57c9.905 0 18.477 3.619 25.715 10.856 7.238 7.238 10.857 15.809 10.857 25.714zm0-292.571v73.143c0 9.904-3.619 18.477-10.856 25.714-7.238 7.238-15.81 10.857-25.715 10.857h-804.571c-9.905 0-18.476-3.619-25.714-10.857-7.238-7.237-10.857-15.81-10.857-25.714v-73.143c0-9.905 3.619-18.477 10.857-25.714 7.238-7.238 15.81-10.857 25.714-10.857h804.57c9.905 0 18.477 3.619 25.715 10.857 7.238 7.238 10.857 15.809 10.857 25.714zm0-292.572v73.143c0 9.905-3.619 18.476-10.856 25.714-7.238 7.238-15.81 10.857-25.715 10.857h-804.571c-9.905 0-18.476-3.619-25.714-10.857-7.238-7.238-10.857-15.809-10.857-25.714v-73.143c0-9.905 3.619-18.476 10.857-25.714 7.238-7.238 15.81-10.857 25.714-10.857h804.57c9.905 0 18.477 3.619 25.715 10.857 7.238 7.238 10.857 15.809 10.857 25.714z"/></svg>